<svg version="1.1" xmlns="http://www.w3.org/2000/svg" xmlns:xlink="http://www.w3.org/1999/xlink" width="20.75881" height="56.25089" viewBox="0,0,20.75881,56.25089"><g transform="translate(-231.53491,-155.02052)"><g data-paper-data="{&quot;isPaintingLayer&quot;:true}" fill-rule="nonzero" stroke-width="0" stroke-linecap="butt" stroke-linejoin="miter" stroke-miterlimit="10" stroke-dasharray="" stroke-dashoffset="0" style="mix-blend-mode: normal"><path d="M231.91563,167.61018l1.59869,-12.58966c0,0 6.36239,2.87803 9.54085,3.94903c2.92951,0.98712 8.84404,2.24588 8.84404,2.24588l-0.19984,6.39475z" fill="#5d0000" stroke="none"/><path d="M246.70348,209.37586v-26.97783h2.7977v26.97783z" fill="#5d0000" stroke="none"/><path d="M232.71498,204.97948v-23.58062h4.79606v23.58062z" fill="#5d0000" stroke="none"/><path d="M246.56033,162.97019l0.01262,-1.47455c1.59751,0.51254 3.1961,1.01835 4.79693,1.51572z" fill="#115616" stroke="none"/><path d="M245.55608,211.21915l0.02389,-2.79152c2.1745,-0.04976 2.1745,-2.24914 2.1745,-2.24914c-0.00506,-6.51879 0.39967,-13.04612 0.39967,-19.58391l-0.44337,-2.43962c0,0 -0.33887,-1.69436 -1.90751,-1.81646l0.03151,-3.68102l6.10531,0.05226l-0.2787,32.56167z" fill="#0e9682" stroke="#000000"/><path d="" fill="#197c1f" stroke="none"/><path d="" fill="#197c1f" stroke="none"/><path d="M231.78922,181.05389l0.19737,-23.06027c0.83386,0.00062 1.51726,-0.0016 1.98617,-0.0046c0.62657,-0.004 1.26105,-0.00625 1.902,-0.00816c5.47533,1.82906 10.93275,3.62426 16.41896,5.3165l-0.15346,17.93071z" fill="#16baa2" stroke="none"/><path d="" fill="#197c1f" stroke="none"/><path d="M231.53491,210.76641l0.2787,-32.56167l6.10532,0.05226l-0.06902,8.06334c-0.32033,-0.22503 -0.75317,-0.37707 -1.33806,-0.37707c-2.25,0 -2.25,2.25 -2.25,2.25c0.00229,3.42509 0.26947,6.7833 0.82996,10.16185l-0.03061,0.22961c0,0 0,2.25 2.25,2.25c0.14773,0 0.28576,-0.0097 0.41472,-0.02782l-0.08569,10.01177z" fill="#16baa2" stroke="none"/><path d="" fill="#197c1f" stroke="none"/><path d="" fill="#197c1f" stroke="none"/><path d="M234.11383,172.00657v-15.38736h1.79852v15.38736z" fill="#5d0000" stroke="#5d0000"/><path d="M246.10397,169.00903v-8.99261h1.19901v8.99261z" fill="#5d0000" stroke="none"/></g></g></svg>