<svg version="1.1" xmlns="http://www.w3.org/2000/svg" xmlns:xlink="http://www.w3.org/1999/xlink" width="53.55025" height="37.23187" viewBox="0,0,53.55025,37.23187"><g transform="translate(-181.12049,-180.60671)"><g data-paper-data="{&quot;isPaintingLayer&quot;:true}" fill-rule="nonzero" stroke-width="0" stroke-linecap="butt" stroke-linejoin="miter" stroke-miterlimit="10" stroke-dasharray="" stroke-dashoffset="0" style="mix-blend-mode: normal"><path d="M194.16414,214.50683l-12.34237,2.95316c0,0 0.44413,-6.96892 0.32288,-10.32078c-0.11174,-3.08933 -1.02416,-9.06709 -1.02416,-9.06709l6.05282,-2.07272z" fill="#5d0000" stroke="none"/><path d="M228.0099,185.91457l-25.2374,9.53295l-0.9886,-2.61721l25.2374,-9.53295z" fill="#5d0000" stroke="none"/><path d="M228.84016,200.55414l-22.05936,8.3325l-1.69475,-4.48665l22.05936,-8.3325z" fill="#5d0000" stroke="none"/><path d="M184.64861,202.44651l-1.38389,0.50924c-0.08503,-1.67556 -0.17673,-3.34976 -0.27712,-5.02306z" fill="#115616" stroke="none"/><path d="M230.13972,186.3366l-2.61987,0.96407c-0.81494,-2.01663 -2.87242,-1.23945 -2.87242,-1.23945c-6.09646,2.30823 -12.34569,4.23613 -18.46171,6.54633l-2.12556,1.27684c0,0 -1.46531,0.91573 -1.02523,2.42631l-3.45468,1.27126l-2.1085,-5.7299l30.55949,-11.24535z" fill="#0e9682" stroke="#000000"/><path d="" fill="#197c1f" stroke="none"/><path d="" fill="#197c1f" stroke="none"/><path d="M206.78523,209.87458l-21.64231,7.964c-0.29407,-0.78028 -0.53763,-1.41881 -0.70614,-1.85641c-0.22515,-0.58473 -0.45145,-1.17749 -0.67973,-1.77641c-0.22371,-5.76842 -0.47277,-11.50812 -0.82833,-17.23837l16.82816,-6.19248z" fill="#16baa2" stroke="none"/><path d="" fill="#197c1f" stroke="none"/><path d="M234.67074,199.61319l-30.55949,11.24535l-2.1085,-5.72991l7.56753,-2.78471c-0.09732,0.37919 -0.0866,0.83782 0.12008,1.38498c0.79506,2.10484 2.89991,1.30978 2.89991,1.30978c3.20331,-1.21244 6.25047,-2.64905 9.213,-4.36723l0.22561,-0.0525c0,0 2.10484,-0.79506 1.30978,-2.89991c-0.0522,-0.1382 -0.11005,-0.2639 -0.17257,-0.37813l9.39616,-3.45762z" fill="#16baa2" stroke="none"/><path d="" fill="#197c1f" stroke="none"/><path d="" fill="#197c1f" stroke="none"/><path d="M197.50014,210.89692l-14.39466,5.43731l-0.63552,-1.68249l14.39466,-5.43731z" fill="#5d0000" stroke="#5d0000"/><path d="M190.45912,200.73953l-8.41247,3.17765l-0.42369,-1.12166l8.41247,-3.17765z" fill="#5d0000" stroke="none"/></g></g></svg>