<svg version="1.1" xmlns="http://www.w3.org/2000/svg" xmlns:xlink="http://www.w3.org/1999/xlink" width="104.77965" height="17.72873" viewBox="0,0,104.77965,17.72873"><g transform="translate(-185.26527,-171.80268)"><g data-paper-data="{&quot;isPaintingLayer&quot;:true}" fill-rule="nonzero" stroke-linejoin="miter" stroke-miterlimit="10" stroke-dasharray="" stroke-dashoffset="0" style="mix-blend-mode: normal"><path d="M229.98777,178.07824v-1.91256h55.16981v1.91256z" fill="#3a3a3a" stroke="none" stroke-width="NaN" stroke-linecap="butt"/><path d="M230.13489,180.28503v-1.76543h55.02268v1.76543z" fill="#3a3a3a" stroke="none" stroke-width="0" stroke-linecap="butt"/><path d="M281.33247,179.2552v-2.79527h3.82511v2.79527z" fill="#4b2a00" stroke="none" stroke-width="0" stroke-linecap="butt"/><path d="M247.49498,179.10808v-2.05967h34.7202v2.05967z" fill="#9966ff" stroke="none" stroke-width="0" stroke-linecap="butt"/><path d="M247.34787,181.46199v-6.87664h36.33852v6.87664z" fill="#4d341e" stroke="none" stroke-width="0" stroke-linecap="butt"/><path d="M284.48033,175.71292c0.77189,0 1.39763,0.92215 1.39763,2.05968c0,1.13752 -0.62574,2.05967 -1.39763,2.05967c-0.77189,0 -1.39763,-0.92214 -1.39763,-2.05967c0,-1.13753 0.62574,-2.05968 1.39763,-2.05968z" fill="#4d341e" stroke="none" stroke-width="0" stroke-linecap="butt"/><path d="M224.83859,180.87351v-4.70782h5.44342v4.70782z" fill="#3a3a3a" stroke="none" stroke-width="0" stroke-linecap="butt"/><path d="M217.77685,180.87351v-9.01312h7.20886v9.01312z" fill="#4d341e" stroke="none" stroke-width="0" stroke-linecap="butt"/><path d="M223.03155,173.21895c0.33099,1.38415 -2.22831,3.18239 -5.71636,4.01649c-3.48804,0.83409 -6.58399,0.38819 -6.91498,-0.99595c-0.33099,-1.38415 2.22831,-3.18239 5.71635,-4.01649c3.48804,-0.83409 6.58399,-0.3882 6.91498,0.99594z" fill="#4d341e" stroke="none" stroke-width="0" stroke-linecap="butt"/><path d="M211.24749,180.87351v-6.32615h6.66553v6.32615z" fill="#4d341e" stroke="none" stroke-width="0" stroke-linecap="butt"/><path d="M224.05744,173.03062v-1.17695h6.17902v1.17695z" fill="#3a3a3a" stroke="none" stroke-width="NaN" stroke-linecap="butt"/><path d="M224.45325,175.48611v-1.91256h5.88479v1.91256z" fill="#3a3a3a" stroke="none" stroke-width="NaN" stroke-linecap="butt"/><path d="M229.4317,176.90128v-5.05353h0.88271v5.05353z" fill="#3a3a3a" stroke="none" stroke-width="0" stroke-linecap="butt"/><path d="M230.16729,174.8056v-2.2068h59.87764v2.2068z" fill="#3a3a3a" stroke="none" stroke-width="0" stroke-linecap="butt"/><path d="M210.38703,180.85708v-5.0633h0.99732v5.0633z" fill="#9966ff" stroke="none" stroke-width="0" stroke-linecap="butt"/><g fill="#4d341e" stroke="#4d341e" stroke-width="0.5"><path d="M208.99267,179.92526c-3.38413,2.4506 -6.55397,3.8483 -7.07999,3.12187c-0.52605,-0.72645 1.79089,-3.30193 5.17501,-5.75254c3.38413,-2.4506 6.55397,-3.8483 7.07999,-3.12187c0.52605,0.72645 -1.79089,3.30193 -5.17501,5.75253z" stroke-linecap="butt"/><path d="M205.64952,184.66064l0.87103,-2.01424l1.2521,-1.25211l1.85094,-0.65327l1.85094,-0.10888" stroke-linecap="round"/><path d="M201.84424,184.13601l0.29342,-1.62209l3.72415,0.79875l-0.29342,1.62209z" stroke-linecap="butt"/><path d="M203.90746,183.13634v-2.39532h2.3409v2.39532z" stroke-linecap="butt"/><path d="M206.30278,180.74101v-2.93971h5.38949v2.93971z" stroke-linecap="butt"/><path d="M207.64872,181.54401c-0.77697,0.62819 -1.53416,0.97999 -1.6912,0.78574c-0.15705,-0.19424 0.34551,-0.86097 1.12249,-1.48915c0.77697,-0.62819 1.53416,-0.97999 1.6912,-0.78574c0.15705,0.19424 -0.34551,0.86097 -1.12249,1.48915z" stroke-linecap="butt"/></g><path d="M200.23798,185.28614v-5.13002h5.45064v5.13002z" fill="#4d341e" stroke="none" stroke-width="NaN" stroke-linecap="butt"/><path d="M192.917,181.77846l7.65533,-1.68868l1.13763,5.15729l-7.65533,1.68868z" fill="#4d341e" stroke="none" stroke-width="0" stroke-linecap="butt"/><path d="M185.26527,183.64202l7.89628,-2.12019l1.43424,5.34161l-7.89628,2.12019z" fill="#4d341e" stroke="none" stroke-width="0" stroke-linecap="butt"/><path d="M233.83718,173.87526l31.99522,-0.07546h23.39273" fill="none" stroke="#292929" stroke-width="1" stroke-linecap="round"/><path d="M193.78511,185.92453l12.39453,-2.32874l-0.43833,1.63106l-11.19724,1.89294z" fill="#25211c" stroke="none" stroke-width="0" stroke-linecap="butt"/><path d="M186.35754,188.22195l7.75118,-2.37526l0.68756,1.20854l-7.98513,2.47618z" fill="#25211c" stroke="none" stroke-width="0" stroke-linecap="butt"/><path d="M210.48981,180.82056v-0.65599h14.48219v0.65599z" fill="#25211c" stroke="none" stroke-width="0" stroke-linecap="butt"/><path d="M247.23563,181.51776v-0.79896h36.75213v0.79896z" fill="#25211c" stroke="none" stroke-width="0" stroke-linecap="butt"/></g></g></svg>