<svg version="1.1" xmlns="http://www.w3.org/2000/svg" xmlns:xlink="http://www.w3.org/1999/xlink" width="11.125" height="6.77174" viewBox="0,0,11.125,6.77174"><g transform="translate(-234.4375,-176.61413)"><g data-paper-data="{&quot;isPaintingLayer&quot;:true}" fill-rule="nonzero" stroke-linejoin="miter" stroke-miterlimit="10" stroke-dasharray="" stroke-dashoffset="0" style="mix-blend-mode: normal"><path d="M234.4375,182.69488v-5.45885h7.32453v5.45885z" fill="#ffca35" stroke="none" stroke-width="NaN" stroke-linecap="butt"/><path d="M245.5625,180.2764c0,1.60282 -2.56583,2.48757 -4.11141,2.48757c-1.54558,0 -1.48564,-0.88475 -1.48564,-2.48757c0,-1.60282 0.28555,-3.10948 1.83113,-3.10948c1.54558,0 3.76592,1.50665 3.76592,3.10948z" fill="#ffca35" stroke="none" stroke-width="0" stroke-linecap="butt"/><path d="M241.14014,183.38587v-6.77174h0.62189v6.77174z" fill="#ffca35" stroke="none" stroke-width="0" stroke-linecap="butt"/><path d="M236.66177,178.80147l-1.52941,-1l4.64706,2.35295" fill="none" stroke="#ffca35" stroke-width="0.5" stroke-linecap="round"/><path d="M235.13236,177.97794l3.76471,2.58824" fill="none" stroke="#ffca35" stroke-width="0.5" stroke-linecap="round"/><path d="M235.72059,178.15442l5.05883,3.47059" fill="none" stroke="#ffca35" stroke-width="0.5" stroke-linecap="round"/><path d="M240.89706,182.21097c0,0 -4.23889,0.29228 -5.24625,-0.26131c-1.15014,-0.63206 -0.51846,-4.26584 -0.51846,-4.26584" fill="none" stroke="#ffa236" stroke-width="0.5" stroke-linecap="round"/><path d="M241.50962,177.5625c0,0 1.05053,0.06296 2.01743,0.63842c0.86976,0.51764 1.66451,1.53073 1.69163,1.90441c0.0242,0.33349 -0.47852,1.0063 -1.16308,1.40857" fill="none" stroke="#ffdd36" stroke-width="0.5" stroke-linecap="round"/></g></g></svg>