<svg version="1.1" xmlns="http://www.w3.org/2000/svg" xmlns:xlink="http://www.w3.org/1999/xlink" width="11.125" height="5.59705" viewBox="0,0,11.125,5.59705"><g transform="translate(-234.4375,-177.16692)"><g data-paper-data="{&quot;isPaintingLayer&quot;:true}" fill-rule="nonzero" stroke-linejoin="miter" stroke-miterlimit="10" stroke-dasharray="" stroke-dashoffset="0" style="mix-blend-mode: normal"><path d="M234.4375,182.69488v-5.45885h7.32453v5.45885z" fill="#ffca35" stroke="none" stroke-width="NaN" stroke-linecap="butt"/><path d="M245.5625,180.2764c0,1.60282 -2.56583,2.48757 -4.11141,2.48757c-1.54558,0 -1.48564,-0.88475 -1.48564,-2.48757c0,-1.60282 0.28555,-3.10948 1.83113,-3.10948c1.54558,0 3.76592,1.50665 3.76592,3.10948z" fill="#ffca35" stroke="none" stroke-width="0" stroke-linecap="butt"/><path d="M236.66177,178.80147l-1.52941,-1l4.64706,2.35295" fill="none" stroke="#ffca35" stroke-width="0.5" stroke-linecap="round"/><path d="M235.13236,177.97794l3.76471,2.58824" fill="none" stroke="#ffca35" stroke-width="0.5" stroke-linecap="round"/><path d="M240.77942,181.62501l-5.05883,-3.47059" fill="none" stroke="#ffca35" stroke-width="0.5" stroke-linecap="round"/><path d="M241.50962,177.5625c0,0 1.05053,0.06296 2.01743,0.63842c0.86976,0.51764 1.66451,1.53073 1.69163,1.90441c0.0242,0.33349 -0.47852,1.0063 -1.16308,1.40857" fill="none" stroke="#ffdd36" stroke-width="0.5" stroke-linecap="round"/><path d="M235.15015,182.12312l-0.08897,-4.27061l0.26691,-0.04449l0.04449,4.22612z" fill="#ffa236" stroke="#ffa236" stroke-width="0.5" stroke-linecap="butt"/></g></g></svg>