<svg version="1.1" xmlns="http://www.w3.org/2000/svg" xmlns:xlink="http://www.w3.org/1999/xlink" width="109.10582" height="17.92013" viewBox="0,0,109.10582,17.92013"><g transform="translate(-262.42259,-171.03993)"><g data-paper-data="{&quot;isPaintingLayer&quot;:true}" fill-rule="nonzero" stroke-linejoin="miter" stroke-miterlimit="10" stroke-dasharray="" stroke-dashoffset="0" style="mix-blend-mode: normal"><path d="M308.88739,177.58548v-1.99484h57.54341v1.99484z" fill="#3a3a3a" stroke="none" stroke-width="NaN" stroke-linecap="butt"/><path d="M309.04084,179.88722v-1.84139h57.38995v1.84139z" fill="#3a3a3a" stroke="none" stroke-width="0" stroke-linecap="butt"/><path d="M362.44112,178.81308v-2.91553h3.98968v2.91553z" fill="#4b2a00" stroke="none" stroke-width="0" stroke-linecap="butt"/><path d="M327.14782,178.65963v-2.14828h36.21398v2.14828z" fill="#9966ff" stroke="none" stroke-width="0" stroke-linecap="butt"/><path d="M326.99438,181.11482v-7.1725h37.90193v7.1725z" fill="#4b2a00" stroke="none" stroke-width="0" stroke-linecap="butt"/><path d="M365.72441,175.1184c0.8051,0 1.45776,0.96182 1.45776,2.14829c0,1.18646 -0.65266,2.14828 -1.45776,2.14828c-0.8051,0 -1.45776,-0.96181 -1.45776,-2.14828c0,-1.18647 0.65266,-2.14829 1.45776,-2.14829z" fill="#4b2a00" stroke="none" stroke-width="0" stroke-linecap="butt"/><path d="M303.51667,180.50102v-4.91037h5.67761v4.91037z" fill="#3a3a3a" stroke="none" stroke-width="0" stroke-linecap="butt"/><path d="M296.15111,180.50102v-9.4009h7.51901v9.4009z" fill="#4b2a00" stroke="none" stroke-width="0" stroke-linecap="butt"/><path d="M301.63189,172.51713c0.34523,1.4437 -2.32418,3.31931 -5.9623,4.18929c-3.63811,0.86998 -6.86726,0.40489 -7.21249,-1.0388c-0.34523,-1.4437 2.32418,-3.31931 5.96229,-4.18929c3.63811,-0.86998 6.86726,-0.4049 7.21249,1.03879z" fill="#4b2a00" stroke="none" stroke-width="0" stroke-linecap="butt"/><path d="M289.34084,180.50102v-6.59832h6.9523v6.59832z" fill="#4b2a00" stroke="none" stroke-width="0" stroke-linecap="butt"/><path d="M302.70191,172.3207v-1.22759h6.44486v1.22759z" fill="#3a3a3a" stroke="none" stroke-width="NaN" stroke-linecap="butt"/><path d="M303.11475,174.88183v-1.99484h6.13797v1.99484z" fill="#3a3a3a" stroke="none" stroke-width="NaN" stroke-linecap="butt"/><path d="M308.30739,176.35789v-5.27095h0.92069v5.27095z" fill="#3a3a3a" stroke="none" stroke-width="0" stroke-linecap="butt"/><path d="M309.07463,174.17204v-2.30174h62.45378v2.30174z" fill="#3a3a3a" stroke="none" stroke-width="0" stroke-linecap="butt"/><path d="M288.44336,180.48388v-5.28114h1.04023v5.28114z" fill="#9966ff" stroke="none" stroke-width="0" stroke-linecap="butt"/><g><path d="M286.88901,179.51197c-3.52973,2.55603 -6.83594,4.01387 -7.3846,3.25618c-0.54868,-0.7577 1.86794,-3.44399 5.39766,-6.00003c3.52973,-2.55603 6.83594,-4.01387 7.3846,-3.25618c0.54868,0.7577 -1.86794,3.44399 -5.39766,6.00002z" fill="#4b2a00" stroke="none" stroke-width="0" stroke-linecap="butt"/><path d="M283.40202,184.45108l0.9085,-2.1009l1.30597,-1.30598l1.93057,-0.68138l1.93057,-0.11356" fill="none" stroke="#4b2a00" stroke-width="0.5" stroke-linecap="round"/><path d="M279.43302,183.90388l0.30604,-1.69188l3.88438,0.83312l-0.30604,1.69188z" fill="#9966ff" stroke="#4b2a00" stroke-width="0.5" stroke-linecap="butt"/><path d="M281.58501,182.8612v-2.49838h2.44161v2.49838z" fill="#4b2a00" stroke="none" stroke-width="0" stroke-linecap="butt"/><path d="M284.08339,180.36282v-3.06619h5.62136v3.06619z" fill="#4b2a00" stroke="none" stroke-width="0" stroke-linecap="butt"/><path d="M285.48723,181.20036c-0.8104,0.65522 -1.60016,1.02215 -1.76396,0.81955c-0.16381,-0.2026 0.36037,-0.89801 1.17078,-1.55322c0.8104,-0.65522 1.60016,-1.02215 1.76396,-0.81955c0.16381,0.2026 -0.36037,0.89801 -1.17078,1.55322z" fill="#4b2a00" stroke="#4b2a00" stroke-width="0.5" stroke-linecap="butt"/></g><path d="M277.85766,185.10349v-5.35073h5.68515v5.35073z" fill="#4b2a00" stroke="none" stroke-width="NaN" stroke-linecap="butt"/><path d="M270.2217,181.4449l7.98469,-1.76133l1.18658,5.37917l-7.98469,1.76133z" fill="#4b2a00" stroke="none" stroke-width="0" stroke-linecap="butt"/><path d="M262.42259,183.38864l8.23601,-2.21141l1.49595,5.57142l-8.23601,2.21141z" fill="#4b2a00" stroke="none" stroke-width="0" stroke-linecap="butt"/><path d="M264.57632,187.68378c0,0 4.71508,-1.76262 9.51179,-2.7341c3.45177,-0.69909 7.21145,-1.1979 8.03989,-1.38757c1.59124,-0.3643 1.8055,-3.21597 3.93725,-3.74414c6.19675,-1.53533 16.52655,-0.39843 16.52655,-0.39843" fill="none" stroke="#321c00" stroke-width="2" stroke-linecap="round"/><path d="M328.40769,180.04919h34.8672" fill="none" stroke="#321c00" stroke-width="2" stroke-linecap="round"/><path d="M312.90241,173.20168l33.37177,-0.07871h24.39917" fill="none" stroke="#292929" stroke-width="1" stroke-linecap="round"/></g></g></svg>