<svg version="1.1" xmlns="http://www.w3.org/2000/svg" xmlns:xlink="http://www.w3.org/1999/xlink" width="93.08606" height="82.72953" viewBox="0,0,93.08606,82.72953"><g transform="translate(-193.45697,-138.63524)"><g data-paper-data="{&quot;isPaintingLayer&quot;:true}" fill-rule="nonzero" stroke-linejoin="miter" stroke-miterlimit="10" stroke-dasharray="" stroke-dashoffset="0" style="mix-blend-mode: normal"><path d="" fill="#5d0000" stroke="none" stroke-width="0.5" stroke-linecap="butt"/><path d="M253.90175,173.10897v-4.86959h32.64128v4.86959z" fill="#ff5c2e" stroke="none" stroke-width="0" stroke-linecap="butt"/><path d="M253.20715,221.36476v-32.56286h7.17258v32.56286z" fill="#ff5c2e" stroke="#000000" stroke-width="0" stroke-linecap="butt"/><path d="M236.25338,159.97667v-13.89938c4.141,-1.42398 7.66868,-3.28691 10.50284,-6.04537h14.36214v19.94475z" fill="#ff7b2e" stroke="none" stroke-width="0" stroke-linecap="butt"/><path d="M241.51329,164.45406v-6.51257h13.86701v6.51257z" fill="#ff7b2e" stroke="none" stroke-width="0" stroke-linecap="butt"/><path d="M236.73157,191.31843v-29.30657h23.90864v12.3433c-2.59717,0.27797 -4.63324,1.44915 -5.31256,4.58291c-0.64635,2.98161 2.01805,6.36081 5.31256,8.09389v4.28647z" fill="#ff7b2e" stroke="none" stroke-width="0" stroke-linecap="butt"/><path d="M236.73157,214.49636v-32.56286h7.17259v32.56286z" fill="#ff7b2e" stroke="none" stroke-width="0" stroke-linecap="butt"/><path d="M237.07634,167.38004v-5.44248h46.10159v5.44248z" fill="#ff7b2e" stroke="none" stroke-width="0" stroke-linecap="butt"/><path d="M238.5869,145.46372l0.5085,5.58889" fill="none" stroke="#5d0000" stroke-width="0.5" stroke-linecap="round"/><path d="M241.34377,144.23306l0.33651,12.03074" fill="none" stroke="#5d0000" stroke-width="0.5" stroke-linecap="round"/><path d="M244.25768,142.37434l0.22184,6.67314" fill="none" stroke="#5d0000" stroke-width="0.5" stroke-linecap="round"/><path d="M246.16206,147.04235l0.32903,-6.44822" fill="none" stroke="#5d0000" stroke-width="0.5" stroke-linecap="round"/><path d="M238.29349,157.34568c-1.17477,0 -1.17477,-1 -1.17477,-1l0.01366,-0.23211c0.61236,-3.37691 1.0544,-6.19835 0.24077,-9.53123c-0.13851,0.0387 -0.27674,0.07569 -0.41462,0.11091c0,0 -0.56261,0.14367 -0.7314,-0.33524c-0.16878,-0.47891 0.39383,-0.62259 0.39383,-0.62259c0.21069,-0.05381 0.42234,-0.11203 0.63455,-0.17446c0.07847,-0.26907 0.29884,-0.5632 0.86296,-0.67619c0.37204,-0.07451 0.6515,-0.02176 0.85927,0.08334c2.5918,-1.01944 5.1165,-2.58064 6.88686,-4.30482c0.23656,-0.22995 0.46551,-0.4657 0.68773,-0.70584v0.00001c0.05121,-0.14665 0.18855,-0.34334 0.55695,-0.34334c0.58738,0 0.58738,0.5 0.58738,0.5l-0.12373,0.35577c-0.26545,0.2903 -0.53977,0.57496 -0.82423,0.85191c-1.85024,1.79809 -4.46464,3.42698 -7.1638,4.50727c0.97804,3.7159 0.54142,6.85863 -0.13032,10.58862l0.01366,-0.072c0,0 0,1 -1.17477,1z" fill="#5d0000" stroke="none" stroke-width="0.5" stroke-linecap="butt"/><path d="M240.6124,172.83673c-0.09028,-0.05898 -0.18266,-0.13223 -0.27707,-0.22126c-0.7091,-0.66874 0.00712,-1.61138 0.95086,-2.41204c0.21317,-1.24703 1.12318,-2.55048 2.43366,-1.62845c1.52319,1.07169 -0.53557,5.40244 -2.58313,4.58481c-0.22479,-0.08976 -0.39691,-0.19914 -0.52431,-0.32306z" fill="#5d0000" stroke="none" stroke-width="0.5" stroke-linecap="butt"/><path d="M241.16713,175.46392c0,-0.27614 0.26298,-0.5 0.58738,-0.5c0.3244,0 0.58738,0.22386 0.58738,0.5c0,0.27614 -0.26298,0.5 -0.58738,0.5c-0.3244,0 -0.58738,-0.22386 -0.58738,-0.5z" fill="#5d0000" stroke="none" stroke-width="0.5" stroke-linecap="butt"/><path d="M241.91866,180.03037c-0.58148,0.07071 -0.66455,-0.42426 -0.66455,-0.42426l-0.06943,-0.4325c-0.09567,-0.32788 -0.17268,-0.66026 -0.22939,-0.99477c-0.02034,-0.0507 -0.03137,-0.10506 -0.03137,-0.16162c0,-0.01377 0.00066,-0.02742 0.00194,-0.04091c-0.00399,-0.11294 0.02246,-0.47209 0.51259,-0.52424c0.58285,-0.06202 0.65571,0.43412 0.65571,0.43412c0.05093,0.3517 0.12855,0.70124 0.23021,1.04488l0.0927,0.53361c0,0 0.08307,0.49497 -0.49841,0.56569z" fill="#5d0000" stroke="none" stroke-width="0.5" stroke-linecap="butt"/><path d="M254.19575,145.65303c0.40499,-0.13611 0.8022,-0.21322 1.14983,-0.21418c5.824,0.51403 -0.01656,5.84571 -2.89807,5.72114c-1.76309,-0.07622 -1.25831,-2.49067 -0.98898,-3.35379c0.44961,-1.44085 1.34025,-1.9955 2.73722,-2.15317zM252.7791,148.41044c-0.03127,0.05267 -0.0594,0.10307 -0.08447,0.15126c0.00934,0.01534 0.01934,0.03067 0.02998,0.04599c0.0153,-0.06438 0.03352,-0.13026 0.05449,-0.19725z" fill="#5d0000" stroke="none" stroke-width="0.5" stroke-linecap="butt"/><path d="M245.2531,155.34425c-1.17477,0 -1.17477,-1 -1.17477,-1l0.00907,-0.76449c0.0627,-0.42697 0.12539,-0.85394 0.18809,-1.28092c0,0 0.14571,-0.99228 1.31141,-0.86824c1.1657,0.12403 1.01998,1.11631 1.01998,1.11631c-0.0627,0.42697 -0.12539,0.85394 -0.18809,1.28092l0.00907,0.51642c0,0 0,1 -1.17477,1z" fill="#5d0000" stroke="none" stroke-width="0.5" stroke-linecap="butt"/><path d="M247.98019,139.80618c0.90248,0.64018 0.15042,1.40841 0.15042,1.40841l-0.58684,0.58345c-0.05344,0.04092 -0.1068,0.08165 -0.16009,0.12221c0.11482,1.3378 0.26026,2.683 0.48983,4.00976c0.18241,0.2636 0.3566,0.72964 -0.19089,1.19569c-0.83069,0.70711 -1.66137,0 -1.66137,0l-0.42447,-0.63511c-0.16456,-0.91511 -0.2908,-1.83844 -0.39358,-2.7632c0.00449,1.11027 0.0642,2.14154 0.50605,3.25561l0.14715,0.92631c0,0 0.12973,0.99388 -1.03785,1.10432c-1.16758,0.11043 -1.29732,-0.88345 -1.29732,-0.88345l-0.04095,-0.51472c-0.35845,-0.9254 -0.51132,-1.80131 -0.57644,-2.69603c-0.24789,0.13807 -0.49837,0.27247 -0.75212,0.4032c0.23499,2.79994 0.57441,5.58777 0.79365,8.39352c0.11374,1.4556 -0.20644,2.72834 0.69435,3.97472l0.61043,0.55229c0,0 0.78047,0.74741 -0.09756,1.41177c-0.87803,0.66436 -1.6585,-0.08305 -1.6585,-0.08305l-0.89434,-0.88874c-1.92653,-3.01976 -1.6513,-8.3607 -1.76651,-12.31097c-0.78211,0.30714 -1.60546,0.58544 -2.48494,0.83498c0,0 -1.11448,0.31623 -1.48598,-0.63246c-0.3715,-0.94868 0.74299,-1.26491 0.74299,-1.26491c1.25672,-0.35659 2.38205,-0.77542 3.43164,-1.25765c0.13191,-0.13124 0.32474,-0.24127 0.60637,-0.28964c0.78028,-0.38705 1.52275,-0.81116 2.25216,-1.27286c0.08319,-0.2961 0.3403,-0.75368 1.13494,-0.75369c0.64152,-0.44488 1.28293,-0.91959 1.94156,-1.4245l0.35364,-0.37723c0,0 0.75206,-0.76822 1.65456,-0.12804z" fill="#5d0000" stroke="none" stroke-width="0.5" stroke-linecap="butt"/><path d="M252.78051,153.97982c-1.17072,0.08305 -1.26827,-0.9135 -1.26827,-0.9135l-0.09328,-1.13427c0.0627,-0.58709 0.12539,-1.17417 0.18809,-1.76126c0,0 0.10636,-0.99589 1.2763,-0.90536c1.16994,0.09054 1.06359,1.08643 1.06359,1.08643c-0.0627,0.58709 -0.12539,1.17417 -0.18809,1.76126l0.09482,0.78711c0,0 0.09756,0.99655 -1.07315,1.07959z" fill="#5d0000" stroke="none" stroke-width="0.5" stroke-linecap="butt"/><path d="M241.30304,182.30494c-1.17477,0 -1.17477,-1 -1.17477,-1l0.0026,-0.78703c0.14257,-1.82008 0.35879,-3.58485 0.73175,-5.38052c-3.8621,-1.72154 -0.02334,-7.66718 3.48069,-8.63814c0,0 0.61534,-0.16117 1.07512,0.14289c1.47811,-0.23857 2.83177,0.45015 3.33517,1.96679c0.80063,2.41208 -2.6051,6.85681 -5.59764,6.97422c-0.34704,1.691 -0.54643,3.35237 -0.68077,5.0678l0.0026,0.654c0,0 0,1 -1.17477,1z" fill="#5d0000" stroke="none" stroke-width="0.5" stroke-linecap="butt"/><path d="M250.93786,186.21714c-0.10168,-0.04827 -0.20496,-0.11432 -0.30824,-0.20224c-0.83069,-0.70711 0,-1.41421 0,-1.41421l0.02975,-0.01898l0.76417,-1.44553l0.10761,0.04122l0.0384,-0.247c0.82617,-0.41467 1.52367,-1.3208 2.47851,-1.244c2.49638,0.2008 2.08258,5.66914 0.20551,6.30668c-3.18893,1.08312 -3.74289,-0.18566 -3.31572,-1.77593z" fill="#5d0000" stroke="none" stroke-width="0.5" stroke-linecap="butt"/><path d="M242.19735,186.82889c0,-0.55228 0.52597,-1 1.17477,-1c0.6488,0 1.17477,0.44772 1.17477,1c0,0.55228 -0.52597,1 -1.17477,1c-0.6488,0 -1.17477,-0.44772 -1.17477,-1z" fill="#5d0000" stroke="none" stroke-width="0.5" stroke-linecap="butt"/><path d="M256.02251,169.85675c0,-0.55228 0.52597,-1 1.17477,-1c0.6488,0 1.17477,0.44772 1.17477,1c0,0.55228 -0.52597,1 -1.17477,1c-0.6488,0 -1.17477,-0.44772 -1.17477,-1z" fill="#5d0000" stroke="none" stroke-width="0.5" stroke-linecap="butt"/><path d="M238.76373,207.42574c-1.17477,0 -1.17477,-1 -1.17477,-1l0.01181,-0.70182c0.34968,-2.08362 0.88664,-4.47798 0.83486,-6.56373c-0.01582,-0.63755 -0.67086,-1.31058 -0.35545,-1.88899c0.06196,-0.11362 0.13913,-0.21732 0.22808,-0.31333l-0.0654,-0.03542l0.64772,-0.86643c0.20664,-0.28635 0.57799,-0.47733 1.00172,-0.47733c0.6488,0 1.17477,0.44772 1.17477,1c0,0.08494 -0.01244,0.16742 -0.03587,0.24616l-0.27638,1.01944c0,0 -0.07052,0.26012 -0.29657,0.48055c0.85668,1.8455 -0.28283,6.19961 -0.53159,7.68192l0.01181,0.41898c0,0 0,1 -1.17477,1z" fill="#5d0000" stroke="none" stroke-width="0.5" stroke-linecap="butt"/><path d="M193.45697,172.19278v-4.86959h32.64128v4.86959z" data-paper-data="{&quot;index&quot;:null}" fill="#ff5c2e" stroke="none" stroke-width="0" stroke-linecap="butt"/><path d="M219.62027,220.44857v-32.56286h7.17258v32.56286z" data-paper-data="{&quot;index&quot;:null}" fill="#ff5c2e" stroke="#000000" stroke-width="0" stroke-linecap="butt"/><path d="M218.88164,159.06048v-19.94475h14.36214c2.83416,2.75846 6.36184,4.62139 10.50284,6.04537v13.89938z" data-paper-data="{&quot;index&quot;:null}" fill="#ff7b2e" stroke="none" stroke-width="0" stroke-linecap="butt"/><path d="M224.6197,163.53787v-6.51257h13.86701v6.51257z" data-paper-data="{&quot;index&quot;:null}" fill="#ff7b2e" stroke="none" stroke-width="0" stroke-linecap="butt"/><path d="M219.35979,190.40224v-4.28647c3.29451,-1.73308 5.95891,-5.11228 5.31256,-8.09389c-0.67932,-3.13376 -2.71539,-4.30494 -5.31256,-4.58291v-12.3433h23.90864v29.30657z" data-paper-data="{&quot;index&quot;:null}" fill="#ff7b2e" stroke="none" stroke-width="0" stroke-linecap="butt"/><path d="M236.09584,213.58017v-32.56286h7.17259v32.56286z" data-paper-data="{&quot;index&quot;:null}" fill="#ff7b2e" stroke="none" stroke-width="0" stroke-linecap="butt"/><path d="M196.82207,166.46385v-5.44248h46.10159v5.44248z" data-paper-data="{&quot;index&quot;:null}" fill="#ff7b2e" stroke="none" stroke-width="0" stroke-linecap="butt"/><path d="M241.4131,144.54753l-0.5085,5.58889" data-paper-data="{&quot;index&quot;:null}" fill="none" stroke="#5d0000" stroke-width="0.5" stroke-linecap="round"/><path d="M238.65623,143.31687l-0.33651,12.03074" data-paper-data="{&quot;index&quot;:null}" fill="none" stroke="#5d0000" stroke-width="0.5" stroke-linecap="round"/><path d="M235.74232,141.45815l-0.22184,6.67314" data-paper-data="{&quot;index&quot;:null}" fill="none" stroke="#5d0000" stroke-width="0.5" stroke-linecap="round"/><path d="M233.83794,146.12616l-0.32903,-6.44822" data-paper-data="{&quot;index&quot;:null}" fill="none" stroke="#5d0000" stroke-width="0.5" stroke-linecap="round"/><path d="M241.70653,156.4295c-1.17477,0 -1.17477,-1 -1.17477,-1l0.01366,0.072c-0.67174,-3.72999 -1.10836,-6.87272 -0.13032,-10.58862c-2.69916,-1.08029 -5.31356,-2.70918 -7.1638,-4.50727c-0.28446,-0.27695 -0.55878,-0.56161 -0.82423,-0.85191l-0.12373,-0.35577c0,0 0,-0.5 0.58738,-0.5c0.3684,0 0.50574,0.19669 0.55695,0.34334v-0.00001c0.22222,0.24014 0.45117,0.47589 0.68773,0.70584c1.77036,1.72418 4.29506,3.28538 6.88686,4.30482c0.20777,-0.1051 0.48723,-0.15785 0.85927,-0.08334c0.56412,0.11299 0.78449,0.40712 0.86296,0.67619c0.21221,0.06243 0.42386,0.12065 0.63455,0.17446c0,0 0.56261,0.14368 0.39383,0.62259c-0.16879,0.47891 -0.7314,0.33524 -0.7314,0.33524c-0.13788,-0.03522 -0.27611,-0.07221 -0.41462,-0.11091c-0.81363,3.33288 -0.37159,6.15432 0.24077,9.53123l0.01366,0.23211c0,0 0,1 -1.17477,1z" data-paper-data="{&quot;index&quot;:null}" fill="#5d0000" stroke="none" stroke-width="0.5" stroke-linecap="butt"/><path d="M239.38759,171.92054c-0.1274,0.12392 -0.29952,0.2333 -0.52431,0.32306c-2.04756,0.81763 -4.10632,-3.51312 -2.58313,-4.58481c1.31048,-0.92203 2.22049,0.38142 2.43366,1.62845c0.94374,0.80066 1.65996,1.7433 0.95086,2.41204c-0.09441,0.08903 -0.18679,0.16228 -0.27707,0.22126z" data-paper-data="{&quot;index&quot;:null}" fill="#5d0000" stroke="none" stroke-width="0.5" stroke-linecap="butt"/><path d="M238.24549,175.04773c-0.3244,0 -0.58738,-0.22386 -0.58738,-0.5c0,-0.27614 0.26298,-0.5 0.58738,-0.5c0.3244,0 0.58738,0.22386 0.58738,0.5c0,0.27614 -0.26298,0.5 -0.58738,0.5z" data-paper-data="{&quot;index&quot;:null}" fill="#5d0000" stroke="none" stroke-width="0.5" stroke-linecap="butt"/><path d="M237.58293,178.54849l0.0927,-0.53361c0.10166,-0.34364 0.17928,-0.69318 0.23021,-1.04488c0,0 0.07286,-0.49614 0.65571,-0.43412c0.49013,0.05215 0.51658,0.4113 0.51259,0.52424c0.00128,0.01349 0.00194,0.02714 0.00194,0.04091c0,0.05656 -0.01103,0.11092 -0.03137,0.16162c-0.05671,0.33451 -0.13372,0.66689 -0.22939,0.99477l-0.06943,0.4325c0,0 -0.08307,0.49497 -0.66455,0.42426c-0.58148,-0.07072 -0.49841,-0.56569 -0.49841,-0.56569z" data-paper-data="{&quot;index&quot;:null}" fill="#5d0000" stroke="none" stroke-width="0.5" stroke-linecap="butt"/><path d="M228.54147,146.89001c0.26933,0.86312 0.77411,3.27757 -0.98898,3.35379c-2.88151,0.12457 -8.72207,-5.20711 -2.89807,-5.72114c0.34763,0.00096 0.74484,0.07807 1.14983,0.21418c1.39697,0.15767 2.28761,0.71232 2.73722,2.15317zM227.27539,147.6915c0.01064,-0.01532 0.02064,-0.03065 0.02998,-0.04599c-0.02507,-0.04819 -0.0532,-0.09859 -0.08447,-0.15126c0.02097,0.06699 0.03919,0.13287 0.05449,0.19725z" data-paper-data="{&quot;index&quot;:null}" fill="#5d0000" stroke="none" stroke-width="0.5" stroke-linecap="butt"/><path d="M234.74691,154.42806c-1.17477,0 -1.17477,-1 -1.17477,-1l0.00907,-0.51642c-0.0627,-0.42698 -0.12539,-0.85395 -0.18809,-1.28092c0,0 -0.14572,-0.99228 1.01998,-1.11631c1.1657,-0.12404 1.31141,0.86824 1.31141,0.86824c0.0627,0.42698 0.12539,0.85395 0.18809,1.28092l0.00907,0.76449c0,0 0,1 -1.17477,1z" data-paper-data="{&quot;index&quot;:null}" fill="#5d0000" stroke="none" stroke-width="0.5" stroke-linecap="butt"/><path d="M232.01982,138.88998c0.9025,-0.64018 1.65456,0.12804 1.65456,0.12804l0.35364,0.37723c0.65863,0.50491 1.30004,0.97962 1.94156,1.4245c0.79464,0.00001 1.05175,0.45759 1.13494,0.75369c0.72941,0.4617 1.47188,0.88581 2.25216,1.27286c0.28163,0.04837 0.47446,0.1584 0.60637,0.28964c1.04959,0.48223 2.17492,0.90106 3.43164,1.25765c0,0 1.11449,0.31623 0.74299,1.26491c-0.3715,0.94869 -1.48598,0.63246 -1.48598,0.63246c-0.87948,-0.24954 -1.70283,-0.52784 -2.48494,-0.83498c-0.11521,3.95027 0.16002,9.29121 -1.76651,12.31097l-0.89434,0.88874c0,0 -0.78047,0.74741 -1.6585,0.08305c-0.87803,-0.66436 -0.09756,-1.41177 -0.09756,-1.41177l0.61043,-0.55229c0.90079,-1.24638 0.58061,-2.51912 0.69435,-3.97472c0.21924,-2.80575 0.55866,-5.59358 0.79365,-8.39352c-0.25375,-0.13073 -0.50423,-0.26513 -0.75212,-0.4032c-0.06512,0.89472 -0.21799,1.77063 -0.57644,2.69603l-0.04095,0.51472c0,0 -0.12974,0.99388 -1.29732,0.88345c-1.16758,-0.11044 -1.03785,-1.10432 -1.03785,-1.10432l0.14715,-0.92631c0.44185,-1.11407 0.50156,-2.14534 0.50605,-3.25561c-0.10278,0.92476 -0.22902,1.84809 -0.39358,2.7632l-0.42447,0.63511c0,0 -0.83068,0.70711 -1.66137,0c-0.54749,-0.46605 -0.3733,-0.93209 -0.19089,-1.19569c0.22957,-1.32676 0.37501,-2.67196 0.48983,-4.00976c-0.05329,-0.04056 -0.10665,-0.08129 -0.16009,-0.12221l-0.58684,-0.58345c0,0 -0.75206,-0.76823 0.15042,-1.40841z" data-paper-data="{&quot;index&quot;:null}" fill="#5d0000" stroke="none" stroke-width="0.5" stroke-linecap="butt"/><path d="M227.21948,153.06363c-1.17071,-0.08304 -1.07315,-1.07959 -1.07315,-1.07959l0.09482,-0.78711c-0.0627,-0.58709 -0.12539,-1.17417 -0.18809,-1.76126c0,0 -0.10635,-0.99589 1.06359,-1.08643c1.16994,-0.09053 1.2763,0.90536 1.2763,0.90536c0.0627,0.58709 0.12539,1.17417 0.18809,1.76126l-0.09328,1.13427c0,0 -0.09755,0.99655 -1.26827,0.9135z" data-paper-data="{&quot;index&quot;:null}" fill="#5d0000" stroke="none" stroke-width="0.5" stroke-linecap="butt"/><path d="M238.69698,181.38876c-1.17477,0 -1.17477,-1 -1.17477,-1l0.0026,-0.654c-0.13434,-1.71543 -0.33373,-3.3768 -0.68077,-5.0678c-2.99254,-0.11741 -6.39827,-4.56214 -5.59764,-6.97422c0.5034,-1.51664 1.85706,-2.20536 3.33517,-1.96679c0.45978,-0.30406 1.07512,-0.14289 1.07512,-0.14289c3.50403,0.97096 7.34279,6.9166 3.48069,8.63814c0.37296,1.79567 0.58918,3.56044 0.73175,5.38052l0.0026,0.78703c0,0 0,1 -1.17477,1z" data-paper-data="{&quot;index&quot;:null}" fill="#5d0000" stroke="none" stroke-width="0.5" stroke-linecap="butt"/><path d="M229.06215,185.30096c0.42717,1.59027 -0.12679,2.85905 -3.31572,1.77593c-1.87707,-0.63754 -2.29087,-6.10588 0.20551,-6.30668c0.95484,-0.0768 1.65234,0.82933 2.47851,1.244l0.0384,0.247l0.10761,-0.04122l0.76417,1.44553l0.02975,0.01898c0,0 0.83069,0.7071 0,1.41421c-0.10328,0.08792 -0.20656,0.15397 -0.30824,0.20224z" data-paper-data="{&quot;index&quot;:null}" fill="#5d0000" stroke="none" stroke-width="0.5" stroke-linecap="butt"/><path d="M236.62788,186.9127c-0.6488,0 -1.17477,-0.44772 -1.17477,-1c0,-0.55228 0.52597,-1 1.17477,-1c0.6488,0 1.17477,0.44772 1.17477,1c0,0.55228 -0.52597,1 -1.17477,1z" data-paper-data="{&quot;index&quot;:null}" fill="#5d0000" stroke="none" stroke-width="0.5" stroke-linecap="butt"/><path d="M222.80272,169.94056c-0.6488,0 -1.17477,-0.44772 -1.17477,-1c0,-0.55228 0.52597,-1 1.17477,-1c0.6488,0 1.17477,0.44772 1.17477,1c0,0.55228 -0.52597,1 -1.17477,1z" data-paper-data="{&quot;index&quot;:null}" fill="#5d0000" stroke="none" stroke-width="0.5" stroke-linecap="butt"/><path d="M241.2363,206.50955c-1.17477,0 -1.17477,-1 -1.17477,-1l0.01181,-0.41898c-0.24876,-1.48231 -1.38827,-5.83642 -0.53159,-7.68192c-0.22605,-0.22043 -0.29657,-0.48055 -0.29657,-0.48055l-0.27638,-1.01944c-0.02343,-0.07874 -0.03587,-0.16122 -0.03587,-0.24616c0,-0.55228 0.52597,-1 1.17477,-1c0.42373,0 0.79508,0.19098 1.00172,0.47733l0.64772,0.86643l-0.0654,0.03542c0.08895,0.09601 0.16612,0.19971 0.22808,0.31333c0.31541,0.57841 -0.33963,1.25144 -0.35545,1.88899c-0.05178,2.08575 0.48518,4.48011 0.83486,6.56373l0.01181,0.70182c0,0 0,1 -1.17477,1z" data-paper-data="{&quot;index&quot;:null}" fill="#5d0000" stroke="none" stroke-width="0.5" stroke-linecap="butt"/></g></g></svg>