<svg version="1.1" xmlns="http://www.w3.org/2000/svg" xmlns:xlink="http://www.w3.org/1999/xlink" width="83.94804" height="81.89725" viewBox="0,0,83.94804,81.89725"><g transform="translate(-195.22408,-139.61832)"><g data-paper-data="{&quot;isPaintingLayer&quot;:true}" fill-rule="nonzero" stroke-width="0" stroke-linecap="butt" stroke-linejoin="miter" stroke-miterlimit="10" stroke-dasharray="" stroke-dashoffset="0" style="mix-blend-mode: normal"><path d="M195.22408,173.37633v-4.86959h27.78529v4.86959z" fill="#bb7321" stroke="none"/><path d="M239.82651,149.62496l-0.39967,-6.99425l9.19244,-0.5995l1.19902,4.39639z" fill="#7d1919" stroke="none"/><path d="M242.82404,185.19573v-21.38243h8.59294v21.38243z" fill="#7d1919" stroke="none"/><path d="M253.829,221.51557v-32.56286h6.10553v32.56286z" fill="#bb7321" stroke="#000000"/><path d="M239.22845,159.87633c0,0 3.59249,-4.1007 3.40656,-8.60242c-0.19283,-4.66883 -4.14312,-9.769 -2.91487,-11.17336l20.67417,-0.16897v19.94475z" fill="#ee922a" stroke="none"/><path d="M243.70585,164.35371v-6.51257h11.80404v6.51257z" fill="#ee922a" stroke="none"/><path d="M239.80447,215.1866v-32.56286h6.10554v32.56286z" fill="#ee922a" stroke="none"/><path d="M239.92898,167.2797v-5.44248h39.24314v5.44248z" fill="#ee922a" stroke="none"/><path d="M239.6355,191.21808v-29.30657h20.35179v29.30657zM250.41781,169.86018l-4.14475,-1.85033l-2.64967,-0.65131c0,0 -4.12674,4.61205 -4.07301,7.05852c0.06124,2.7883 4.42088,8.78031 4.42088,8.78031c0,0 5.49273,-4.28526 6.60101,-7.60881c0.9492,-2.84649 -0.15447,-5.72838 -0.15447,-5.72838z" fill="#ee922a" stroke="none"/><path d="M230.0564,146.4276l1.19902,-4.39639l9.19244,0.5995l-0.39967,6.99425z" data-paper-data="{&quot;index&quot;:null}" fill="#7d1919" stroke="none"/><path d="M228.45772,185.19573v-21.38243h8.59294v21.38243z" data-paper-data="{&quot;index&quot;:null}" fill="#7d1919" stroke="none"/><path d="M220.44708,220.6707v-32.56286h6.10553v32.56286z" data-paper-data="{&quot;index&quot;:null}" fill="#bb7321" stroke="#000000"/><path d="M219.48039,159.87633v-19.94475c0,0 17.80988,-0.95472 21.33483,0.46926c0,0 -1.91967,7.02644 -1.94868,10.3709c-0.02719,3.13363 1.77971,9.10459 1.77971,9.10459z" data-paper-data="{&quot;index&quot;:null}" fill="#bb7321" stroke="none"/><path d="M224.36481,164.35371v-6.51257h11.80404v6.51257z" data-paper-data="{&quot;index&quot;:null}" fill="#bb7321" stroke="none"/><path d="M234.30263,215.1866v-32.56286h6.10554c0,0 -0.84487,5.62308 -0.84487,9.54232c0,6.01204 0.84487,23.02054 0.84487,23.02054z" data-paper-data="{&quot;index&quot;:null}" fill="#bb7321" stroke="none"/><path d="M219.88741,191.21808v-29.30657h20.35179v29.30657zM229.4569,169.86018c0,0 -1.10367,2.88189 -0.15447,5.72838c1.10828,3.32355 6.60101,7.60881 6.60101,7.60881c0,0 4.85973,-6.35675 4.91995,-9.09891c0.05531,-2.51837 -4.57208,-6.73992 -4.57208,-6.73992l-2.64967,0.65131l-4.14475,1.85033z" data-paper-data="{&quot;index&quot;:null}" fill="#bb7321" stroke="none"/><path d="M201.37847,167.11071v-5.44248h39.24314v5.44248z" data-paper-data="{&quot;index&quot;:null}" fill="#ee922a" stroke="none"/></g></g></svg>