<svg version="1.1" xmlns="http://www.w3.org/2000/svg" xmlns:xlink="http://www.w3.org/1999/xlink" width="87.78507" height="81.83888" viewBox="0,0,87.78507,81.83888"><g transform="translate(-196.10746,-139.08056)"><g data-paper-data="{&quot;isPaintingLayer&quot;:true}" fill-rule="nonzero" stroke-linejoin="miter" stroke-miterlimit="10" stroke-dasharray="" stroke-dashoffset="0" style="mix-blend-mode: normal"><path d="M252.7181,172.83426v-4.86959h31.17444v4.86959z" fill="#ff5c2e" stroke="none" stroke-width="0" stroke-linecap="butt"/><path d="M252.05471,214.11993v-32.56286h6.85026v32.56286z" fill="#ff5c2e" stroke="#000000" stroke-width="0" stroke-linecap="butt"/><path d="M235.86282,159.70196v-13.89938c3.95491,-1.42398 7.32406,-3.28691 10.03086,-6.04537h13.71673v19.94475z" fill="#ff7b2e" stroke="none" stroke-width="0" stroke-linecap="butt"/><path d="M240.88635,164.17935v-6.51257h13.24385v6.51257z" fill="#ff7b2e" stroke="none" stroke-width="0" stroke-linecap="butt"/><path d="M236.31952,191.04372v-29.30657h22.83423v29.30657z" fill="#ff7b2e" stroke="none" stroke-width="0" stroke-linecap="butt"/><path d="M236.31952,220.91944v-32.56286h6.85027v32.56286z" fill="#ff7b2e" stroke="none" stroke-width="0" stroke-linecap="butt"/><path d="M236.64879,167.10533v-5.44248h44.02988v5.44248z" fill="#ff7b2e" stroke="none" stroke-width="0" stroke-linecap="butt"/><path d="M238.57711,150.7779l-0.48565,-5.58889" fill="none" stroke="#5d0000" stroke-width="0.5" stroke-linecap="round"/><path d="M241.04584,155.98909l-0.32139,-12.03074" fill="none" stroke="#5d0000" stroke-width="0.5" stroke-linecap="round"/><path d="M243.50741,142.09963l0.21187,6.67314" fill="none" stroke="#5d0000" stroke-width="0.5" stroke-linecap="round"/><path d="M245.64046,140.31942l-0.31424,6.44822" fill="none" stroke="#5d0000" stroke-width="0.5" stroke-linecap="round"/><path d="M245.69895,139.68274c0.04891,-0.14665 0.18008,-0.34334 0.53192,-0.34334c0.56099,0 0.56099,0.5 0.56099,0.5l-0.11817,0.35577c-0.25352,0.2903 -0.51551,0.57496 -0.78719,0.85191c-2.33946,2.3805 -5.95809,4.46444 -9.35023,5.37145c0,0 -0.53733,0.14367 -0.69853,-0.33524c-0.16119,-0.47891 0.37613,-0.62259 0.37613,-0.62259c3.19783,-0.85505 6.62481,-2.82518 8.82825,-5.07213c0.22593,-0.22995 0.44459,-0.4657 0.65683,-0.70584z" fill="#5d0000" stroke="none" stroke-width="0.5" stroke-linecap="butt"/><path d="M240.02594,172.56202c-0.08622,-0.05898 -0.17446,-0.13223 -0.26462,-0.22126c-0.67724,-0.66874 0.0068,-1.61138 0.90813,-2.41204c0.20359,-1.24703 1.07271,-2.55048 2.3243,-1.62845c1.45474,1.07169 -0.5115,5.40244 -2.46705,4.58481c-0.21469,-0.08976 -0.37907,-0.19914 -0.50075,-0.32306z" fill="#5d0000" stroke="none" stroke-width="0.5" stroke-linecap="butt"/><path d="M240.55575,175.18921c0,-0.27614 0.25117,-0.5 0.56099,-0.5c0.30982,0 0.56099,0.22386 0.56099,0.5c0,0.27614 -0.25117,0.5 -0.56099,0.5c-0.30982,0 -0.56099,-0.22386 -0.56099,-0.5z" fill="#5d0000" stroke="none" stroke-width="0.5" stroke-linecap="butt"/><path d="M241.2735,179.75566c-0.55534,0.07071 -0.63469,-0.42426 -0.63469,-0.42426l-0.06631,-0.4325c-0.09137,-0.32788 -0.16492,-0.66026 -0.21908,-0.99477c-0.01942,-0.0507 -0.02996,-0.10506 -0.02996,-0.16162c0,-0.01377 0.00063,-0.02742 0.00185,-0.04091c-0.00381,-0.11294 0.02145,-0.47209 0.48955,-0.52424c0.55666,-0.06202 0.62624,0.43412 0.62624,0.43412c0.04864,0.3517 0.12278,0.70124 0.21986,1.04488l0.08854,0.53361c0,0 0.07933,0.49497 -0.47601,0.56569z" fill="#5d0000" stroke="none" stroke-width="0.5" stroke-linecap="butt"/><path d="M196.10746,172.57542v-4.86959h31.17444v4.86959z" data-paper-data="{&quot;index&quot;:null}" fill="#ff5c2e" stroke="none" stroke-width="0" stroke-linecap="butt"/><path d="M221.09503,213.86109v-32.56286h6.85026v32.56286z" data-paper-data="{&quot;index&quot;:null}" fill="#ff5c2e" stroke="#000000" stroke-width="0" stroke-linecap="butt"/><path d="M220.38959,159.44312v-19.94475h13.71673c2.7068,2.75846 6.07595,4.62139 10.03086,6.04537v13.89938z" data-paper-data="{&quot;index&quot;:null}" fill="#ff7b2e" stroke="none" stroke-width="0" stroke-linecap="butt"/><path d="M225.8698,163.92051v-6.51257h13.24385v6.51257z" data-paper-data="{&quot;index&quot;:null}" fill="#ff7b2e" stroke="none" stroke-width="0" stroke-linecap="butt"/><path d="M220.84625,190.78488v-29.30657h22.83423v29.30657z" data-paper-data="{&quot;index&quot;:null}" fill="#ff7b2e" stroke="none" stroke-width="0" stroke-linecap="butt"/><path d="M236.83021,220.6606v-32.56286h6.85027v32.56286z" data-paper-data="{&quot;index&quot;:null}" fill="#ff7b2e" stroke="none" stroke-width="0" stroke-linecap="butt"/><path d="M199.32133,166.84649v-5.44248h44.02988v5.44248z" data-paper-data="{&quot;index&quot;:null}" fill="#ff7b2e" stroke="none" stroke-width="0" stroke-linecap="butt"/><path d="M241.42289,150.51906l0.48565,-5.58889" data-paper-data="{&quot;index&quot;:null}" fill="none" stroke="#5d0000" stroke-width="0.5" stroke-linecap="round"/><path d="M238.95416,155.73025l0.32139,-12.03074" data-paper-data="{&quot;index&quot;:null}" fill="none" stroke="#5d0000" stroke-width="0.5" stroke-linecap="round"/><path d="M236.49259,141.84079l-0.21187,6.67314" data-paper-data="{&quot;index&quot;:null}" fill="none" stroke="#5d0000" stroke-width="0.5" stroke-linecap="round"/><path d="M234.35954,140.06058l0.31424,6.44822" data-paper-data="{&quot;index&quot;:null}" fill="none" stroke="#5d0000" stroke-width="0.5" stroke-linecap="round"/><path d="M234.30105,139.42389c0.21224,0.24014 0.4309,0.47589 0.65683,0.70584c2.20344,2.24695 5.63042,4.21708 8.82825,5.07213c0,0 0.53732,0.14368 0.37613,0.62259c-0.1612,0.47891 -0.69853,0.33524 -0.69853,0.33524c-3.39214,-0.90701 -7.01077,-2.99095 -9.35023,-5.37145c-0.27168,-0.27695 -0.53367,-0.56161 -0.78719,-0.85191l-0.11817,-0.35577c0,0 0,-0.5 0.56099,-0.5c0.35184,0 0.48301,0.19669 0.53192,0.34334z" data-paper-data="{&quot;index&quot;:null}" fill="#5d0000" stroke="none" stroke-width="0.5" stroke-linecap="butt"/><path d="M239.97405,172.30318c-0.12168,0.12392 -0.28606,0.2333 -0.50075,0.32306c-1.95555,0.81763 -3.92179,-3.51312 -2.46705,-4.58481c1.25159,-0.92203 2.12071,0.38142 2.3243,1.62845c0.90133,0.80066 1.58537,1.7433 0.90813,2.41204c-0.09016,0.08903 -0.1784,0.16228 -0.26462,0.22126z" data-paper-data="{&quot;index&quot;:null}" fill="#5d0000" stroke="none" stroke-width="0.5" stroke-linecap="butt"/><path d="M238.88326,175.43037c-0.30982,0 -0.56099,-0.22386 -0.56099,-0.5c0,-0.27614 0.25117,-0.5 0.56099,-0.5c0.30982,0 0.56099,0.22386 0.56099,0.5c0,0.27614 -0.25117,0.5 -0.56099,0.5z" data-paper-data="{&quot;index&quot;:null}" fill="#5d0000" stroke="none" stroke-width="0.5" stroke-linecap="butt"/><path d="M238.72651,179.49682c-0.55534,-0.07072 -0.47601,-0.56569 -0.47601,-0.56569l0.08854,-0.53361c0.09708,-0.34364 0.17122,-0.69318 0.21986,-1.04488c0,0 0.06958,-0.49614 0.62624,-0.43412c0.4681,0.05215 0.49336,0.4113 0.48955,0.52424c0.00122,0.01349 0.00185,0.02714 0.00185,0.04091c0,0.05656 -0.01054,0.11092 -0.02996,0.16162c-0.05416,0.33451 -0.12771,0.66689 -0.21908,0.99477l-0.06631,0.4325c0,0 -0.07935,0.49497 -0.63469,0.42426z" data-paper-data="{&quot;index&quot;:null}" fill="#5d0000" stroke="none" stroke-width="0.5" stroke-linecap="butt"/></g></g></svg>