<svg version="1.1" xmlns="http://www.w3.org/2000/svg" xmlns:xlink="http://www.w3.org/1999/xlink" width="79.87883" height="81.25895" viewBox="0,0,79.87883,81.25895"><g transform="translate(-200.06058,-139.37053)"><g data-paper-data="{&quot;isPaintingLayer&quot;:true}" fill-rule="nonzero" stroke-width="0" stroke-linecap="butt" stroke-linejoin="miter" stroke-miterlimit="10" stroke-dasharray="" stroke-dashoffset="0" style="mix-blend-mode: normal"><path d="M252.15413,172.70641v-4.86959h27.78529v4.86959z" fill="#ff5c2e" stroke="none"/><path d="M251.56286,213.60957v-32.56286h6.10553v32.56286z" fill="#ff5c2e" stroke="#000000"/><path d="M237.13128,159.57411v-19.94475h21.16586v19.94475z" fill="#ff7b2e" stroke="none"/><path d="M241.60868,164.0515v-6.51257h11.80404v6.51257z" fill="#ff7b2e" stroke="none"/><path d="M237.53833,190.91587v-29.30657h20.35179v29.30657z" fill="#ff7b2e" stroke="none"/><path d="M237.53833,220.62947v-32.56286h6.10554v32.56286z" fill="#ff7b2e" stroke="none"/><path d="M237.83181,166.97748v-5.44248h39.24314v5.44248z" fill="#ff7b2e" stroke="none"/><path d="M200.06058,172.44758v-4.86959h27.78529v4.86959z" data-paper-data="{&quot;index&quot;:null}" fill="#ff5c2e" stroke="none"/><path d="M222.33161,213.35074v-32.56286h6.10553v32.56286z" data-paper-data="{&quot;index&quot;:null}" fill="#ff5c2e" stroke="#000000"/><path d="M221.70286,159.31528v-19.94475h21.16586v19.94475z" data-paper-data="{&quot;index&quot;:null}" fill="#ff7b2e" stroke="none"/><path d="M226.58728,163.79267v-6.51257h11.80404v6.51257z" data-paper-data="{&quot;index&quot;:null}" fill="#ff7b2e" stroke="none"/><path d="M222.10988,190.65704v-29.30657h20.35179v29.30657z" data-paper-data="{&quot;index&quot;:null}" fill="#ff7b2e" stroke="none"/><path d="M236.35613,220.37064v-32.56286h6.10554v32.56286z" data-paper-data="{&quot;index&quot;:null}" fill="#ff7b2e" stroke="none"/><path d="M202.92505,166.71865v-5.44248h39.24314v5.44248z" data-paper-data="{&quot;index&quot;:null}" fill="#ff7b2e" stroke="none"/></g></g></svg>