<svg version="1.1" xmlns="http://www.w3.org/2000/svg" xmlns:xlink="http://www.w3.org/1999/xlink" width="83.9947" height="82.14743" viewBox="0,0,83.9947,82.14743"><g transform="translate(-198.00265,-139.49995)"><g data-paper-data="{&quot;isPaintingLayer&quot;:true}" fill-rule="nonzero" stroke-width="0" stroke-linecap="butt" stroke-linejoin="miter" stroke-miterlimit="10" stroke-dasharray="" stroke-dashoffset="0" style="mix-blend-mode: normal"><path d="M254.21206,172.57701v-4.86959h27.78529v4.86959z" fill="#bb7321" stroke="none"/><path d="M253.87602,221.64739v-32.56286h6.10553v32.56286z" fill="#bb7321" stroke="#000000"/><path d="M239.18921,159.44471v-19.94475h21.16586v19.94475z" fill="#ee922a" stroke="none"/><path d="M243.66661,163.92209v-6.51257h11.80404v6.51257z" fill="#ee922a" stroke="none"/><path d="M239.59626,190.78647v-29.30657h20.35179v29.30657z" fill="#ee922a" stroke="none"/><path d="M239.34103,212.8433v-32.56286h6.10554v32.56286z" fill="#ee922a" stroke="none"/><path d="M239.88974,166.84808v-5.44248h39.24314v5.44248z" fill="#ee922a" stroke="none"/><path d="M198.00265,172.57702v-4.86959h27.78529v4.86959z" data-paper-data="{&quot;index&quot;:null}" fill="#bb7321" stroke="none"/><path d="M220.27368,220.88172v-32.56286h6.10553v32.56286z" data-paper-data="{&quot;index&quot;:null}" fill="#bb7321" stroke="#000000"/><path d="M219.64493,159.44471v-19.94475h21.16586v19.94475z" data-paper-data="{&quot;index&quot;:null}" fill="#bb7321" stroke="none"/><path d="M224.52935,163.9221v-6.51257h11.80404v6.51257z" data-paper-data="{&quot;index&quot;:null}" fill="#bb7321" stroke="none"/><path d="M220.05195,190.78648v-29.30657h20.35179v29.30657z" data-paper-data="{&quot;index&quot;:null}" fill="#bb7321" stroke="none"/><path d="M234.55343,212.84331v-32.56286h6.10554v32.56286z" data-paper-data="{&quot;index&quot;:null}" fill="#bb7321" stroke="none"/><path d="M200.86712,166.84809v-5.44248h39.24314v5.44248z" data-paper-data="{&quot;index&quot;:null}" fill="#ee922a" stroke="none"/></g></g></svg>