<svg version="1.1" xmlns="http://www.w3.org/2000/svg" xmlns:xlink="http://www.w3.org/1999/xlink" width="79.22148" height="81.59168" viewBox="0,0,79.22148,81.59168"><g transform="translate(-200.38926,-139.20416)"><g data-paper-data="{&quot;isPaintingLayer&quot;:true}" fill-rule="nonzero" stroke-width="0" stroke-linecap="butt" stroke-linejoin="miter" stroke-miterlimit="10" stroke-dasharray="" stroke-dashoffset="0" style="mix-blend-mode: normal"><path d="M251.82545,172.54005v-4.86959h27.78529v4.86959z" fill="#ff5c2e" stroke="none"/><path d="M251.23418,220.79584v-32.56286h6.10553v32.56286z" fill="#ff5c2e" stroke="#000000"/><path d="M236.8026,159.40775v-19.94475h21.16586v19.94475z" fill="#ff7b2e" stroke="none"/><path d="M241.28,163.88514v-6.51257h11.80404v6.51257z" fill="#ff7b2e" stroke="none"/><path d="M237.20965,190.74951v-29.30657h20.35179v29.30657z" fill="#ff7b2e" stroke="none"/><path d="M237.20965,213.3828v-32.56286h6.10554v32.56286z" fill="#ff7b2e" stroke="none"/><path d="M237.50313,166.81112v-5.44248h39.24314v5.44248z" fill="#ff7b2e" stroke="none"/><path d="M200.38926,172.28121v-4.86959h27.78529v4.86959z" data-paper-data="{&quot;index&quot;:null}" fill="#ff5c2e" stroke="none"/><path d="M222.66029,220.537v-32.56286h6.10553v32.56286z" data-paper-data="{&quot;index&quot;:null}" fill="#ff5c2e" stroke="#000000"/><path d="M222.03154,159.14891v-19.94475h21.16586v19.94475z" data-paper-data="{&quot;index&quot;:null}" fill="#ff7b2e" stroke="none"/><path d="M226.91596,163.6263v-6.51257h11.80404v6.51257z" data-paper-data="{&quot;index&quot;:null}" fill="#ff7b2e" stroke="none"/><path d="M222.43856,190.49067v-29.30657h20.35179v29.30657z" data-paper-data="{&quot;index&quot;:null}" fill="#ff7b2e" stroke="none"/><path d="M236.68481,213.12396v-32.56286h6.10554v32.56286z" data-paper-data="{&quot;index&quot;:null}" fill="#ff7b2e" stroke="none"/><path d="M203.25373,166.55228v-5.44248h39.24314v5.44248z" data-paper-data="{&quot;index&quot;:null}" fill="#ff7b2e" stroke="none"/></g></g></svg>