<svg version="1.1" xmlns="http://www.w3.org/2000/svg" xmlns:xlink="http://www.w3.org/1999/xlink" width="85.4688" height="81.49812" viewBox="0,0,85.4688,81.49812"><g transform="translate(-194.21024,-139.51052)"><g data-paper-data="{&quot;isPaintingLayer&quot;:true}" fill-rule="nonzero" stroke-width="0" stroke-linecap="butt" stroke-linejoin="miter" stroke-miterlimit="10" stroke-dasharray="" stroke-dashoffset="0" style="mix-blend-mode: normal"><path d="M194.21024,173.37633v-4.86959h27.78529v4.86959z" fill="#bb7321" stroke="none"/><path d="M240.33343,149.62496l-0.39967,-6.99425l9.19244,-0.5995l1.19902,4.39639z" fill="#7d1919" stroke="none"/><path d="M243.33096,185.19573v-21.38243h8.59294v21.38243z" fill="#7d1919" stroke="none"/><path d="M253.99797,220.6707v-32.56286h6.10553v32.56286z" fill="#bb7321" stroke="#000000"/><path d="M241.93202,159.87633c0,0 -1.41245,-18.37142 -0.1842,-19.77578l19.15341,-0.16897v19.94475z" fill="#ee922a" stroke="none"/><path d="M244.21277,164.35371v-6.51257h11.80404v6.51257z" fill="#ee922a" stroke="none"/><path d="M242.17008,215.01763c0,0 1.18281,-5.81334 1.18281,-9.67166c0,-6.01045 -1.18281,-22.8912 -1.18281,-22.8912h6.10554v32.56286z" fill="#ee922a" stroke="none"/><path d="M240.4359,167.2797v-5.44248h39.24314v5.44248z" fill="#ee922a" stroke="none"/><path d="M239.80447,190.71116c0,0 2.36562,-15.91133 2.36562,-16.45624c0,-4.54797 -2.36562,-12.85033 -2.36562,-12.85033h20.35179v29.30657zM250.24883,169.18428l-4.14475,-1.85033l-2.64967,-0.65131c0,0 0.43553,5.45692 0.48926,7.90339c0.06124,2.7883 -0.14139,7.93544 -0.14139,7.93544c0,0 5.49273,-4.28526 6.60101,-7.60881c0.9492,-2.84649 -0.15447,-5.72838 -0.15447,-5.72838z" fill="#ee922a" stroke="none"/><path d="M229.04256,146.4276l1.43298,-4.39639l10.98615,0.5995l-0.47766,6.99425z" data-paper-data="{&quot;index&quot;:null}" fill="#7d1919" stroke="none"/><path d="M227.44388,185.19573v-21.38243h8.59294v21.38243z" data-paper-data="{&quot;index&quot;:null}" fill="#7d1919" stroke="none"/><path d="M219.6022,221.00864v-32.56286h6.10553v32.56286z" data-paper-data="{&quot;index&quot;:null}" fill="#bb7321" stroke="#000000"/><path d="M218.46655,159.87633v-19.94475c0,0 15.61323,-1.12369 19.13818,0.30029c0,0 0.27698,7.19541 0.24797,10.53987c-0.02719,3.13363 -0.58591,8.76664 -0.58591,8.76664z" data-paper-data="{&quot;index&quot;:null}" fill="#bb7321" stroke="none"/><path d="M223.35097,164.35371v-6.51257h11.80404v6.51257z" data-paper-data="{&quot;index&quot;:null}" fill="#bb7321" stroke="none"/><path d="M230.92316,215.01763v-32.56286h6.10554c0,0 -0.84487,5.62308 -0.84487,9.54232c0,6.01204 0.84487,23.02054 0.84487,23.02054z" data-paper-data="{&quot;index&quot;:null}" fill="#bb7321" stroke="none"/><path d="M218.87357,191.21808v-29.30657h20.35179c0,0 -1.52076,8.16851 -1.52076,12.68135c0,5.16715 1.52076,16.62522 1.52076,16.62522zM228.44306,169.86018c0,0 -1.10367,2.88189 -0.15447,5.72838c1.10828,3.32355 6.60101,7.60881 6.60101,7.60881c0,0 1.98719,-6.0188 2.04741,-8.76096c0.05531,-2.51837 -1.69954,-7.07787 -1.69954,-7.07787l-2.64967,0.65131l-4.14475,1.85033z" data-paper-data="{&quot;index&quot;:null}" fill="#bb7321" stroke="none"/><path d="M198.50592,167.11071v-5.44248h39.24314v5.44248z" data-paper-data="{&quot;index&quot;:null}" fill="#ee922a" stroke="none"/></g></g></svg>