<svg version="1.1" xmlns="http://www.w3.org/2000/svg" xmlns:xlink="http://www.w3.org/1999/xlink" width="87.20424" height="82.00949" viewBox="0,0,87.20424,82.00949"><g transform="translate(-196.39788,-138.99526)"><g data-paper-data="{&quot;isPaintingLayer&quot;:true}" fill-rule="nonzero" stroke-linejoin="miter" stroke-miterlimit="10" stroke-dasharray="" stroke-dashoffset="0" style="mix-blend-mode: normal"><path d="M252.80425,172.74895v-4.86959h30.79787v4.86959z" fill="#ff5c2e" stroke="none" stroke-width="0" stroke-linecap="butt"/><path d="M252.14887,221.00474v-32.56286h6.76751v32.56286z" fill="#ff5c2e" stroke="#000000" stroke-width="0" stroke-linecap="butt"/><path d="M236.15257,159.61665v-13.89938c3.90714,-1.42398 7.23559,-3.28691 9.90969,-6.04537h13.55104v19.94475z" fill="#ff7b2e" stroke="none" stroke-width="0" stroke-linecap="butt"/><path d="M241.11542,164.09404v-6.51257h13.08387v6.51257z" fill="#ff7b2e" stroke="none" stroke-width="0" stroke-linecap="butt"/><path d="M236.60375,190.95841v-29.30657h22.5584v29.30657z" fill="#ff7b2e" stroke="none" stroke-width="0" stroke-linecap="butt"/><path d="M236.60375,213.86401v-32.56286h6.76752v32.56286z" fill="#ff7b2e" stroke="none" stroke-width="0" stroke-linecap="butt"/><path d="M236.92905,167.02002v-5.44248h43.49802v5.44248z" fill="#ff7b2e" stroke="none" stroke-width="0" stroke-linecap="butt"/><path d="M238.83408,150.69259l-0.47978,-5.58889" fill="none" stroke="#5d0000" stroke-width="0.5" stroke-linecap="round"/><path d="M240.95548,143.87304l0.31751,12.03074" fill="none" stroke="#5d0000" stroke-width="0.5" stroke-linecap="round"/><path d="M243.70482,142.01432l0.20931,6.67314" fill="none" stroke="#5d0000" stroke-width="0.5" stroke-linecap="round"/><path d="M245.8121,140.23411l-0.31045,6.44822" fill="none" stroke="#5d0000" stroke-width="0.5" stroke-linecap="round"/><path d="M245.86988,139.59743c0.04832,-0.14665 0.1779,-0.34334 0.52549,-0.34334c0.55421,0 0.55421,0.5 0.55421,0.5l-0.11674,0.35577c-0.25046,0.2903 -0.50929,0.57496 -0.77768,0.85191c-2.3112,2.3805 -5.88612,4.46444 -9.23728,5.37145c0,0 -0.53084,0.14367 -0.69009,-0.33524c-0.15925,-0.47891 0.37159,-0.62259 0.37159,-0.62259c3.15921,-0.85505 6.54479,-2.82518 8.72161,-5.07213c0.2232,-0.22995 0.43922,-0.4657 0.64889,-0.70584z" fill="#5d0000" stroke="none" stroke-width="0.5" stroke-linecap="butt"/><path d="M240.26541,172.47671c-0.08518,-0.05898 -0.17235,-0.13223 -0.26142,-0.22126c-0.66906,-0.66874 0.00672,-1.61138 0.89716,-2.41204c0.20113,-1.24703 1.05975,-2.55048 2.29622,-1.62845c1.43717,1.07169 -0.50532,5.40244 -2.43725,4.58481c-0.2121,-0.08976 -0.37449,-0.19914 -0.4947,-0.32306z" fill="#5d0000" stroke="none" stroke-width="0.5" stroke-linecap="butt"/><path d="M240.78881,175.1039c0,-0.27614 0.24813,-0.5 0.55421,-0.5c0.30608,0 0.55421,0.22386 0.55421,0.5c0,0.27614 -0.24813,0.5 -0.55421,0.5c-0.30608,0 -0.55421,-0.22386 -0.55421,-0.5z" fill="#5d0000" stroke="none" stroke-width="0.5" stroke-linecap="butt"/><path d="M241.4979,179.67035c-0.54864,0.07071 -0.62702,-0.42426 -0.62702,-0.42426l-0.06551,-0.4325c-0.09027,-0.32788 -0.16293,-0.66026 -0.21643,-0.99477c-0.01919,-0.0507 -0.02959,-0.10506 -0.02959,-0.16162c0,-0.01377 0.00062,-0.02742 0.00183,-0.04091c-0.00377,-0.11294 0.02119,-0.47209 0.48364,-0.52424c0.54993,-0.06202 0.61868,0.43412 0.61868,0.43412c0.04805,0.3517 0.12129,0.70124 0.21721,1.04488l0.08747,0.53361c0,0 0.07838,0.49497 -0.47026,0.56569z" fill="#5d0000" stroke="none" stroke-width="0.5" stroke-linecap="butt"/><path d="M196.39788,172.49012v-4.86959h30.79787v4.86959z" data-paper-data="{&quot;index&quot;:null}" fill="#ff5c2e" stroke="none" stroke-width="0" stroke-linecap="butt"/><path d="M221.08362,220.74591v-32.56286h6.76751v32.56286z" data-paper-data="{&quot;index&quot;:null}" fill="#ff5c2e" stroke="#000000" stroke-width="0" stroke-linecap="butt"/><path d="M220.3867,159.35782v-19.94475h13.55104c2.6741,2.75846 6.00255,4.62139 9.90969,6.04537v13.89938z" data-paper-data="{&quot;index&quot;:null}" fill="#ff7b2e" stroke="none" stroke-width="0" stroke-linecap="butt"/><path d="M225.80071,163.83521v-6.51257h13.08387v6.51257z" data-paper-data="{&quot;index&quot;:null}" fill="#ff7b2e" stroke="none" stroke-width="0" stroke-linecap="butt"/><path d="M220.83785,190.69958v-29.30657h22.5584v29.30657z" data-paper-data="{&quot;index&quot;:null}" fill="#ff7b2e" stroke="none" stroke-width="0" stroke-linecap="butt"/><path d="M236.62873,213.60518v-32.56286h6.76752v32.56286z" data-paper-data="{&quot;index&quot;:null}" fill="#ff7b2e" stroke="none" stroke-width="0" stroke-linecap="butt"/><path d="M199.57293,166.76119v-5.44248h43.49802v5.44248z" data-paper-data="{&quot;index&quot;:null}" fill="#ff7b2e" stroke="none" stroke-width="0" stroke-linecap="butt"/><path d="M241.16592,150.43376l0.47978,-5.58889" data-paper-data="{&quot;index&quot;:null}" fill="none" stroke="#5d0000" stroke-width="0.5" stroke-linecap="round"/><path d="M239.04452,143.61421l-0.31751,12.03074" data-paper-data="{&quot;index&quot;:null}" fill="none" stroke="#5d0000" stroke-width="0.5" stroke-linecap="round"/><path d="M236.08587,148.42863l0.20931,-6.67314" data-paper-data="{&quot;index&quot;:null}" fill="none" stroke="#5d0000" stroke-width="0.5" stroke-linecap="round"/><path d="M234.49835,146.4235l-0.31045,-6.44822" data-paper-data="{&quot;index&quot;:null}" fill="none" stroke="#5d0000" stroke-width="0.5" stroke-linecap="round"/><path d="M234.13012,139.33859c0.20967,0.24014 0.42569,0.47589 0.64889,0.70584c2.17682,2.24695 5.5624,4.21708 8.72161,5.07213c0,0 0.53084,0.14368 0.37159,0.62259c-0.15925,0.47891 -0.69009,0.33524 -0.69009,0.33524c-3.35116,-0.90701 -6.92608,-2.99095 -9.23728,-5.37145c-0.26839,-0.27695 -0.52722,-0.56161 -0.77768,-0.85191l-0.11674,-0.35577c0,0 0,-0.5 0.55421,-0.5c0.34759,0 0.47717,0.19669 0.52549,0.34334z" data-paper-data="{&quot;index&quot;:null}" fill="#5d0000" stroke="none" stroke-width="0.5" stroke-linecap="butt"/><path d="M239.73458,172.21788c-0.12021,0.12392 -0.2826,0.2333 -0.4947,0.32306c-1.93193,0.81763 -3.87442,-3.51312 -2.43725,-4.58481c1.23647,-0.92203 2.09509,0.38142 2.29622,1.62845c0.89044,0.80066 1.56622,1.7433 0.89716,2.41204c-0.08907,0.08903 -0.17624,0.16228 -0.26142,0.22126z" data-paper-data="{&quot;index&quot;:null}" fill="#5d0000" stroke="none" stroke-width="0.5" stroke-linecap="butt"/><path d="M238.65698,175.34507c-0.30608,0 -0.55421,-0.22386 -0.55421,-0.5c0,-0.27614 0.24813,-0.5 0.55421,-0.5c0.30608,0 0.55421,0.22386 0.55421,0.5c0,0.27614 -0.24813,0.5 -0.55421,0.5z" data-paper-data="{&quot;index&quot;:null}" fill="#5d0000" stroke="none" stroke-width="0.5" stroke-linecap="butt"/><path d="M238.50208,179.41152c-0.54864,-0.07072 -0.47026,-0.56569 -0.47026,-0.56569l0.08747,-0.53361c0.09592,-0.34364 0.16916,-0.69318 0.21721,-1.04488c0,0 0.06875,-0.49614 0.61868,-0.43412c0.46245,0.05215 0.48741,0.4113 0.48364,0.52424c0.00121,0.01349 0.00183,0.02714 0.00183,0.04091c0,0.05656 -0.0104,0.11092 -0.02959,0.16162c-0.0535,0.33451 -0.12616,0.66689 -0.21643,0.99477l-0.06551,0.4325c0,0 -0.07838,0.49497 -0.62702,0.42426z" data-paper-data="{&quot;index&quot;:null}" fill="#5d0000" stroke="none" stroke-width="0.5" stroke-linecap="butt"/></g></g></svg>