<svg version="1.1" xmlns="http://www.w3.org/2000/svg" xmlns:xlink="http://www.w3.org/1999/xlink" width="22.16896" height="62.54284" viewBox="0,0,22.16896,62.54284"><g transform="translate(-228.91552,-148.72858)"><g data-paper-data="{&quot;isPaintingLayer&quot;:true}" fill-rule="nonzero" stroke-linecap="butt" stroke-linejoin="miter" stroke-miterlimit="10" stroke-dasharray="" stroke-dashoffset="0" style="mix-blend-mode: normal"><path d="M245.35109,162.9702l0.01262,-1.47455c1.59751,0.51254 3.1961,1.01835 4.79693,1.51572z" fill="#115616" stroke="none" stroke-width="0"/><path d="M244.34684,211.21916l0.27869,-32.56167l6.10531,0.05226l-0.2787,32.56167z" fill="#ff5c2e" stroke="#000000" stroke-width="0"/><path d="" fill="#197c1f" stroke="none" stroke-width="0"/><path d="" fill="#197c1f" stroke="none" stroke-width="0"/><path d="M230.57998,181.0539l0.19737,-23.06027c0.83386,0.00062 1.51726,-0.0016 1.98617,-0.0046c0.62657,-0.004 1.26105,-0.00625 1.902,-0.00816c5.47533,1.82906 10.93275,3.62426 16.41896,5.3165l-0.15346,17.93071z" fill="#ff7b2e" stroke="none" stroke-width="0"/><path d="" fill="#197c1f" stroke="none" stroke-width="0"/><path d="M230.32567,210.76642l0.2787,-32.56167l6.10532,0.05226l-0.2787,32.56167z" fill="#ff7b2e" stroke="none" stroke-width="0"/><path d="" fill="#197c1f" stroke="none" stroke-width="0"/><path d="" fill="#197c1f" stroke="none" stroke-width="0"/><path d="M248.3105,166.16606c-0.99997,-0.00856 -0.9914,-1.00852 -0.9914,-1.00852l0.29038,-1.43138c-0.15482,-0.0114 -0.40963,-0.04397 -0.72508,-0.09096l0.32037,0.65468c0.07198,0.13958 0.11202,0.29822 0.11059,0.46617c-0.00473,0.55227 -0.45626,0.99613 -1.00852,0.9914c-0.11876,-0.00101 -0.23251,-0.02269 -0.33786,-0.06159l-1.17875,-0.40416l0.00487,-0.01421l-0.05188,-0.00324c-0.3137,-0.14471 -0.62915,-0.27863 -0.94584,-0.40402c0.0692,1.96625 -0.13018,3.99628 -0.14636,5.88621l-0.00687,0.80284c0,0 -0.00855,0.99996 -1.00852,0.9914c-0.99997,-0.00856 -0.99141,-1.00853 -0.99141,-1.00853l0.00687,-0.80284c0.01695,-1.98095 0.34553,-4.38405 0.16037,-6.56104c-1.26924,-0.39652 -2.54084,-0.73333 -3.78199,-1.15311c-0.15204,3.25782 -0.42893,6.54101 -0.41695,9.68685l-0.00343,0.40143c0,0 -0.00855,0.99996 -1.00853,0.9914c-0.99997,-0.00856 -0.9914,-1.00852 -0.9914,-1.00852l0.00344,-0.40142c0.06169,-3.42253 0.33719,-6.9306 0.45753,-10.43585c-1.10534,-0.50624 -2.16994,-1.14774 -3.16813,-2.03621c-0.01948,2.27602 -0.03896,4.55203 -0.05844,6.82805l-0.00687,0.80284c0,0 -0.00855,0.99996 -1.00852,0.9914c-0.99997,-0.00856 -0.9914,-1.00852 -0.9914,-1.00852c0.02225,-2.59988 0.05099,-5.9575 0.07361,-8.60056c-0.0668,-0.02497 -0.13358,-0.05003 -0.20034,-0.07514l-1.12561,-0.42457c-0.39262,-0.13768 -0.67263,-0.5132 -0.66887,-0.95245c0.00385,-0.44982 0.30412,-0.82773 0.7138,-0.9499l1.18576,-0.38401l0.00856,0.02641c0.09949,-0.03384 0.20196,-0.05947 0.3081,-0.07501c0.09944,-0.01456 0.28702,0.02121 0.52978,0.09051c0.12334,-0.22577 0.28688,-0.45777 0.49647,-0.69587c0.60729,-0.68988 3.45356,0.93253 3.8867,1.18395c1.592,0.92406 2.91578,1.9398 4.37764,2.96459c0.2135,0.07583 0.4274,0.15063 0.64176,0.22436c0.08662,-0.13389 0.22278,-0.26004 0.43045,-0.36166c0.89822,-0.43954 1.33776,0.45868 1.33776,0.45868c0.08637,0.18257 0.16556,0.36773 0.23812,0.55525c0.63338,0.19353 1.27183,0.37649 1.91652,0.54752c0.96482,0.25596 4.73133,1.03371 5.11464,1.94989c0.26616,0.63616 -0.71644,1.17851 -1.07465,1.76777l0.29206,0.09827c0,0 -0.00855,0.99996 -1.00852,0.9914z" fill="#5d0000" stroke="none" stroke-width="0.5"/><path d="M248.01846,200.28689c-0.99997,-0.00856 -0.9914,-1.00852 -0.9914,-1.00852l0.00344,-0.40142c0.02543,-2.97146 -0.13556,-5.43216 0.7061,-7.90869l-0.41545,-0.14244l0.59604,-1.73838c0.00527,-0.61495 0.01052,-1.22989 0.01579,-1.84484c0,0 0.00855,-0.99996 1.00852,-0.9914c0.99997,0.00856 0.9914,1.00852 0.9914,1.00852c-0.00572,0.66903 -0.01145,1.33807 -0.01718,2.0071v0c-0.00349,0.4086 -0.007,0.81721 -0.0105,1.22581c-0.01142,1.33443 0.02961,2.54745 -0.03188,3.72499c-0.00649,0.75826 -0.01298,1.51653 -0.01947,2.27479l-0.01031,1.20426c-0.00414,0.4842 -0.35174,0.88507 -0.80957,0.97335c-0.00174,0.07533 -0.00294,0.15002 -0.00358,0.22404l-0.00344,0.40142c0,0 -0.00855,0.99996 -1.00852,0.9914z" fill="#5d0000" stroke="none" stroke-width="0.5"/><path d="M233.74913,198.5372l0.06626,0.03886c0.38897,-0.63853 0.92615,-1.26676 1.73286,-1.94039l0.38989,3.00084c-0.55927,1.59648 -0.75518,2.69449 -1.1587,3.86411l0.33947,0.1164l-0.64119,1.87007c-0.12916,0.40753 -0.51216,0.7013 -0.96199,0.69745c-0.37937,-0.00325 -0.70757,-0.21733 -0.87437,-0.53006c-0.30983,-0.17212 -0.51826,-0.50396 -0.51501,-0.88333l0.01308,-1.52808c-0.03526,-1.23378 -0.26543,-2.4136 -0.34004,-3.6608c-0.22898,-0.14034 -0.44036,-0.39705 -0.42375,-0.86614c0.03538,-0.99937 1.03475,-0.964 1.03475,-0.964l0.06423,0.03767c0.09107,-0.02315 0.194,-0.03581 0.31037,-0.03482c0.69205,0.00593 0.90105,0.4867 0.96414,0.78222z" fill="#5d0000" stroke="none" stroke-width="0.5"/><path d="M240.55015,162.64254c-0.67286,-0.1263 -0.75442,-0.87629 -0.75442,-0.87629c-0.21046,-1.97803 0.15236,-3.56735 -1.16469,-5.21393c-1.86035,-2.32583 -6.05372,-1.82947 -5.1332,-5.75298c0.56492,-2.40788 2.57176,-2.37172 4.39424,-1.61088c1.14844,0.47944 2.59896,2.47805 2.7978,2.19612c4.12313,-2.40706 11.46706,2.22584 7.6082,6.8854c-1.00636,1.21518 -2.54198,1.25502 -3.46606,2.55515c-0.50181,0.70601 -0.30178,1.87438 -0.98749,2.40357c-1.32817,1.02502 -2.61795,0.47419 -3.29438,-0.58618z" fill="#ffffff" stroke="none" stroke-width="0.5"/></g></g></svg>