<svg version="1.1" xmlns="http://www.w3.org/2000/svg" xmlns:xlink="http://www.w3.org/1999/xlink" width="55.47349" height="26.94419" viewBox="0,0,55.47349,26.94419"><g transform="translate(-178.4246,-184.61386)"><g data-paper-data="{&quot;isPaintingLayer&quot;:true}" fill-rule="nonzero" stroke-width="0" stroke-linecap="butt" stroke-linejoin="miter" stroke-miterlimit="10" stroke-dasharray="" stroke-dashoffset="0" style="mix-blend-mode: normal"><path d="M191.11407,210.28117l-12.68947,0.1807c0,0 1.95838,-6.70283 2.57356,-9.99998c0.56701,-3.0389 0.98482,-9.07145 0.98482,-9.07145l6.35969,-0.69794z" fill="#5d0000" stroke="none"/><path d="M230.39637,189.78839l-26.71182,3.77919l-0.39191,-2.77012l26.71182,-3.77919z" fill="#5d0000" stroke="none"/><path d="M228.00292,204.25482l-23.34811,3.30329l-0.67186,-4.74877l23.34811,-3.30329z" fill="#5d0000" stroke="none"/><path d="M184.46833,196.43087l-1.46179,0.19406c0.28369,-1.65356 0.56058,-3.30725 0.82879,-4.96196z" fill="#115616" stroke="none"/><path d="M232.38221,190.66626l-2.76734,0.3674c-0.35389,-2.14608 -2.53158,-1.83798 -2.53158,-1.83798c-6.45381,0.91819 -12.97346,1.43185 -19.44679,2.34769l-2.35345,0.78076c0,0 -1.63019,0.57288 -1.53133,2.14315l-3.64914,0.48446l-0.80352,-6.05243l32.27964,-4.28545z" fill="#bb7321" stroke="#000000"/><path d="" fill="#197c1f" stroke="none"/><path d="" fill="#197c1f" stroke="none"/><path d="M204.44294,208.52307l-22.86053,3.03498c-0.11619,-0.82572 -0.21412,-1.50207 -0.28279,-1.96594c-0.09173,-0.61982 -0.18284,-1.24774 -0.27453,-1.8821c1.04401,-5.67757 2.05702,-11.33266 2.96402,-17.00182l17.7754,-2.35988z" fill="#ee922a" stroke="none"/><path d="" fill="#197c1f" stroke="none"/><path d="M233.89809,204.61258l-32.27964,4.28545l-0.80351,-6.05244l7.9935,-1.06121c-0.17794,0.34871 -0.26784,0.79857 -0.18591,1.37769c0.31519,2.22781 2.54301,1.91262 2.54301,1.91262c3.39099,-0.48208 6.67867,-1.21705 9.94539,-2.2453l0.23163,-0.00186c0,0 2.22781,-0.31519 1.91262,-2.54301c-0.02069,-0.14627 -0.04963,-0.28158 -0.08564,-0.40673l9.92506,-1.31765z" fill="#ee922a" stroke="none"/><path d="" fill="#197c1f" stroke="none"/><path d="" fill="#197c1f" stroke="none"/><path d="M195.15918,207.48877l-15.23562,2.15553l-0.25194,-1.78078l15.23562,-2.15553z" fill="#5d0000" stroke="#5d0000"/><path d="M190.51155,196.03678l-8.90395,1.25973l-0.16797,-1.18719l8.90395,-1.25973z" fill="#5d0000" stroke="none"/></g></g></svg>