<svg version="1.1" xmlns="http://www.w3.org/2000/svg" xmlns:xlink="http://www.w3.org/1999/xlink" width="62.38179" height="22.30324" viewBox="0,0,62.38179,22.30324"><g transform="translate(-208.19476,-170.08253)"><g data-paper-data="{&quot;isPaintingLayer&quot;:true}" fill-rule="nonzero" stroke-linecap="butt" stroke-linejoin="miter" stroke-miterlimit="10" stroke-dasharray="" stroke-dashoffset="0" style="mix-blend-mode: normal"><path d="M222.31888,175.88738l-1.47459,0.00558c0.49278,-1.60371 0.97882,-3.20843 1.4564,-4.81527z" fill="#115616" stroke="none" stroke-width="0"/><path d="M270.57656,176.29608l-32.56263,0.1232l-0.0231,-6.10549l32.56263,-0.12318z" fill="#ff5c2e" stroke="#000000" stroke-width="0"/><path d="" fill="#197c1f" stroke="none" stroke-width="0"/><path d="" fill="#197c1f" stroke="none" stroke-width="0"/><path d="M240.58351,190.43418l-23.06095,0.08724c-0.00967,-0.83381 -0.02033,-1.51712 -0.02911,-1.98596c-0.01173,-0.62647 -0.02181,-1.26088 -0.03163,-1.90176c1.76135,-5.49749 3.48905,-10.97664 5.11346,-16.48333l17.93124,-0.06784z" fill="#ff7b2e" stroke="none" stroke-width="0"/><path d="" fill="#197c1f" stroke="none" stroke-width="0"/><path d="M270.2969,190.32177l-32.56263,0.12318l-0.02309,-6.1055l32.56263,-0.12318z" fill="#ff7b2e" stroke="none" stroke-width="0"/><path d="" fill="#197c1f" stroke="none" stroke-width="0"/><path d="" fill="#197c1f" stroke="none" stroke-width="0"/><path d="M225.47797,172.88875c0.00378,1 -0.9962,1.00377 -0.9962,1.00377l-1.43486,-0.2727c-0.00948,0.15495 -0.03891,0.41014 -0.082,0.72615l0.65068,-0.32842c0.13868,-0.0737 0.29681,-0.11569 0.46477,-0.11634c0.55228,-0.00209 1.00168,0.44393 1.00377,0.9962c0.00046,0.11876 -0.01982,0.23277 -0.05742,0.33859l-0.38958,1.18365l-0.01427,-0.00469l-0.0026,0.05192c-0.14083,0.31546 -0.27084,0.63254 -0.39231,0.95076c1.96525,-0.09346 3.99759,0.08085 5.88757,0.07371l0.80286,-0.00305c0,0 0.99998,-0.00379 1.00377,0.9962c0.00378,1 -0.99622,1.00378 -0.99622,1.00378l-0.80286,0.00305c-1.98101,0.0075 -4.38799,-0.2914 -6.56251,-0.07938c-0.38083,1.27404 -0.70191,2.5497 -1.10634,3.79593c3.25944,0.11182 6.5458,0.34817 9.69126,0.29736l0.40144,-0.00153c0,0 0.99998,-0.00379 1.00377,0.99622c0.00378,1 -0.9962,1.00377 -0.9962,1.00377l-0.40143,0.00151c-3.42303,-0.01944 -6.93424,-0.25163 -10.44071,-0.3287c-0.49256,1.1115 -1.12087,2.18394 -1.99696,3.19302c2.27609,-0.00861 4.55216,-0.01722 6.82825,-0.02584l0.80286,-0.00305c0,0 0.99998,-0.00379 1.00377,0.9962c0.00378,1 -0.9962,1.00377 -0.9962,1.00377c-2.59996,0.00984 -5.95767,0.02254 -8.60082,0.03254c-0.02414,0.0671 -0.04838,0.13418 -0.07266,0.20126l-0.41065,1.13077c-0.13282,0.39429 -0.50486,0.67891 -0.94412,0.68058c-0.44984,0.0017 -0.83142,-0.29388 -0.95864,-0.70202l-0.39862,-1.18093l0.0263,-0.00888c-0.03506,-0.09907 -0.06196,-0.20121 -0.07881,-0.30716c-0.01579,-0.09925 0.01767,-0.28726 0.08397,-0.53086c-0.22728,-0.12055 -0.46127,-0.28121 -0.70195,-0.48784c-0.69732,-0.59873 0.88984,-3.46481 1.13589,-3.90102c0.90434,-1.60328 1.90367,-2.9395 2.91034,-4.41389c0.07319,-0.21442 0.14535,-0.42923 0.21642,-0.64448c-0.13495,-0.08496 -0.26277,-0.21956 -0.36694,-0.42595c-0.45059,-0.89273 0.44213,-1.34332 0.44213,-1.34332c0.18149,-0.08862 0.36566,-0.17009 0.55226,-0.24496c0.1857,-0.63572 0.36076,-1.27638 0.52383,-1.92313c0.24403,-0.96791 0.97524,-4.74373 1.88662,-5.13832c0.63283,-0.274 1.18726,0.70185 1.7809,1.05274l0.09466,-0.29325c0,0 0.99998,-0.00379 1.00377,0.9962z" fill="#5d0000" stroke="none" stroke-width="0.5"/><path d="M259.59981,172.75967c0.00378,1 -0.9962,1.00377 -0.9962,1.00377l-0.40143,0.00151c-2.97155,0.01124 -5.43007,0.20259 -7.9168,-0.60844l-0.1373,0.41718l-1.7456,-0.57454c-0.61497,0.00232 -1.22993,0.00466 -1.84489,0.00698c0,0 -0.99998,0.00379 -1.00377,-0.9962c-0.00378,-1 0.9962,-1.00377 0.9962,-1.00377c0.66905,-0.00254 1.33811,-0.00507 2.00716,-0.00759v0c0.40861,-0.00155 0.81724,-0.00309 1.22584,-0.00463c1.33447,-0.00505 2.54689,-0.06105 3.7251,-0.01409c0.75828,-0.00287 1.51658,-0.00574 2.27486,-0.00861l1.2043,-0.00456c0.48422,-0.00183 0.88935,0.34079 0.98326,0.79749c0.07534,0.00081 0.15005,0.00108 0.22407,0.00081l0.40143,-0.00151c0,0 0.99998,-0.00379 1.00377,0.9962z" fill="#5d0000" stroke="none" stroke-width="0.5"/><path d="M258.02636,187.0495l0.03804,-0.06673c-0.64328,-0.38106 -1.2781,-0.91044 -1.96163,-1.70878l2.9958,-0.4269c1.60326,0.53953 2.70361,0.72187 3.87812,1.11092l0.1122,-0.34087l1.87784,0.61806c0.40909,0.12412 0.70757,0.50347 0.70928,0.95331c0.00143,0.37938 -0.20858,0.71019 -0.51923,0.88084c-0.16828,0.31193 -0.49752,0.52443 -0.8769,0.52587l-1.52812,0.00578c-1.23325,0.05048 -2.41015,0.2952 -3.65633,0.38519c-0.1375,0.23069 -0.39159,0.44523 -0.86085,0.43441c-0.99973,-0.02305 -0.9767,-1.02278 -0.9767,-1.02278l0.03687,-0.06469c-0.02428,-0.09077 -0.0382,-0.19355 -0.03865,-0.30992c-0.00261,-0.69207 0.47554,-0.90699 0.77026,-0.97372z" fill="#5d0000" stroke="none" stroke-width="0.5"/><path d="M222.0505,180.69199c-0.11799,0.67437 -0.86692,0.76518 -0.86692,0.76518c-1.97528,0.23486 -3.56896,-0.10832 -5.19916,1.22895c-2.3027,1.88891 -1.75462,6.07584 -5.68919,5.20381c-2.41467,-0.53516 -2.40328,-2.5423 -1.66499,-4.37402c0.46523,-1.15427 2.44578,-2.62935 2.16142,-2.82469c-2.45776,-4.09311 2.08415,-11.49366 6.79098,-7.6926c1.2275,0.99129 1.2863,2.52629 2.59774,3.43426c0.71215,0.49306 1.87796,0.27862 2.41557,0.95775c1.04134,1.31542 0.50646,2.6119 -0.54548,3.30137z" fill="#ffffff" stroke="none" stroke-width="0.5"/></g></g></svg>