<svg version="1.1" xmlns="http://www.w3.org/2000/svg" xmlns:xlink="http://www.w3.org/1999/xlink" width="86.15305" height="47.01282" viewBox="0,0,86.15305,47.01282"><g transform="translate(-259.75299,-156.646)"><g data-paper-data="{&quot;isPaintingLayer&quot;:true}" fill-rule="nonzero" stroke-linejoin="miter" stroke-miterlimit="10" stroke-dasharray="" stroke-dashoffset="0" style="mix-blend-mode: normal"><path d="M295.46492,175.12543c0,0 -0.71647,2.34834 -0.85969,3.60158c-0.13924,1.21838 -0.19998,2.54461 -0.19998,2.54461c0,0 -1.95517,-0.71353 -2.68343,-2.06078c-0.68157,-1.26092 -0.91952,-4.08541 -0.91952,-4.08541z" fill="#4e4e4e" stroke="#4e4e4e" stroke-width="0.5" stroke-linecap="round"/><path d="M302.24693,175.76123l-5.72232,8.4775h-10.80879" fill="none" stroke="#4e4e4e" stroke-width="0.5" stroke-linecap="round"/><path d="M323.65262,164.74051v-7.41781h3.60293v7.41781z" fill="#2e2e2e" stroke="none" stroke-width="0" stroke-linecap="butt"/><path d="M274.19584,194.41174l6.35813,-28.61155h11.73191l-6.14619,28.39961z" fill="#4e4e4e" stroke="none" stroke-width="0" stroke-linecap="butt"/><path d="M260.28333,167.91957l3.81487,-9.96106c0,0 7.20779,6.78199 12.29237,6.78199c5.22584,0 15.8953,0 15.8953,0v10.80881c0,0 -10.84852,0 -16.10725,0c-5.04687,0 -15.8953,-7.62975 -15.8953,-7.62975z" fill="#373737" stroke="#3d3d3d" stroke-width="1.5" stroke-linecap="butt"/><path d="M309.02894,202.67731c0,0 -5.51037,-12.46957 -5.51037,-16.74305c0,-4.20284 0,-12.5043 0,-12.5043h10.80881c0,0 0,8.4775 0,12.71625c0,4.23875 6.57006,11.44461 6.57006,11.44461z" fill="#373737" stroke="#303030" stroke-width="1.5" stroke-linecap="butt"/><path d="M289.5307,176.18513v-12.29237h52.77241v12.29237z" fill="#2e2e2e" stroke="none" stroke-width="0" stroke-linecap="butt"/><path d="M339.12405,173.42994v-7.20588h6.78199v7.20588z" fill="#2e2e2e" stroke="none" stroke-width="0" stroke-linecap="butt"/><path d="M291.65006,173.42992l44.71879,-0.42388" fill="none" stroke="#2d2d2d" stroke-width="2" stroke-linecap="round"/><path d="M286.98744,173.42992c0,0 -8.07661,0.80145 -11.86561,-0.2226c-4.03697,-1.09108 -11.65945,-6.13551 -11.65945,-6.13551" fill="none" stroke="#2d2d2d" stroke-width="2" stroke-linecap="round"/></g></g></svg>