<svg version="1.1" xmlns="http://www.w3.org/2000/svg" xmlns:xlink="http://www.w3.org/1999/xlink" width="98.91855" height="50.41654" viewBox="0,0,98.91855,50.41654"><g transform="translate(-183.89281,-158.00127)"><g data-paper-data="{&quot;isPaintingLayer&quot;:true}" fill-rule="nonzero" stroke-linejoin="miter" stroke-miterlimit="10" stroke-dasharray="" stroke-dashoffset="0" style="mix-blend-mode: normal"><path d="M184.03567,187.92754l-0.14285,-21.88961l34.87662,-0.27273l-0.0909,10.06494zM192.14293,180.4633c5.3174,-2.05968 15.58014,-6.52543 16.27542,-9.24681c0.81809,-2.22413 -14.79635,-1.40137 -17.30696,-1.3596c-1.60231,0.78008 0.12468,11.67465 1.03154,10.6064z" fill="#181818" stroke="none" stroke-width="0" stroke-linecap="butt"/><path d="M232.37024,175.12543c0,0 -0.71647,2.34834 -0.85969,3.60158c-0.13924,1.21838 -0.19998,2.54461 -0.19998,2.54461c0,0 -1.95517,-0.71353 -2.68343,-2.06078c-0.68157,-1.26092 -0.91952,-4.08541 -0.91952,-4.08541z" fill="#4e4e4e" stroke="#4e4e4e" stroke-width="0.5" stroke-linecap="round"/><path d="M242.5094,176.1898l-9.07946,8.04893h-10.80879" fill="none" stroke="#4e4e4e" stroke-width="1.5" stroke-linecap="round"/><path d="M275.30794,165.49051v-7.41781h3.60293v7.41781z" fill="#2e2e2e" stroke="none" stroke-width="0" stroke-linecap="butt"/><path d="M255.67389,207.43426l-13.5,-34.6293h10.80881l13.625,34.84125c0,0 -5.40596,-0.10479 -7.42246,-0.14388c-1.38695,-0.02688 -3.51135,-0.06807 -3.51135,-0.06807zM259.994,201.35384l-9.6099,-22.13598l-3.07178,1.80021l8.91089,22.26061z" fill="#373737" stroke="#303030" stroke-width="1.5" stroke-linecap="butt"/><path d="M211.10116,194.41174l6.35813,-28.61155h11.73191l-6.14619,28.39961z" fill="#4e4e4e" stroke="none" stroke-width="0" stroke-linecap="butt"/><path d="M226.43602,176.18513v-12.29237h52.77241v12.29237z" fill="#2e2e2e" stroke="none" stroke-width="0" stroke-linecap="butt"/><path d="M276.02937,173.42994v-7.20588h6.78199v7.20588z" fill="#2e2e2e" stroke="none" stroke-width="0" stroke-linecap="butt"/><path d="M228.55538,173.42992l44.71879,-0.42388" fill="none" stroke="#2d2d2d" stroke-width="2" stroke-linecap="round"/><path d="M277.30794,180.11551v-7.41781h1.72793v7.41781z" fill="#2e2e2e" stroke="none" stroke-width="0" stroke-linecap="butt"/><path d="M226.59366,165.41908v-7.41781h3.60293v7.41781z" fill="#2e2e2e" stroke="none" stroke-width="0" stroke-linecap="butt"/><path d="M231.59366,165.27623v-2.27496h42.38865v2.27496z" fill="#2e2e2e" stroke="none" stroke-width="0" stroke-linecap="butt"/><path d="M185.10385,186.78468l-0.09091,-20.27273h3.04436v18.72727z" fill="#141414" stroke="none" stroke-width="0" stroke-linecap="butt"/></g></g></svg>