<svg version="1.1" xmlns="http://www.w3.org/2000/svg" xmlns:xlink="http://www.w3.org/1999/xlink" width="148.16129" height="34.70027" viewBox="0,0,148.16129,34.70027"><g transform="translate(-173.65677,-157.40961)"><g data-paper-data="{&quot;isPaintingLayer&quot;:true}" fill-rule="nonzero" stroke-linejoin="miter" stroke-miterlimit="10" stroke-dasharray="" stroke-dashoffset="0" style="mix-blend-mode: normal"><g fill="#333333" stroke="none" stroke-width="0" stroke-linecap="butt"><path d="M205.40568,183.76729c0.32399,-2.3497 0.78654,-5.70427 0.97878,-7.09846c0.16805,-1.21876 0.68593,-2.69555 0.93928,-2.59079c0.378,0.15634 1.47534,0.61016 2.15855,0.89271c0.3366,0.13921 0.33276,1.97672 0.15525,3.26412c-0.18314,1.32817 -0.59605,4.32278 -0.9068,6.57652c-0.21988,1.59471 -0.68594,2.69555 -0.93928,2.59077c-0.40347,-0.16686 -1.62653,-0.67268 -2.2907,-0.94735c-0.26461,-0.10944 -0.29388,-1.24567 -0.09507,-2.68754z"/><path d="M206.45837,177.33085c0.12524,-0.9083 0.30404,-2.20503 0.37835,-2.74395c0.06496,-0.47112 0.96428,-0.75284 1.65796,-0.46595c1.03499,0.42805 4.03962,1.67065 5.91029,2.4443c0.92165,0.38117 1.47531,1.32107 1.40668,1.81871c-0.07079,0.51341 -0.2304,1.67098 -0.35053,2.54218c-0.085,0.61645 -0.96427,0.75286 -1.65795,0.46596c-1.10475,-0.45689 -4.4536,-1.84187 -6.27215,-2.59396c-0.72454,-0.29966 -1.14951,-0.90993 -1.07265,-1.46729z"/><path d="M216.02442,180.43492c-0.32398,2.34972 -0.78653,5.70427 -0.97878,7.09849c-0.16805,1.21877 -0.68593,2.69555 -0.93928,2.59079c-0.378,-0.15634 -1.47533,-0.61017 -2.15854,-0.89272c-0.3366,-0.1392 -0.33277,-1.9767 -0.15525,-3.26412c0.18314,-1.32817 0.59605,-4.32278 0.90681,-6.57654c0.21988,-1.59471 0.68593,-2.69556 0.93927,-2.59078c0.40347,0.16686 1.62653,0.67268 2.2907,0.94737c0.26461,0.10944 0.29388,1.24567 0.09507,2.68752z" data-paper-data="{&quot;index&quot;:null}"/><path d="M215.04988,186.9037c-0.12524,0.9083 -0.30404,2.20499 -0.37835,2.74395c-0.06496,0.47112 -0.96429,0.75285 -1.65796,0.46597c-1.03499,-0.42805 -4.03961,-1.67065 -5.91029,-2.44431c-0.92165,-0.38117 -1.47531,-1.32106 -1.40668,-1.81871c0.07079,-0.51341 0.2304,-1.67098 0.35053,-2.54219c0.085,-0.61645 0.96428,-0.75284 1.65795,-0.46595c1.10475,0.45689 4.45359,1.84186 6.27215,2.59396c0.72454,0.29966 1.14951,0.90993 1.07265,1.46729z" data-paper-data="{&quot;index&quot;:null}"/></g><g fill="#4f4f4f" stroke="none" stroke-width="0" stroke-linecap="butt"><path d="M173.75429,178.89667c-0.03223,-2.42003 -0.07825,-5.87498 -0.09736,-7.31089c-0.01671,-1.25523 1.28739,-2.91371 2.41739,-2.92297c1.68598,-0.01379 6.5804,-0.05385 9.62771,-0.07879c1.50133,-0.01228 2.57813,1.77104 2.5958,3.09697c0.01822,1.36792 0.0593,4.45215 0.09022,6.77334c0.02189,1.64244 -1.28739,2.91371 -2.41738,2.92295c-1.7996,0.01474 -7.25476,0.05937 -10.21714,0.08362c-1.18026,0.00966 -1.97944,-1.07923 -1.99922,-2.56426z"/><path d="M174.36217,172.19534c-0.01245,-0.93548 -0.03025,-2.27102 -0.03765,-2.82606c-0.00645,-0.48523 3.61595,-1.15183 6.70995,-1.17714c4.61634,-0.03777 18.01782,-0.14747 26.36155,-0.21575c4.11081,-0.03364 7.00312,0.63547 7.00993,1.14801c0.00704,0.52878 0.02293,1.72099 0.03489,2.61826c0.00846,0.6349 -3.61592,1.15184 -6.70993,1.17715c-4.92747,0.04033 -19.86429,0.16257 -27.97554,0.22896c-3.23169,0.02644 -5.38557,-0.37937 -5.39321,-0.95341z"/><path d="M216.5226,171.0199c0.03226,2.42004 0.07825,5.87498 0.09738,7.31092c0.01673,1.25524 -1.28739,2.91371 -2.41739,2.92297c-1.68598,0.01379 -6.5804,0.05384 -9.6277,0.07878c-1.50131,0.01229 -2.57813,-1.77103 -2.5958,-3.09698c-0.01822,-1.36792 -0.05929,-4.45215 -0.09021,-6.77336c-0.02189,-1.64244 1.28736,-2.91371 2.41736,-2.92296c1.7996,-0.01474 7.25477,-0.05937 10.21716,-0.08361c1.18026,-0.00966 1.97944,1.07923 1.99921,2.56423z" data-paper-data="{&quot;index&quot;:null}"/><path d="M216.26325,177.71841c0.01245,0.93548 0.03023,2.27098 0.03765,2.82607c0.00645,0.48523 -3.61595,1.15184 -6.70997,1.17716c-4.61634,0.03777 -18.01782,0.14747 -26.36155,0.21574c-4.11081,0.03364 -7.00311,-0.63546 -7.00993,-1.148c-0.00704,-0.52878 -0.02294,-1.72099 -0.03489,-2.61827c-0.00846,-0.6349 3.61593,-1.15183 6.70993,-1.17714c4.92749,-0.04032 19.86427,-0.16257 27.97554,-0.22895c3.23169,-0.02644 5.38557,0.37936 5.39321,0.9534z" data-paper-data="{&quot;index&quot;:null}"/></g><g fill="#4f4f4f" stroke="none" stroke-width="0" stroke-linecap="butt"><path d="M173.872,185.4681c-0.0109,-2.42003 -0.02646,-5.87498 -0.03293,-7.31089c-0.00565,-1.25523 0.43547,-2.91371 0.81771,-2.92297c0.57031,-0.01379 2.22592,-0.05385 3.25671,-0.0788c0.50785,-0.01228 0.87208,1.77105 0.87806,3.09698c0.00616,1.36792 0.02006,4.45215 0.03052,6.77334c0.00741,1.64244 -0.43548,2.9137 -0.81771,2.92295c-0.60874,0.01474 -2.45403,0.05937 -3.45609,0.08363c-0.39924,0.00966 -0.66957,-1.07923 -0.67626,-2.56426z"/><path d="M174.07763,178.76677c-0.00421,-0.93548 -0.01024,-2.27102 -0.01274,-2.82606c-0.00218,-0.48523 1.22315,-1.15183 2.26974,-1.17714c1.56154,-0.03777 6.09477,-0.14747 8.91716,-0.21575c1.39054,-0.03364 2.36891,0.63547 2.37121,1.14801c0.00238,0.52878 0.00776,1.72099 0.0118,2.61826c0.00286,0.6349 -1.22313,1.15184 -2.26973,1.17715c-1.66679,0.04033 -6.71938,0.16257 -9.46312,0.22895c-1.09316,0.02644 -1.82175,-0.37937 -1.82433,-0.95341z"/><path d="M188.33898,177.59133c0.01091,2.42004 0.02647,5.87498 0.03294,7.31092c0.00566,1.25524 -0.43547,2.91371 -0.81771,2.92297c-0.57031,0.01379 -2.22591,0.05383 -3.2567,0.07878c-0.50784,0.01229 -0.87209,-1.77103 -0.87807,-3.09698c-0.00616,-1.36792 -0.02005,-4.45215 -0.03052,-6.77335c-0.00741,-1.64244 0.43547,-2.91372 0.81771,-2.92296c0.60874,-0.01474 2.45403,-0.05937 3.45609,-0.08361c0.39924,-0.00966 0.66958,1.07923 0.67626,2.56423z" data-paper-data="{&quot;index&quot;:null}"/><path d="M188.25126,184.28984c0.00421,0.93548 0.01022,2.27098 0.01273,2.82607c0.00218,0.48523 -1.22315,1.15184 -2.26974,1.17716c-1.56154,0.03777 -6.09477,0.14747 -8.91716,0.21574c-1.39054,0.03364 -2.36891,-0.63546 -2.37121,-1.148c-0.00238,-0.52878 -0.00776,-1.72099 -0.0118,-2.61827c-0.00286,-0.6349 1.22314,-1.15183 2.26973,-1.17714c1.66679,-0.04032 6.71937,-0.16257 9.46312,-0.22895c1.09316,-0.02644 1.82175,0.37936 1.82433,0.9534z" data-paper-data="{&quot;index&quot;:null}"/></g><path d="M180.77531,179.30504l30.01393,-0.08631" fill="none" stroke="#2a2a2a" stroke-width="1.5" stroke-linecap="round"/><path d="M281.14457,173.12917c0,-0.3929 0,-0.95382 0,-1.18695c0,-0.2038 2.14459,-0.47129 3.97203,-0.47129c2.72668,0 10.64232,0 15.57057,0c2.42801,0 4.1309,0.29093 4.1309,0.5062c0,0.22209 0,0.72283 0,1.09968c0,0.26665 -2.14459,0.47129 -3.97202,0.47129c-2.91039,0 -11.73284,0 -16.52386,0c-1.90877,0 -3.17762,-0.17783 -3.17762,-0.41893z" fill="#262626" stroke="none" stroke-width="0" stroke-linecap="butt"/><path d="M228.66967,176.40201l-6.11737,7.57477l-7.0454,-2.14975" fill="none" stroke="#353535" stroke-width="1.5" stroke-linecap="round"/><path d="M213.4074,175.16213c0,-1.73037 0,-4.20072 0,-5.22743c0,-0.89752 6.81986,-2.0756 12.63129,-2.0756c8.67081,0 33.84261,0 49.51452,0c7.72125,0 13.13647,1.28128 13.13647,2.22936c0,0.9781 0,3.18336 0,4.84308c0,1.17437 -6.81978,2.0756 -12.63123,2.0756c-9.2552,0 -37.31076,0 -52.54603,0c-6.07005,0 -10.10502,-0.78318 -10.10502,-1.84498z" fill="#343434" stroke="none" stroke-width="0" stroke-linecap="butt"/><path d="M298.14457,174.18199c0,-0.87929 0,-2.13461 0,-2.65634c0,-0.45608 2.14459,-1.05473 3.97202,-1.05473c2.72668,0 10.64232,0 15.57057,0c2.42801,0 4.1309,0.65108 4.1309,1.13285c0,0.49703 0,1.61764 0,2.46103c0,0.59675 -2.14459,1.05473 -3.97202,1.05473c-2.91039,0 -11.73284,0 -16.52386,0c-1.90877,0 -3.17762,-0.39797 -3.17762,-0.93754z" fill="#262626" stroke="none" stroke-width="0" stroke-linecap="butt"/><path d="M218.1359,176.86785l5.37406,-0.79617c0,0 0.36569,2.07322 -0.01313,2.92556c-0.41418,0.9319 -3.09187,1.01541 -3.09187,1.01541c0,0 0.88769,-0.66937 0.37892,-1.46885c-0.38536,-0.60555 -2.44894,-1.47692 -2.44894,-1.47692" fill="#323232" stroke="#2b2b2b" stroke-width="1.5" stroke-linecap="round"/><path d="M213.88608,169.92223l14.1069,-7.38933l0.22392,6.94149" fill="none" stroke="#2a2a2a" stroke-width="1.5" stroke-linecap="round"/><path d="M233.36703,168.3548v-5.37406" fill="none" stroke="#2a2a2a" stroke-width="1.5" stroke-linecap="round"/><path d="M227.44438,165.93088c0,-1.73134 1.40352,-3.13487 3.13487,-3.13487c1.73134,0 3.13487,1.40352 3.13487,3.13487c0,1.73134 -1.40352,3.13487 -3.13487,3.13487c-1.73134,0 -3.13487,-1.40352 -3.13487,-3.13487z" fill="#2a2a2a" stroke="#2a2a2a" stroke-width="0.5" stroke-linecap="butt"/><path d="M224.74216,175.63415l60.65005,-0.38385" fill="none" stroke="#2a2a2a" stroke-width="1" stroke-linecap="round"/><g fill="#333333" stroke="none" stroke-width="0" stroke-linecap="butt"><path d="M218.2019,162.67804c-0.27603,-1.03606 -0.67007,-2.51522 -0.83386,-3.12998c-0.14316,-0.53739 0.9214,-1.24434 1.98869,-1.24565c1.59242,-0.00195 6.21529,-0.00767 9.09349,-0.0112c1.41802,-0.00176 2.61693,0.76421 2.76818,1.33187c0.15601,0.58565 0.50781,1.90607 0.77254,2.89984c0.18734,0.70318 -0.9214,1.24434 -1.98869,1.24565c-1.69974,0.0021 -6.85221,0.00844 -9.65023,0.01188c-1.11478,0.00138 -1.98077,-0.46667 -2.15014,-1.10243z"/><path d="M218.0966,159.81066c-0.10669,-0.40051 -0.25901,-0.97227 -0.32234,-1.20991c-0.05533,-0.20773 3.30144,-0.48461 6.22378,-0.48823c4.3602,-0.00536 17.01809,-0.02094 24.89888,-0.03063c3.8827,-0.00478 6.68481,0.28843 6.74328,0.50787c0.0603,0.22637 0.1963,0.7368 0.29864,1.12094c0.07242,0.27182 -3.30143,0.48461 -6.22375,0.48822c-4.65408,0.00573 -18.76208,0.02309 -26.4233,0.03251c-3.05239,0.00374 -5.12972,-0.17502 -5.19519,-0.42077z"/><path d="M258.20477,159.64618c0.27603,1.03606 0.67007,2.51524 0.83386,3.12999c0.14316,0.53739 -0.9214,1.24434 -1.98869,1.24565c-1.59242,0.00195 -6.21529,0.00765 -9.09349,0.01118c-1.41802,0.00176 -2.61693,-0.76421 -2.76818,-1.33187c-0.15601,-0.58565 -0.50779,-1.90607 -0.77254,-2.89984c-0.18734,-0.70318 0.92136,-1.24434 1.98865,-1.24565c1.69974,-0.0021 6.85224,-0.00842 9.65026,-0.01186c1.11478,-0.00138 1.98075,0.46665 2.15012,1.10242z" data-paper-data="{&quot;index&quot;:null}"/><path d="M258.26797,162.27316c0.10669,0.40051 0.25901,0.97227 0.32234,1.20991c0.05533,0.20773 -3.30146,0.48463 -6.2238,0.48822c-4.3602,0.00536 -17.01808,0.02094 -24.89886,0.03063c-3.8827,0.00478 -6.68484,-0.28844 -6.74329,-0.50787c-0.0603,-0.22637 -0.1963,-0.73678 -0.29864,-1.12094c-0.07242,-0.27182 3.30143,-0.48463 6.22375,-0.48823c4.65408,-0.00573 18.7621,-0.02309 26.42332,-0.03251c3.05239,-0.00374 5.12972,0.17502 5.19519,0.42077z" data-paper-data="{&quot;index&quot;:null}"/><path d="M220.32442,161.85061c-0.10671,-0.40051 -0.25901,-0.97227 -0.32234,-1.20991c-0.05533,-0.20773 3.30144,-0.48461 6.22378,-0.48823c4.3602,-0.00536 17.01808,-0.02094 24.89886,-0.03063c3.88268,-0.00478 6.68482,0.28843 6.74328,0.50787c0.0603,0.22637 0.1963,0.7368 0.29864,1.12094c0.07242,0.27182 -3.30143,0.48461 -6.22375,0.48823c-4.65408,0.00573 -18.76208,0.02309 -26.4233,0.03251c-3.05239,0.00374 -5.12972,-0.17502 -5.19519,-0.42077z"/></g><path d="M260.43386,161.68889c0,1.7123 -3.05606,2.36758 -4.61617,2.36758c-1.56011,0 -1.03348,-0.65528 -1.03348,-2.36758c0,-1.7123 -1.01518,-3.019 0.54493,-3.019c1.56011,0 5.10473,1.30668 5.10473,3.019z" fill="#333333" stroke="none" stroke-width="0" stroke-linecap="butt"/><path d="M219.38779,163.01752l-3.5827,1.65356l-1.51575,-6.88983l4.27168,1.37798z" fill="#333333" stroke="#333333" stroke-width="0.5" stroke-linecap="round"/><path d="M276.28082,187.60417v-11.57143h3.28571v11.57143z" fill="#343434" stroke="none" stroke-width="0" stroke-linecap="butt"/><path d="M278.6234,192.10989l-0.95188,-5.77928l1.40958,-0.23217l0.95188,5.77928z" fill="#343434" stroke="none" stroke-width="0" stroke-linecap="butt"/></g></g></svg>