<svg version="1.1" xmlns="http://www.w3.org/2000/svg" xmlns:xlink="http://www.w3.org/1999/xlink" width="105.52185" height="44.80913" viewBox="0,0,105.52185,44.80913"><g transform="translate(-259.16701,-157.40962)"><g data-paper-data="{&quot;isPaintingLayer&quot;:true}" fill-rule="nonzero" stroke-linejoin="miter" stroke-miterlimit="10" stroke-dasharray="" stroke-dashoffset="0" style="mix-blend-mode: normal"><path d="M326.31189,175.40201l-17.11737,11.1462l-23.88469,-5.97118" fill="none" stroke="#353535" stroke-width="1.5" stroke-linecap="round"/><path d="M285.33533,175.16213c0,-1.73037 0,-4.20072 0,-5.22743c0,-0.89752 6.81986,-2.0756 12.63129,-2.0756c8.67081,0 33.84261,0 49.51452,0c7.72125,0 13.13647,1.28128 13.13647,2.22936c0,0.9781 0,3.18336 0,4.84308c0,1.17437 -6.81978,2.0756 -12.63123,2.0756c-9.2552,0 -37.31076,0 -52.54603,0c-6.07005,0 -10.10502,-0.78318 -10.10502,-1.84498z" fill="#343434" stroke="none" stroke-width="0" stroke-linecap="butt"/><path d="M359.61536,173.81056c0,-0.87929 0,-2.13461 0,-2.65634c0,-0.45608 0.45961,-1.05473 0.85125,-1.05473c0.58436,0 2.28077,0 3.33695,0c0.52035,0 0.8853,0.65108 0.8853,1.13285c0,0.49703 0,1.61764 0,2.46103c0,0.59675 -0.45961,1.05473 -0.85125,1.05473c-0.62373,0 -2.51448,0 -3.54125,0c-0.40907,0 -0.681,-0.39797 -0.681,-0.93754z" fill="#262626" stroke="none" stroke-width="0" stroke-linecap="butt"/><g fill="#4f4f4f" stroke="none" stroke-width="0" stroke-linecap="butt"><path d="M262.09248,187.56013c-0.87085,-2.25805 -2.11412,-5.48175 -2.63083,-6.82156c-0.45169,-1.17122 -0.07472,-3.08261 0.75176,-3.40137c1.23313,-0.47557 4.81293,-1.85618 7.04173,-2.71576c1.09808,-0.42349 2.51303,0.95151 2.99018,2.18869c0.49225,1.27636 1.60211,4.15416 2.4374,6.31998c0.59104,1.5325 0.07472,3.08261 -0.75176,3.40135c-1.31623,0.50763 -5.30615,2.0464 -7.47284,2.88203c-0.86325,0.33292 -1.83125,-0.46776 -2.36564,-1.85339z"/><path d="M260.19288,181.11603c-0.33663,-0.87287 -0.81723,-2.11901 -1.01697,-2.63691c-0.1746,-0.45275 2.25185,-2.0712 4.51482,-2.94394c3.37641,-1.30215 13.17828,-5.08242 19.28091,-7.43599c3.00666,-1.15956 5.36462,-1.32648 5.54905,-0.84824c0.19028,0.49339 0.61931,1.6058 0.9422,2.44301c0.22847,0.5924 -2.25182,2.0712 -4.5148,2.94394c-3.60397,1.38993 -14.5288,5.60326 -20.46139,7.89126c-2.36367,0.91158 -4.08726,1.1225 -4.29382,0.58688z"/><path d="M290.73844,168.44569c0.87087,2.25805 2.11412,5.48175 2.63085,6.82158c0.45171,1.17122 0.07472,3.08261 -0.75176,3.40137c-1.23313,0.47557 -4.81293,1.85616 -7.04173,2.71574c-1.09806,0.42349 -2.51303,-0.95149 -2.99018,-2.18869c-0.49225,-1.27636 -1.60211,-4.15416 -2.4374,-6.32c-0.59104,-1.5325 -0.07474,-3.08261 0.75174,-3.40135c1.31623,-0.50763 5.30616,-2.0464 7.47286,-2.88202c0.86325,-0.33292 1.83125,0.46776 2.36562,1.85337z" data-paper-data="{&quot;index&quot;:null}"/><path d="M292.89297,174.7915c0.33663,0.87287 0.81721,2.11899 1.01697,2.63691c0.1746,0.45275 -2.25185,2.07121 -4.51482,2.94396c-3.37641,1.30215 -13.17828,5.08242 -19.28091,7.43599c-3.00666,1.15956 -5.36462,1.32648 -5.54905,0.84824c-0.19028,-0.49339 -0.61931,-1.60579 -0.9422,-2.44301c-0.22847,-0.5924 2.25184,-2.0712 4.5148,-2.94394c3.60398,-1.38993 14.52878,-5.60326 20.46139,-7.89126c2.36367,-0.91158 4.08726,-1.1225 4.29382,-0.58688z" data-paper-data="{&quot;index&quot;:null}"/></g><g fill="#4f4f4f" stroke="none" stroke-width="0" stroke-linecap="butt"><path d="M271.70051,201.9805c-2.27611,-0.72344 -5.52557,-1.75628 -6.87609,-2.18556c-1.18057,-0.37523 -2.37694,-1.72771 -2.07589,-2.46044c0.44918,-1.09328 1.75316,-4.26709 2.56502,-6.24313c0.39999,-0.97355 2.36587,-1.12065 3.61296,-0.72428c1.28657,0.40893 4.18737,1.33094 6.37051,2.02485c1.54477,0.49099 2.37694,1.72769 2.07589,2.46044c-0.47944,1.16696 -1.93281,4.70438 -2.72205,6.62535c-0.31445,0.76534 -1.55366,0.94668 -2.95036,0.50274z"/><path d="M265.58879,199.52686c-0.87984,-0.27965 -2.13594,-0.6789 -2.65799,-0.84484c-0.45635,-0.14505 -0.08803,-2.68991 0.73626,-4.69624c1.22989,-2.99349 4.8003,-11.68375 7.02325,-17.09432c1.0952,-2.66567 2.51479,-4.32814 2.99686,-4.17491c0.49733,0.15809 1.61865,0.51448 2.46255,0.78271c0.59715,0.18979 0.08804,2.68989 -0.73626,4.69623c-1.31277,3.19525 -5.29224,12.88111 -7.45324,18.14091c-0.861,2.09561 -1.83155,3.36206 -2.37143,3.19047z"/><path d="M276.04321,171.93232c2.27611,0.72344 5.52559,1.75628 6.8761,2.18556c1.18057,0.37523 2.37694,1.72769 2.07589,2.46044c-0.44918,1.09328 -1.75316,4.26711 -2.56502,6.24313c-0.39997,0.97355 -2.36589,1.12065 -3.61298,0.72426c-1.28657,-0.40893 -4.18737,-1.33096 -6.37051,-2.02485c-1.54477,-0.49099 -2.37693,-1.72767 -2.07587,-2.4604c0.47944,-1.16696 1.93281,-4.70439 2.72205,-6.62537c0.31445,-0.76534 1.55364,-0.94668 2.95034,-0.50274z" data-paper-data="{&quot;index&quot;:null}"/><path d="M282.24779,174.15994c0.87984,0.27965 2.13594,0.6789 2.65799,0.84484c0.45635,0.14505 0.08803,2.68993 -0.73628,4.69624c-1.22989,2.99349 -4.8003,11.68375 -7.02325,17.0943c-1.0952,2.66567 -2.51481,4.32816 -2.99688,4.17494c-0.49733,-0.15809 -1.61863,-0.51448 -2.46254,-0.78271c-0.59715,-0.18979 -0.08804,-2.68991 0.73626,-4.69624c1.31277,-3.19525 5.29223,-12.88111 7.45324,-18.14091c0.86098,-2.09561 1.83155,-3.36206 2.37145,-3.19047z" data-paper-data="{&quot;index&quot;:null}"/></g><path d="M305.49241,177.15356l5.37406,-0.79617c0,0 0.36569,2.07322 -0.01313,2.92556c-0.41418,0.9319 -3.09187,1.01541 -3.09187,1.01541c0,0 0.88769,-0.66937 0.37892,-1.46885c-0.38536,-0.60555 -2.44894,-1.47692 -2.44894,-1.47692" fill="#323232" stroke="#2b2b2b" stroke-width="1.5" stroke-linecap="round"/><path d="M285.81401,169.92223l14.1069,-7.38933l0.22392,6.94149" fill="none" stroke="#2a2a2a" stroke-width="1.5" stroke-linecap="round"/><path d="M305.29496,162.98074v5.37406" fill="none" stroke="#2a2a2a" stroke-width="1.5" stroke-linecap="round"/><path d="M299.37231,165.93088c0,-1.73134 1.40352,-3.13487 3.13487,-3.13487c1.73134,0 3.13487,1.40352 3.13487,3.13487c0,1.73134 -1.40352,3.13487 -3.13487,3.13487c-1.73134,0 -3.13487,-1.40352 -3.13487,-3.13487z" fill="#2a2a2a" stroke="#2a2a2a" stroke-width="0.5" stroke-linecap="butt"/><path d="M267.24072,185.61456l22.00805,-8.317" fill="none" stroke="#2a2a2a" stroke-width="1.5" stroke-linecap="round"/><path d="M265.32143,197.13039l4.09451,-11.51583" fill="none" stroke="#2a2a2a" stroke-width="1.5" stroke-linecap="round"/><path d="M296.67009,175.63415l60.65005,-0.38385" fill="none" stroke="#2a2a2a" stroke-width="1" stroke-linecap="round"/><g fill="#333333" stroke="none" stroke-width="0" stroke-linecap="butt"><path d="M290.12983,162.67804c-0.27603,-1.03606 -0.67007,-2.51522 -0.83386,-3.12998c-0.14316,-0.53739 0.9214,-1.24434 1.98869,-1.24565c1.59242,-0.00195 6.21529,-0.00767 9.09349,-0.0112c1.41802,-0.00176 2.61693,0.76421 2.76818,1.33187c0.15601,0.58565 0.50781,1.90607 0.77254,2.89984c0.18734,0.70318 -0.9214,1.24434 -1.98869,1.24565c-1.69974,0.0021 -6.85221,0.00844 -9.65023,0.01188c-1.11478,0.00138 -1.98077,-0.46667 -2.15014,-1.10243z"/><path d="M290.02453,159.81066c-0.10669,-0.40051 -0.25901,-0.97227 -0.32234,-1.20991c-0.05533,-0.20773 3.30144,-0.48461 6.22378,-0.48823c4.3602,-0.00536 17.01809,-0.02094 24.89888,-0.03063c3.8827,-0.00478 6.68481,0.28843 6.74328,0.50787c0.0603,0.22637 0.1963,0.7368 0.29864,1.12094c0.07242,0.27182 -3.30143,0.48461 -6.22375,0.48822c-4.65408,0.00573 -18.76208,0.02309 -26.4233,0.03251c-3.05239,0.00374 -5.12972,-0.17502 -5.19519,-0.42077z"/><path d="M330.1327,159.64618c0.27603,1.03606 0.67007,2.51524 0.83386,3.12999c0.14316,0.53739 -0.9214,1.24434 -1.98869,1.24565c-1.59242,0.00195 -6.21529,0.00765 -9.09349,0.01118c-1.41802,0.00176 -2.61693,-0.76421 -2.76818,-1.33187c-0.15601,-0.58565 -0.50779,-1.90607 -0.77254,-2.89984c-0.18734,-0.70318 0.92136,-1.24434 1.98865,-1.24565c1.69974,-0.0021 6.85224,-0.00842 9.65026,-0.01186c1.11478,-0.00138 1.98075,0.46665 2.15012,1.10242z" data-paper-data="{&quot;index&quot;:null}"/><path d="M330.1959,162.27316c0.10669,0.40051 0.25901,0.97227 0.32234,1.20991c0.05533,0.20773 -3.30146,0.48463 -6.2238,0.48822c-4.3602,0.00536 -17.01808,0.02094 -24.89886,0.03063c-3.8827,0.00478 -6.68484,-0.28844 -6.74329,-0.50787c-0.0603,-0.22637 -0.1963,-0.73678 -0.29864,-1.12094c-0.07242,-0.27182 3.30143,-0.48463 6.22375,-0.48823c4.65408,-0.00573 18.7621,-0.02309 26.42332,-0.03251c3.05239,-0.00374 5.12972,0.17502 5.19519,0.42077z" data-paper-data="{&quot;index&quot;:null}"/><path d="M292.25235,161.85061c-0.10671,-0.40051 -0.25901,-0.97227 -0.32234,-1.20991c-0.05533,-0.20773 3.30144,-0.48461 6.22378,-0.48823c4.3602,-0.00536 17.01808,-0.02094 24.89886,-0.03063c3.88268,-0.00478 6.68482,0.28843 6.74328,0.50787c0.0603,0.22637 0.1963,0.7368 0.29864,1.12094c0.07242,0.27182 -3.30143,0.48461 -6.22375,0.48823c-4.65408,0.00573 -18.76208,0.02309 -26.4233,0.03251c-3.05239,0.00374 -5.12972,-0.17502 -5.19519,-0.42077z"/></g><path d="M332.36179,161.68889c0,1.7123 -3.05606,2.36758 -4.61617,2.36758c-1.56011,0 -1.03348,-0.65528 -1.03348,-2.36758c0,-1.7123 -1.01518,-3.019 0.54493,-3.019c1.56011,0 5.10473,1.30668 5.10473,3.019z" fill="#333333" stroke="none" stroke-width="0" stroke-linecap="butt"/><path d="M291.31572,163.01752l-3.5827,1.65356l-1.51575,-6.88983l4.27168,1.37798z" fill="#333333" stroke="#333333" stroke-width="0.5" stroke-linecap="round"/></g></g></svg>