<svg version="1.1" xmlns="http://www.w3.org/2000/svg" xmlns:xlink="http://www.w3.org/1999/xlink" width="601.5" height="434.7895" viewBox="0,0,601.5,434.7895"><g transform="translate(117.25,3.75)"><g data-paper-data="{&quot;isPaintingLayer&quot;:true}" fill-rule="nonzero" stroke-linejoin="miter" stroke-miterlimit="10" stroke-dasharray="" stroke-dashoffset="0" style="mix-blend-mode: normal"><path d="M1.5,359v-359h479v359z" fill="#8f8f8f" stroke="#474747" stroke-width="7.5" stroke-linecap="butt"/><path d="M-113.5,185v-1h2v1z" fill="#8f8f8f" stroke="#474747" stroke-width="7.5" stroke-linecap="butt"/><path d="M1.5,40h473" fill="none" stroke="#474747" stroke-width="7.5" stroke-linecap="round"/><path d="M0.5,100h477" fill="none" stroke="#474747" stroke-width="7.5" stroke-linecap="round"/><path d="M474.5,175h-469" fill="none" stroke="#474747" stroke-width="7.5" stroke-linecap="round"/><path d="M2.5,246h474" fill="none" stroke="#474747" stroke-width="7.5" stroke-linecap="round"/><path d="M5.5,313h472" fill="none" stroke="#474747" stroke-width="7.5" stroke-linecap="round"/><path d="M4.5,139h469" fill="none" stroke="#474747" stroke-width="7.5" stroke-linecap="round"/><path d="M3.5,213h475" fill="none" stroke="#474747" stroke-width="7.5" stroke-linecap="round"/><path d="M1.5,281h474" fill="none" stroke="#474747" stroke-width="7.5" stroke-linecap="round"/><path d="M3.5,71h473" fill="none" stroke="#474747" stroke-width="7.5" stroke-linecap="round"/><path d="M247.5,367c0,13.80712 -10,16.80712 -10,3c0,-13.80712 -21.4051,-24 4,-24c25.4051,0 6,7.19288 6,21z" fill="#474747" stroke="#474747" stroke-width="7.5" stroke-linecap="butt"/><path d="M244.96459,381.0395c0,6.76549 -1.567,12.25 -3.5,12.25c-1.933,0 -3.5,-5.48451 -3.5,-12.25c0,-6.76549 1.567,-12.25 3.5,-12.25c1.933,0 3.5,5.48451 3.5,12.25z" fill="none" stroke="#424242" stroke-width="2.5" stroke-linecap="butt"/><path d="M246.46459,398.2895c0,8.28427 -2.23858,15 -5,15c-2.76142,0 -5,-6.71573 -5,-15c0,-8.28427 2.23858,-15 5,-15c2.76142,0 5,6.71573 5,15z" fill="none" stroke="#424242" stroke-width="2.5" stroke-linecap="butt"/><path d="M244.96459,418.0395c0,6.48935 -1.67893,11.75 -3.75,11.75c-2.07107,0 -3.75,-5.26065 -3.75,-11.75c0,-6.48935 1.67893,-11.75 3.75,-11.75c2.07107,0 3.75,5.26065 3.75,11.75z" fill="none" stroke="#424242" stroke-width="2.5" stroke-linecap="butt"/></g></g></svg>