<svg version="1.1" xmlns="http://www.w3.org/2000/svg" xmlns:xlink="http://www.w3.org/1999/xlink" width="609.37499" height="446.5948" viewBox="0,0,609.37499,446.5948"><defs><linearGradient x1="214.14816" y1="-34.51247" x2="214.14816" y2="70.13732" gradientUnits="userSpaceOnUse" id="color-1"><stop offset="0" stop-color="#ffffff"/><stop offset="1" stop-color="#ffffff" stop-opacity="0"/></linearGradient></defs><g transform="translate(81.10917,58.86914)"><g data-paper-data="{&quot;isPaintingLayer&quot;:true}" fill-rule="nonzero" stroke-linejoin="miter" stroke-miterlimit="10" stroke-dasharray="" stroke-dashoffset="0" style="mix-blend-mode: normal"><path d="M-15.02693,386.72566v-420.42042h504.5045v420.42042z" fill="#d9d9d9" stroke="#000000" stroke-width="2" stroke-linecap="butt"/><g fill="#747474" stroke="#5c5c5c" stroke-width="2" stroke-linecap="butt"><path d="M256.39081,325.76034v-111.5h47.5v111.5z"/><path d="M297.89081,270.76034c0,2.20914 -1.11929,4 -2.5,4c-1.38071,0 -2.5,-1.79086 -2.5,-4c0,-2.20914 1.11929,-4 2.5,-4c1.38071,0 2.5,1.79086 2.5,4z"/><path d="M304.39081,325.76034v-111.5h47.5v111.5z" data-paper-data="{&quot;index&quot;:null}"/><path d="M312.89081,266.76034c1.38071,0 2.5,1.79086 2.5,4c0,2.20914 -1.11929,4 -2.5,4c-1.38071,0 -2.5,-1.79086 -2.5,-4c0,-2.20914 1.11929,-4 2.5,-4z" data-paper-data="{&quot;index&quot;:null}"/></g><g fill="#747474" stroke="#5c5c5c" stroke-width="2" stroke-linecap="butt"><path d="M383.3909,325.76034v-111.5h47.5v111.5z"/><path d="M424.8909,270.76034c0,2.20914 -1.11929,4 -2.5,4c-1.38071,0 -2.5,-1.79086 -2.5,-4c0,-2.20914 1.11929,-4 2.5,-4c1.38071,0 2.5,1.79086 2.5,4z"/><path d="M431.39089,325.76034v-111.5h47.5v111.5z" data-paper-data="{&quot;index&quot;:null}"/><path d="M439.89089,266.76034c1.38071,0 2.5,1.79086 2.5,4c0,2.20914 -1.11929,4 -2.5,4c-1.38071,0 -2.5,-1.79086 -2.5,-4c0,-2.20914 1.11929,-4 2.5,-4z" data-paper-data="{&quot;index&quot;:null}"/></g><path d="M-47.01567,156.10664v-7h562v7z" fill="#9c9c9c" stroke="#858585" stroke-width="2.5" stroke-linecap="butt"/><path d="M-21.40837,119.88331v-158.14565h524.02402v158.14565z" fill="#8a8a8b" stroke="none" stroke-width="0" stroke-linecap="butt"/><g fill="#747474" stroke="#5c5c5c" stroke-width="2" stroke-linecap="butt"><path d="M147.39082,324.26034v-111.5h47.5v111.5z"/><path d="M188.89082,269.26034c0,2.20914 -1.11929,4 -2.5,4c-1.38071,0 -2.5,-1.79086 -2.5,-4c0,-2.20914 1.11929,-4 2.5,-4c1.38071,0 2.5,1.79086 2.5,4z"/><path d="M195.39082,324.26034v-111.5h47.5v111.5z" data-paper-data="{&quot;index&quot;:null}"/><path d="M203.89082,265.26034c1.38071,0 2.5,1.79086 2.5,4c0,2.20914 -1.11929,4 -2.5,4c-1.38071,0 -2.5,-1.79086 -2.5,-4c0,-2.20914 1.11929,-4 2.5,-4z" data-paper-data="{&quot;index&quot;:null}"/></g><g fill="#747474" stroke="#5c5c5c" stroke-width="2" stroke-linecap="butt"><path d="M-80.10917,324.26034v-111.5h47.5v111.5z"/><path d="M-38.60917,269.26034c0,2.20914 -1.11929,4 -2.5,4c-1.38071,0 -2.5,-1.79086 -2.5,-4c0,-2.20914 1.11929,-4 2.5,-4c1.38071,0 2.5,1.79086 2.5,4z"/><path d="M-32.10917,324.26034v-111.5h47.5v111.5z" data-paper-data="{&quot;index&quot;:null}"/><path d="M-23.60917,265.26034c1.38071,0 2.5,1.79086 2.5,4c0,2.20914 -1.11929,4 -2.5,4c-1.38071,0 -2.5,-1.79086 -2.5,-4c0,-2.20914 1.11929,-4 2.5,-4z" data-paper-data="{&quot;index&quot;:null}"/></g><g fill="#747474" stroke="#5c5c5c" stroke-width="2" stroke-linecap="butt"><path d="M31.39083,324.26034v-111.5h47.5v111.5z"/><path d="M72.89083,269.26034c0,2.20914 -1.11929,4 -2.5,4c-1.38071,0 -2.5,-1.79086 -2.5,-4c0,-2.20914 1.11929,-4 2.5,-4c1.38071,0 2.5,1.79086 2.5,4z"/><path d="M79.39083,324.26034v-111.5h47.5v111.5z" data-paper-data="{&quot;index&quot;:null}"/><path d="M87.89083,265.26034c1.38071,0 2.5,1.79086 2.5,4c0,2.20914 -1.11929,4 -2.5,4c-1.38071,0 -2.5,-1.79086 -2.5,-4c0,-2.20914 1.11929,-4 2.5,-4z" data-paper-data="{&quot;index&quot;:null}"/></g><path d="M-18.12492,119.60666l-1,-173l249,41.5l-3,82.5z" data-paper-data="{&quot;index&quot;:null}" fill="#747474" stroke="#5c5c5c" stroke-width="2" stroke-linecap="butt"/><path d="M503.11721,119.38332h-527.02703" fill="none" stroke="#362929" stroke-width="2" stroke-linecap="round"/><path d="M-35.79725,380.37506v-58.55856c0,0 144.69627,0 227.98482,0c100.97304,0 335.07825,0 335.07825,0v58.55856z" fill="#535353" stroke="#858585" stroke-width="2" stroke-linecap="butt"/><path d="M224.87507,73.60666l4.5,-86.5l259,-39l-3.5,171z" fill="#747474" stroke="#5c5c5c" stroke-width="2" stroke-linecap="butt"/><path d="M317.99352,347.25004v-143.38635h119.50649v143.38637z" fill="#969696" stroke="#838383" stroke-width="1.5" stroke-linecap="butt"/><path d="M318.86206,203.12624l11.30357,-8.53097l94.13311,-0.0952l12.90909,8.84498z" fill="#969696" stroke="#838383" stroke-width="1.5" stroke-linecap="round"/><path d="M45.60932,57.16915l-20,5" fill="none" stroke="none" stroke-width="0" stroke-linecap="round"/><path d="M61.10932,55.16915l-27,6.5l-34,-5.5" fill="none" stroke="none" stroke-width="0" stroke-linecap="round"/><path d="M311.54176,81.93996l4.16667,-70.5h155.16667l-0.66667,99.83333z" fill="#4b4b4b" stroke="#5c5c5c" stroke-width="2" stroke-linecap="butt"/><path d="M17.70842,101.27329l-0.66667,-93.83333l157.16667,1l2.16667,63.5z" data-paper-data="{&quot;index&quot;:null}" fill="#4b4b4b" stroke="#5c5c5c" stroke-width="2" stroke-linecap="butt"/><g fill="#2c2c2c" stroke="#202020" stroke-width="2"><path d="M165.47534,104.14043v-34.125h137v34.12501z" stroke-linecap="butt"/><path d="M167.02532,68.21858l4.4,-4.15l125.05,-0.12812l4.5,4.49063z" stroke-linecap="round"/></g><path d="M160.2846,109.68999l4,-12.25h139.25l4.5,12z" fill-opacity="0.41935" fill="#2c2c2c" stroke="none" stroke-width="0" stroke-linecap="butt"/><path d="M110.00001,195.90909l106.96296,-254.61569c0,0 30.98761,-0.80095 32.07315,1.15314c9.5242,17.14462 126.96389,254.42264 126.96389,254.42264z" fill="url(#color-1)" stroke="none" stroke-width="0" stroke-linecap="butt"/></g></g></svg>