<svg version="1.1" xmlns="http://www.w3.org/2000/svg" xmlns:xlink="http://www.w3.org/1999/xlink" width="576.5315" height="437.47226" viewBox="0,0,576.5315,437.47226"><g transform="translate(48.26571,49.24661)"><g data-paper-data="{&quot;isPaintingLayer&quot;:true}" fill-rule="nonzero" stroke-linejoin="miter" stroke-miterlimit="10" stroke-dasharray="" stroke-dashoffset="0" style="mix-blend-mode: normal"><path d="M-15.52696,387.22565v-420.42042h504.5045v420.42042z" fill="#d9d9d9" stroke="#000000" stroke-width="2" stroke-linecap="butt"/><g fill="#747474" stroke="#5c5c5c" stroke-width="2" stroke-linecap="butt"><path d="M256.39081,325.76034v-111.5h47.5v111.5z"/><path d="M297.89081,270.76034c0,2.20914 -1.11929,4 -2.5,4c-1.38071,0 -2.5,-1.79086 -2.5,-4c0,-2.20914 1.11929,-4 2.5,-4c1.38071,0 2.5,1.79086 2.5,4z"/><path d="M304.39081,325.76034v-111.5h47.5v111.5z" data-paper-data="{&quot;index&quot;:null}"/><path d="M312.89081,266.76034c1.38071,0 2.5,1.79086 2.5,4c0,2.20914 -1.11929,4 -2.5,4c-1.38071,0 -2.5,-1.79086 -2.5,-4c0,-2.20914 1.11929,-4 2.5,-4z" data-paper-data="{&quot;index&quot;:null}"/></g><g fill="#747474" stroke="#5c5c5c" stroke-width="2" stroke-linecap="butt"><path d="M383.39086,325.76034v-111.5h47.5v111.5z"/><path d="M424.89086,270.76034c0,2.20914 -1.11929,4 -2.5,4c-1.38071,0 -2.5,-1.79086 -2.5,-4c0,-2.20914 1.11929,-4 2.5,-4c1.38071,0 2.5,1.79086 2.5,4z"/><path d="M431.39086,325.76034v-111.5h47.5v111.5z" data-paper-data="{&quot;index&quot;:null}"/><path d="M439.89086,266.76034c1.38071,0 2.5,1.79086 2.5,4c0,2.20914 -1.11929,4 -2.5,4c-1.38071,0 -2.5,-1.79086 -2.5,-4c0,-2.20914 1.11929,-4 2.5,-4z" data-paper-data="{&quot;index&quot;:null}"/></g><path d="M-47.0157,156.10664v-7h562v7z" fill="#9c9c9c" stroke="#858585" stroke-width="2.5" stroke-linecap="butt"/><path d="M-21.9084,107.3833v-145.64565h524.02402v145.64565z" fill="#8a8a8b" stroke="none" stroke-width="0" stroke-linecap="butt"/><path d="M23.37505,102.10665l-12,-149l131,37v101z" data-paper-data="{&quot;index&quot;:null}" fill="#747474" stroke="#5c5c5c" stroke-width="2" stroke-linecap="butt"/><path d="M-23.40985,107.38331h527.02703" fill="none" stroke="#362929" stroke-width="2" stroke-linecap="round"/><path d="M-35.79727,380.37505v-58.55856c0,0 144.69627,0 227.98482,0c100.97304,0 335.07825,0 335.07825,0v58.55856z" fill="#535353" stroke="#858585" stroke-width="2" stroke-linecap="butt"/><text transform="translate(30.62017,136.16332) scale(0.5,0.5)" font-size="40" xml:space="preserve" fill="#271919" fill-rule="nonzero" stroke="#5c5c5c" stroke-width="0" stroke-linecap="butt" stroke-linejoin="miter" stroke-miterlimit="10" stroke-dasharray="" stroke-dashoffset="0" font-family="Pixel" font-weight="normal" text-anchor="start" style="mix-blend-mode: normal"><tspan x="0" dy="0">Buy skins and abilities</tspan></text><text transform="translate(33.61414,92.36529) scale(0.5,0.5)" font-size="40" xml:space="preserve" fill="#414141" fill-rule="nonzero" stroke="none" stroke-width="1" stroke-linecap="butt" stroke-linejoin="miter" stroke-miterlimit="10" stroke-dasharray="" stroke-dashoffset="0" font-family="Pixel" font-weight="normal" text-anchor="start" style="mix-blend-mode: normal"><tspan x="0" dy="0">Buy guns</tspan></text><path d="M214.1825,161.00776l25.92709,2.80651l2.77083,3.57192l0.19792,4.59247l-5.34375,5.61301l-51.45834,2.29623l-4.94791,-3.57192l0.19791,-4.8476l6.53125,-6.12329l25.13542,-4.33732l-3.95833,-6.12329l-0.79167,-8.16439l9.30208,-4.08219l2.5625,1.55651l1.34375,3.58219" fill="none" stroke="#858585" stroke-width="2.5" stroke-linecap="round"/><path d="M298.18244,161.25776l25.92708,2.80651l2.77084,3.57192l0.19791,4.59247l-5.34375,5.61301l-51.45833,2.29623l-4.94792,-3.57192l0.19792,-4.8476l6.53125,-6.12329l25.13542,-4.33732l-3.95834,-6.12329l-0.79166,-8.16439l9.30208,-4.08219l2.5625,1.55651l1.34375,3.58219" fill="none" stroke="#858585" stroke-width="2.5" stroke-linecap="round"/><path d="M371.68253,162.25776l25.92708,2.80651l2.77084,3.57192l0.19791,4.59247l-5.34375,5.61301l-51.45833,2.29623l-4.94792,-3.57192l0.19792,-4.8476l6.53125,-6.12329l25.13542,-4.33732l-3.95834,-6.12329l-0.79166,-8.16439l9.30208,-4.08219l2.5625,1.55651l1.34375,3.58219" fill="none" stroke="#858585" stroke-width="2.5" stroke-linecap="round"/><path d="M146.6825,162.00776l25.92709,2.80651l2.77083,3.57192l0.19792,4.59247l-5.34375,5.61301l-51.45834,2.29623l-4.94792,-3.57192l0.19792,-4.8476l6.53125,-6.12329l25.13542,-4.33732l-3.95833,-6.12329l-0.79167,-8.16439l9.30208,-4.08219l2.5625,1.55651l1.34375,3.58219" fill="none" stroke="#858585" stroke-width="2.5" stroke-linecap="round"/><path d="M165.9753,75.14042v-26h137v26z" fill="#2c2c2c" stroke="#555555" stroke-width="2" stroke-linecap="butt"/><path d="M169.7253,47.39044l8,-4l119.25,-0.25l4.5,5.25z" fill="#2c2c2c" stroke="#555555" stroke-width="2" stroke-linecap="round"/><path d="M440.43253,162.00776l25.92708,2.80651l2.77084,3.57192l0.19791,4.59247l-5.34375,5.61301l-51.45833,2.29623l-4.94792,-3.57192l0.19792,-4.8476l6.53125,-6.12329l25.13542,-4.33732l-3.95834,-6.12329l-0.79166,-8.16439l9.30208,-4.08219l2.5625,1.55651l1.34375,3.58219" fill="none" stroke="#858585" stroke-width="2.5" stroke-linecap="round"/><path d="M73.93251,162.25776l25.92708,2.80651l2.77084,3.57192l0.19791,4.59247l-5.34375,5.61301l-51.45834,2.29623l-4.94792,-3.57192l0.19792,-4.8476l6.53125,-6.12329l25.13542,-4.33732l-3.95834,-6.12329l-0.79166,-8.16439l9.30208,-4.08219l2.5625,1.55651l1.34375,3.58219" fill="none" stroke="#858585" stroke-width="2.5" stroke-linecap="round"/><path d="M3.6825,162.00776l25.92708,2.80651l2.77084,3.57192l0.19791,4.59247l-5.34375,5.61301l-51.45834,2.29623l-4.94791,-3.57192l0.19791,-4.8476l6.53125,-6.12329l25.13542,-4.33732l-3.95834,-6.12329l-0.79166,-8.16439l9.30208,-4.08219l2.5625,1.55651l1.34375,3.58219" fill="none" stroke="#858585" stroke-width="2.5" stroke-linecap="round"/><path d="M332.37505,89.10665v-100l131,-37l-12,149z" fill="#747474" stroke="#5c5c5c" stroke-width="2" stroke-linecap="butt"/><path d="M31.41768,19.5739l-3.01892,-12.53281l7.5197,-1.81135l3.01892,12.53281z" fill="#000000" stroke="#000000" stroke-width="2" stroke-linecap="butt"/><path d="M32.87013,22.4539l-1.09739,-3.73901l5.80531,-1.70384l1.09739,3.73901z" fill="#000000" stroke="#000000" stroke-width="2" stroke-linecap="butt"/><path d="M28.82674,8.67733l-1.90599,-6.49407l28.53457,-8.37483l1.90599,6.49407z" fill="#000000" stroke="#000000" stroke-width="2" stroke-linecap="butt"/><path d="M55.94955,-0.1381l-1.50169,-5.11654l5.9037,-1.73272l1.50169,5.11654z" fill="#000000" stroke="#000000" stroke-width="2" stroke-linecap="butt"/><path d="M184.36712,332.85062l1.25,-160.5l77.75,-4.5l-1,177z" data-paper-data="{&quot;index&quot;:null}" fill="#9c9c9c" stroke="#858585" stroke-width="2.5" stroke-linecap="butt"/><path d="M26.95051,339.26732l-1.33333,-171.66667l79,5v162z" fill="#9c9c9c" stroke="#858585" stroke-width="2.5" stroke-linecap="butt"/><path d="M106.36721,333.85062l-1.5,-160.9985l80.0015,-1.0015l-1.2515,160.75z" fill="#9c9c9c" stroke="#858585" stroke-width="2.5" stroke-linecap="butt"/><path d="M183.86712,333.85062l0.25,8l-79,1v-8z" fill="#9c9c9c" stroke="#858585" stroke-width="2" stroke-linecap="round"/><path d="M45.00156,186.68135l37.53753,3.00301" fill="none" stroke="#555555" stroke-width="2" stroke-linecap="round"/><path d="M82.81765,199.52331l-36.66667,-3.33333" fill="none" stroke="#555555" stroke-width="2" stroke-linecap="round"/><path d="M82.81763,208.52331l-37.66667,-4.33333" fill="none" stroke="#555555" stroke-width="2" stroke-linecap="round"/><path d="M246.81764,182.18998l-42.33333,6" fill="none" stroke="#555555" stroke-width="2" stroke-linecap="round"/><path d="M204.48434,196.85665l43.33333,-3.66667" fill="none" stroke="#555555" stroke-width="2" stroke-linecap="round"/><path d="M247.15094,204.18999l-42.33333,2.33333" fill="none" stroke="#555555" stroke-width="2" stroke-linecap="round"/><path d="M29.47263,2.50298l-6.14978,-3.11112" fill="none" stroke="#000000" stroke-width="2" stroke-linecap="round"/><path d="M47.0713,3.11016l-4.15282,6.24177l-6.32617,1.74983" fill="none" stroke="#000000" stroke-width="2" stroke-linecap="round"/><path d="M42.62639,3.98725l-2.41491,3.05993l0.00744,-2.88771" fill="none" stroke="#000000" stroke-width="2" stroke-linecap="round"/><path d="M32.83839,17.97455l-1.60977,-8.39781" fill="none" stroke="#1e1e1e" stroke-width="2" stroke-linecap="round"/><path d="M54.69474,-0.40976l-14.09937,4.03126" fill="none" stroke="#1e1e1e" stroke-width="2" stroke-linecap="round"/><g stroke-width="2"><path d="M96.41771,8.57387l-3.01892,-12.53281l7.5197,-1.81135l3.01893,12.53281z" fill="#000000" stroke="#000000" stroke-linecap="butt"/><path d="M97.87016,11.4539l-1.0974,-3.73901l5.80531,-1.70385l1.0974,3.73902z" fill="#000000" stroke="#000000" stroke-linecap="butt"/><path d="M93.82676,-2.32267l-1.90599,-6.49407l28.53457,-8.37482l1.906,6.49406z" fill="#000000" stroke="#000000" stroke-linecap="butt"/><path d="M120.94957,-11.13809l-1.50169,-5.11655l5.90371,-1.73273l1.50169,5.11655z" fill="#000000" stroke="#000000" stroke-linecap="butt"/><path d="M94.47262,-8.49698l-6.14978,-3.11113" fill="none" stroke="#000000" stroke-linecap="round"/><path d="M112.0713,-7.88984l-4.15282,6.24178l-6.32617,1.74984" fill="none" stroke="#000000" stroke-linecap="round"/><path d="M107.62639,-7.01275l-2.41491,3.05993l0.00743,-2.8877" fill="none" stroke="#000000" stroke-linecap="round"/><path d="M96.22868,-1.42325l1.60976,8.39782" fill="none" stroke="#1e1e1e" stroke-linecap="round"/><path d="M105.59539,-7.37851l14.09937,-4.03126" fill="none" stroke="#1e1e1e" stroke-linecap="round"/></g><path d="M39.41772,61.5739l-3.01892,-12.53281l7.5197,-1.81135l3.01893,12.53281z" fill="#000000" stroke="#000000" stroke-width="2" stroke-linecap="butt"/><path d="M40.87013,64.45386l-1.09739,-3.73901l5.80531,-1.70385l1.0974,3.73902z" fill="#000000" stroke="#000000" stroke-width="2" stroke-linecap="butt"/><path d="M36.82671,50.67735l-1.90599,-6.49407l28.53457,-8.37482l1.906,6.49406z" fill="#000000" stroke="#000000" stroke-width="2" stroke-linecap="butt"/><path d="M63.94952,41.86189l-1.50169,-5.11655l5.90371,-1.73273l1.50169,5.11655z" fill="#000000" stroke="#000000" stroke-width="2" stroke-linecap="butt"/><path d="M31.32284,41.39189l6.14978,3.11113" fill="none" stroke="#000000" stroke-width="2" stroke-linecap="round"/><path d="M55.0713,45.11016l-4.15282,6.24178l-6.32617,1.74984" fill="none" stroke="#000000" stroke-width="2" stroke-linecap="round"/><path d="M50.62639,45.98725l-2.41491,3.05992l0.00743,-2.8877" fill="none" stroke="#000000" stroke-width="2" stroke-linecap="round"/><path d="M39.22863,51.57675l1.60977,8.39782" fill="none" stroke="#1e1e1e" stroke-width="2" stroke-linecap="round"/><path d="M48.59538,45.62148l14.09937,-4.03126" fill="none" stroke="#1e1e1e" stroke-width="2" stroke-linecap="round"/><path d="M104.41771,52.5739l-3.01892,-12.53281l7.5197,-1.81135l3.01893,12.53281z" fill="#000000" stroke="#000000" stroke-width="2" stroke-linecap="butt"/><path d="M105.87016,55.4539l-1.0974,-3.73902l5.80531,-1.70385l1.0974,3.73902z" fill="#000000" stroke="#000000" stroke-width="2" stroke-linecap="butt"/><path d="M101.82676,41.67735l-1.90599,-6.49407l28.53457,-8.37482l1.90599,6.49407z" fill="#000000" stroke="#000000" stroke-width="2" stroke-linecap="butt"/><path d="M128.9495,32.86189l-1.5017,-5.11654l5.90371,-1.73273l1.50169,5.11655z" fill="#000000" stroke="#000000" stroke-width="2" stroke-linecap="butt"/><path d="M102.47265,35.50302l-6.14978,-3.11113" fill="none" stroke="#000000" stroke-width="2" stroke-linecap="round"/><path d="M120.0713,36.11012l-4.15282,6.24178l-6.32617,1.74984" fill="none" stroke="#000000" stroke-width="2" stroke-linecap="round"/><path d="M115.62639,36.98725l-2.41491,3.05992l0.00743,-2.8877" fill="none" stroke="#000000" stroke-width="2" stroke-linecap="round"/><path d="M105.83844,50.97457l-1.60976,-8.39782" fill="none" stroke="#1e1e1e" stroke-width="2" stroke-linecap="round"/><path d="M127.69475,32.5902l-14.09937,4.03126" fill="none" stroke="#1e1e1e" stroke-width="2" stroke-linecap="round"/><g data-paper-data="{&quot;index&quot;:null}"><path d="M397.95941,-2.96195c0,0 -0.64909,1.32564 -1.35334,1.85277c-0.75249,0.56322 -2.2817,0.6851 -2.2817,0.6851c0,0 0.18053,-0.64184 0.28626,-1.24085c0.10876,-0.61616 -0.01026,-1.82109 -0.01026,-1.82109z" fill="#4e4e4e" stroke="#4e4e4e" stroke-width="0.5" stroke-linecap="round"/><path d="M400.08261,1.97327l-7.78686,-1.21488l-2.68879,-4.70226" fill="none" stroke="#4e4e4e" stroke-width="0.5" stroke-linecap="round"/><path d="M373.45404,-12.03159l1.25446,-3.5517l2.59562,0.40496l-1.25446,3.5517z" fill="#2e2e2e" stroke="none" stroke-width="0" stroke-linecap="butt"/><path d="M398.09268,6.69505l0.37497,-14.28875l8.45189,1.31864l-0.25813,14.41405z" fill="#4e4e4e" stroke="none" stroke-width="0" stroke-linecap="butt"/><path d="M421.16448,-2.9819c0,0 -9.10572,2.43384 -12.74158,1.86658c-3.78849,-0.59107 -11.60397,-1.81042 -11.60397,-1.81042l1.82793,-5.17533c0,0 7.68648,1.19922 11.45127,1.7866c3.66303,0.5715 10.00259,-1.86563 10.00259,-1.86563l1.06374,5.19821z" fill="#373737" stroke="#3d3d3d" stroke-width="0.5" stroke-linecap="butt"/><path d="M372.47905,4.41198c0,0 5.95182,-2.71176 6.66865,-4.7413c0.71684,-2.02954 2.15051,-6.08863 2.15051,-6.08863l7.78687,1.21489c0,0 -1.4039,3.9748 -2.11467,5.98715c-0.72271,2.04617 -6.80128,7.39734 -6.80128,7.39734z" fill="#373737" stroke="#303030" stroke-width="0.5" stroke-linecap="butt"/><path d="M360.67804,-8.24313l2.07883,-5.88567l38.01824,5.9315l-2.07883,5.88567z" fill="#2e2e2e" stroke="none" stroke-width="0" stroke-linecap="butt"/><path d="M358.54836,-9.96733l1.21862,-3.45023l4.88587,0.76228l-1.21862,3.45023z" fill="#2e2e2e" stroke="none" stroke-width="0" stroke-linecap="butt"/><path d="M365.49081,-9.09833l32.14458,5.22925" fill="none" stroke="#2d2d2d" stroke-width="2" stroke-linecap="round"/><path d="M419.01759,-3.74513c0,0 -6.34447,1.55856 -9.4373,1.62723c-2.90285,0.06445 -8.58585,-1.22709 -8.58585,-1.22709" fill="none" stroke="#2d2d2d" stroke-width="2" stroke-linecap="round"/></g><text transform="translate(223.60959,58.28172) rotate(6.21828) scale(0.12274,0.12274)" font-size="40" xml:space="preserve" fill="#202020" fill-rule="nonzero" stroke="none" stroke-width="1" stroke-linecap="butt" stroke-linejoin="miter" stroke-miterlimit="10" stroke-dasharray="" stroke-dashoffset="0" font-family="Pixel" font-weight="normal" text-anchor="start" style="mix-blend-mode: normal"><tspan x="0" dy="0">up left down right</tspan></text><g fill="#969696" stroke="#838383" stroke-width="1.5"><path d="M317.99352,347.25005v-57.06817h119.50649v57.06818z" stroke-linecap="butt"/><path d="M318.86204,289.66683l11.30357,-12.03249l94.13311,-0.13427l12.90909,12.47539z" stroke-linecap="round"/></g><path d="M103.43754,341.0069l-5.25,-6.5l4.75,-0.5z" fill="#9c9c9c" stroke="#858585" stroke-width="2" stroke-linecap="round"/><path d="M185.93754,333.00687l4.75,0.5l-5.25,6.5z" data-paper-data="{&quot;index&quot;:null}" fill="#9c9c9c" stroke="#858585" stroke-width="2" stroke-linecap="round"/><path d="M45.10929,57.16914l-20,5" fill="none" stroke="none" stroke-width="0" stroke-linecap="round"/><path d="M60.60929,55.16914l-27,6.5l-34,-5.5" fill="none" stroke="none" stroke-width="0" stroke-linecap="round"/><path d="M59.10929,49.66914l-4,6l-27,6.5" fill="none" stroke="#4b4b4b" stroke-width="2.5" stroke-linecap="round"/><path d="M128.10929,40.16913l-4,6l-27,6.5" fill="none" stroke="#4b4b4b" stroke-width="2.5" stroke-linecap="round"/><path d="M55.1093,6.66915l-4,6l-27,6.5" fill="none" stroke="#4b4b4b" stroke-width="2.5" stroke-linecap="round"/><path d="M122.6093,-5.33085l-4,6l-27,6.5" fill="none" stroke="#4b4b4b" stroke-width="2.5" stroke-linecap="round"/><path d="M338.87507,82.60662l0.5,-55.5l115.5,-22l-9,88.5z" fill="#4b4b4b" stroke="#5c5c5c" stroke-width="2" stroke-linecap="butt"/></g></g></svg>