<svg version="1.1" xmlns="http://www.w3.org/2000/svg" xmlns:xlink="http://www.w3.org/1999/xlink" width="123.84578" height="80.60148" viewBox="0,0,123.84578,80.60148"><defs><radialGradient cx="238.04794" cy="180" r="65.78205" gradientUnits="userSpaceOnUse" id="color-1"><stop offset="0" stop-color="#705124"/><stop offset="1" stop-color="#705124" stop-opacity="0"/></radialGradient><radialGradient cx="240" cy="179.58933" r="65.78205" gradientUnits="userSpaceOnUse" id="color-2"><stop offset="0" stop-color="#24246f"/><stop offset="1" stop-color="#24246f" stop-opacity="0"/></radialGradient></defs><g transform="translate(-178.07711,-139.69926)"><g data-paper-data="{&quot;isPaintingLayer&quot;:true}" fill-rule="nonzero" stroke="none" stroke-width="0" stroke-linecap="butt" stroke-linejoin="miter" stroke-miterlimit="10" stroke-dasharray="" stroke-dashoffset="0" style="mix-blend-mode: normal"><path d="M181.45211,146.47105c7.31334,-12.34469 38.58079,-7.34063 69.8378,11.1769c31.25701,18.51753 50.66719,43.5363 43.35385,55.88099c-7.31334,12.34469 -38.58079,7.34063 -69.8378,-11.1769c-31.25701,-18.51753 -50.66719,-43.5363 -43.35385,-55.88099z" fill="url(#color-1)"/><path d="M301.1724,155.39811c5.2766,13.34294 -17.83369,34.99031 -51.61827,48.35075c-33.78458,13.36044 -65.44993,13.37463 -70.72652,0.03169c-5.2766,-13.34294 17.83369,-34.99031 51.61827,-48.35075c33.78458,-13.36044 65.44993,-13.37463 70.72652,-0.03169z" fill="url(#color-2)"/><path d="M261.88469,179.58933c0,11.80385 -9.79811,21.37276 -21.88469,21.37276c-12.08658,0 -21.88469,-9.56892 -21.88469,-21.37276c0,-11.80385 9.79811,-21.37276 21.88469,-21.37276c12.08658,0 21.88469,9.56892 21.88469,21.37276z" fill="#000000"/></g></g></svg>