<svg version="1.1" xmlns="http://www.w3.org/2000/svg" xmlns:xlink="http://www.w3.org/1999/xlink" width="13.43972" height="24.38888" viewBox="0,0,13.43972,24.38888"><g transform="translate(-232.51637,-167.78919)"><g data-paper-data="{&quot;isPaintingLayer&quot;:true}" fill-rule="nonzero" stroke-linejoin="miter" stroke-miterlimit="10" stroke-dasharray="" stroke-dashoffset="0" style="mix-blend-mode: normal"><path d="M244.2126,192.17807l-11.69623,-1.20169l1.6124,-15.69367l11.69623,1.20169z" fill="#ffca35" stroke="none" stroke-width="NaN" stroke-linecap="butt"/><path d="M241.47974,167.80904c3.43423,0.35284 4.76508,6.0452 4.42484,9.35679c-0.34024,3.31159 -2.22273,2.98839 -5.65696,2.63556c-3.43423,-0.35284 -6.59957,-1.29633 -6.25933,-4.60792c0.34024,-3.31159 4.05719,-7.73726 7.49145,-7.38442z" fill="#ffca35" stroke="none" stroke-width="0" stroke-linecap="butt"/><path d="M236.36015,186.55523l-2.4793,3.05681l6.06446,-9.43891" fill="none" stroke="#ffca35" stroke-width="0.5" stroke-linecap="round"/><path d="M234.25896,189.65088l6.37436,-7.49657" fill="none" stroke="#ffca35" stroke-width="0.5" stroke-linecap="round"/><path d="M243.31637,178.35424l-8.54978,10.07514" fill="none" stroke="#ffca35" stroke-width="0.5" stroke-linecap="round"/><path d="M234.7727,175.89539c0,0 0.36616,-2.23703 1.812,-4.18204c1.30057,-1.74961 3.64619,-3.22944 4.45281,-3.20529c0.71987,0.02156 2.05078,1.24681 2.76199,2.80211" fill="none" stroke="#ffdd36" stroke-width="0.5" stroke-linecap="round"/><path d="M243.14442,190.52527l-9.16987,-0.74949l-0.03657,-0.58168l9.06476,0.835z" fill="#ffa236" stroke="#ffa236" stroke-width="0.5" stroke-linecap="butt"/></g></g></svg>