<svg version="1.1" xmlns="http://www.w3.org/2000/svg" xmlns:xlink="http://www.w3.org/1999/xlink" width="14.64946" height="24.10826" viewBox="0,0,14.64946,24.10826"><g transform="translate(-231.77716,-166.45324)"><g data-paper-data="{&quot;isPaintingLayer&quot;:true}" fill-rule="nonzero" stroke-linejoin="miter" stroke-miterlimit="10" stroke-dasharray="" stroke-dashoffset="0" style="mix-blend-mode: normal"><path d="M243.39806,190.5615l-11.6209,-1.16627l1.55756,-15.51987l11.6209,1.16627z" fill="#ffca35" stroke="none" stroke-width="NaN" stroke-linecap="butt"/><path d="M240.61531,166.47216c3.41211,0.34244 4.74995,5.96816 4.42129,9.24307c-0.32867,3.27491 -2.19939,2.95888 -5.61151,2.61644c-3.41211,-0.34244 -6.5588,-1.26938 -6.23014,-4.5443c0.32867,-3.27491 4.00821,-7.65767 7.42035,-7.31524z" fill="#ffca35" stroke="none" stroke-width="0" stroke-linecap="butt"/><path d="M246.29438,176.50699l-14.4158,-1.44677l0.13225,-1.31772l14.4158,1.44677z" fill="#ffca35" stroke="none" stroke-width="0" stroke-linecap="butt"/><path d="M235.58268,185.0167l-2.45405,3.027l5.99721,-9.34391" fill="none" stroke="#ffca35" stroke-width="0.5" stroke-linecap="round"/><path d="M233.50431,188.08142l6.31045,-7.42403" fill="none" stroke="#ffca35" stroke-width="0.5" stroke-linecap="round"/><path d="M242.46912,176.89512l-8.46402,9.97762" fill="none" stroke="#ffca35" stroke-width="0.5" stroke-linecap="round"/><path d="M243.74155,176.77103c0,0 -0.2792,9.04418 -1.67189,11.06039c-1.59011,2.30198 -9.19144,0.18718 -9.19144,0.18718" fill="none" stroke="#ffa236" stroke-width="0.5" stroke-linecap="round"/><path d="M233.97605,174.47994c0,0 0.35743,-2.21251 1.78808,-4.13831c1.28691,-1.73233 3.61261,-3.19987 4.41387,-3.17751c0.71508,0.01997 2.04046,1.22892 2.75126,2.76537" fill="none" stroke="#ffdd36" stroke-width="0.5" stroke-linecap="round"/></g></g></svg>