<svg version="1.1" xmlns="http://www.w3.org/2000/svg" xmlns:xlink="http://www.w3.org/1999/xlink" width="14.63705" height="24.22032" viewBox="0,0,14.63705,24.22032"><g transform="translate(-231.84505,-166.43314)"><g data-paper-data="{&quot;isPaintingLayer&quot;:true}" fill-rule="nonzero" stroke-linejoin="miter" stroke-miterlimit="10" stroke-dasharray="" stroke-dashoffset="0" style="mix-blend-mode: normal"><path d="M243.59743,190.65346l-11.7032,-1.05072l1.40327,-15.62978l11.7032,1.05072z" fill="#898989" stroke="none" stroke-width="NaN" stroke-linecap="butt"/><path d="M240.54383,166.44836c3.43627,0.30851 4.84152,5.95402 4.5454,9.25212c-0.2961,3.2981 -2.18144,2.9999 -5.61771,2.69139c-3.43627,-0.30851 -6.61169,-1.20785 -6.31559,-4.50596c0.2961,-3.2981 3.95159,-7.74608 7.38789,-7.43756z" fill="#898989" stroke="none" stroke-width="0" stroke-linecap="butt"/><path d="M246.36296,176.48373l-14.51791,-1.30344l0.11915,-1.32706l14.51791,1.30344z" fill="#898989" stroke="none" stroke-width="0" stroke-linecap="butt"/><path d="M235.67651,185.15769l-2.4369,3.07111l5.93478,-9.46345" fill="none" stroke="#898989" stroke-width="0.5" stroke-linecap="round"/><path d="M233.61794,188.26278l6.27016,-7.5353" fill="none" stroke="#898989" stroke-width="0.5" stroke-linecap="round"/><path d="M234.10898,187.04152l8.40978,-10.12698" fill="none" stroke="#898989" stroke-width="0.5" stroke-linecap="round"/><path d="M243.79752,176.7763c0,0 -0.18549,9.1016 -1.56532,11.14465c-1.57542,2.33263 -9.24484,0.28525 -9.24484,0.28525" fill="none" stroke="#4f4f4f" stroke-width="0.5" stroke-linecap="round"/><path d="M233.94906,174.57441c0,0 0.33625,-2.22961 1.75521,-4.1821c1.2764,-1.75634 3.60062,-3.25726 4.40695,-3.24319c0.7196,0.01255 2.06572,1.21482 2.797,2.75302" fill="none" stroke="#4f4f4f" stroke-width="0.5" stroke-linecap="round"/></g></g></svg>