<svg version="1.1" xmlns="http://www.w3.org/2000/svg" xmlns:xlink="http://www.w3.org/1999/xlink" width="39.94367" height="80.37494" viewBox="0,0,39.94367,80.37494"><g transform="translate(-231.11774,-139.93158)"><g data-paper-data="{&quot;isPaintingLayer&quot;:true}" fill-rule="nonzero" stroke-width="0" stroke-linecap="butt" stroke-linejoin="miter" stroke-miterlimit="10" stroke-dasharray="" stroke-dashoffset="0" style="mix-blend-mode: normal"><path d="M231.7158,149.62496l-0.39967,-6.99425l9.19245,-0.59951l1.19901,4.39639z" fill="#7d1919" stroke="none"/><path d="M235.11301,184.39639v-19.58391h8.19327v19.58391z" fill="#7d1919" stroke="none"/><path d="M245.54932,220.30652v-32.56286h6.10553v32.56286z" fill="#125816" stroke="#000000"/><path d="M231.11774,159.87633v-13.89938c1.11069,-0.44869 2.16954,-0.94095 3.17443,-1.49108c2.18428,-1.1958 4.11357,-2.665 5.76592,-4.55429h12.22551v19.94475z" fill="#197c1f" stroke="none"/><path d="M235.59514,164.35371v-6.51257h11.80404v6.51257z" fill="#197c1f" stroke="none"/><path d="" fill="#197c1f" stroke="none"/><path d="M231.52479,214.53694v-32.56286h6.10554v32.56286z" fill="#197c1f" stroke="none"/><path d="M231.81827,167.2797v-5.44248h39.24314v5.44248z" fill="#197c1f" stroke="none"/><path d="M231.52479,191.21809v-29.30657h20.35179v29.30657zM242.3071,169.86018l-4.14475,-1.85033l-2.64967,-0.65131l0.34787,15.83883c0,0 5.49273,-4.28526 6.60101,-7.60881c0.9492,-2.84649 -0.15447,-5.72838 -0.15447,-5.72838z" fill="#197c1f" stroke="none"/></g></g></svg>