<svg version="1.1" xmlns="http://www.w3.org/2000/svg" xmlns:xlink="http://www.w3.org/1999/xlink" width="58.82616" height="30.45726" viewBox="0,0,58.82616,30.45726"><g transform="translate(-176.09549,-183.67533)"><g data-paper-data="{&quot;isPaintingLayer&quot;:true}" fill-rule="nonzero" stroke-width="0" stroke-linecap="butt" stroke-linejoin="miter" stroke-miterlimit="10" stroke-dasharray="" stroke-dashoffset="0" style="mix-blend-mode: normal"><path d="M188.05516,204.56268l-11.95966,-4.24521c0,0 4.16793,-5.60281 5.89175,-8.47998c1.58881,-2.65181 4.07922,-8.16217 4.07922,-8.16217l6.20523,1.55817z" fill="#5d0000" stroke="none"/><path d="M232.01297,199.01618l-26.35798,-5.74982l0.59628,-2.73342l26.35798,5.74982z" fill="#5d0000" stroke="none"/><path d="M224.73621,211.74627l-23.03883,-5.02578l1.02219,-4.68587l23.03883,5.02578z" fill="#5d0000" stroke="none"/><path d="M186.64302,189.26554l-1.43799,-0.32661c0.84124,-1.45157 1.67614,-2.90563 2.50327,-4.36367z" fill="#115616" stroke="none"/><path d="M233.56935,200.53008l-2.72229,-0.6183c0.41483,-2.13514 -1.73401,-2.60389 -1.73401,-2.60389c-6.3701,-1.38442 -12.66118,-3.17101 -19.04876,-4.56443l-2.47806,-0.08677c0,0 -1.72766,-0.03004 -2.18127,1.47653l-3.58973,-0.81532l1.35229,-5.95389l31.75412,7.21221z" fill="#125816" stroke="#000000"/><path d="" fill="#197c1f" stroke="none"/><path d="" fill="#197c1f" stroke="none"/><path d="M201.16305,207.55147l-22.48836,-5.1077c0.17833,-0.81456 0.32182,-1.48273 0.41882,-1.94151c0.12963,-0.61302 0.26267,-1.23341 0.3974,-1.86004c2.954,-4.9597 5.87111,-9.90911 8.69374,-14.9086l17.48602,3.97153z" fill="#197c1f" stroke="none"/><path d="" fill="#197c1f" stroke="none"/><path d="M230.13867,214.13259l-31.75412,-7.21221l1.3523,-5.9539l7.86336,1.78599c-0.28814,0.26502 -0.52893,0.6555 -0.65359,1.22695c-0.47955,2.1983 1.71876,2.67785 1.71876,2.67785c3.34688,0.72775 6.68488,1.18246 10.10526,1.35492l0.21781,0.07884c0,0 2.1983,0.47955 2.67785,-1.71876c0.03149,-0.14433 0.05143,-0.28126 0.06121,-0.41112l9.76348,2.21755z" fill="#197c1f" stroke="none"/><path d="" fill="#197c1f" stroke="none"/><path d="" fill="#197c1f" stroke="none"/><path d="M192.81904,203.35199l-15.0338,-3.27953l0.38333,-1.75719l15.0338,3.27953z" fill="#5d0000" stroke="#5d0000"/><path d="M192.44584,190.99848l-8.786,-1.91661l0.25554,-1.17147l8.786,1.91661z" fill="#5d0000" stroke="none"/></g></g></svg>