<svg version="1.1" xmlns="http://www.w3.org/2000/svg" xmlns:xlink="http://www.w3.org/1999/xlink" width="59.09724" height="33.89935" viewBox="0,0,59.09724,33.89935"><g transform="translate(-181.78693,-178.80316)"><g data-paper-data="{&quot;isPaintingLayer&quot;:true}" fill-rule="nonzero" stroke-width="0" stroke-linecap="butt" stroke-linejoin="miter" stroke-miterlimit="10" stroke-dasharray="" stroke-dashoffset="0" style="mix-blend-mode: normal"><path d="M193.3669,199.78277l-11.57997,-5.19226c0,0 4.60456,-5.24987 6.55394,-7.97926c1.79671,-2.51561 4.72174,-7.80809 4.72174,-7.80809l6.06,2.05163z" fill="#5d0000" stroke="none"/><path d="M237.62821,197.78552l-25.81088,-7.84869l0.81394,-2.67668l25.81088,7.84869z" fill="#5d0000" stroke="none"/><path d="M229.35231,209.88989l-22.56062,-6.86034l1.39532,-4.5886l22.56062,6.86034z" fill="#5d0000" stroke="none"/><path d="M193.18822,184.42163l-1.4071,-0.44107c0.95513,-1.37929 1.90415,-2.76158 2.84573,-4.14846z" fill="#115616" stroke="none"/><path d="M239.05795,199.41956l-2.66382,-0.835c0.58502,-2.09492 -1.51922,-2.73478 -1.51922,-2.73478c-6.23829,-1.89168 -12.36552,-4.1779 -18.62051,-6.07995l-2.46308,-0.28557c0,0 -1.71966,-0.16873 -2.29284,1.29653l-3.51263,-1.10107l1.82622,-5.82601l31.0721,9.73985z" fill="#125816" stroke="#000000"/><path d="" fill="#197c1f" stroke="none"/><path d="" fill="#197c1f" stroke="none"/><path d="M206.19232,203.81491l-22.00535,-6.89778c0.24319,-0.79761 0.43989,-1.45209 0.57344,-1.90159c0.17846,-0.60063 0.3609,-1.20832 0.54554,-1.8221c3.34289,-4.70636 6.64817,-9.40543 9.86332,-14.16201l17.11045,5.36342z" fill="#197c1f" stroke="none"/><path d="" fill="#197c1f" stroke="none"/><path d="M234.5456,212.70251l-31.0721,-9.73985l1.82623,-5.82602l7.69447,2.41191c-0.30849,0.24101 -0.57988,0.61089 -0.75004,1.17048c-0.6546,2.15267 1.49808,2.80727 1.49808,2.80727c3.2776,0.99427 6.56828,1.71566 9.96375,2.16234l0.21077,0.09609c0,0 2.15267,0.6546 2.80727,-1.49808c0.04298,-0.14134 0.07386,-0.27622 0.09404,-0.40487l9.55377,2.99472z" fill="#197c1f" stroke="none"/><path d="" fill="#197c1f" stroke="none"/><path d="" fill="#197c1f" stroke="none"/><path d="M198.21265,198.9587l-14.72176,-4.47666l0.52325,-1.72072l14.72176,4.47666z" fill="#5d0000" stroke="#5d0000"/><path d="M198.83307,186.61513l-8.60363,-2.61623l0.34883,-1.14715l8.60363,2.61623z" fill="#5d0000" stroke="none"/></g></g></svg>