<svg version="1.1" xmlns="http://www.w3.org/2000/svg" xmlns:xlink="http://www.w3.org/1999/xlink" width="208.66668" height="286.67745" viewBox="0,0,208.66668,286.67745"><g transform="translate(-135.66666,71.9605)"><g data-paper-data="{&quot;isPaintingLayer&quot;:true}" fill-rule="nonzero" stroke-linecap="butt" stroke-linejoin="miter" stroke-miterlimit="10" stroke-dasharray="" stroke-dashoffset="0" style="mix-blend-mode: normal"><g fill="none" stroke="#424242" stroke-width="2.5"><path d="M150.46459,-54.7105c0,8.28427 -2.23858,15 -5,15c-2.76142,0 -5,-6.71573 -5,-15c0,-8.28427 2.23858,-15 5,-15c2.76142,0 5,6.71573 5,15z"/><path d="M148.96459,-34.9605c0,6.48935 -1.67893,11.75 -3.75,11.75c-2.07107,0 -3.75,-5.26065 -3.75,-11.75c0,-6.48935 1.67893,-11.75 3.75,-11.75c2.07107,0 3.75,5.26065 3.75,11.75z"/><path d="M148.96459,-17.4605c0,6.76549 -1.567,12.25 -3.5,12.25c-1.933,0 -3.5,-5.48451 -3.5,-12.25c0,-6.76549 1.567,-12.25 3.5,-12.25c1.933,0 3.5,5.48451 3.5,12.25z"/><path d="M150.46459,-0.2105c0,8.28427 -2.23858,15 -5,15c-2.76142,0 -5,-6.71573 -5,-15c0,-8.28427 2.23858,-15 5,-15c2.76142,0 5,6.71573 5,15z"/><path d="M148.96459,19.5395c0,6.48935 -1.67893,11.75 -3.75,11.75c-2.07107,0 -3.75,-5.26065 -3.75,-11.75c0,-6.48935 1.67893,-11.75 3.75,-11.75c2.07107,0 3.75,5.26065 3.75,11.75z"/><path d="M148.96459,37.0395c0,6.76549 -1.567,12.25 -3.5,12.25c-1.933,0 -3.5,-5.48451 -3.5,-12.25c0,-6.76549 1.567,-12.25 3.5,-12.25c1.933,0 3.5,5.48451 3.5,12.25z"/><path d="M150.96459,56.2895c0,8.28427 -2.23858,15 -5,15c-2.76142,0 -5,-6.71573 -5,-15c0,-8.28427 2.23858,-15 5,-15c2.76142,0 5,6.71573 5,15z"/><path d="M149.46459,76.0395c0,6.48935 -1.67893,11.75 -3.75,11.75c-2.07107,0 -3.75,-5.26065 -3.75,-11.75c0,-6.48935 1.67893,-11.75 3.75,-11.75c2.07107,0 3.75,5.26065 3.75,11.75z"/><path d="M149.46459,93.5395c0,6.76549 -1.567,12.25 -3.5,12.25c-1.933,0 -3.5,-5.48451 -3.5,-12.25c0,-6.76549 1.567,-12.25 3.5,-12.25c1.933,0 3.5,5.48451 3.5,12.25z"/><path d="M150.96459,110.7895c0,8.28427 -2.23858,15 -5,15c-2.76142,0 -5,-6.71573 -5,-15c0,-8.28427 2.23858,-15 5,-15c2.76142,0 5,6.71573 5,15z"/><path d="M149.46459,130.5395c0,6.48935 -1.67893,11.75 -3.75,11.75c-2.07107,0 -3.75,-5.26065 -3.75,-11.75c0,-6.48935 1.67893,-11.75 3.75,-11.75c2.07107,0 3.75,5.26065 3.75,11.75z"/><path d="M149.46459,148.0395c0,6.76549 -1.567,12.25 -3.5,12.25c-1.933,0 -3.5,-5.48451 -3.5,-12.25c0,-6.76549 1.567,-12.25 3.5,-12.25c1.933,0 3.5,5.48451 3.5,12.25z"/></g><g fill="none" stroke="#424242" stroke-width="2.5"><path d="M340.46459,-55.7105c0,8.28427 -2.23858,15 -5,15c-2.76142,0 -5,-6.71573 -5,-15c0,-8.28427 2.23858,-15 5,-15c2.76142,0 5,6.71573 5,15z"/><path d="M338.96459,-35.9605c0,6.48935 -1.67893,11.75 -3.75,11.75c-2.07107,0 -3.75,-5.26065 -3.75,-11.75c0,-6.48935 1.67893,-11.75 3.75,-11.75c2.07107,0 3.75,5.26065 3.75,11.75z"/><path d="M338.96459,-18.4605c0,6.76549 -1.567,12.25 -3.5,12.25c-1.933,0 -3.5,-5.48451 -3.5,-12.25c0,-6.76549 1.567,-12.25 3.5,-12.25c1.933,0 3.5,5.48451 3.5,12.25z"/><path d="M340.46459,-1.2105c0,8.28427 -2.23858,15 -5,15c-2.76142,0 -5,-6.71573 -5,-15c0,-8.28427 2.23858,-15 5,-15c2.76142,0 5,6.71573 5,15z"/><path d="M338.96459,18.5395c0,6.48935 -1.67893,11.75 -3.75,11.75c-2.07107,0 -3.75,-5.26065 -3.75,-11.75c0,-6.48935 1.67893,-11.75 3.75,-11.75c2.07107,0 3.75,5.26065 3.75,11.75z"/><path d="M338.96459,36.0395c0,6.76549 -1.567,12.25 -3.5,12.25c-1.933,0 -3.5,-5.48451 -3.5,-12.25c0,-6.76549 1.567,-12.25 3.5,-12.25c1.933,0 3.5,5.48451 3.5,12.25z"/><path d="M340.96459,55.2895c0,8.28427 -2.23858,15 -5,15c-2.76142,0 -5,-6.71573 -5,-15c0,-8.28427 2.23858,-15 5,-15c2.76142,0 5,6.71573 5,15z"/><path d="M339.46459,75.0395c0,6.48935 -1.67893,11.75 -3.75,11.75c-2.07107,0 -3.75,-5.26065 -3.75,-11.75c0,-6.48935 1.67893,-11.75 3.75,-11.75c2.07107,0 3.75,5.26065 3.75,11.75z"/><path d="M339.46459,92.5395c0,6.76549 -1.567,12.25 -3.5,12.25c-1.933,0 -3.5,-5.48451 -3.5,-12.25c0,-6.76549 1.567,-12.25 3.5,-12.25c1.933,0 3.5,5.48451 3.5,12.25z"/><path d="M340.96459,109.7895c0,8.28427 -2.23858,15 -5,15c-2.76142,0 -5,-6.71573 -5,-15c0,-8.28427 2.23858,-15 5,-15c2.76142,0 5,6.71573 5,15z"/><path d="M339.46459,129.5395c0,6.48935 -1.67893,11.75 -3.75,11.75c-2.07107,0 -3.75,-5.26065 -3.75,-11.75c0,-6.48935 1.67893,-11.75 3.75,-11.75c2.07107,0 3.75,5.26065 3.75,11.75z"/><path d="M339.46459,147.0395c0,6.76549 -1.567,12.25 -3.5,12.25c-1.933,0 -3.5,-5.48451 -3.5,-12.25c0,-6.76549 1.567,-12.25 3.5,-12.25c1.933,0 3.5,5.48451 3.5,12.25z"/></g><path d="M138.16666,212.21695v-64.4339h203.66668v64.4339z" fill="#000000" stroke="#282828" stroke-width="5"/><path d="M142.41673,154.57723c0,-1.38071 1.11929,-2.5 2.5,-2.5c1.38071,0 2.5,1.11929 2.5,2.5c0,1.38071 -1.11929,2.5 -2.5,2.5c-1.38071,0 -2.5,-1.11929 -2.5,-2.5z" fill="#282828" stroke="none" stroke-width="0.5"/><path d="M332.25005,154.32723c0,-1.38071 1.11929,-2.5 2.5,-2.5c1.38071,0 2.5,1.11929 2.5,2.5c0,1.38071 -1.11929,2.5 -2.5,2.5c-1.38071,0 -2.5,-1.11929 -2.5,-2.5z" fill="#282828" stroke="none" stroke-width="0.5"/><path d="M330.50005,204.7439c0,-1.38071 1.11929,-2.5 2.5,-2.5c1.38071,0 2.5,1.11929 2.5,2.5c0,1.38071 -1.11929,2.5 -2.5,2.5c-1.38071,0 -2.5,-1.11929 -2.5,-2.5z" fill="#282828" stroke="none" stroke-width="0.5"/><path d="M142.41673,205.32723c0,-1.38071 1.11929,-2.5 2.5,-2.5c1.38071,0 2.5,1.11929 2.5,2.5c0,1.38071 -1.11929,2.5 -2.5,2.5c-1.38071,0 -2.5,-1.11929 -2.5,-2.5z" fill="#282828" stroke="none" stroke-width="0.5"/><path d="M150.49999,199.07723v-39h43.50001v39z" fill="#000000" stroke="#282828" stroke-width="2.5"/><path d="M159.10419,191.53414v-16h24.00001v16z" fill="#3b3b3b" stroke="none" stroke-width="0"/><path d="M177.43755,179.70081c-2.5,0 -2.5,-2.5 -2.5,-2.5l0.07464,0.27301c-0.4121,-1.7127 -1.21826,-5.37374 -2.95262,-6.33506c-1.23885,-0.68667 -3.61051,0.88341 -4.09477,1.92737c-0.93693,2.01982 -0.86356,4.18021 -1.03588,6.34229c0,0 -0.20762,2.49136 -2.69898,2.28375c-2.49136,-0.20761 -2.28375,-2.69898 -2.28375,-2.69898c0.23989,-2.77248 0.196,-5.786 1.63079,-8.32437c1.8315,-3.24023 6.77905,-5.90137 10.57188,-4.07263c3.35648,1.61835 4.88086,6.42827 5.71405,9.66494l0.07464,0.93967c0,0 0,2.5 -2.5,2.5z" fill="#3b3b3b" stroke="none" stroke-width="0.5"/><text transform="translate(241.16262,183.80086) scale(0.5,0.5)" font-size="40" xml:space="preserve" fill="#ffffff" fill-rule="nonzero" stroke="none" stroke-width="1" stroke-linecap="butt" stroke-linejoin="miter" stroke-miterlimit="10" stroke-dasharray="" stroke-dashoffset="0" font-family="Pixel" font-weight="normal" text-anchor="start" style="mix-blend-mode: normal"><tspan x="0" dy="0">???</tspan></text></g></g></svg>