<svg version="1.1" xmlns="http://www.w3.org/2000/svg" xmlns:xlink="http://www.w3.org/1999/xlink" width="208.66668" height="286.67745" viewBox="0,0,208.66668,286.67745"><g transform="translate(-135.66667,71.9605)"><g data-paper-data="{&quot;isPaintingLayer&quot;:true}" fill-rule="nonzero" stroke-linecap="butt" stroke-linejoin="miter" stroke-miterlimit="10" stroke-dasharray="" stroke-dashoffset="0" style="mix-blend-mode: normal"><g fill="none" stroke="#424242" stroke-width="2.5"><path d="M150.46459,-54.7105c0,8.28427 -2.23858,15 -5,15c-2.76142,0 -5,-6.71573 -5,-15c0,-8.28427 2.23858,-15 5,-15c2.76142,0 5,6.71573 5,15z"/><path d="M148.96459,-34.9605c0,6.48935 -1.67893,11.75 -3.75,11.75c-2.07107,0 -3.75,-5.26065 -3.75,-11.75c0,-6.48935 1.67893,-11.75 3.75,-11.75c2.07107,0 3.75,5.26065 3.75,11.75z"/><path d="M148.96459,-17.4605c0,6.76549 -1.567,12.25 -3.5,12.25c-1.933,0 -3.5,-5.48451 -3.5,-12.25c0,-6.76549 1.567,-12.25 3.5,-12.25c1.933,0 3.5,5.48451 3.5,12.25z"/><path d="M150.46459,-0.2105c0,8.28427 -2.23858,15 -5,15c-2.76142,0 -5,-6.71573 -5,-15c0,-8.28427 2.23858,-15 5,-15c2.76142,0 5,6.71573 5,15z"/><path d="M148.96459,19.5395c0,6.48935 -1.67893,11.75 -3.75,11.75c-2.07107,0 -3.75,-5.26065 -3.75,-11.75c0,-6.48935 1.67893,-11.75 3.75,-11.75c2.07107,0 3.75,5.26065 3.75,11.75z"/><path d="M148.96459,37.0395c0,6.76549 -1.567,12.25 -3.5,12.25c-1.933,0 -3.5,-5.48451 -3.5,-12.25c0,-6.76549 1.567,-12.25 3.5,-12.25c1.933,0 3.5,5.48451 3.5,12.25z"/><path d="M150.96459,56.2895c0,8.28427 -2.23858,15 -5,15c-2.76142,0 -5,-6.71573 -5,-15c0,-8.28427 2.23858,-15 5,-15c2.76142,0 5,6.71573 5,15z"/><path d="M149.46459,76.0395c0,6.48935 -1.67893,11.75 -3.75,11.75c-2.07107,0 -3.75,-5.26065 -3.75,-11.75c0,-6.48935 1.67893,-11.75 3.75,-11.75c2.07107,0 3.75,5.26065 3.75,11.75z"/><path d="M149.46459,93.5395c0,6.76549 -1.567,12.25 -3.5,12.25c-1.933,0 -3.5,-5.48451 -3.5,-12.25c0,-6.76549 1.567,-12.25 3.5,-12.25c1.933,0 3.5,5.48451 3.5,12.25z"/><path d="M150.96459,110.7895c0,8.28427 -2.23858,15 -5,15c-2.76142,0 -5,-6.71573 -5,-15c0,-8.28427 2.23858,-15 5,-15c2.76142,0 5,6.71573 5,15z"/><path d="M149.46459,130.5395c0,6.48935 -1.67893,11.75 -3.75,11.75c-2.07107,0 -3.75,-5.26065 -3.75,-11.75c0,-6.48935 1.67893,-11.75 3.75,-11.75c2.07107,0 3.75,5.26065 3.75,11.75z"/><path d="M149.46459,148.0395c0,6.76549 -1.567,12.25 -3.5,12.25c-1.933,0 -3.5,-5.48451 -3.5,-12.25c0,-6.76549 1.567,-12.25 3.5,-12.25c1.933,0 3.5,5.48451 3.5,12.25z"/></g><g fill="none" stroke="#424242" stroke-width="2.5"><path d="M340.4646,-55.7105c0,8.28427 -2.23858,15 -5,15c-2.76142,0 -5,-6.71573 -5,-15c0,-8.28427 2.23858,-15 5,-15c2.76142,0 5,6.71573 5,15z"/><path d="M338.9646,-35.9605c0,6.48935 -1.67893,11.75 -3.75,11.75c-2.07107,0 -3.75,-5.26065 -3.75,-11.75c0,-6.48935 1.67893,-11.75 3.75,-11.75c2.07107,0 3.75,5.26065 3.75,11.75z"/><path d="M338.9646,-18.4605c0,6.76549 -1.567,12.25 -3.5,12.25c-1.933,0 -3.5,-5.48451 -3.5,-12.25c0,-6.76549 1.567,-12.25 3.5,-12.25c1.933,0 3.5,5.48451 3.5,12.25z"/><path d="M340.4646,-1.2105c0,8.28427 -2.23858,15 -5,15c-2.76142,0 -5,-6.71573 -5,-15c0,-8.28427 2.23858,-15 5,-15c2.76142,0 5,6.71573 5,15z"/><path d="M338.9646,18.5395c0,6.48935 -1.67893,11.75 -3.75,11.75c-2.07107,0 -3.75,-5.26065 -3.75,-11.75c0,-6.48935 1.67893,-11.75 3.75,-11.75c2.07107,0 3.75,5.26065 3.75,11.75z"/><path d="M338.9646,36.0395c0,6.76549 -1.567,12.25 -3.5,12.25c-1.933,0 -3.5,-5.48451 -3.5,-12.25c0,-6.76549 1.567,-12.25 3.5,-12.25c1.933,0 3.5,5.48451 3.5,12.25z"/><path d="M340.9646,55.2895c0,8.28427 -2.23858,15 -5,15c-2.76142,0 -5,-6.71573 -5,-15c0,-8.28427 2.23858,-15 5,-15c2.76142,0 5,6.71573 5,15z"/><path d="M339.4646,75.0395c0,6.48935 -1.67893,11.75 -3.75,11.75c-2.07107,0 -3.75,-5.26065 -3.75,-11.75c0,-6.48935 1.67893,-11.75 3.75,-11.75c2.07107,0 3.75,5.26065 3.75,11.75z"/><path d="M339.4646,92.5395c0,6.76549 -1.567,12.25 -3.5,12.25c-1.933,0 -3.5,-5.48451 -3.5,-12.25c0,-6.76549 1.567,-12.25 3.5,-12.25c1.933,0 3.5,5.48451 3.5,12.25z"/><path d="M340.9646,109.7895c0,8.28427 -2.23858,15 -5,15c-2.76142,0 -5,-6.71573 -5,-15c0,-8.28427 2.23858,-15 5,-15c2.76142,0 5,6.71573 5,15z"/><path d="M339.4646,129.5395c0,6.48935 -1.67893,11.75 -3.75,11.75c-2.07107,0 -3.75,-5.26065 -3.75,-11.75c0,-6.48935 1.67893,-11.75 3.75,-11.75c2.07107,0 3.75,5.26065 3.75,11.75z"/><path d="M339.4646,147.0395c0,6.76549 -1.567,12.25 -3.5,12.25c-1.933,0 -3.5,-5.48451 -3.5,-12.25c0,-6.76549 1.567,-12.25 3.5,-12.25c1.933,0 3.5,5.48451 3.5,12.25z"/></g><path d="M138.16668,212.21695v-64.4339h203.66668v64.4339z" fill="#929292" stroke="#282828" stroke-width="5"/><path d="M142.41668,154.57723c0,-1.38071 1.11929,-2.5 2.5,-2.5c1.38071,0 2.5,1.11929 2.5,2.5c0,1.38071 -1.11929,2.5 -2.5,2.5c-1.38071,0 -2.5,-1.11929 -2.5,-2.5z" fill="#282828" stroke="none" stroke-width="0.5"/><path d="M332.25001,154.32723c0,-1.38071 1.11929,-2.5 2.5,-2.5c1.38071,0 2.5,1.11929 2.5,2.5c0,1.38071 -1.11929,2.5 -2.5,2.5c-1.38071,0 -2.5,-1.11929 -2.5,-2.5z" fill="#282828" stroke="none" stroke-width="0.5"/><path d="M330.50001,204.7439c0,-1.38071 1.11929,-2.5 2.5,-2.5c1.38071,0 2.5,1.11929 2.5,2.5c0,1.38071 -1.11929,2.5 -2.5,2.5c-1.38071,0 -2.5,-1.11929 -2.5,-2.5z" fill="#282828" stroke="none" stroke-width="0.5"/><path d="M142.41668,205.32723c0,-1.38071 1.11929,-2.5 2.5,-2.5c1.38071,0 2.5,1.11929 2.5,2.5c0,1.38071 -1.11929,2.5 -2.5,2.5c-1.38071,0 -2.5,-1.11929 -2.5,-2.5z" fill="#282828" stroke="none" stroke-width="0.5"/><path d="M150.16668,199.07723v-39h43.50001v39z" fill="#ffd200" stroke="#282828" stroke-width="2.5"/><g><path d="M172.83726,159.42795l0.01371,-1.07568c1.16385,0.37879 2.32852,0.75266 3.49484,1.12039z" fill="#115616" stroke="none" stroke-width="0"/><path d="M171.95735,194.62365l0.3027,-23.75367l4.45381,0.05676l-0.30271,23.75367z" fill="#125816" stroke="#000000" stroke-width="0"/><path d="M162.00617,172.57536l0.21438,-16.82242c0.60832,0.003 1.10688,0.00346 1.44897,0.00271c0.45711,-0.001 0.92,-0.00071 1.38759,-0.00015c3.9888,1.35106 7.96464,2.67736 11.9618,3.92863l-0.16669,13.08041z" fill="#197c1f" stroke="none" stroke-width="0"/><path d="M161.72994,194.25056l0.30271,-23.75366l4.45382,0.05676l-0.30271,23.75367z" fill="#197c1f" stroke="none" stroke-width="0"/><path d="M174.98645,161.76844c-0.72948,-0.0093 -0.72017,-0.73876 -0.72017,-0.73876l0.21621,-1.04334c-0.11291,-0.00879 -0.2987,-0.03333 -0.52869,-0.06857l0.23172,0.47858c0.05209,0.10205 0.08081,0.21789 0.07926,0.34042c-0.00513,0.40287 -0.33589,0.72531 -0.73876,0.72017c-0.08663,-0.0011 -0.16955,-0.01727 -0.24628,-0.04597l-0.8587,-0.29844l0.00359,-0.01035l-0.03784,-0.00252c-0.22841,-0.10653 -0.45813,-0.20519 -0.68878,-0.29763c0.04448,1.43464 -0.10717,2.91498 -0.12475,4.29368l-0.00745,0.58567c0,0 -0.00929,0.72946 -0.73876,0.72017c-0.72948,-0.0093 -0.72018,-0.73878 -0.72018,-0.73878l0.00745,-0.58567c0.01842,-1.4451 0.26546,-3.19722 0.13702,-4.78594c-0.92473,-0.29315 -1.85137,-0.54274 -2.75554,-0.85276c-0.12086,2.37619 -0.33288,4.77051 -0.33373,7.06551l-0.00373,0.29284c0,0 -0.00929,0.72947 -0.73877,0.72017c-0.72948,-0.0093 -0.72017,-0.73876 -0.72017,-0.73876l0.00374,-0.29283c0.05545,-2.49662 0.26714,-5.05501 0.36563,-7.6118c-0.80482,-0.37269 -1.57952,-0.84393 -2.30501,-1.49515c-0.02116,1.66036 -0.04231,3.3207 -0.06347,4.98105l-0.00745,0.58567c0,0 -0.00929,0.72946 -0.73876,0.72017c-0.72948,-0.0093 -0.72017,-0.73876 -0.72017,-0.73876c0.02416,-1.89661 0.05538,-4.34598 0.07996,-6.27409c-0.04865,-0.01842 -0.09729,-0.03691 -0.14593,-0.05543l-0.81987,-0.31317c-0.28601,-0.10164 -0.48912,-0.37644 -0.48505,-0.69688c0.00419,-0.32815 0.22439,-0.60292 0.52363,-0.69079l0.86621,-0.27653l0.00616,0.01929c0.07269,-0.02437 0.14751,-0.04278 0.225,-0.05379c0.07258,-0.01032 0.20932,0.01636 0.38621,0.06765c0.09068,-0.16433 0.21068,-0.33307 0.36431,-0.50614c0.44514,-0.50142 2.51662,0.69085 2.83183,0.87558c1.15858,0.67898 2.12121,1.42404 3.18454,2.17611c0.15552,0.05597 0.31134,0.11119 0.4675,0.16563c0.0636,-0.09741 0.16332,-0.18903 0.31512,-0.26252c0.65661,-0.31791 0.97453,0.3387 0.97453,0.3387c0.06246,0.13345 0.11966,0.26878 0.17202,0.40579c0.46148,0.14311 0.92668,0.27853 1.39647,0.40528c0.70308,0.18967 3.44847,0.76856 3.72531,1.4381c0.19224,0.46491 -0.52626,0.85756 -0.78937,1.28635l0.21277,0.07258c0,0 -0.00929,0.72946 -0.73876,0.72017z" fill="#5d0000" stroke="none" stroke-width="0.5"/><path d="M174.66926,186.6595c-0.72948,-0.0093 -0.72017,-0.73875 -0.72017,-0.73875l0.00373,-0.29284c0.02763,-2.16767 -0.0823,-3.9633 0.53927,-5.76742l-0.30264,-0.10518l0.44013,-1.26637c0.00572,-0.44861 0.01143,-0.8972 0.01715,-1.3458c0,0 0.00929,-0.72946 0.73876,-0.72017c0.72948,0.0093 0.72017,0.73876 0.72017,0.73876c-0.00621,0.48805 -0.01243,0.97612 -0.01866,1.46418v0c-0.0038,0.29807 -0.0076,0.59616 -0.0114,0.89422c-0.0124,0.97346 0.01383,1.85851 -0.03463,2.71737c-0.00705,0.55315 -0.0141,1.10631 -0.02115,1.65945l-0.01119,0.87851c-0.0045,0.35322 -0.2593,0.64461 -0.59357,0.7076c-0.0015,0.05494 -0.00259,0.10944 -0.00329,0.16344l-0.00374,0.29283c0,0 -0.0093,0.72946 -0.73876,0.72017z" fill="#5d0000" stroke="none" stroke-width="0.5"/><path d="M164.26477,185.33951l0.04822,0.02855c0.28571,-0.46464 0.67951,-0.92131 1.27008,-1.41027l0.27527,2.19038c-0.41288,1.16296 -0.55915,1.9634 -0.85709,2.81543l0.24729,0.08595l-0.47347,1.36231c-0.09547,0.29691 -0.37577,0.51005 -0.70392,0.50587c-0.27675,-0.00353 -0.51552,-0.16071 -0.63625,-0.38936c-0.2255,-0.12651 -0.37654,-0.36923 -0.37301,-0.64598l0.0142,-1.11473c-0.02195,-0.90018 -0.18627,-1.76159 -0.23689,-2.67168c-0.16662,-0.10308 -0.32005,-0.29101 -0.3065,-0.63317c0.02887,-0.72896 0.75782,-0.70011 0.75782,-0.70011l0.04674,0.02768c0.06651,-0.01662 0.14165,-0.02553 0.22653,-0.02446c0.50485,0.00644 0.65586,0.35781 0.70097,0.57359z" fill="#5d0000" stroke="none" stroke-width="0.5"/><path d="M169.33585,159.17426c-0.49048,-0.09419 -0.54769,-0.64158 -0.54769,-0.64158c-0.1475,-1.44366 0.12204,-2.602 -0.83375,-3.80725c-1.35007,-1.70244 -4.41075,-1.35312 -3.72723,-4.2126c0.41947,-1.75488 1.88341,-1.72238 3.21062,-1.16177c0.83635,0.35327 1.88844,1.81573 2.03436,1.61066c3.01527,-1.74342 8.3587,1.6588 5.52935,5.04628c-0.73787,0.88343 -1.85826,0.90781 -2.53637,1.85347c-0.36824,0.51352 -0.22588,1.36648 -0.72773,1.75044c-0.97206,0.74373 -1.91131,0.33793 -2.40154,-0.43769z" fill="#ffffff" stroke="none" stroke-width="0.5"/></g></g></g></svg>