<svg version="1.1" xmlns="http://www.w3.org/2000/svg" xmlns:xlink="http://www.w3.org/1999/xlink" width="81.7474" height="183.1574" viewBox="0,0,81.7474,183.1574"><g transform="translate(-199.49124,-69.91885)"><g data-paper-data="{&quot;isPaintingLayer&quot;:true}" fill-rule="nonzero" stroke-width="0" stroke-linejoin="miter" stroke-miterlimit="10" stroke-dasharray="" stroke-dashoffset="0" style="mix-blend-mode: normal"><path d="M246.9159,253.07626v-58.51442h10.97144v58.51442z" fill="#5c5c5c" stroke="#000000" stroke-linecap="butt"/><path d="M220.98281,142.76383v-35.84008h38.03437v35.84008z" fill="#ffffff" stroke="none" stroke-linecap="butt"/><path d="M229.02856,150.80955v-11.70288h21.21148v11.70288z" fill="#ffffff" stroke="none" stroke-linecap="butt"/><path d="M221.71427,199.08397v-52.66297h36.57151v52.66297z" fill="#ffec00" stroke="none" stroke-linecap="butt"/><path d="M221.71427,252.47836v-58.51442h10.97146v58.51442z" fill="#828282" stroke="none" stroke-linecap="butt"/><path d="M220.25249,136.09624c0,0 -6.66476,-7.86646 -10.07201,-12.55144c-3.5101,-4.82639 -10.68924,-15.99528 -10.68924,-15.99528c0,0 3.34924,-9.0343 8.35336,-16.91985c3.62681,-5.71516 8.43089,-10.21091 11.97562,-13.19368c9.2269,-7.7641 36.76444,-7.51624 36.76444,-7.51624l-10.38062,17.5173l35.0346,9.08304l-22.70761,30.49308l-4.54152,-17.5173l-23.3564,3.24394l0.64879,-3.89273l-6.48789,3.89273z" fill="#383838" stroke="#000000" stroke-linecap="round"/></g></g></svg>