<svg version="1.1" xmlns="http://www.w3.org/2000/svg" xmlns:xlink="http://www.w3.org/1999/xlink" width="61.23795" height="45.79333" viewBox="0,0,61.23795,45.79333"><g transform="translate(-184.07749,-179.21322)"><g data-paper-data="{&quot;isPaintingLayer&quot;:true}" fill-rule="nonzero" stroke-linecap="butt" stroke-linejoin="miter" stroke-miterlimit="10" stroke-dasharray="" stroke-dashoffset="0" style="mix-blend-mode: normal"><path d="M201.55992,187.07587l-1.24718,-0.78676c1.27656,-1.08863 2.54797,-2.18173 3.81338,-3.28117z" fill="#115616" stroke="none" stroke-width="0"/><path d="M242.05788,213.32251l-27.54078,-17.3737l3.25757,-5.16389l27.54077,17.37371z" fill="#3d2076" stroke="#000000" stroke-width="0"/><path d="" fill="#197c1f" stroke="none" stroke-width="0"/><path d="" fill="#197c1f" stroke="none" stroke-width="0"/><path d="M209.16282,209.15305l-19.50446,-12.30411c0.43938,-0.70871 0.79715,-1.29098 1.04138,-1.69128c0.32635,-0.53488 0.65836,-1.07557 0.99406,-1.62158c4.43685,-3.69311 8.83548,-7.38881 13.16172,-11.16318l15.16586,9.56716z" fill="#552da5" stroke="none" stroke-width="0"/><path d="" fill="#197c1f" stroke="none" stroke-width="0"/><path d="M234.29377,225.00655l-27.54077,-17.37371l3.25758,-5.1639l27.54077,17.37371z" fill="#552da5" stroke="none" stroke-width="0"/><path d="" fill="#197c1f" stroke="none" stroke-width="0"/><path d="" fill="#197c1f" stroke="none" stroke-width="0"/><path d="M205.83488,186.24139c-0.53355,0.84578 -1.37931,0.31223 -1.37931,0.31223l-1.06429,-1.00023c-0.09117,0.12565 -0.25297,0.32517 -0.45894,0.56867l0.72529,0.07214c0.15657,0.01225 0.31253,0.0617 0.45459,0.1513c0.46711,0.29467 0.60689,0.91221 0.31223,1.37931c-0.06336,0.10045 -0.14166,0.18576 -0.23018,0.25487l-0.96402,0.7896l-0.00952,-0.01162l-0.03006,0.04241c-0.28814,0.19058 -0.56803,0.38833 -0.84132,0.59163c1.70834,0.97597 3.32956,2.21388 4.92806,3.22228l0.67905,0.42836c0,0 0.84577,0.53353 0.31223,1.37931c-0.53355,0.84578 -1.37933,0.31223 -1.37933,0.31223l-0.67905,-0.42836c-1.6755,-1.05696 -3.54595,-2.60107 -5.4945,-3.58934c-1.00515,0.87056 -1.96076,1.77456 -2.9709,2.60899c2.69013,1.84382 5.33613,3.80716 8.01737,5.45258l0.33953,0.21418c0,0 0.84577,0.53353 0.31222,1.37932c-0.53355,0.84578 -1.37931,0.31223 -1.37931,0.31223l-0.33952,-0.21419c-2.87774,-1.85368 -5.71569,-3.93419 -8.6329,-5.88128c-1.01218,0.67345 -2.11794,1.24108 -3.39875,1.62226c1.92507,1.2144 3.85012,2.42879 5.77519,3.64319l0.67905,0.42836c0,0 0.84577,0.53353 0.31223,1.37931c-0.53355,0.84578 -1.37931,0.31223 -1.37931,0.31223c-2.19899,-1.3872 -5.03887,-3.1787 -7.27439,-4.58894c-0.05639,0.04366 -0.11284,0.08725 -0.16933,0.13081l-0.95341,0.73367c-0.3237,0.26139 -0.79037,0.30185 -1.16189,0.06749c-0.38046,-0.24001 -0.54377,-0.69422 -0.43205,-1.10687l0.29752,-1.21036l0.02696,0.00662c0.02359,-0.10241 0.05572,-0.20303 0.09837,-0.30146c0.03995,-0.09222 0.16909,-0.23289 0.35578,-0.40284c-0.12706,-0.2237 -0.23826,-0.48485 -0.33042,-0.78838c-0.267,-0.87946 2.6105,-2.44581 3.05224,-2.6818c1.62358,-0.86737 3.18396,-1.45842 4.8247,-2.16212c0.17684,-0.14163 0.35302,-0.28415 0.52852,-0.42762c-0.06826,-0.14412 -0.10387,-0.32629 -0.08098,-0.55635c0.09898,-0.99509 1.09406,-0.89611 1.09406,-0.89611c0.2007,0.02264 0.39982,0.05275 0.59745,0.08974c0.4979,-0.43672 0.98948,-0.88331 1.4742,-1.34148c0.72542,-0.68569 3.369,-3.47906 4.34977,-3.32282c0.68101,0.10848 0.62504,1.22943 0.93758,1.84413l0.23727,-0.19662c0,0 0.84577,0.53353 0.31223,1.37931z" fill="#5d0000" stroke="none" stroke-width="0.5"/><path d="M234.6944,204.44701c-0.53355,0.84578 -1.37931,0.31223 -1.37931,0.31223l-0.33952,-0.21419c-2.51327,-1.58546 -4.69035,-2.7436 -6.35321,-4.76263l-0.33976,0.2783l-1.16447,-1.4217c-0.52012,-0.32812 -1.04025,-0.65622 -1.56037,-0.98434c0,0 -0.84577,-0.53353 -0.31223,-1.37931c0.53355,-0.84578 1.37931,-0.31223 1.37931,-0.31223c0.56587,0.35696 1.13175,0.71394 1.69761,1.07092v0c0.3456,0.21801 0.6912,0.43604 1.03679,0.65405c1.12867,0.712 2.1817,1.31551 3.15061,1.98752c0.64134,0.40458 1.28269,0.80916 1.92403,1.21374l1.01857,0.64255c0.40954,0.25835 0.56747,0.76489 0.40158,1.20064c0.06314,0.04112 0.12602,0.08145 0.18862,0.12095l0.33952,0.21419c0,0 0.84577,0.53353 0.31223,1.37931z" fill="#5d0000" stroke="none" stroke-width="0.5"/><path d="M225.69689,215.6595l0.06791,-0.03589c-0.33824,-0.66679 -0.58972,-1.45419 -0.73795,-2.49466l2.75683,1.24777c1.06316,1.31576 1.89371,2.06021 2.67588,3.01888l0.27763,-0.22739l1.25269,1.5294c0.27855,0.3243 0.32678,0.80458 0.08677,1.18505c-0.20242,0.32087 -0.55718,0.48727 -0.91088,0.46452c-0.30941,0.17287 -0.70127,0.17545 -1.02214,-0.02697l-1.29245,-0.81533c-1.06765,-0.61934 -2.192,-1.04455 -3.29177,-1.63749c-0.23984,0.12084 -0.56937,0.16548 -0.9595,-0.09552c-0.83115,-0.55604 -0.27512,-1.3872 -0.27512,-1.3872l0.06583,-0.03479c0.02824,-0.08962 0.07165,-0.18381 0.13374,-0.28224c0.36926,-0.58533 0.88805,-0.51003 1.17254,-0.40815z" fill="#5d0000" stroke="none" stroke-width="0.5"/><path d="M198.75465,190.9857c-0.46151,0.50567 -1.14216,0.18031 -1.14216,0.18031c-1.7927,-0.86205 -2.95316,-2.007 -5.04641,-1.75367c-2.95675,0.35782 -4.7416,4.1847 -7.59333,1.33709c-1.75013,-1.74759 -0.66321,-3.43499 0.94288,-4.58424c1.01208,-0.72421 3.4749,-0.90576 3.33982,-1.22321c0.1232,-4.77273 7.9276,-8.57911 9.8588,-2.84563c0.50364,1.49525 -0.27065,2.82196 0.34853,4.29196c0.33623,0.79826 1.43498,1.24306 1.52407,2.10463c0.17259,1.66881 -0.97458,2.47562 -2.23222,2.49274z" fill="#ffffff" stroke="none" stroke-width="0.5"/></g></g></svg>