<svg version="1.1" xmlns="http://www.w3.org/2000/svg" xmlns:xlink="http://www.w3.org/1999/xlink" width="26.75331" height="55.49539" viewBox="0,0,26.75331,55.49539"><g transform="translate(-224.40483,-156.78501)"><g data-paper-data="{&quot;isPaintingLayer&quot;:true}" fill-rule="nonzero" stroke-width="0" stroke-linecap="butt" stroke-linejoin="miter" stroke-miterlimit="10" stroke-dasharray="" stroke-dashoffset="0" style="mix-blend-mode: normal"><path d="M225.64534,169.47508l-0.13229,-12.69007c0,0 6.6953,1.98392 9.99008,2.61168c3.03672,0.57859 9.06763,1.01941 9.06763,1.01941l0.67367,6.36231z" fill="#5d0000" stroke="none"/><path d="M245.98813,208.83526l-3.67728,-26.72604l2.77159,-0.38135l3.67728,26.72604z" fill="#5d0000" stroke="none"/><path d="M231.53093,206.38664l-3.21421,-23.36053l4.75129,-0.65374l3.21421,23.36053z" fill="#5d0000" stroke="none"/><path d="M239.52089,162.88221l-0.18849,-1.46251c1.65246,0.29 3.30508,0.5732 4.95876,0.84771z" fill="#115616" stroke="none"/><path d="M245.1027,210.81774l-0.35684,-2.76873c2.14742,-0.3457 1.84763,-2.52455 1.84763,-2.52455c-0.89357,-6.45726 -1.38234,-12.97884 -2.27349,-19.45561l-0.77176,-2.35642c0,0 -0.56666,-1.63236 -2.1373,-1.5395l-0.47054,-3.65096l6.05545,-0.78042l4.16229,32.29574z" fill="#55005c" stroke="#000000"/><path d="" fill="#197c1f" stroke="none"/><path d="" fill="#197c1f" stroke="none"/><path d="M227.35258,182.81054l-2.94775,-22.87194c0.82616,-0.11305 1.50288,-0.20839 1.96701,-0.27529c0.62018,-0.08936 1.24843,-0.17808 1.88314,-0.26734c5.67354,1.06566 11.32472,2.10022 16.99039,3.02886l2.29206,17.78427z" fill="#55005c" stroke="none"/><path d="" fill="#197c1f" stroke="none"/><path d="M231.15067,212.2804l-4.16229,-32.29574l6.05546,-0.78043l1.03072,7.99749c-0.34802,-0.17927 -0.79754,-0.27089 -1.37697,-0.19117c-2.229,0.3067 -1.92231,2.53569 -1.92231,2.53569c0.46913,3.39281 1.19157,6.68326 2.20735,9.95387l0.00098,0.23164c0,0 0.3067,2.229 2.53569,1.92231c0.14635,-0.02014 0.28177,-0.04856 0.40705,-0.08409l1.27979,9.93z" fill="#55005c" stroke="none"/><path d="" fill="#197c1f" stroke="none"/><path d="" fill="#197c1f" stroke="none"/><path d="M228.42228,173.5308l-2.09741,-15.24375l1.78173,-0.24515l2.09741,15.24375z" fill="#5d0000" stroke="#5d0000"/><path d="M239.89193,168.9269l-1.22576,-8.90868l1.18782,-0.16344l1.22576,8.90868z" fill="#5d0000" stroke="none"/></g></g></svg>