<svg version="1.1" xmlns="http://www.w3.org/2000/svg" xmlns:xlink="http://www.w3.org/1999/xlink" width="39.94367" height="81.1743" viewBox="0,0,39.94367,81.1743"><g transform="translate(-231.11774,-140.33125)"><g data-paper-data="{&quot;isPaintingLayer&quot;:true}" fill-rule="nonzero" stroke-width="0" stroke-linecap="butt" stroke-linejoin="miter" stroke-miterlimit="10" stroke-dasharray="" stroke-dashoffset="0" style="mix-blend-mode: normal"><path d="M232.11547,154.62085l-0.39967,-12.18998l16.58638,-1.99836l-2.19819,6.79442z" fill="#7d1919" stroke="none"/><path d="M244.70512,186.39475c0,0 -3.79688,-7.29192 -3.79688,-10.5913c0,-3.0003 3.79688,-8.3931 3.79688,-8.3931h3.39721v18.9844z" fill="#7d1919" stroke="none"/><path d="M233.71415,183.59706v-19.58391h8.99261v19.58391z" fill="#7d1919" stroke="none"/><path d="M245.14965,221.50555l0.59951,-25.16894c0,0 -0.2965,-7.80105 -0.2965,-7.34398c0,0 3.19737,-0.1142 5.20301,0.0425l0.59951,32.47041z" fill="#36003a" stroke="#000000"/><path d="M231.11774,159.87633l0.59951,-8.70365c3.52495,-1.42398 7.72683,-5.68494 10.13936,-8.4434l10.02732,-2.39803c0,0 -0.05401,6.93139 0.01489,10.30107c0.06395,3.12723 0.38478,9.244 0.38478,9.244z" fill="#55005c" stroke="none"/><path d="M235.59514,164.35372v-6.51257h11.80404v6.51257z" fill="#55005c" stroke="none"/><path d="M231.72463,190.81842v-29.30657h20.35179v7.6453c-2.22737,0.01504 -5.42474,1.85025 -5.42474,1.85025c0,0 -3.861,3.90363 -3.89379,6.00212c-0.03379,2.16274 3.69395,6.78737 3.69395,6.78737c0,0 3.39721,0.83604 5.62458,0.85107v6.17046zM241.30792,164.06495l-3.94491,3.54524l-2.64967,-0.65131l0.34787,15.83883z" fill="#55005c" stroke="none"/><path d="M232.1243,211.33958v-32.56286h6.10554c0,0 -2.19819,9.13182 -2.19819,14.21262c0,5.70173 2.19819,18.35024 2.19819,18.35024z" fill="#55005c" stroke="none"/><path d="M231.81827,167.2797v-5.44248h39.24314v5.44248c0,0 -10.97535,-2.7977 -16.56433,-2.7977c-7.11847,0 -22.67881,2.7977 -22.67881,2.7977z" fill="#55005c" stroke="none"/></g></g></svg>