<svg version="1.1" xmlns="http://www.w3.org/2000/svg" xmlns:xlink="http://www.w3.org/1999/xlink" width="57.91918" height="25.90556" viewBox="0,0,57.91918,25.90556"><g transform="translate(-176.21527,-185.41452)"><g data-paper-data="{&quot;isPaintingLayer&quot;:true}" fill-rule="nonzero" stroke-width="0" stroke-linecap="butt" stroke-linejoin="miter" stroke-miterlimit="10" stroke-dasharray="" stroke-dashoffset="0" style="mix-blend-mode: normal"><path d="M188.54928,206.14568l-12.33401,-2.9879c0,0 3.56728,-6.00314 4.98487,-9.04289c1.30657,-2.80166 3.21483,-8.53967 3.21483,-8.53967l6.33293,0.90927z" fill="#5d0000" stroke="none"/><path d="M231.69966,196.09095l-26.81072,-2.99811l0.31092,-2.78038l26.81072,2.99811z" fill="#5d0000" stroke="none"/><path d="M225.77594,209.50422l-23.43456,-2.62057l0.53299,-4.76635l23.43456,2.62057z" fill="#5d0000" stroke="none"/><path d="M185.56553,191.07604l-1.46402,-0.17642c0.68689,-1.53066 1.36723,-3.06314 2.03942,-4.59877z" fill="#115616" stroke="none"/><path d="M233.40402,197.43609l-2.77157,-0.33397c0.1922,-2.16655 -1.99356,-2.41098 -1.99356,-2.41098c-6.47898,-0.71943 -12.92089,-1.84703 -19.41818,-2.5736l-2.47378,0.16951c0,0 -1.72153,0.14847 -2.01719,1.69382l-3.65472,-0.44039l0.73043,-6.06168l32.329,3.89563z" fill="#55005c" stroke="#000000"/><path d="" fill="#197c1f" stroke="none"/><path d="" fill="#197c1f" stroke="none"/><path d="M201.89568,207.76534l-22.89549,-2.75889c0.09329,-0.82862 0.16703,-1.50803 0.21615,-1.97438c0.06566,-0.62312 0.13393,-1.25393 0.20326,-1.89113c2.42622,-5.23815 4.81681,-10.46226 7.10824,-15.72642l17.80259,2.14519z" fill="#55005c" stroke="none"/><path d="" fill="#197c1f" stroke="none"/><path d="M231.39588,211.32008l-32.329,-3.89563l0.73044,-6.06169l8.00572,0.96469c-0.25924,0.29335 -0.45843,0.70661 -0.52344,1.28787c-0.25005,2.23606 1.98602,2.48611 1.98602,2.48611c3.40412,0.37835 6.77123,0.48605 10.19115,0.30449l0.22478,0.05593c0,0 2.23606,0.25005 2.48611,-1.98602c0.01642,-0.14681 0.02212,-0.28506 0.01844,-0.41524l9.94024,1.1978z" fill="#55005c" stroke="none"/><path d="" fill="#197c1f" stroke="none"/><path d="" fill="#197c1f" stroke="none"/><path d="M193.16274,204.44967l-15.29203,-1.71004l0.19988,-1.78737l15.29203,1.71004z" fill="#5d0000" stroke="#5d0000"/><path d="M191.51625,192.20069l-8.93692,-0.99937l0.13324,-1.19159l8.93692,0.99937z" fill="#5d0000" stroke="none"/></g></g></svg>