<svg version="1.1" xmlns="http://www.w3.org/2000/svg" xmlns:xlink="http://www.w3.org/1999/xlink" width="42.85738" height="81.41792" viewBox="0,0,42.85738,81.41792"><g transform="translate(-230.41281,-142.18659)"><g data-paper-data="{&quot;isPaintingLayer&quot;:true}" fill-rule="nonzero" stroke-linejoin="miter" stroke-miterlimit="10" stroke-dasharray="" stroke-dashoffset="0" style="mix-blend-mode: normal"><path d="M245.4849,175.68145v-4.86959h27.78529v4.86959z" fill="#3d2076" stroke="none" stroke-width="0" stroke-linecap="butt"/><path d="M244.89363,216.82055v-32.56286h6.10553v32.56286z" fill="#3d2076" stroke="#000000" stroke-width="0" stroke-linecap="butt"/><path d="M230.46205,162.54915v-13.89938c3.52495,-1.42398 6.52782,-3.28691 8.94035,-6.04537h12.22551v19.94475z" fill="#552da5" stroke="none" stroke-width="0" stroke-linecap="butt"/><path d="M234.93945,167.02654v-6.51257h11.80404v6.51257z" fill="#552da5" stroke="none" stroke-width="0" stroke-linecap="butt"/><path d="M230.8691,193.89091v-29.30657h20.35179v29.30657z" fill="#552da5" stroke="none" stroke-width="0" stroke-linecap="butt"/><path d="M230.8691,223.60451v-32.56286h6.10554v32.56286z" fill="#552da5" stroke="none" stroke-width="0" stroke-linecap="butt"/><path d="M231.16258,169.95252v-5.44248h39.24314v5.44248z" fill="#552da5" stroke="none" stroke-width="0" stroke-linecap="butt"/><path d="M232.44841,148.0362l0.43285,5.58889" fill="none" stroke="#5d0000" stroke-width="0.5" stroke-linecap="round"/><path d="M234.79515,146.80554l0.28645,12.03074" fill="none" stroke="#5d0000" stroke-width="0.5" stroke-linecap="round"/><path d="M237.27556,144.94682l0.18884,6.67314" fill="none" stroke="#5d0000" stroke-width="0.5" stroke-linecap="round"/><path d="M239.17671,143.16661l-0.28008,6.44822" fill="none" stroke="#5d0000" stroke-width="0.5" stroke-linecap="round"/><path d="M239.22884,142.52993c0.04359,-0.14665 0.1605,-0.34334 0.47409,-0.34334c0.5,0 0.5,0.5 0.5,0.5l-0.10532,0.35577c-0.22596,0.2903 -0.45947,0.57496 -0.70161,0.85191c-2.08512,2.3805 -5.31035,4.46444 -8.33371,5.37145c0,0 -0.47891,0.14367 -0.62259,-0.33524c-0.14367,-0.47891 0.33524,-0.62259 0.33524,-0.62259c2.85018,-0.85505 5.90459,-2.82518 7.86848,-5.07213c0.20137,-0.22995 0.39626,-0.4657 0.58542,-0.70584z" fill="#5d0000" stroke="none" stroke-width="0.5" stroke-linecap="butt"/><path d="M234.17258,175.40921c-0.07685,-0.05898 -0.15549,-0.13223 -0.23585,-0.22126c-0.60361,-0.66874 0.00606,-1.61138 0.8094,-2.41204c0.18146,-1.24703 0.95609,-2.55048 2.07161,-1.62845c1.29659,1.07169 -0.45589,5.40244 -2.19884,4.58481c-0.19135,-0.08976 -0.33786,-0.19914 -0.44631,-0.32306z" fill="#5d0000" stroke="none" stroke-width="0.5" stroke-linecap="butt"/><path d="M234.64479,178.0364c0,-0.27614 0.22386,-0.5 0.5,-0.5c0.27614,0 0.5,0.22386 0.5,0.5c0,0.27614 -0.22386,0.5 -0.5,0.5c-0.27614,0 -0.5,-0.22386 -0.5,-0.5z" fill="#5d0000" stroke="none" stroke-width="0.5" stroke-linecap="butt"/><path d="M235.28451,182.60285c-0.49497,0.07071 -0.56569,-0.42426 -0.56569,-0.42426l-0.0591,-0.4325c-0.08144,-0.32788 -0.14699,-0.66026 -0.19526,-0.99477c-0.01731,-0.0507 -0.0267,-0.10506 -0.0267,-0.16162c0,-0.01377 0.00056,-0.02742 0.00165,-0.04091c-0.0034,-0.11294 0.01912,-0.47209 0.43633,-0.52424c0.49614,-0.06202 0.55816,0.43412 0.55816,0.43412c0.04335,0.3517 0.10943,0.70124 0.19596,1.04488l0.07891,0.53361c0,0 0.07071,0.49497 -0.42426,0.56569z" fill="#5d0000" stroke="none" stroke-width="0.5" stroke-linecap="butt"/></g></g></svg>