<svg version="1.1" xmlns="http://www.w3.org/2000/svg" xmlns:xlink="http://www.w3.org/1999/xlink" width="43.20556" height="81.4806" viewBox="0,0,43.20556,81.4806"><g transform="translate(-230.77275,-143.24431)"><g data-paper-data="{&quot;isPaintingLayer&quot;:true}" fill-rule="nonzero" stroke-linejoin="miter" stroke-miterlimit="10" stroke-dasharray="" stroke-dashoffset="0" style="mix-blend-mode: normal"><path d="M246.19301,176.80185v-4.86959h27.78529v4.86959z" fill="#3d2076" stroke="none" stroke-width="0" stroke-linecap="butt"/><path d="M245.60174,217.94095v-26.00651h6.10553v26.00651z" fill="#3d2076" stroke="#000000" stroke-width="0" stroke-linecap="butt"/><path d="M231.17016,163.66955v-13.89938c3.52495,-1.42398 6.52782,-3.28691 8.94035,-6.04537h12.22551v19.94475z" fill="#552da5" stroke="none" stroke-width="0" stroke-linecap="butt"/><path d="M235.64756,168.14694v-6.51257h11.80404v6.51257z" fill="#552da5" stroke="none" stroke-width="0" stroke-linecap="butt"/><path d="M231.57721,195.01131v-29.30657h20.35179v12.3433c-2.21079,0.27797 -3.94396,1.44915 -4.52222,4.58291c-0.55019,2.98161 1.71783,6.36081 4.52222,8.09389v4.28647z" fill="#552da5" stroke="none" stroke-width="0" stroke-linecap="butt"/><path d="M231.57721,224.72491v-32.56286h6.10554v32.56286z" fill="#552da5" stroke="none" stroke-width="0" stroke-linecap="butt"/><path d="M231.87069,171.07292v-5.44248h39.24314v5.44248z" fill="#552da5" stroke="none" stroke-width="0" stroke-linecap="butt"/><path d="M233.15652,149.1566l0.43285,5.58889" fill="none" stroke="#5d0000" stroke-width="0.5" stroke-linecap="round"/><path d="M235.50326,147.92594l0.28645,12.03074" fill="none" stroke="#5d0000" stroke-width="0.5" stroke-linecap="round"/><path d="M237.98367,146.06722l0.18884,6.67314" fill="none" stroke="#5d0000" stroke-width="0.5" stroke-linecap="round"/><path d="M239.60474,150.73523l0.28008,-6.44822" fill="none" stroke="#5d0000" stroke-width="0.5" stroke-linecap="round"/><path d="M232.90676,161.03856c-1,0 -1,-1 -1,-1l0.01163,-0.23211c0.52126,-3.37691 0.89754,-6.19835 0.20495,-9.53123c-0.1179,0.0387 -0.23557,0.07569 -0.35294,0.11091c0,0 -0.47891,0.14367 -0.62259,-0.33524c-0.14367,-0.47891 0.33524,-0.62259 0.33524,-0.62259c0.17935,-0.05381 0.35951,-0.11203 0.54015,-0.17446c0.0668,-0.26907 0.25438,-0.5632 0.73458,-0.67619c0.31669,-0.07451 0.55458,-0.02176 0.73144,0.08334c2.20622,-1.01944 4.35533,-2.58064 5.86231,-4.30482c0.20137,-0.22995 0.39626,-0.4657 0.58542,-0.70584v0.00001c0.04359,-0.14665 0.1605,-0.34334 0.47409,-0.34334c0.5,0 0.5,0.5 0.5,0.5l-0.10532,0.35577c-0.22596,0.2903 -0.45947,0.57496 -0.70161,0.85191c-1.57498,1.79809 -3.80044,3.42698 -6.09805,4.50727c0.83254,3.7159 0.46087,6.85863 -0.11093,10.58862l0.01163,-0.072c0,0 0,1 -1,1z" fill="#5d0000" stroke="none" stroke-width="0.5" stroke-linecap="butt"/><path d="M234.88069,176.52961c-0.07685,-0.05898 -0.15549,-0.13223 -0.23585,-0.22126c-0.60361,-0.66874 0.00606,-1.61138 0.8094,-2.41204c0.18146,-1.24703 0.95609,-2.55048 2.07161,-1.62845c1.29659,1.07169 -0.45589,5.40244 -2.19884,4.58481c-0.19135,-0.08976 -0.33786,-0.19914 -0.44631,-0.32306z" fill="#5d0000" stroke="none" stroke-width="0.5" stroke-linecap="butt"/><path d="M235.3529,179.1568c0,-0.27614 0.22386,-0.5 0.5,-0.5c0.27614,0 0.5,0.22386 0.5,0.5c0,0.27614 -0.22386,0.5 -0.5,0.5c-0.27614,0 -0.5,-0.22386 -0.5,-0.5z" fill="#5d0000" stroke="none" stroke-width="0.5" stroke-linecap="butt"/><path d="M235.99262,183.72325c-0.49497,0.07071 -0.56569,-0.42426 -0.56569,-0.42426l-0.0591,-0.4325c-0.08144,-0.32788 -0.14699,-0.66026 -0.19526,-0.99477c-0.01731,-0.0507 -0.0267,-0.10506 -0.0267,-0.16162c0,-0.01377 0.00056,-0.02742 0.00165,-0.04091c-0.0034,-0.11294 0.01912,-0.47209 0.43633,-0.52424c0.49614,-0.06202 0.55816,0.43412 0.55816,0.43412c0.04335,0.3517 0.10943,0.70124 0.19596,1.04488l0.07891,0.53361c0,0 0.07071,0.49497 -0.42426,0.56569z" fill="#5d0000" stroke="none" stroke-width="0.5" stroke-linecap="butt"/><path d="M246.44327,149.34591c0.34474,-0.13611 0.68286,-0.21322 0.97877,-0.21418c4.95757,0.51403 -0.0141,5.84571 -2.46693,5.72114c-1.5008,-0.07622 -1.07111,-2.49067 -0.84185,-3.35379c0.38272,-1.44085 1.14086,-1.9955 2.33001,-2.15317zM245.23737,152.10332c-0.02662,0.05267 -0.05056,0.10307 -0.0719,0.15126c0.00795,0.01534 0.01646,0.03067 0.02552,0.04599c0.01302,-0.06438 0.02853,-0.13026 0.04638,-0.19725z" fill="#5d0000" stroke="none" stroke-width="0.5" stroke-linecap="butt"/><path d="M238.831,159.03713c-1,0 -1,-1 -1,-1l0.00772,-0.76449c0.05337,-0.42697 0.10674,-0.85394 0.16011,-1.28092c0,0 0.12403,-0.99228 1.11631,-0.86824c0.99228,0.12403 0.86824,1.11631 0.86824,1.11631c-0.05337,0.42697 -0.10674,0.85394 -0.16011,1.28092l0.00772,0.51642c0,0 0,1 -1,1z" fill="#5d0000" stroke="none" stroke-width="0.5" stroke-linecap="butt"/><path d="M241.15239,143.49906c0.76822,0.64018 0.12804,1.40841 0.12804,1.40841l-0.49954,0.58345c-0.04549,0.04092 -0.09091,0.08165 -0.13627,0.12221c0.09774,1.3378 0.22154,2.683 0.41696,4.00976c0.15527,0.2636 0.30355,0.72964 -0.16249,1.19569c-0.70711,0.70711 -1.41421,0 -1.41421,0l-0.36132,-0.63511c-0.14008,-0.91511 -0.24754,-1.83844 -0.33503,-2.7632c0.00382,1.11027 0.05465,2.14154 0.43077,3.25561l0.12526,0.92631c0,0 0.11043,0.99388 -0.88345,1.10432c-0.99388,0.11043 -1.10432,-0.88345 -1.10432,-0.88345l-0.03486,-0.51472c-0.30512,-0.9254 -0.43525,-1.80131 -0.49068,-2.69603c-0.21101,0.13807 -0.42423,0.27247 -0.64023,0.4032c0.20003,2.79994 0.48896,5.58777 0.67558,8.39352c0.09682,1.4556 -0.17573,2.72834 0.59105,3.97472l0.51962,0.55229c0,0 0.66436,0.74741 -0.08305,1.41177c-0.74741,0.66436 -1.41177,-0.08305 -1.41177,-0.08305l-0.76129,-0.88874c-1.63992,-3.01976 -1.40564,-8.3607 -1.50371,-12.31097c-0.66576,0.30714 -1.36662,0.58544 -2.11526,0.83498c0,0 -0.94868,0.31623 -1.26491,-0.63246c-0.31623,-0.94868 0.63246,-1.26491 0.63246,-1.26491c1.06976,-0.35659 2.02768,-0.77542 2.92112,-1.25765c0.11229,-0.13124 0.27643,-0.24127 0.51616,-0.28964c0.6642,-0.38705 1.29621,-0.81116 1.91711,-1.27286c0.07081,-0.2961 0.28967,-0.75368 0.9661,-0.75369c0.54608,-0.44488 1.09207,-0.91959 1.65272,-1.4245l0.30103,-0.37723c0,0 0.64018,-0.76822 1.40841,-0.12804z" fill="#5d0000" stroke="none" stroke-width="0.5" stroke-linecap="butt"/><path d="M245.23857,157.93063c-0.99655,0.08305 -1.07959,-0.9135 -1.07959,-0.9135l-0.0794,-1.13427c0.05337,-0.58709 0.10674,-1.17417 0.16011,-1.76126c0,0 0.09054,-0.99589 1.08643,-0.90536c0.99589,0.09054 0.90536,1.08643 0.90536,1.08643c-0.05337,0.58709 -0.10674,1.17417 -0.16011,1.76126l0.08071,0.78711c0,0 0.08305,0.99655 -0.9135,1.07959z" fill="#5d0000" stroke="none" stroke-width="0.5" stroke-linecap="butt"/><path d="M235.46859,186.25575c-1,0 -1,-1 -1,-1l0.00221,-0.78703c0.12136,-1.82008 0.30541,-3.58485 0.62289,-5.38052c-3.28754,-1.72154 -0.01987,-7.66718 2.96287,-8.63814c0,0 0.5238,-0.16117 0.91518,0.14289c1.25821,-0.23857 2.41049,0.45015 2.839,1.96679c0.68152,2.41208 -2.21754,6.85681 -4.76489,6.97422c-0.29541,1.691 -0.46514,3.35237 -0.57949,5.0678l0.00221,0.654c0,0 0,1 -1,1z" fill="#5d0000" stroke="none" stroke-width="0.5" stroke-linecap="butt"/><path d="M243.67005,190.42587c-0.08655,-0.04827 -0.17447,-0.11432 -0.26238,-0.20224c-0.70711,-0.70711 0,-1.41421 0,-1.41421l0.02532,-0.01898l0.65049,-1.44553l0.0916,0.04122l0.03269,-0.247c0.70326,-0.41467 1.297,-1.3208 2.10979,-1.244c2.125,0.2008 1.77276,5.66914 0.17494,6.30668c-2.71452,1.08312 -3.18607,-0.18566 -2.82245,-1.77593z" fill="#5d0000" stroke="none" stroke-width="0.5" stroke-linecap="butt"/><path d="M236.22985,190.7797c0,-0.55228 0.44772,-1 1,-1c0.55228,0 1,0.44772 1,1c0,0.55228 -0.44772,1 -1,1c-0.55228,0 -1,-0.44772 -1,-1z" fill="#5d0000" stroke="none" stroke-width="0.5" stroke-linecap="butt"/><path d="M247.99827,173.80756c0,-0.55228 0.44772,-1 1,-1c0.55228,0 1,0.44772 1,1c0,0.55228 -0.44772,1 -1,1c-0.55228,0 -1,-0.44772 -1,-1z" fill="#5d0000" stroke="none" stroke-width="0.5" stroke-linecap="butt"/><path d="" fill="#5d0000" stroke="none" stroke-width="0.5" stroke-linecap="butt"/><path d="M233.30705,211.63447c-1,0 -1,-1 -1,-1l0.01005,-0.70182c0.29766,-2.08362 0.75474,-4.47798 0.71066,-6.56373c-0.01347,-0.63755 -0.57106,-1.31058 -0.30257,-1.88899c0.05274,-0.11362 0.11843,-0.21732 0.19415,-0.31333l-0.05567,-0.03542l0.55136,-0.86643c0.1759,-0.28635 0.492,-0.47733 0.8527,-0.47733c0.55228,0 1,0.44772 1,1c0,0.08494 -0.01059,0.16742 -0.03053,0.24616l-0.23526,1.01944c0,0 -0.06003,0.26012 -0.25245,0.48055c0.72923,1.8455 -0.24075,6.19961 -0.45251,7.68192l0.01005,0.41898c0,0 0,1 -1,1z" fill="#5d0000" stroke="none" stroke-width="0.5" stroke-linecap="butt"/></g></g></svg>