<svg version="1.1" xmlns="http://www.w3.org/2000/svg" xmlns:xlink="http://www.w3.org/1999/xlink" width="692.8496" height="454.13964" viewBox="0,0,692.8496,454.13964"><defs><linearGradient x1="236.83329" y1="406.75755" x2="233.26955" y2="181.6546" gradientUnits="userSpaceOnUse" id="color-1"><stop offset="0" stop-color="#671f1f"/><stop offset="1" stop-color="#671f1f" stop-opacity="0"/></linearGradient></defs><g transform="translate(151.46985,29.05179)"><g data-paper-data="{&quot;isPaintingLayer&quot;:true}" fill-rule="nonzero" stroke-linejoin="miter" stroke-miterlimit="10" stroke-dasharray="" stroke-dashoffset="0" style="mix-blend-mode: normal"><path d="M-14.58322,392.36863v-420.42042h504.5045v420.42042z" fill="#ecd3c0" stroke="#000000" stroke-width="2" stroke-linecap="butt"/><text transform="translate(-151.21985,129.60587) scale(0.5,0.5)" font-size="40" xml:space="preserve" fill="#754b4b" fill-rule="nonzero" stroke="none" stroke-width="1" stroke-linecap="butt" stroke-linejoin="miter" stroke-miterlimit="10" stroke-dasharray="" stroke-dashoffset="0" font-family="Pixel" font-weight="normal" text-anchor="start" style="mix-blend-mode: normal"><tspan x="0" dy="0"> </tspan></text><path d="M-66.22685,424.08785v-138.13814h606.6066v138.13814z" fill="#dbbfaa" stroke="#dbb9ab" stroke-width="2" stroke-linecap="butt"/><path d="M-39.19981,284.4482l81.08108,-25.52553l394.89489,-1.5015l70.57057,28.52852z" fill="#dbbfaa" stroke="#dbb9ab" stroke-width="2" stroke-linecap="round"/><path d="M308.94207,220.28341v-117h139v117z" fill="#2b595b" stroke="#686868" stroke-width="2" stroke-linecap="butt"/><path d="M372.81707,213.7209l-19,-44l7.5,-5.5l19,45.5z" fill="#1e701d" stroke="none" stroke-width="0" stroke-linecap="butt"/><path d="M429.81707,221.22091l-120.875,-2.9375l29,-28l4,17l27,-2l-3,8l30,-25l36,30z" fill="#8b8b8b" stroke="#686868" stroke-width="2" stroke-linecap="round"/><path d="M447.31707,103.7209l1,15.5l-15,36.5l-8,-34l-36,17.5l16.5,-36z" fill="#8b8b8b" stroke="#686868" stroke-width="2" stroke-linecap="round"/><path d="M328.17334,194.43466c1.28624,-2.14373 3.42998,-0.85749 3.42998,-0.85749c1.16115,0.86521 2.99436,1.23266 3.48344,2.59562c1.91183,5.3279 -3.69223,7.71848 -6.41319,10.72247c-1.8268,2.01683 -2.91453,5.71745 -2.85649,8.32565l-0.76394,2.11803c0,0 -0.26428,0.52857 -0.79284,0.94324c-0.1617,1.56788 -0.60917,3.12854 -0.45538,4.69239c0.17992,1.82964 0.68168,3.66322 0.5,5.49269c-0.06869,0.69176 -0.5737,1.33402 -0.49831,2.02509c0.19252,1.76463 0.98354,3.45367 1.01047,5.22857l-0.62829,2.29057c0,0 -0.79057,2.37171 -3.16228,1.58114c-2.37171,-0.79057 -1.58114,-3.16228 -1.58114,-3.16228l0.37171,-0.70943c0.03614,-1.62392 -0.83882,-3.15412 -0.98953,-4.77143c-0.09331,-1.0013 0.40094,-1.97433 0.50169,-2.97491c0.15145,-1.50404 -0.37255,-3.00104 -0.5,-4.50731c-0.17798,-2.1036 0.49113,-4.20334 0.48876,-6.31445c-0.0032,-2.8593 -0.59944,-5.80104 0.08387,-8.5775c1.24738,-5.0684 4.42942,-8.85081 7.4152,-12.8544c0,0 0.43469,-0.57957 1.14805,-0.88073c0.05604,-0.1315 0.12493,-0.26671 0.20821,-0.40551z" fill="#701d1d" stroke="none" stroke-width="0.5" stroke-linecap="butt"/><path d="M319.81707,249.22091c0,-1.38071 1.11929,-2.5 2.5,-2.5c1.38071,0 2.5,1.11929 2.5,2.5c0,1.38071 -1.11929,2.5 -2.5,2.5c-1.38071,0 -2.5,-1.11929 -2.5,-2.5z" fill="#701d1d" stroke="none" stroke-width="0.5" stroke-linecap="butt"/><path d="M339.81707,249.22091c-2.5,0 -2.5,-2.5 -2.5,-2.5l0.04855,-1.99029c1.5274,-7.4901 5.2455,-15.74907 3.5,-23.51942c0,0 -0.49029,-2.45145 1.96116,-2.94174c2.45145,-0.49029 2.94174,1.96116 2.94174,1.96116c0.69514,3.78939 -0.16827,6.70876 -0.40766,10.6026c-0.14295,2.32521 -0.08932,4.69155 -0.61067,6.96207c-0.63371,2.75984 -1.93811,5.13288 -2.48167,7.91591l0.04855,1.00971c0,0 0,2.5 -2.5,2.5z" fill="#701d1d" stroke="none" stroke-width="0.5" stroke-linecap="butt"/><path d="M362.4351,187.45697c-2.23607,1.11803 -3.3541,-1.11803 -3.3541,-1.11803l-1.21538,-2.62774c-0.7268,-3.72122 -2.49,-6.63207 -2.54855,-10.49029c0,0 0,-2.5 2.5,-2.5c2.5,0 2.5,2.5 2.5,2.5c-0.07395,3.32321 1.78257,6.22964 2.45145,9.50971l0.78462,1.37226c0,0 1.11803,2.23607 -1.11803,3.3541z" fill="#842828" stroke="none" stroke-width="0.5" stroke-linecap="butt"/><path d="M26.94207,220.28341v-117h139v117z" fill="#2b595b" stroke="#686868" stroke-width="2" stroke-linecap="butt"/><path d="M44.12975,218.2834l36.97868,-43.38839l20.02132,53.38839l-22,8l-3.54495,-40.84618l-18.45505,22.84618z" fill="#1e701d" stroke="none" stroke-width="0" stroke-linecap="butt"/><path d="M83.17304,238.5931c-0.6688,-0.60477 -1.33761,-1.20955 -2.00641,-1.81432c-0.76502,0.03255 -1.90614,-0.19746 -2.40859,-1.70481c-0.79057,-2.37171 1.58114,-3.16228 1.58114,-3.16228c4.12054,-1.37093 8.31934,-2.48763 12.47624,-3.75492l1.54656,-1.64114c0,0 1.76777,-1.76777 3.53553,0c1.76777,1.76777 0,3.53553 0,3.53553l-2.45344,2.35886c-1.26694,0.44766 -2.53987,0.86169 -3.81577,1.25928c0.00556,3.8771 0.61338,8.18647 1.87315,11.82353l0.12829,2.79057c0,0 0,2.5 -2.5,2.5c-2.5,0 -2.5,-2.5 -2.5,-2.5l0.12829,-1.20943c-0.86002,-2.66015 -1.44721,-5.47012 -1.78375,-8.29805z" fill="#671f1f" stroke="none" stroke-width="0.5" stroke-linecap="butt"/><path d="M82.62975,248.28339c0,-1.38071 1.11929,-2.5 2.5,-2.5c1.38071,0 2.5,1.11929 2.5,2.5c0,1.38071 -1.11929,2.5 -2.5,2.5c-1.38071,0 -2.5,-1.11929 -2.5,-2.5z" fill="#671f1f" stroke="none" stroke-width="0.5" stroke-linecap="butt"/><path d="M520.04625,180.38042l3.56374,225.10293l-573.5534,2.5484l-3.56374,-225.10293z" fill="url(#color-1)" stroke="none" stroke-width="0" stroke-linecap="butt"/><text transform="translate(98.66378,32.73601) scale(0.412,0.412)" font-size="40" xml:space="preserve" fill="#754b4b" fill-rule="nonzero" stroke="none" stroke-width="1" stroke-linecap="butt" stroke-linejoin="miter" stroke-miterlimit="10" stroke-dasharray="" stroke-dashoffset="0" font-family="Pixel" font-weight="normal" text-anchor="start" style="mix-blend-mode: normal"><tspan x="0" dy="0">SerifAnimates and OgGhostJelly</tspan><tspan x="0" dy="46.150000000000006px">                        presents:</tspan></text></g></g></svg>