<svg version="1.1" xmlns="http://www.w3.org/2000/svg" xmlns:xlink="http://www.w3.org/1999/xlink" width="833.37577" height="471.39331" viewBox="0,0,833.37577,471.39331"><g transform="translate(260.22408,39.47906)"><g data-paper-data="{&quot;isPaintingLayer&quot;:true}" fill-rule="nonzero" stroke-linejoin="miter" stroke-miterlimit="10" stroke-dasharray="" stroke-dashoffset="0" style="mix-blend-mode: normal"><path d="M-14.91593,392.36866v-420.42042h504.5045v420.42042z" fill="#ecd3c0" stroke="#000000" stroke-width="2" stroke-linecap="butt"/><path d="M-59.31344,431.91425v-84.52757h632.46513v84.52757z" fill="#d8b69b" stroke="none" stroke-width="0" stroke-linecap="butt"/><text transform="translate(-151.21985,129.6059) scale(0.5,0.5)" font-size="40" xml:space="preserve" fill="#754b4b" fill-rule="nonzero" stroke="none" stroke-width="1" stroke-linecap="butt" stroke-linejoin="miter" stroke-miterlimit="10" stroke-dasharray="" stroke-dashoffset="0" font-family="Pixel" font-weight="normal" text-anchor="start" style="mix-blend-mode: normal"><tspan x="0" dy="0"> </tspan></text><path d="M308.94207,220.28344v-117h139v117z" fill="#2b595b" stroke="#686868" stroke-width="2" stroke-linecap="butt"/><path d="M430.26447,219.51333l-120.90954,0.52629l28.18601,-28.81924l4.48534,16.87844l26.93163,-2.77262l-2.7696,8.08265l29.27153,-25.84912l36.84461,28.95644z" fill-opacity="0.73387" fill="#8b8b8b" stroke="none" stroke-width="0" stroke-linecap="round"/><path d="M447.31707,103.72093l1,15.5l-15,36.5l-8,-34l-36,17.5l16.5,-36z" fill-opacity="0.73387" fill="#8b8b8b" stroke="none" stroke-width="0" stroke-linecap="round"/><path d="M26.94207,220.28344l0.91107,-82.73515l-0.91107,-34.26485l138.00556,-1.98888l53.96665,51.06476l-52.28208,24.85368l-0.69012,43.07044z" fill="#2b595b" stroke="#686868" stroke-width="2" stroke-linecap="butt"/><path d="M115.56063,171.43796" fill="none" stroke="#2c1c10" stroke-width="2" stroke-linecap="round"/><path d="M226.92655,395.52586v-58.83558h39.88853v58.83558z" fill="#adadad" stroke="none" stroke-width="0" stroke-linecap="butt"/><path d="M257.84016,374.11248v-38.39271h6.9805v38.39271z" fill="#e4e4e4" stroke="none" stroke-width="0" stroke-linecap="butt"/><g stroke="none" stroke-width="0" stroke-linecap="butt"><path d="M435.21059,403.72453l0.07021,-2.5455l-5.02281,-4.05647l-12.50639,-2.99729l-2.77543,-5.96762l-9.98301,-3.5025l8.53258,-18.19639l5.62968,-1.8365l-1.45231,-4.67959l78.38148,-142.31146l6.55855,8.69507l8.91431,0.24685l8.28821,6.7106l5.79852,0.46868l-27.60476,54.46911l-5.28904,1.30612l2.21632,5.68561z" fill="#643f23"/><path d="M424.1882,378.34867c0.69097,0.4528 1.0064,1.1933 0.70454,1.65395c-0.30186,0.46064 -1.10673,0.46702 -1.7977,0.01422c-0.69097,-0.4528 -1.0064,-1.1933 -0.70454,-1.65395c0.30186,-0.46064 1.10673,-0.46702 1.7977,-0.01422z" fill="#cfcfcf"/><path d="M489.62759,268.02682c0.57581,0.37733 0.67553,1.24336 0.22272,1.93434c-0.4528,0.69097 -1.28665,0.94523 -1.86246,0.5679c-0.57581,-0.37733 -0.67553,-1.24337 -0.22273,-1.93434c0.4528,-0.69097 1.28666,-0.94522 1.86247,-0.56789z" fill="#cfcfcf"/></g><path d="M475.76739,288.46662c0,20.73555 -104.45908,53.50045 -232.70082,53.50045c-128.24174,0 -229.70918,-32.7649 -229.70918,-53.50045c0,-20.73555 102.96326,-25.57848 231.205,-25.57848c128.24174,0 231.205,4.84292 231.205,25.57848z" fill="#ad5850" stroke="none" stroke-width="0" stroke-linecap="butt"/><path d="M476.24375,287.71308c0,18.1241 -103.96047,32.81659 -232.20221,32.81659c-35.62398,0 -138.81667,-2.0227 -138.81667,-2.0227l21.83648,-8.32768l-41.20898,2.77414c0,0 -74.01304,-18.36834 -74.01304,-25.24034c0,-18.1241 103.96047,-32.81659 232.20221,-32.81659c14.20667,0 29.57855,0.48508 29.57855,0.48508l16.64009,3.83718l-8.40276,-4.67948c0,0 143.05504,11.01038 167.38779,17.10238c18.24106,4.56687 26.99855,11.9378 26.99855,16.07143z" fill="#e1766c" stroke="none" stroke-width="0" stroke-linecap="butt"/><path d="M88.42207,276.11235c-0.22539,0.10816 -0.33356,-0.11723 -0.33356,-0.11723l-0.06016,-0.12536c-0.3709,-0.89853 -1.97484,-0.9892 -2.86785,-1.17627c-1.61029,-0.34174 -3.07397,-1.28443 -4.72397,-1.57934c-1.74377,-0.31167 -3.76269,-0.28668 -5.3714,-1.04247c-1.61497,-0.49187 -7.27156,-1.32073 -8.51314,0.00319c0,0 -0.17677,0.17678 -0.35355,0c-0.17678,-0.17678 0,-0.35355 0,-0.35355c1.54491,-1.47498 7.14393,-0.70084 9.0463,-0.11626c1.58719,0.74086 3.55828,0.70921 5.27976,1.01689c1.65402,0.29562 3.12526,1.24912 4.73852,1.58216c1.15622,0.2422 2.63571,0.34608 3.21611,1.44931l0.06016,0.12536c0,0 0.10817,0.22539 -0.11722,0.33355z" fill="#ad5850" stroke="none" stroke-width="0.5" stroke-linecap="butt"/><path d="M87.31672,272.14812c-0.25,0.00003 -0.25003,-0.24997 -0.25003,-0.24997l-0.00006,-0.4985c0.00019,-0.4719 -0.32324,-0.87329 -0.81668,-1.20038c-2.72449,-0.99813 -5.04811,-0.04557 -7.90819,-0.04557c0,0 -0.25,0 -0.25,-0.25c0,-0.25 0.25,-0.25 0.25,-0.25c1.77531,0 3.37537,-0.37848 4.98762,-0.42218c-0.36186,-0.0498 -0.70349,-0.07503 -0.99877,-0.07503c0,0 -0.25,0 -0.25,-0.25c0,-0.25 0.25,-0.25 0.25,-0.25c1.15969,0 2.90242,0.34278 4.05424,1.04901c0.23863,0.09057 0.47979,0.19646 0.724,0.31964c0.83308,0.08249 1.41633,-0.07144 1.8838,0.68441l-0.64055,0.43842c0,0 -0.24707,0.03821 -0.28528,-0.20884c-0.03619,-0.23396 0.18345,-0.28064 0.20684,-0.28493c-0.26177,-0.13425 -0.63189,-0.12171 -0.98372,-0.12998c0.17589,0.26314 0.27648,0.55479 0.27667,0.87538l0.00006,0.4985c0,0 0.00003,0.25 -0.24997,0.25003zM88.27823,270.65654l0.2761,0.29354c-0.06143,-0.13905 -0.15745,-0.23162 -0.2761,-0.29354z" fill="#ad5850" stroke="none" stroke-width="0.5" stroke-linecap="butt"/><path d="M91.84809,269.65119c-0.24611,0.04395 -0.29005,-0.20216 -0.29005,-0.20216l-0.00116,-0.00648c-0.00439,-0.63877 -1.32233,-0.18943 -1.90408,-0.34156c-1.62295,-0.4244 -3.08387,-0.44311 -4.82915,-0.44311c0,0 -0.25,0 -0.25,-0.25c0,-0.25 0.25,-0.25 0.25,-0.25c1.53807,0 6.82242,-0.29037 7.22544,1.19678l0.00116,0.00648c0,0 0.04394,0.24611 -0.20217,0.29005z" fill="#ad5850" stroke="none" stroke-width="0.5" stroke-linecap="butt"/><path d="M81.50843,272.07662c-0.17852,0.17502 -0.35354,-0.00349 -0.35354,-0.00349l-0.13881,-0.14158c-0.5975,-0.67147 -2.76073,-0.28205 -3.67153,-0.28205c0,0 -0.25,0 -0.25,-0.25c0,-0.25 0.25,-0.25 0.25,-0.25c1.17399,0 3.16927,-0.38897 4.02856,0.43201l0.13881,0.14158c0,0 0.17502,0.17851 -0.0035,0.35353z" fill="#ad5850" stroke="none" stroke-width="0.5" stroke-linecap="butt"/><path d="M441.57138,298.26975c0.05453,0.24398 -0.18946,0.2985 -0.18946,0.2985l-0.40979,0.09158c-2.17316,0.48564 -4.30127,1.59415 -6.3596,2.42508c-1.2851,0.51155 -2.1194,1.46717 -3.32568,1.97915c-1.25896,0.53434 -3.27263,0.90375 -4.24226,1.91887c0,0 -0.17677,0.17678 -0.35355,0c-0.17678,-0.17678 0,-0.35355 0,-0.35355c1.08103,-1.04422 3.05879,-1.46777 4.40191,-2.02619c1.16897,-0.48602 2.08583,-1.47255 3.33241,-1.98192c2.08071,-0.83996 4.23617,-1.95741 6.43773,-2.44941l0.40979,-0.09157c0,0 0.24398,-0.05453 0.2985,0.18946z" fill="#ad5850" stroke="none" stroke-width="0.5" stroke-linecap="butt"/><path d="M443.57053,299.3146c0.00687,-0.24991 0.25678,-0.24303 0.25678,-0.24303l0.49729,0.01368c2.26115,0.30153 -1.01556,2.71616 -1.56444,3.46952c-0.19486,0.03712 -0.37503,0.09213 -0.54421,0.16063l0.35567,0.14541c-0.13545,1.20805 -2.17782,2.01425 -3.24586,2.37276c-1.1975,0.3895 -2.43358,0.59668 -3.68605,0.70588c-0.20249,0.15188 -0.40747,0.32933 -0.61743,0.5393c0,0 -0.17678,0.17678 -0.35355,0c-0.17678,-0.17678 0,-0.35355 0,-0.35355c0.04338,-0.04338 0.08656,-0.08546 0.12958,-0.12631c-1.47633,0.08168 -2.96837,0.05448 -4.44027,0.05448c0,0 -0.25,0 -0.25,-0.25c0,-0.25 0.25,-0.25 0.25,-0.25c1.69144,0 3.41027,0.03989 5.09967,-0.09797c1.15515,-0.81279 2.25644,-0.89017 3.71605,-1.38272c1.30681,-0.44098 1.84735,-1.79046 3.31883,-1.94029c0.25271,-0.41882 2.78618,-2.73129 1.81826,-2.54733l-0.49729,-0.01368c0,0 -0.24991,-0.00687 -0.24304,-0.25678zM439.33363,304.54643c-0.97887,0.33032 -1.78543,0.45341 -2.55994,0.76081c0.81177,-0.11931 1.61309,-0.29403 2.39743,-0.54915c0.75191,-0.23505 2.8847,-1.06775 2.90192,-1.93482l-0.26227,0.238c0,0 -0.08251,-0.00504 -0.14974,-0.05677c-0.78095,0.49494 -1.37747,1.22139 -2.3274,1.54194z" fill="#ad5850" stroke="none" stroke-width="0.5" stroke-linecap="butt"/><path d="M443.48933,296.64286c0.18559,0.16751 0.01808,0.35309 0.01808,0.35309l-0.1712,0.18969c-0.4866,0.51029 -0.56688,1.02011 -1.16757,1.54775c-0.25405,0.21787 -0.51462,0.4301 -0.78105,0.6365c0.2328,-0.06467 0.47226,-0.12392 0.7214,-0.17494c0.0004,-0.00068 0.00081,-0.00135 0.00122,-0.00203c0.12856,-0.21441 0.34297,-0.08586 0.34297,-0.08586l0.02393,0.52707c-0.86811,0.14562 -1.62415,0.40194 -2.37568,0.65795c-1.75909,1.16733 -3.70421,2.09972 -5.67546,2.75681c0,0 -0.23717,0.07906 -0.31622,-0.15811c-0.07905,-0.23717 0.15812,-0.31623 0.15812,-0.31623c1.33967,-0.44656 2.70707,-1.02471 4.00302,-1.72998c-0.58738,0.13446 -1.21698,0.22273 -1.92954,0.22273c0,0 -0.25,0 -0.25,-0.25c0,-0.25 0.25,-0.25 0.25,-0.25c1.43549,0 2.51075,-0.35521 3.58949,-0.72663c0.67755,-0.45558 1.31924,-0.95015 1.90784,-1.48293c0.60971,-0.53557 0.62275,-0.92591 1.12637,-1.50711l0.17121,-0.18969c0,0 0.16751,-0.18559 0.35309,-0.01808z" fill="#ad5850" stroke="none" stroke-width="0.5" stroke-linecap="butt"/><path d="M41.76928,301.49521l-0.00495,-0.00481c-0.9701,-0.26886 -1.90666,-0.4231 -2.31388,-0.4231c0,0 -0.25,0 -0.25,-0.25c0,-0.25 0.25,-0.25 0.25,-0.25c0.35323,0 0.87336,0.06045 1.4585,0.17784c-0.67764,-0.5313 -1.45637,-1.02171 -2.28288,-1.43336c-0.25061,-0.08474 -0.50088,-0.16854 -0.75049,-0.25174c0,0 -0.13107,-0.04369 -0.16586,-0.16355c-1.2425,-0.50833 -2.54516,-0.82083 -3.74394,-0.82083c0,0 -0.25,0 -0.25,-0.25c0,-0.25 0.25,-0.25 0.25,-0.25c1.54908,0 3.26666,0.49742 4.82548,1.26425c0.28865,0.09767 0.57773,0.19661 0.86679,0.29732c-0.77181,-0.34628 -1.54336,-0.70273 -2.31383,-1.08797c0,0 -0.2236,-0.11181 -0.1118,-0.33541c0.1118,-0.22361 0.33541,-0.11181 0.33541,-0.11181c0.93283,0.46641 1.86766,0.89085 2.8029,1.30624c-1.81737,-1.28059 -4.94463,-2.32845 -6.40495,-2.32845c0,0 -0.25,0 -0.25,-0.25c0,-0.25 0.25,-0.25 0.25,-0.25c2.07298,0 4.35372,1.2412 5.9819,2.4063c0.6583,0.47107 1.38974,0.4507 1.8467,1.05174c1.28907,0.57158 2.57737,1.15772 3.86069,1.84467c0.86536,0.44128 4.41688,2.48351 3.65162,3.04715c0.50944,0.50037 0.84012,0.96301 0.72737,1.24995c-0.38484,0.9794 -2.81013,-0.54881 -3.46736,-0.60983l-0.15887,-0.01475c0,0 -0.24893,-0.02311 -0.22582,-0.27204c0.02311,-0.24893 0.27204,-0.22582 0.27204,-0.22582l0.15887,0.01475c0.50297,0.04669 2.6759,1.24077 2.96567,0.90143c0.02426,-0.02841 -0.42878,-0.42399 -1.02096,-0.91688l-0.1303,0.00101c0,0 -0.24999,0.00196 -0.25195,-0.24803c-0.00019,-0.02351 0.00186,-0.04484 0.00572,-0.06417c-0.91228,-0.74917 -1.96956,-1.58571 -2.16826,-1.70878c-1.58899,-0.98712 -3.32941,-1.752 -5.1033,-2.41712c0.38853,0.28512 0.7499,0.58385 1.07589,0.89046c1.53053,0.44725 3.09231,1.22233 3.1987,2.27428l0.00068,0.01358c0,0 0.01257,0.24968 -0.23712,0.26225c-0.24968,0.01256 -0.26225,-0.23711 -0.26225,-0.23711l-0.00068,-0.01359c0.02363,-0.72736 -1.31571,-1.34578 -2.67199,-1.7477c-0.13231,0.04161 -0.24349,-0.0664 -0.24349,-0.0664zM48.91967,304.05368c0.02992,0.00776 -0.05994,-0.06153 -0.23005,-0.1808c0.07147,0.06022 0.14179,0.12061 0.21053,0.18095z" fill="#ad5850" stroke="none" stroke-width="0.5" stroke-linecap="butt"/><path d="M206.73323,265.92978c-0.01495,0.24955 -0.2645,0.2346 -0.2645,0.2346l-0.27861,-0.01668c-2.01691,-0.12081 -3.8277,-0.97415 -5.86309,-1.00693c-3.26754,-0.05262 -6.44758,-0.8721 -9.79275,-0.96231c-0.65469,0.30347 -1.32443,0.58381 -2.00554,0.83243c0.68926,0.24225 1.34732,0.45386 1.92084,0.61618l0.155,0.04969c0,0 0.23807,0.07632 0.16175,0.31439c-0.07631,0.23807 -0.31439,0.16175 -0.31439,0.16175l-0.155,-0.04969c-0.75648,-0.26317 -1.59613,-0.54744 -2.45443,-0.85411c-1.09577,0.36054 -2.21726,0.6334 -3.34965,0.78395c0.77774,0.28861 1.40186,0.67036 1.72001,1.17396l0.04558,0.08065c0,0 0.123,0.21766 -0.09465,0.34065c-0.21765,0.123 -0.34065,-0.09466 -0.34065,-0.09466l-0.04557,-0.08065c-0.21797,-0.4696 -1.85007,-0.7994 -2.46807,-0.89864c-0.69573,-0.11171 -1.32813,-0.26728 -1.95689,-0.41705c-0.43554,0.32428 -0.81671,0.64689 -1.11831,0.95151c0,0 -0.17678,0.17678 -0.35356,0c-0.17677,-0.17678 0,-0.35355 0,-0.35355c0.23497,-0.23295 0.52328,-0.4836 0.85148,-0.74188c-0.8197,-0.18214 -1.66617,-0.32717 -2.66913,-0.32717c0,0 -0.25,0 -0.25,-0.25c0,-0.25 0.25,-0.25 0.25,-0.25c0.82557,0 2.14949,0.04183 3.50352,0.2137c0.37006,-0.25561 0.76768,-0.511 1.18069,-0.75703c-0.55644,0.02855 -1.11926,0.04612 -1.69257,0.04612c0,0 -0.25,0 -0.25,-0.25c0,-0.25 0.25,-0.25 0.25,-0.25c0.92007,0 1.8134,-0.04532 2.69693,-0.10862c0.16833,-0.08832 0.33753,-0.17408 0.50689,-0.25676c-0.10949,-0.05226 -0.21753,-0.10501 -0.32398,-0.15823c0,0 -0.22361,-0.1118 -0.1118,-0.33541c0.11181,-0.22361 0.33541,-0.1118 0.33541,-0.1118c0.21856,0.10928 0.44929,0.21997 0.68925,0.33105c1.11547,-0.49425 2.20027,-0.82533 3.04275,-0.8345c0.55968,-0.57915 0.93511,-0.83253 1.74401,-0.96031l0.35708,-0.0555c0,0 0.24704,-0.03839 0.28543,0.20864c0.03839,0.24703 -0.20864,0.28542 -0.20864,0.28542l-0.35708,0.0555c-0.78284,0.11945 -1.04841,0.40426 -1.62596,0.92672c-0.73841,0.04433 -1.64133,0.29497 -2.5811,0.66899c0.06016,0.02627 0.12069,0.05252 0.18154,0.07873c1.39128,-0.11881 2.78921,-0.23252 4.26125,-0.23253c0.16767,0 0.33659,-0.00183 0.5065,-0.00498c0.17173,-0.0802 0.3425,-0.16196 0.51227,-0.24508c1.09876,-0.84566 2.27985,-1.12063 3.19815,-2.00656l0.18372,-0.16994c0,0 0.18352,-0.16976 0.35328,0.01376c0.16977,0.18352 -0.01376,0.35328 -0.01376,0.35328l-0.18372,0.16995c-0.88755,0.79499 -1.94534,1.14366 -2.98056,1.8525c1.32527,-0.04911 2.67955,-0.11303 3.9537,0.03882c1.65996,0.19784 3.16998,0.94147 4.85878,0.96867c2.04642,0.03296 3.86268,0.88664 5.88493,1.00776l0.27861,0.01668c0,0 0.24956,0.01495 0.23461,0.2645zM187.78325,264.74141c0.50789,-0.17007 1.01028,-0.35923 1.50599,-0.56367c-0.88514,0.01932 -1.7464,0.07488 -2.5992,0.14204c0.36277,0.14522 0.72962,0.28661 1.09321,0.42163zM183.16145,265.65101c1.32074,-0.05935 2.62858,-0.3069 3.90563,-0.68389c-0.48335,-0.17921 -0.96648,-0.36556 -1.4381,-0.55928c-0.56736,0.04851 -1.1338,0.09762 -1.70396,0.13996c-0.56392,0.29088 -1.11558,0.60949 -1.62754,0.938c0.29211,0.04794 0.58168,0.10271 0.86397,0.16521z" fill="#ad5850" stroke="none" stroke-width="0.5" stroke-linecap="butt"/><path d="M188.23121,261.77077c0.15522,0.19598 -0.04076,0.3512 -0.04076,0.3512l-0.23964,0.1898c-0.55567,0.41962 -0.85754,0.35998 -1.53195,0.39887c-2.90953,0.13663 -5.80482,0.96118 -8.85437,0.96118c0,0 -0.25,0 -0.25,-0.25c0,-0.25 0.25,-0.25 0.25,-0.25c3.05236,0 5.90841,-0.76712 8.82565,-0.96035c0.55279,-0.03173 0.82299,0.06952 1.25024,-0.29165l0.23963,-0.1898c0,0 0.19597,-0.15522 0.35119,0.04076z" fill="#ad5850" stroke="none" stroke-width="0.5" stroke-linecap="butt"/><path d="M383.68554,280.21988c0.15454,0.19651 -0.04197,0.35105 -0.04197,0.35105l-0.08969,0.07054c-0.55986,0.44029 -1.08369,0.77377 -1.71971,1.09436c-1.22994,0.6383 -2.44881,1.29131 -3.66628,1.94391c1.05629,0.16087 2.24772,0.37652 2.54984,1.05706l0.01425,0.03869c0,0 0.08641,0.2346 -0.14819,0.321c-0.2346,0.08641 -0.321,-0.14819 -0.321,-0.14819l-0.01425,-0.03869c-0.11352,-0.46609 -1.77158,-0.68212 -2.80112,-0.84379c-1.61892,0.8669 -3.23875,1.72778 -4.8822,2.54703c-2.56155,1.2769 -5.59259,2.96896 -8.52185,2.9865c0,0 -0.25,0 -0.25,-0.25c0,-0.25 0.25,-0.25 0.25,-0.25c2.82425,0.01986 5.83424,-1.70544 8.29878,-2.93399c1.45693,-0.72627 2.89525,-1.48528 4.33085,-2.25221c-2.30415,-0.57337 -4.39515,-0.95362 -6.59048,-1.14596c-2.24052,1.15602 -5.75951,2.3447 -8.03358,2.3447c0,0 -0.25,0 -0.25,-0.25c0,-0.25 0.25,-0.25 0.25,-0.25c1.94684,0 4.91144,-0.9212 7.05805,-1.91733c-0.82271,-0.05056 -1.66592,-0.07571 -2.54551,-0.07571c-3,0 -6,0 -9,0c0,0 -0.25,0 -0.25,-0.25c0,-0.25 0.25,-0.25 0.25,-0.25c3,0 6,0 9,0c1.19336,0 2.32256,0.04604 3.4251,0.13864c0.1574,-0.08419 0.30711,-0.16803 0.44804,-0.25104c1.6979,-0.98906 3.85681,-2.01007 6.01232,-2.66484c-0.36662,-0.07284 -0.72635,-0.15276 -1.07741,-0.24047c-2.92778,-0.72143 -5.91084,-0.38034 -8.88216,-0.9746c0,0 -0.24514,-0.04903 -0.19611,-0.29417c0.04903,-0.24514 0.29417,-0.19612 0.29417,-0.19612c2.97884,0.59576 5.96555,0.25543 8.90452,0.97962c0.66656,0.16654 1.36424,0.30446 2.0808,0.41899c0.9672,-0.23277 1.91717,-0.37658 2.80707,-0.39467c1.33297,-0.0179 2.51112,-0.9303 3.83959,-0.98051c0.90219,-0.0341 1.45748,0.6989 0.25681,0.94864l-0.47532,0.02143c0,0 -0.24975,0.01126 -0.26101,-0.23849c-0.00186,-0.04122 0.0034,-0.07596 0.01346,-0.10521c-0.1557,0.01499 -0.30233,0.03679 -0.40875,0.07218c-0.95328,0.31702 -1.94762,0.75822 -2.95539,0.78187c-0.41494,0.00711 -0.84353,0.04298 -1.28112,0.10349c2.25898,0.25815 4.61461,0.33121 6.71484,0.37001c0.94702,0.01751 4.4659,-0.53805 5.1441,0.06133c1.58141,1.39763 -2.33985,1.43984 -2.83477,1.44617l-0.15058,0.00192c0,0 -0.24998,0.0032 -0.25317,-0.24678c-0.0032,-0.24998 0.24678,-0.25317 0.24678,-0.25317l0.15058,-0.00192c0.27688,-0.00354 2.98467,-0.3571 2.54355,-0.54442c-1.09177,-0.46362 -3.62148,0.05957 -4.85573,0.03679c-2.5747,-0.04757 -5.53397,-0.14909 -8.23417,-0.57198c-2.36041,0.58226 -4.82145,1.70923 -6.72192,2.79911c2.01216,0.21618 3.96731,0.59112 6.1006,1.12795c0.11807,0.03003 0.25054,0.057 0.3934,0.08253c1.41409,-0.75752 2.82797,-1.51893 4.25688,-2.26045c0.60896,-0.30696 1.10227,-0.62067 1.63831,-1.04222l0.08969,-0.07054c0,0 0.19651,-0.15454 0.35106,0.04197z" fill="#ad5850" stroke="none" stroke-width="0.5" stroke-linecap="butt"/><path d="M411.08333,286.32531c0,7.1797 -29.62382,13 -66.16667,13c-36.54284,0 -66.16667,-5.8203 -66.16667,-13c0,-7.1797 29.62382,-13 66.16667,-13c36.54284,0 66.16667,5.8203 66.16667,13z" fill="#d4d4d4" stroke="none" stroke-width="0" stroke-linecap="butt"/><path d="M415.91667,282.32531c0,7.1797 -31.89971,13 -71.25,13c-39.35029,0 -71.25,-5.8203 -71.25,-13c0,-7.1797 31.89971,-13 71.25,-13c39.35029,0 71.25,5.8203 71.25,13z" fill="#eeeeee" stroke="none" stroke-width="0" stroke-linecap="butt"/><path d="M128.87657,284.5413c-0.17801,0.17553 -0.35354,-0.00249 -0.35354,-0.00249l-0.14058,-0.14257c-0.51399,-0.57389 -1.90923,-0.28157 -2.67304,-0.28157c0,0 -0.25,0 -0.25,-0.25c0,-0.25 0.25,-0.25 0.25,-0.25c1.00118,0 2.2845,-0.27714 3.02907,0.4305l0.14058,0.14258c0,0 0.17552,0.17802 -0.00249,0.35354z" fill="#ad5850" stroke="none" stroke-width="0.5" stroke-linecap="butt"/><path d="M118.4803,286.85632c0,0.25 -0.25,0.25 -0.25,0.25h-0.05392c-2.86158,0 -5.64393,0.49861 -8.42239,0.49861c0,0 -0.25,0 -0.25,-0.25c0,-0.25 0.25,-0.25 0.25,-0.25c0.76409,0 1.52895,-0.03778 2.29592,-0.09253c-0.00935,-0.01304 -0.01823,-0.02774 -0.02649,-0.04427c-0.11181,-0.22361 0.1118,-0.33541 0.1118,-0.33541c2.42608,-1.21304 6.30781,-0.525 9.00563,-0.525c0.83334,0 1.66666,0 2.5,0h0.07412c0,0 0.25,0 0.25,0.25c0,0.25 -0.25,0.25 -0.25,0.25c-0.83334,0 -1.74079,0 -2.57412,0c-2.5169,0 -6.1967,-0.65029 -8.54773,0.36336c1.84105,-0.14769 3.69602,-0.36476 5.58326,-0.36476h0.05392c0,0 0.25,0 0.25,0.25z" fill="#ad5850" stroke="none" stroke-width="0.5" stroke-linecap="butt"/><path d="M210.58333,285.32531c0,7.1797 -29.62382,13 -66.16667,13c-36.54284,0 -66.16667,-5.8203 -66.16667,-13c0,-7.1797 29.62382,-13 66.16667,-13c36.54284,0 66.16667,5.8203 66.16667,13z" fill="#d4d4d4" stroke="none" stroke-width="0" stroke-linecap="butt"/><path d="M215.41667,281.32531c0,7.1797 -31.89971,13 -71.25,13c-39.35029,0 -71.25,-5.8203 -71.25,-13c0,-7.1797 31.89971,-13 71.25,-13c39.35029,0 71.25,5.8203 71.25,13z" fill="#eeeeee" stroke="none" stroke-width="0" stroke-linecap="butt"/><path d="M-72.26898,45.04851v-84.52757h632.46513v84.52757z" fill="#d8b69b" stroke="none" stroke-width="0" stroke-linecap="butt"/><path d="M-257.23519,228.02584c-1.09843,0 -1.98889,-0.44522 -1.98889,-0.99444c0,-0.54922 0.89046,-0.99444 1.98889,-0.99444c1.09843,0 1.98888,0.44522 1.98888,0.99444c0,0.54921 -0.89045,0.99444 -1.98888,0.99444z" fill="#e0e0e0" stroke="#686868" stroke-width="2" stroke-linecap="butt"/><path d="M-30.5,290.45712c0,0.25 -0.25,0.25 -0.25,0.25c-0.16666,0 -0.83334,0 -1,0c0,0 -0.25,0 -0.25,-0.25c0,-0.25 0.25,-0.25 0.25,-0.25c0.16666,0 0.33334,0 0.5,0h0.5c0,0 0.25,0 0.25,0.25z" fill="#ffffff" stroke="none" stroke-width="0.5" stroke-linecap="butt"/><path d="M-22.36916,183.50247v-54h39.86916v54z" fill="#1f1005" stroke="none" stroke-width="0" stroke-linecap="butt"/><path d="M-18.45764,179.96975v-47.94393h32.80374v47.94393z" fill="#bbafa7" stroke="none" stroke-width="0" stroke-linecap="butt"/><path d="M252.63084,221.50247v-54h39.86916v54z" fill="#1f1005" stroke="none" stroke-width="0" stroke-linecap="butt"/><path d="M256.54237,217.96976v-47.94392h32.80373v47.94392z" fill="#bbafa7" stroke="none" stroke-width="0" stroke-linecap="butt"/><path d="M468.63084,219.50247v-54h39.86916v54z" fill="#1f1005" stroke="none" stroke-width="0" stroke-linecap="butt"/><path d="M472.54237,215.96976v-47.94392h32.80373v47.94392z" fill="#bbafa7" stroke="none" stroke-width="0" stroke-linecap="butt"/><g stroke="none" stroke-width="0" stroke-linecap="butt"><path d="M424.25226,425.27494l0.60583,-2.47335l-4.05361,-5.02512l-11.59217,-5.56911l-1.45352,-6.41894l-9.01901,-5.53042l12.18055,-15.98586l5.89046,-0.60706l-0.43203,-4.88069l106.64935,-122.56477l4.57584,9.88334l8.66144,2.12255l6.68535,8.30859l5.56901,1.68184l-38.47812,47.41667l-5.44556,0.16051l0.96652,6.02529z" fill="#643f23"/><path d="M418.83341,398.14446c0.57985,0.58842 0.7319,1.37881 0.33962,1.76538c-0.39227,0.38656 -1.18036,0.22294 -1.76021,-0.36548c-0.57985,-0.58842 -0.7319,-1.37881 -0.33962,-1.76538c0.39227,-0.38656 1.18036,-0.22294 1.76021,0.36548z" fill="#cfcfcf"/><path d="M506.08111,304.11754c0.48321,0.49035 0.39792,1.35792 -0.19052,1.93778c-0.58842,0.57985 -1.45715,0.65241 -1.94036,0.16206c-0.48321,-0.49035 -0.39792,-1.35793 0.19051,-1.93778c0.58842,-0.57985 1.45716,-0.6524 1.94037,-0.16205z" fill="#cfcfcf"/></g></g></g></svg>