<svg version="1.1" xmlns="http://www.w3.org/2000/svg" xmlns:xlink="http://www.w3.org/1999/xlink" width="93" height="122.9609" viewBox="0,0,93,122.9609"><defs><linearGradient x1="239.91667" y1="253.83333" x2="239.91667" y2="113.16666" gradientUnits="userSpaceOnUse" id="color-1"><stop offset="0" stop-color="#f6ff2a"/><stop offset="1" stop-color="#f6ff2a" stop-opacity="0"/></linearGradient><linearGradient x1="240.6995" y1="205.26796" x2="240.41647" y2="176.94625" gradientUnits="userSpaceOnUse" id="color-2"><stop offset="0" stop-color="#6f1e1e"/><stop offset="1" stop-color="#6f1e1e" stop-opacity="0"/></linearGradient><linearGradient x1="240" y1="269.29228" x2="240" y2="128.62561" gradientUnits="userSpaceOnUse" id="color-3"><stop offset="0" stop-color="#f6ff2a"/><stop offset="1" stop-color="#f6ff2a" stop-opacity="0"/></linearGradient></defs><g transform="translate(-193.5,-100.44835)"><g data-paper-data="{&quot;isPaintingLayer&quot;:true}" fill-rule="nonzero" stroke="none" stroke-linecap="butt" stroke-linejoin="miter" stroke-miterlimit="10" stroke-dasharray="" stroke-dashoffset="0" style="mix-blend-mode: normal"><path d="" data-paper-data="{&quot;index&quot;:null}" fill="url(#color-1)" stroke-width="0"/><path d="M203.81009,214.13073v-113.68238h72.15769v113.68238z" fill="#652f00" stroke-width="0"/><path d="M271.45989,158.94154c0,4.98145 -4.18782,9.01971 -9.35378,9.01971c-5.16594,0 -9.35378,-4.03826 -9.35378,-9.01971c0,-4.98145 4.18782,-9.01971 9.35378,-9.01971c5.16594,0 9.35378,4.03826 9.35378,9.01971z" fill="#391b00" stroke-width="0"/><path d="M213.95058,195.87129v-77.26318h17.69906v77.26318z" fill="#8f7157" stroke-width="0"/><text transform="translate(218.37532,144.47596) scale(0.47165,0.47165)" font-size="40" xml:space="preserve" fill="#540000" fill-rule="nonzero" stroke="none" stroke-width="1" stroke-linecap="butt" stroke-linejoin="miter" stroke-miterlimit="10" stroke-dasharray="" stroke-dashoffset="0" font-family="Pixel" font-weight="normal" text-anchor="start" style="mix-blend-mode: normal"><tspan x="0" dy="0">Play</tspan></text><path d="M275.55681,145.28259l0.63312,69.22402l-72.10411,-0.70047l0.43174,-67.5222z" fill="url(#color-2)" stroke-width="0"/><path d="M193.5,128.62561h93c0,0 0,74.15485 0,87.03957c0,3.67767 -1.2,5.49107 -1.2,5.49107c-1.40792,-0.13063 -1.65318,1.61373 -3.08894,1.60102c-3.78542,-0.03353 -7.50479,0.03127 -10.29945,0.00642c-23.01268,-0.20468 -43.06592,-0.13431 -66.56439,0c-1.54219,0.00881 -5.61319,0.44015 -6.89397,0.64556c-1.61556,-0.37001 -2.97672,-2.49226 -4.61991,-2.37361z" data-paper-data="{&quot;index&quot;:null}" fill="url(#color-3)" stroke-width="0"/></g></g></svg>