<svg version="1.1" xmlns="http://www.w3.org/2000/svg" xmlns:xlink="http://www.w3.org/1999/xlink" width="775.86817" height="550.53808" viewBox="0,0,775.86817,550.53808"><g transform="translate(154.30226,98.26904)"><g data-paper-data="{&quot;isPaintingLayer&quot;:true}" fill-rule="nonzero" stroke="none" stroke-width="0" stroke-linecap="butt" stroke-linejoin="miter" stroke-miterlimit="10" stroke-dasharray="" stroke-dashoffset="0" style="mix-blend-mode: normal"><path d="M-154.30226,452.26904v-550.53808h775.86817v550.53808zM108.09202,19.3169l-49.57328,273.35053c0,0 12.86602,17.97062 106.6937,20.6217c55.66346,1.57276 60.42676,-34.30892 60.42676,-34.30892l-95.96524,-259.81955zM428.14865,281.76126l-64.5,-260.5l-21,-2.5l-82,266c0,0 10.22798,28.17281 87.87422,26.51569c78.40296,-1.67328 79.62578,-29.51569 79.62578,-29.51569z" fill-opacity="0.39973" fill="#611c1c"/><path d="M132.58608,20.18746c0,3.20376 -6.45579,5.80091 -14.41941,5.80091c-7.96362,0 -14.41941,-2.59716 -14.41941,-5.80091c0,-3.20376 6.45579,-5.80091 14.41941,-5.80091c7.96362,0 14.41941,2.59716 14.41941,5.80091z" fill="#e0e0e0"/><path d="M366.27996,19.69024c0,3.5699 -6.23318,6.46387 -13.92219,6.46387c-7.68901,0 -13.92219,-2.89398 -13.92219,-6.46387c0,-3.5699 6.23318,-6.46387 13.92219,-6.46387c7.68901,0 13.92219,2.89398 13.92219,6.46387z" fill="#e0e0e0"/></g></g></svg>