<svg version="1.1" xmlns="http://www.w3.org/2000/svg" xmlns:xlink="http://www.w3.org/1999/xlink" width="142.323" height="118.48613" viewBox="0,0,142.323,118.48613"><defs><linearGradient x1="193.75" y1="99" x2="193.75" y2="205.5" gradientUnits="userSpaceOnUse" id="color-1"><stop offset="0" stop-color="#cccccc" stop-opacity="0"/><stop offset="1" stop-color="#cccccc" stop-opacity="0.60392"/></linearGradient></defs><g transform="translate(-161.16788,-94.99999)"><g data-paper-data="{&quot;isPaintingLayer&quot;:true}" fill-rule="nonzero" stroke-linejoin="miter" stroke-miterlimit="10" stroke-dasharray="" stroke-dashoffset="0" style="mix-blend-mode: normal"><path d="M281.94588,206.71376l-16.07599,-30.48469l18.29083,-9.64562l16.07599,30.48469z" data-paper-data="{&quot;index&quot;:null}" fill="#000000" stroke="#000000" stroke-width="2" stroke-linecap="butt"/><path d="M287.50178,212.15727l-4.40125,-9.4422l14.66025,-6.83351l4.40125,9.4422z" data-paper-data="{&quot;index&quot;:null}" fill="#000000" stroke="#000000" stroke-width="2" stroke-linecap="butt"/><path d="M213.8866,204.12202l-7.64426,-16.39959l72.05886,-33.58844l7.64426,16.39959z" data-paper-data="{&quot;index&quot;:null}" fill="#000000" stroke="#000000" stroke-width="2" stroke-linecap="butt"/><path d="M201.03305,207.69365l-6.02275,-12.9209l14.90872,-6.94933l6.02275,12.9209z" data-paper-data="{&quot;index&quot;:null}" fill="#000000" stroke="#000000" stroke-width="2" stroke-linecap="butt"/><path d="M273.74441,159.28269l8.14278,-9.94145" data-paper-data="{&quot;index&quot;:null}" fill="none" stroke="#000000" stroke-width="2" stroke-linecap="round"/><path d="M274.64221,189.11445l-15.78682,7.66112l-19.35845,-5.19246" data-paper-data="{&quot;index&quot;:null}" fill="none" stroke="#000000" stroke-width="2" stroke-linecap="round"/><path d="M255.10262,181.58669l5.11505,5.78237l-10.25092,-1.87604" data-paper-data="{&quot;index&quot;:null}" fill="none" stroke="#000000" stroke-width="2" stroke-linecap="round"/><path d="M296.09469,197.71601l-11.03798,-20.61059l2.03785,-1.76753l11.67555,21.53986z" data-paper-data="{&quot;index&quot;:null}" fill="#1e1e1e" stroke="none" stroke-width="0" stroke-linecap="butt"/><path d="M223.03463,196.03339l21.29875,-9.64347l1.62815,2.15083l-22.26835,10.21786z" data-paper-data="{&quot;index&quot;:null}" fill="#1e1e1e" stroke="none" stroke-width="0" stroke-linecap="butt"/><path d="M200,207.74998c0,0 -6.07082,-5.06963 -11.23241,-11.77351c-4.04082,-5.24821 2.87883,-11.61089 3.84781,-19.39933c1.03054,-8.28321 -31.31641,-16.88309 -31.44657,-27.43882c-0.14895,-12.08039 17.33117,-50.13833 17.33117,-50.13833l25,-4c0,0 -28.88896,48.20003 -20.04084,61.07488c6.55358,9.53608 17.81608,16.02607 17.96731,16.63101c4.63975,18.559 -7.67647,22.04412 -7.67647,22.04412z" fill="url(#color-1)" stroke="#ffffff" stroke-width="0" stroke-linecap="butt"/></g></g></svg>