<svg version="1.1" xmlns="http://www.w3.org/2000/svg" xmlns:xlink="http://www.w3.org/1999/xlink" width="148.48841" height="133.98613" viewBox="0,0,148.48841,133.98613"><defs><linearGradient x1="191.75" y1="98.75" x2="191.75" y2="205.25" gradientUnits="userSpaceOnUse" id="color-1"><stop offset="0" stop-color="#cccccc" stop-opacity="0"/><stop offset="1" stop-color="#cccccc" stop-opacity="0.60392"/></linearGradient></defs><g transform="translate(-155.00247,-79.49999)"><g data-paper-data="{&quot;isPaintingLayer&quot;:true}" fill-rule="nonzero" stroke-linejoin="miter" stroke-miterlimit="10" stroke-dasharray="" stroke-dashoffset="0" style="mix-blend-mode: normal"><path d="M281.94588,206.71376l-16.07599,-30.48469l18.29083,-9.64562l16.07599,30.48469z" data-paper-data="{&quot;index&quot;:null}" fill="#000000" stroke="#000000" stroke-width="2" stroke-linecap="butt"/><path d="M287.50178,212.15727l-4.40125,-9.4422l14.66025,-6.83351l4.40125,9.4422z" data-paper-data="{&quot;index&quot;:null}" fill="#000000" stroke="#000000" stroke-width="2" stroke-linecap="butt"/><path d="M213.8866,204.12202l-7.64426,-16.39959l72.05886,-33.58844l7.64426,16.39959z" data-paper-data="{&quot;index&quot;:null}" fill="#000000" stroke="#000000" stroke-width="2" stroke-linecap="butt"/><path d="M201.03305,207.69365l-6.02275,-12.9209l14.90872,-6.94933l6.02275,12.9209z" data-paper-data="{&quot;index&quot;:null}" fill="#000000" stroke="#000000" stroke-width="2" stroke-linecap="butt"/><path d="M281.88718,149.34124l-8.14278,9.94145" data-paper-data="{&quot;index&quot;:null}" fill="none" stroke="#000000" stroke-width="2" stroke-linecap="round"/><path d="M274.64221,189.11445l-15.78682,7.66112l-19.35845,-5.19246" data-paper-data="{&quot;index&quot;:null}" fill="none" stroke="#000000" stroke-width="2" stroke-linecap="round"/><path d="M255.10262,181.58669l5.11505,5.78237l-10.25092,-1.87604" data-paper-data="{&quot;index&quot;:null}" fill="none" stroke="#000000" stroke-width="2" stroke-linecap="round"/><path d="M296.09469,197.71601l-11.03798,-20.61059l2.03785,-1.76753l11.67555,21.53986z" data-paper-data="{&quot;index&quot;:null}" fill="#1e1e1e" stroke="none" stroke-width="0" stroke-linecap="butt"/><path d="M223.03463,196.03339l21.29875,-9.64347l1.62815,2.15083l-22.26835,10.21786z" data-paper-data="{&quot;index&quot;:null}" fill="#1e1e1e" stroke="none" stroke-width="0" stroke-linecap="butt"/><path d="M200,209.24998c0,0 -3.07082,-5.56963 -8.23241,-12.27351c-0.41215,-0.53529 -7.77234,-12.40527 -6.90219,-19.39933c1.03054,-8.28321 3.18359,-10.13309 3.05343,-20.68882c-0.06417,-5.20466 -30.19261,-18.21622 -32.59467,-29.63411c-3.1733,-15.08384 18.17584,-47.25422 18.17584,-47.25422l25.75,-0.5c0,0 -25.80849,30.39439 -27.87508,46.42335c-1.35777,10.53114 21.57595,22.29663 25.08424,27.40153c6.55358,9.53608 -5.43392,20.27607 -5.28269,20.88101c4.63975,18.559 8.82353,35.0441 8.82353,35.0441z" fill="url(#color-1)" stroke="#ffffff" stroke-width="0" stroke-linecap="butt"/></g></g></svg>