<svg version="1.1" xmlns="http://www.w3.org/2000/svg" xmlns:xlink="http://www.w3.org/1999/xlink" width="148.06084" height="135.48613" viewBox="0,0,148.06084,135.48613"><defs><linearGradient x1="192.5" y1="97.5" x2="192.5" y2="204" gradientUnits="userSpaceOnUse" id="color-1"><stop offset="0" stop-color="#cccccc" stop-opacity="0"/><stop offset="1" stop-color="#cccccc" stop-opacity="0.60392"/></linearGradient></defs><g transform="translate(-155.43004,-77.99999)"><g data-paper-data="{&quot;isPaintingLayer&quot;:true}" fill-rule="nonzero" stroke-linejoin="miter" stroke-miterlimit="10" stroke-dasharray="" stroke-dashoffset="0" style="mix-blend-mode: normal"><path d="M281.94588,206.71376l-16.07599,-30.48469l18.29083,-9.64562l16.07599,30.48469z" data-paper-data="{&quot;index&quot;:null}" fill="#000000" stroke="#000000" stroke-width="2" stroke-linecap="butt"/><path d="M287.50178,212.15727l-4.40125,-9.4422l14.66025,-6.83351l4.40125,9.4422z" data-paper-data="{&quot;index&quot;:null}" fill="#000000" stroke="#000000" stroke-width="2" stroke-linecap="butt"/><path d="M213.8866,204.12202l-7.64426,-16.39959l72.05886,-33.58844l7.64426,16.39959z" data-paper-data="{&quot;index&quot;:null}" fill="#000000" stroke="#000000" stroke-width="2" stroke-linecap="butt"/><path d="M201.03305,207.69365l-6.02275,-12.9209l14.90872,-6.94933l6.02275,12.9209z" data-paper-data="{&quot;index&quot;:null}" fill="#000000" stroke="#000000" stroke-width="2" stroke-linecap="butt"/><path d="M273.74441,159.28269l8.14278,-9.94145" data-paper-data="{&quot;index&quot;:null}" fill="none" stroke="#000000" stroke-width="2" stroke-linecap="round"/><path d="M274.64221,189.11445l-15.78682,7.66112l-19.35845,-5.19246" data-paper-data="{&quot;index&quot;:null}" fill="none" stroke="#000000" stroke-width="2" stroke-linecap="round"/><path d="M255.10262,181.58669l5.11505,5.78237l-10.25092,-1.87604" data-paper-data="{&quot;index&quot;:null}" fill="none" stroke="#000000" stroke-width="2" stroke-linecap="round"/><path d="M296.09469,197.71601l-11.03798,-20.61059l2.03785,-1.76753l11.67555,21.53986z" data-paper-data="{&quot;index&quot;:null}" fill="#1e1e1e" stroke="none" stroke-width="0" stroke-linecap="butt"/><path d="M223.03463,196.03339l21.29875,-9.64347l1.62815,2.15083l-22.26835,10.21786z" data-paper-data="{&quot;index&quot;:null}" fill="#1e1e1e" stroke="none" stroke-width="0" stroke-linecap="butt"/><path d="M200.75,207.99998c0,0 -12.8907,-11.45731 -17.33068,-23.21696c-3.07689,-8.14939 1.80279,-16.57391 1.74951,-20.8947c-0.02473,-2.00541 -2.24331,-4.39472 -7.25027,-9.68625c-7.98762,-8.44161 10.38212,-13.42941 8.9056,-20.44786c-1.42264,-6.76234 -28.09695,-14.01652 -30.6147,-24.92754c-3.09826,-13.42673 4.04054,-30.82668 4.04054,-30.82668h38.25c0,0 -24.795,10.71033 -24.85135,25.62746c-0.03093,8.18905 26.70869,20.86508 25.97627,26.54589c-0.64292,4.98662 -16.39541,16.10873 -10.84572,23.82084c1.81372,2.52043 3.10835,4.26271 4.07926,5.53479c2.33229,3.05576 2.79653,3.39821 4.1007,5.2959c2.24867,3.27202 -9.59949,10.63173 -9.05653,17.24656c1.03946,12.66362 12.84737,25.92855 12.84737,25.92855z" fill="url(#color-1)" stroke="#ffffff" stroke-width="0" stroke-linecap="butt"/></g></g></svg>