<svg version="1.1" xmlns="http://www.w3.org/2000/svg" xmlns:xlink="http://www.w3.org/1999/xlink" width="38.93361" height="127.23745" viewBox="0,0,38.93361,127.23745"><g transform="translate(-221.10782,-121.5395)"><g data-paper-data="{&quot;isPaintingLayer&quot;:true}" fill-rule="nonzero" stroke-linecap="butt" stroke-linejoin="miter" stroke-miterlimit="10" stroke-dasharray="" stroke-dashoffset="0" style="mix-blend-mode: normal"><path d="M234.89986,248.77695l-0.00606,-10.28571l11.28571,-0.00665l0.00606,10.28571z" fill="#131313" stroke="none" stroke-width="0"/><path d="M249.76989,224.13854l10.27154,0.53969l-0.59216,11.27017l-10.27155,-0.53969z" data-paper-data="{&quot;index&quot;:null}" fill="#131313" stroke="none" stroke-width="0"/><path d="M252.49757,231.06802l6.58045,7.9053l-8.67386,7.22021l-6.58045,-7.90529z" data-paper-data="{&quot;index&quot;:null}" fill="#131313" stroke="none" stroke-width="0"/><path d="M243.87626,218.61831l7.70668,-6.81197l7.47425,8.45594l-7.70668,6.81197z" data-paper-data="{&quot;index&quot;:null}" fill="#131313" stroke="none" stroke-width="0"/><path d="M232.30486,234.93251l-10.27155,0.53969l-0.59216,-11.27017l10.27155,-0.53969z" fill="#131313" stroke="none" stroke-width="0"/><path d="M237.52953,240.22796l-7.53119,7.0055l-7.6866,-8.26339l7.53119,-7.0055z" fill="#131313" stroke="none" stroke-width="0"/><path d="M229.68764,227.15361l-7.70668,-6.81197c0,0 2.43597,-2.75592 3.67035,-4.15242c1.25664,-1.42169 3.8039,-4.30352 3.8039,-4.30352l7.70668,6.81197z" fill="#131313" stroke="none" stroke-width="0"/><path d="M234.23379,218.88806l-0.00666,-10.28571l12.39622,-0.00665l0.00666,10.28571z" fill="#131313" stroke="none" stroke-width="0"/><path d="M224.50704,228.34791c0,-8.92471 7.23491,-16.15962 16.15961,-16.15962c8.92471,0 16.15963,7.23491 16.15963,16.15962c0,8.92471 -7.23491,16.15962 -16.15963,16.15962c-8.92471,0 -16.15961,-7.23491 -16.15961,-16.15962zM240.68482,236.37303c3.99393,0 7.23165,-3.23773 7.23165,-7.23165c0,-3.99393 -3.23773,-7.23165 -7.23165,-7.23165c-3.99393,0 -7.23165,3.23773 -7.23165,7.23165c0,3.99393 3.23773,7.23165 7.23165,7.23165z" fill="#131313" stroke="none" stroke-width="0"/><path d="M234.56653,246.94362l-0.00606,-10.28571l11.28571,-0.00665l0.00606,10.28571z" fill="#292929" stroke="none" stroke-width="0"/><path d="M249.43656,222.30521l10.27154,0.53969l-0.59216,11.27017l-10.27155,-0.53969z" data-paper-data="{&quot;index&quot;:null}" fill="#292929" stroke="none" stroke-width="0"/><path d="M252.16424,229.23469l6.58045,7.9053l-8.67386,7.22021l-6.58045,-7.90529z" data-paper-data="{&quot;index&quot;:null}" fill="#292929" stroke="none" stroke-width="0"/><path d="M243.54293,216.78498l7.70668,-6.81197l7.47425,8.45594l-7.70668,6.81197z" data-paper-data="{&quot;index&quot;:null}" fill="#292929" stroke="none" stroke-width="0"/><path d="M231.97153,233.09918l-10.27155,0.53969l-0.59216,-11.27017l10.27155,-0.53969z" fill="#292929" stroke="none" stroke-width="0"/><path d="M237.1962,238.39463l-7.53119,7.0055l-7.6866,-8.26339l7.53119,-7.0055z" fill="#292929" stroke="none" stroke-width="0"/><path d="M229.35431,225.32028l-7.70668,-6.81197c0,0 2.43597,-2.75592 3.67035,-4.15242c1.25664,-1.42169 3.8039,-4.30352 3.8039,-4.30352l7.70668,6.81197z" fill="#292929" stroke="none" stroke-width="0"/><path d="M243.96459,134.5395c0,6.48935 -1.67893,11.75 -3.75,11.75c-2.07107,0 -3.75,-5.26065 -3.75,-11.75c0,-6.48935 1.67893,-11.75 3.75,-11.75c2.07107,0 3.75,5.26065 3.75,11.75z" fill="none" stroke="#424242" stroke-width="2.5"/><path d="M243.96459,152.0395c0,6.76549 -1.567,12.25 -3.5,12.25c-1.933,0 -3.5,-5.48451 -3.5,-12.25c0,-6.76549 1.567,-12.25 3.5,-12.25c1.933,0 3.5,5.48451 3.5,12.25z" fill="none" stroke="#424242" stroke-width="2.5"/><path d="M245.46459,169.2895c0,8.28427 -2.23858,15 -5,15c-2.76142,0 -5,-6.71573 -5,-15c0,-8.28427 2.23858,-15 5,-15c2.76142,0 5,6.71573 5,15z" fill="none" stroke="#424242" stroke-width="2.5"/><path d="M243.96459,189.0395c0,6.48935 -1.67893,11.75 -3.75,11.75c-2.07107,0 -3.75,-5.26065 -3.75,-11.75c0,-6.48935 1.67893,-11.75 3.75,-11.75c2.07107,0 3.75,5.26065 3.75,11.75z" fill="none" stroke="#424242" stroke-width="2.5"/><path d="M244.0757,206.5395c0,6.76549 -1.567,12.25 -3.5,12.25c-1.933,0 -3.5,-5.48451 -3.5,-12.25c0,-6.76549 1.567,-12.25 3.5,-12.25c1.933,0 3.5,5.48451 3.5,12.25z" fill="none" stroke="#424242" stroke-width="2.5"/><path d="M233.90046,217.05473l-0.00666,-10.28571l12.39622,-0.00665l0.00666,10.28571z" fill="#292929" stroke="none" stroke-width="0"/><path d="M224.17371,226.51458c0,-8.92471 7.23491,-16.15962 16.15961,-16.15962c8.92471,0 16.15963,7.23491 16.15963,16.15962c0,8.92471 -7.23491,16.15962 -16.15963,16.15962c-8.92471,0 -16.15961,-7.23491 -16.15961,-16.15962zM240.35149,234.5397c3.99393,0 7.23165,-3.23773 7.23165,-7.23165c0,-3.99393 -3.23773,-7.23165 -7.23165,-7.23165c-3.99393,0 -7.23165,3.23773 -7.23165,7.23165c0,3.99393 3.23773,7.23165 7.23165,7.23165z" fill="#292929" stroke="none" stroke-width="0"/></g></g></svg>