<svg version="1.1" xmlns="http://www.w3.org/2000/svg" xmlns:xlink="http://www.w3.org/1999/xlink" width="38.63638" height="38.25" viewBox="0,0,38.63638,38.25"><defs><linearGradient x1="240.24751" y1="208.26497" x2="239.94747" y2="178.24094" gradientUnits="userSpaceOnUse" id="color-1"><stop offset="0" stop-color="#6f1e1e"/><stop offset="1" stop-color="#6f1e1e" stop-opacity="0"/></linearGradient></defs><g transform="translate(-220.48862,-160.875)"><g data-paper-data="{&quot;isPaintingLayer&quot;:true}" fill-rule="nonzero" stroke-linecap="butt" stroke-linejoin="miter" stroke-miterlimit="10" stroke-dasharray="" stroke-dashoffset="0" style="mix-blend-mode: normal"><path d="M236,197.625v-35.25h8v35.25z" fill="#666666" stroke="#3a3a3a" stroke-width="3"/><path d="M224.70882,189.63433l24.92551,-24.92551l5.65685,5.65685l-24.92551,24.92551z" fill="#666666" stroke="#3a3a3a" stroke-width="3"/><path d="M222.375,176l35.25,0v8l-35.25,0z" fill="#666666" stroke="#3a3a3a" stroke-width="3"/><path d="M230.36567,164.70882l24.92551,24.92552l-5.65686,5.65686l-24.92551,-24.92552z" fill="#666666" stroke="#3a3a3a" stroke-width="3"/><path d="M229.875,180c0,-5.66092 4.53312,-10.25 10.125,-10.25c5.59188,0 10.125,4.58908 10.125,10.25c0,5.66092 -4.53312,10.25 -10.125,10.25c-5.59188,0 -10.125,-4.58908 -10.125,-10.25z" fill="#666666" stroke="#3a3a3a" stroke-width="3"/><path d="M256.51138,167.90193l-4.08024,18.63349c0,0 -8.92212,5.73113 -13.14952,5.55884c-4.10392,-0.16726 -14.06761,-6.85445 -14.06761,-6.85445l-4.72538,-17.19019z" fill="url(#color-1)" stroke="none" stroke-width="0"/></g></g></svg>