<svg version="1.1" xmlns="http://www.w3.org/2000/svg" xmlns:xlink="http://www.w3.org/1999/xlink" width="106.44856" height="38.6" viewBox="0,0,106.44856,38.6"><g transform="translate(-189.89258,-168.68889)"><g data-paper-data="{&quot;isPaintingLayer&quot;:true}" fill-rule="nonzero" stroke-linejoin="miter" stroke-miterlimit="10" stroke-dasharray="" stroke-dashoffset="0" style="mix-blend-mode: normal"><path d="M263.95522,184.79366c0,0 11.23727,-15.65453 19.5,-10.66667c8.26273,4.98786 13.49317,7.40798 8.33333,18.83334c-5.15984,11.42535 -9.73275,11.56526 -19.83333,6.16667c-10.10058,-5.39859 -9.5,-13.33333 -9.5,-13.33333" fill="none" stroke="#c9c9c9" stroke-width="5" stroke-linecap="round"/><path d="M275.27743,193.45706c-2.93306,9.88327 -12.9753,15.62066 -22.42996,12.8148c-9.45467,-2.80586 -14.74147,-13.09244 -11.80841,-22.97571c2.93305,-9.88327 12.97529,-15.62066 22.42995,-12.8148c9.45466,2.80586 14.74148,13.09244 11.80842,22.97571zM264.26813,194.8714c3.30914,0.98205 6.78782,-0.90442 7.76988,-4.21355c0.98205,-3.30913 -0.90442,-6.78783 -4.21355,-7.76988c-3.30914,-0.98205 -6.78782,0.90442 -7.76988,4.21356c-0.98205,3.30913 0.90442,6.78782 4.21355,7.76987z" fill="#424242" stroke="#ffffff" stroke-width="0" stroke-linecap="butt"/><path d="M196.19932,183.99498c0,0 -2.70693,-3.26849 -2.26508,-5.10018c0.45254,-1.87607 5.90768,-5.74179 5.90768,-5.74179l48.70838,4.67466l-2.44329,13.83049l-5.05946,2.95449l-8.14691,-0.37022l-1.4617,-5.02087c0,0 -8.13909,-0.68201 -16.44752,-1.23738c-1.0918,-0.07298 -2.46613,0.79835 -3.53458,0.69412c-1.09717,-0.10703 -2.09605,-1.97214 -3.12963,-2.06129c-0.8572,-0.07394 -2.3052,1.44969 -3.08196,1.36491c-1.1104,-0.12119 -2.72537,-2.19588 -3.59016,-2.28174c-1.09261,-0.10849 -2.45217,0.98668 -2.99235,0.90656c-1.25407,-0.18599 -2.46342,-2.61175 -2.46342,-2.61175z" fill="#424242" stroke="#ffffff" stroke-width="0" stroke-linecap="butt"/><path d="M275.32854,192.74468c-2.93306,9.88327 -12.97529,15.62066 -22.42995,12.8148c-9.45467,-2.80586 -14.74148,-13.09244 -11.80842,-22.97572c2.93305,-9.88327 12.9753,-15.62065 22.42996,-12.8148c9.45466,2.80586 14.74147,13.09244 11.80841,22.97571zM264.31925,194.15902c3.30914,0.98205 6.78782,-0.90442 7.76988,-4.21355c0.98205,-3.30913 -0.90442,-6.78783 -4.21356,-7.76988c-3.30914,-0.98205 -6.78782,0.90442 -7.76987,4.21356c-0.98205,3.30913 0.90442,6.78782 4.21355,7.76987z" fill="#777777" stroke="#ffffff" stroke-width="0" stroke-linecap="butt"/><path d="M196.73064,182.97625c0,0 -2.70693,-3.26849 -2.26509,-5.10017c0.45254,-1.87607 5.90768,-5.7418 5.90768,-5.7418l48.70839,4.67466l-2.44329,13.83049l-5.05946,2.95449l-8.14691,-0.37022l-1.4617,-5.02087c0,0 -8.13909,-0.68201 -16.44752,-1.23738c-1.0918,-0.07298 -2.46612,0.79834 -3.53457,0.69411c-1.09717,-0.10703 -2.09605,-1.97214 -3.12964,-2.06129c-0.8572,-0.07394 -2.3052,1.44968 -3.08196,1.3649c-1.1104,-0.12119 -2.72537,-2.19588 -3.59016,-2.28174c-1.09261,-0.10849 -2.45218,0.98668 -2.99236,0.90656c-1.25407,-0.18599 -2.46341,-2.61175 -2.46341,-2.61175z" fill="#777777" stroke="#ffffff" stroke-width="0" stroke-linecap="butt"/><path d="M273.32381,188.62223c0,10.30931 -7.99491,18.66667 -17.85714,18.66667c-9.86223,0 -17.85715,-8.35736 -17.85715,-18.66667c0,-10.30931 7.99491,-18.66666 17.85715,-18.66666c9.86223,0 17.85714,8.35735 17.85714,18.66666zM263.17188,193.11033c3.45178,0 6.25,-2.79822 6.25,-6.25c0,-3.45178 -2.79822,-6.25 -6.25,-6.25c-3.45178,0 -6.25,2.79822 -6.25,6.25c0,3.45178 2.79822,6.25 6.25,6.25z" fill="#424242" stroke="#ffffff" stroke-width="0" stroke-linecap="butt"/><path d="M194.82164,202.04934c0,0 -3.52497,-2.36328 -3.62251,-4.24498c-0.09991,-1.92729 4.02997,-7.18528 4.02997,-7.18528l48.02545,-9.37633l1.59253,13.95407l-4.0098,4.27183l-7.91556,1.96292l-2.82976,-4.39751c0,0 -7.99677,1.66179 -16.11985,3.49317c-1.06745,0.24066 -2.13708,1.46698 -3.19103,1.67103c-1.08229,0.20954 -2.57051,-1.2943 -3.58675,-1.0857c-0.84281,0.17299 -1.79749,2.04561 -2.56628,2.18533c-1.09899,0.19974 -3.23748,-1.32975 -4.09096,-1.16602c-1.07833,0.20685 -2.07012,1.64356 -2.61077,1.72044c-1.25516,0.17848 -3.10467,-1.80295 -3.10467,-1.80295z" fill="#424242" stroke="#ffffff" stroke-width="0" stroke-linecap="butt"/><path d="M273.81905,187.35557c0,10.30931 -7.99491,18.66667 -17.85715,18.66667c-9.86223,0 -17.85715,-8.35735 -17.85715,-18.66667c0,-10.30931 7.99491,-18.66667 17.85715,-18.66667c9.86223,0 17.85715,8.35735 17.85715,18.66667zM263.66712,191.84366c3.45178,0 6.25,-2.79822 6.25,-6.25c0,-3.45178 -2.79822,-6.25 -6.25,-6.25c-3.45178,0 -6.25,2.79822 -6.25,6.25c0,3.45178 2.79822,6.25 6.25,6.25z" fill="#777777" stroke="#ffffff" stroke-width="0" stroke-linecap="butt"/><path d="M193.51688,200.116c0,0 -3.52496,-2.36328 -3.62251,-4.24498c-0.09991,-1.92729 4.02997,-7.18528 4.02997,-7.18528l48.02545,-9.37633l1.59253,13.95407l-4.0098,4.27183l-7.91557,1.96292l-2.82976,-4.39751c0,0 -7.99677,1.66179 -16.11985,3.49317c-1.06745,0.24066 -2.13708,1.46698 -3.19103,1.67103c-1.08229,0.20954 -2.57051,-1.2943 -3.58675,-1.0857c-0.84281,0.17299 -1.79749,2.04561 -2.56628,2.18533c-1.09899,0.19974 -3.23749,-1.32975 -4.09097,-1.16602c-1.07833,0.20685 -2.07012,1.64356 -2.61077,1.72044c-1.25516,0.17848 -3.10467,-1.80295 -3.10467,-1.80295z" fill="#777777" stroke="#ffffff" stroke-width="0" stroke-linecap="butt"/><path d="M262.78854,186.29367c0,0 7.39237,-9.0811 11.07581,-11.45751c3.1068,-2.00439 7.75753,-1.5425 7.75753,-1.5425" fill="none" stroke="#c9c9c9" stroke-width="5" stroke-linecap="round"/></g></g></svg>