<svg version="1.1" xmlns="http://www.w3.org/2000/svg" xmlns:xlink="http://www.w3.org/1999/xlink" width="64.23725" height="30.7733" viewBox="0,0,64.23725,30.7733"><g transform="translate(-207.88137,-164.61335)"><g data-paper-data="{&quot;isPaintingLayer&quot;:true}" fill-rule="nonzero" stroke-width="0" stroke-linecap="butt" stroke-linejoin="miter" stroke-miterlimit="10" stroke-dasharray="" stroke-dashoffset="0" style="mix-blend-mode: normal"><path d="M221.76532,186.90614v-15.08468c0,0 47.99609,-1.04283 49.42894,0.47349c1.26568,1.33941 1.08727,14.03086 0.32777,14.84793c-1.0939,1.17684 -49.75672,-0.23675 -49.75672,-0.23675z" fill="#c9c9c9" stroke="#424242"/><path d="M207.88426,179.82234c-0.26803,-2.75067 18.21637,-16.57265 19.32938,-15.09942c1.22955,2.05076 1.23074,29.75714 0.11838,30.63442c-0.85969,0.67801 -18.96543,-10.58504 -19.44776,-15.53499z" fill="#c9c9c9" stroke="#424242"/><path d="M223.43022,182.66548v-9.72913c0,0 44.87497,-0.97798 46.15159,0c1.12766,0.86388 0.81782,9.20214 0.14114,9.72913c-0.97461,0.75902 -46.29273,0 -46.29273,0z" fill="#4e4e4e" stroke="#424242"/><path d="M210.12073,178.05011c-0.20607,-1.87749 14.79829,-11.31178 15.654,-10.30622c0.9453,1.39976 0.94622,20.31095 0.09101,20.90974c-0.66095,0.46278 -15.37418,-7.2249 -15.74501,-10.60352z" fill="#4e4e4e" stroke="#424242"/><path d="M213.65583,177.81892c-0.13578,-1.13614 9.75073,-6.84522 10.31456,-6.23671c0.62287,0.84705 0.62347,12.29098 0.05997,12.65333c-0.43551,0.28005 -10.13019,-4.37208 -10.37453,-6.41662z" fill="#424242" stroke="#424242"/></g></g></svg>