<svg version="1.1" xmlns="http://www.w3.org/2000/svg" xmlns:xlink="http://www.w3.org/1999/xlink" width="58.17208" height="93.00127" viewBox="0,0,58.17208,93.00127"><g transform="translate(-209.53115,-118.48415)"><g data-paper-data="{&quot;isPaintingLayer&quot;:true}" fill-rule="nonzero" stroke="none" stroke-width="0.5" stroke-linecap="butt" stroke-linejoin="miter" stroke-miterlimit="10" stroke-dasharray="" stroke-dashoffset="0" style="mix-blend-mode: normal"><g><path d="M259.55181,198.75518c-2.27549,1.62535 -4.46716,3.38426 -6.7011,5.08679c-1.20013,1.06258 -2.5057,1.98796 -4.04138,2.56555c-1.50141,0.56471 -4.25949,0.61465 -5.80388,0.70722c-2.5156,0.15079 -5.27343,0.27352 -7.73444,-0.42729c-4.70567,-1.34001 -8.24791,-4.64651 -11.02773,-8.54263c0.92067,-0.97484 1.81185,-2.0582 2.01152,-2.87514c0.82776,-3.38671 -1.53492,-7.38929 -3.89616,-9.62428c-0.99055,-0.9376 -2.30592,-1.50031 -3.25634,-2.47802c-0.53137,-3.70453 -0.81792,-7.43304 -1.02766,-11.19651c3.78582,-3.05218 8.33541,-6.51842 5.61098,-12.18471c-0.6185,-1.28634 -1.74933,-2.00925 -2.84701,-2.71889c1.96187,-3.33372 4.38856,-6.39896 7.11912,-9.07174c2.57082,-2.51643 4.99326,-4.92787 8.21992,-6.56721c3.10992,-1.55581 6.95613,-2.37139 10.42162,-1.14372c0.45352,0.16066 0.92921,0.37695 1.41436,0.62815c0.3525,0.10364 0.58897,0.25975 0.58897,0.25975c2.29623,1.51686 5.3228,2.67494 7.43872,4.35255c0.73862,0.58562 5.01077,5.45274 5.50255,6.19603c0.66954,1.01196 1.24753,2.04784 1.74773,3.10437c0.0222,0.01789 0.04445,0.03638 0.06675,0.0555c1.48868,1.27602 0.21267,2.7647 0.21267,2.7647c-0.93393,1.08812 -2.72999,3.0979 -3.37213,4.25931c-2.44727,4.42626 3.17578,4.99384 5.27989,7.11848c0.05689,0.05745 0.11222,0.11578 0.16602,0.17493c0.00863,0.00218 0.01724,0.00437 0.02585,0.00659c0.28499,0.07331 0.57091,0.14401 0.85772,0.21122c0.0298,0.41271 0.05733,0.82624 0.08319,1.24043c0.0093,0.01979 0.01849,0.03961 0.02758,0.05949c-0.0533,3.09376 -0.2164,6.15006 -0.39294,9.23326c-0.72688,1.38419 -1.8187,2.49557 -3.22701,3.59222c-0.89369,0.6959 -2.30603,0.88526 -2.82123,1.89398c-0.40068,0.7845 0.34315,1.72862 0.55182,2.58445c1.21063,1.8914 3.68984,4.90771 2.93506,7.38809c-0.55074,1.80983 -2.81381,2.40482 -4.13302,3.34711z" fill="#005601"/><path d="M261.79254,196.26973c0.41534,-1.41279 -0.95826,-4.42737 -1.12154,-5.85439c-0.38912,-1.78056 -1.16549,-4.22263 -0.2845,-6.01125c0.40559,-0.82344 1.56124,-0.97651 2.26631,-1.56424c1.1744,-0.97898 1.77441,-3.03193 1.92779,-4.48833c0.15715,-1.49216 0.43838,-4.65185 -0.1418,-6.10577c-1.39378,-3.49279 -5.2815,-3.29619 -5.62075,-7.65361c-0.18726,-2.40532 0.52971,-3.55726 2.02966,-5.30697c0.33209,-0.38739 0.99392,-0.47532 1.21005,-0.93753c0.40662,-0.86965 -0.5553,-1.84548 -0.96596,-2.71324c-0.94277,-1.99215 -2.4047,-3.60668 -3.83983,-5.24519c-2.83169,-2.83268 -6.23211,-6.60104 -10.14965,-7.83906c-3.22453,-1.01901 -5.12316,-0.03174 -8.02624,1.23822c-6.68309,2.92354 -11.46427,6.11107 -15.311,12.54436c0,0 -1.00878,1.6813 -2.69008,0.67252c-0.15044,-0.09026 -0.27934,-0.18591 -0.38935,-0.28525c0.44025,-1.60081 0.82393,-3.31728 1.38151,-4.92867c4.0036,-5.5312 8.93346,-8.74994 15.44145,-11.5975c3.78398,-1.65567 6.62982,-2.66752 10.79661,-1.37607c0.07102,0.02201 0.14189,0.04467 0.21257,0.06797c2.78955,1.34413 4.8966,3.28049 7.26317,5.45003c2.79148,2.55907 6.00011,5.20053 7.93135,8.53616c1.23172,2.12743 1.68713,4.56598 1.96304,6.9567c-0.73584,1.34675 -4.42364,3.60774 -2.7566,5.63327c0.9785,1.18891 2.55056,1.78954 3.53534,2.97327c0.06972,0.0838 0.13744,0.16851 0.20322,0.25411c-0.00129,4.40264 -0.26417,8.70232 -0.51604,13.08108c-0.06078,1.05672 -0.06838,2.11665 -0.07511,3.17574c-0.27364,0.32805 -0.57149,0.63013 -0.89433,0.89908c-0.38161,0.31791 -1.11493,0.1161 -1.39368,0.52719c-0.22116,0.32615 0.16708,0.77022 0.25317,1.15477c0.16765,0.74885 0.3387,1.49693 0.50804,2.2454c0.10632,0.98883 0.40282,2.01162 0.67398,3.04333c-1.92056,6.03355 -7.21418,11.23192 -12.18185,14.85519c-1.57468,0.6987 -3.22026,0.68369 -4.93319,0.87517c-2.78914,0.31178 -5.88999,1.28963 -8.71779,0.80828c-2.13938,-0.36418 -4.39652,-1.47513 -6.44606,-2.19609c-2.28273,-0.80299 -3.8796,-1.71685 -5.98717,-2.88842c-1.08514,-0.60322 -1.85527,-0.58748 -2.52327,-1.59967c-1.36236,-2.06431 -2.17249,-4.82958 -2.82187,-7.54038c1.01828,-0.64616 2.10802,-0.99345 1.68952,-2.59475c-0.53535,-2.04837 -1.97568,-4.32842 -3.60236,-5.83842c-0.50845,-2.6647 -0.8614,-5.3401 -1.12209,-8.03031c0.45944,-2.4925 1.73872,-5.02294 2.52087,-7.52356c-0.11136,0.10445 -0.23073,0.21209 -0.35905,0.32368c-0.48803,0.42439 -1.21565,0.50442 -1.70309,0.92949c-0.4607,0.40175 -0.68823,1.14081 -0.80588,1.96473c-0.07201,-1.08042 -0.13469,-2.16355 -0.19204,-3.24966c-0.04991,-0.9451 -0.14595,-1.89909 -0.16137,-2.84746c0.69059,-0.47669 1.22581,-0.8634 1.81677,-2.26346c0.26041,-1.40506 0.37821,-2.86263 0.2132,-4.28214l-0.33626,-1.34504c0.31101,-0.9712 0.6258,-1.93857 0.91219,-2.90601c0.25127,-0.11704 0.53148,-0.1824 0.82695,-0.1824c0.63635,0 1.20189,0.30315 1.5601,0.77291l1.81759,2.3369l-0.05142,0.03999c0.10757,0.12335 0.20933,0.25236 0.3044,0.38788c0.78128,1.11381 0.5587,2.66961 0.6772,4.02495c0.35289,4.03647 -0.72804,7.67711 -1.91296,11.45101c-0.39056,1.24391 -1.28055,2.3273 -1.49917,3.61261c-0.37416,2.19972 2.32058,5.62177 3.37537,7.30452c2.22693,3.55276 4.12484,8.08847 1.90031,12.17231c-0.18759,0.3444 -0.81206,0.1781 -1.08162,0.46294c-0.1741,0.18397 0.51768,-0.21177 0.75128,-0.11388c1.56773,0.65695 2.95978,1.68372 4.513,2.37426c2.26837,0.6798 4.55838,1.99941 6.83499,2.54629c1.572,0.37763 3.04135,0.11675 4.61792,0.21027c3.71907,0.2206 7.34241,0.1861 10.46572,-2.21477c1.68588,-1.29592 3.03527,-3.34585 4.40717,-4.94639l2.54632,-1.31045c0,0 0.60665,-0.26 1.26686,-0.12632z" fill="#005601"/><path d="M218.67627,164.36991c-0.0679,-0.11642 -0.12351,-0.27103 -0.16888,-0.45652c0.57079,-2.20787 1.35538,-4.37289 1.99243,-6.53887c0.2778,-0.94453 0.52342,-1.9423 0.78755,-2.94473c0.05724,0.01543 0.11247,0.0337 0.16569,0.05439c0.39156,0.12897 0.7836,0.42126 1.07728,1.00861c0.02852,0.05703 0.05425,0.11313 0.07735,0.1683c0.51978,1.14975 1.31275,2.53285 1.85087,3.95731c0.31601,0.46965 0.36228,1.00861 0.36905,1.15636c0.03565,0.14094 0.06747,0.28178 0.09495,0.42233c4.56758,2.12399 9.87757,3.67203 14.94913,3.66902c3.12153,-0.00185 6.29935,-0.8005 9.36128,-1.28396c3.67881,-0.58087 7.42012,-0.98589 10.88857,-2.3496c0.01911,-1.27015 0.31496,-2.43223 1.07083,-3.26904c0.73968,-0.81888 1.7654,-1.81728 2.82653,-2.10854c0.20915,-0.17853 0.47763,-0.33971 0.80542,-0.40638c0.65941,2.11279 0.86326,4.36969 1.0659,6.4974c0.22662,2.37946 0.77479,4.30722 0.76711,6.7108c0,0.08731 -0.0001,0.17457 -0.00031,0.2618c-0.32764,0.24601 -0.73487,0.39177 -1.17612,0.39177c-0.56748,0 -1.07865,-0.24108 -1.43669,-0.62642l-2.19549,-0.30051c-0.34986,-0.82523 -0.78412,-1.96194 -1.1298,-3.20518c-3.51238,1.21794 -7.18664,1.69505 -10.88435,2.27889c-3.27213,0.51664 -6.64898,1.33198 -9.98443,1.33032c-5.25987,-0.00262 -10.78267,-1.48514 -15.62345,-3.60445c-1.36895,2.97866 -2.98198,3.5908 -5.55041,-0.81312z" fill="#003a01"/><path d="M223.12948,199.11321c-0.1428,-0.01157 -0.28289,-0.03675 -0.41996,-0.07404c-0.96726,-2.78257 -1.52748,-5.92804 -2.16899,-8.49407c-0.6609,-2.607 -1.14252,-5.22241 -1.50468,-7.8501c0.07646,0.02609 0.14901,0.05721 0.21771,0.09218c0.22801,-0.09281 0.47742,-0.14395 0.73877,-0.14395c0.37702,0 0.72919,0.10641 1.0281,0.29084c0.95123,-0.27867 1.79568,0.42504 1.79568,0.42504c2.35287,2.00288 4.00405,4.6829 4.3649,7.72886c10.76222,2.56109 22.06004,-0.47641 32.52501,-3.34961c0.0023,-0.91201 0.06661,-1.72475 0.2066,-2.27775c0.44053,-1.74017 2.8484,-5.89227 5.40401,-5.06962c0.35343,0.11377 0.63951,0.31066 0.87125,0.57095c-0.01554,0.26921 -0.03109,0.53866 -0.04661,0.80842c-0.21065,3.66219 0.21742,7.36282 -0.89294,10.93429c-0.46588,1.4985 -1.14052,2.94593 -1.96752,4.33103l-0.40229,-0.17241l0.0287,-0.06698c-0.18286,-0.06673 -0.36069,-0.1477 -0.53223,-0.24641c-1.00784,-0.5799 -1.45876,-1.85375 -1.8832,-2.93629c-0.1828,-0.46623 -0.34198,-1.13591 -0.46838,-1.90159c-10.77081,2.91766 -22.13692,5.69147 -33.19507,3.30172c-0.64048,1.78448 -2.07696,4.23092 -3.69886,4.09951z" fill="#003a01"/><path d="M244.87669,158.47506c0.28413,-0.36632 0.75142,-0.66755 1.51995,-0.66755c1.96071,0 1.96071,1.96071 1.96071,1.96071c-0.00064,3.79475 0.71118,7.59157 0.77474,11.30965c0.02015,1.17874 0.34691,2.61762 -0.42173,3.5115c-1.7223,2.00292 -6.83246,1.35172 -9.06861,0.98298c-1.0497,-0.17309 -2.33444,0.02896 -3.11533,-0.69355c-2.99859,-2.77441 -1.39389,-9.44742 -0.69443,-12.79711c0.23299,-1.11577 -0.04715,-2.50162 0.72258,-3.34231c1.57151,-1.71639 5.92043,-1.68353 8.32212,-0.26433z" fill="#003a01"/><path d="M245.36764,185.44464c0.28063,-0.3852 0.75384,-0.70999 1.55185,-0.70999c1.96071,0 1.96071,1.96071 1.96071,1.96071c-0.00256,2.65777 0.4542,4.94079 0.7627,7.55269c0.13625,1.15359 0.5528,2.37353 0.19686,3.47926c-1.17302,3.64405 -5.72372,3.84052 -8.79353,3.47354c-1.12394,-0.13436 -2.52711,0.04055 -3.30448,-0.78222c-2.04165,-2.16089 -1.19046,-8.29323 -0.88426,-10.95599c0.13909,-1.20949 -0.07975,-2.70141 0.7739,-3.56945c0.94271,-0.95861 2.53205,-0.9836 3.86632,-1.14901c1.74942,-0.21687 2.99387,0.06125 3.86992,0.70045z" fill="#003a01"/><path d="M264.4352,180.55178c0.56862,0.04898 1.19251,-0.05529 1.7797,-0.05782c-0.02447,0.42482 -0.04909,0.85023 -0.0736,1.27638c-0.21065,3.66219 0.21742,7.36282 -0.89294,10.93429c-0.37653,1.21109 -0.88941,2.38882 -1.50888,3.52725l-0.727,-1.67544c0.28317,-2.23628 0.70779,-4.45528 1.38066,-6.61403c0.22156,-0.71081 0.52517,-1.39342 0.78429,-2.09142c0.1952,-0.52584 0.9223,-1.57865 0.36506,-1.64265c-0.37704,-0.0433 -0.73819,0.17659 -1.10729,0.26488c0,0 -1.96071,0 -1.96071,-1.96071c0,-1.96071 1.96071,-1.96071 1.96071,-1.96071z" fill="#003a01"/><path d="M227.15496,155.90768c-0.32234,1.93403 -2.25638,1.6117 -2.25638,1.6117l-2.38587,-0.59996c-0.70262,-0.50273 -2.08181,-1.41567 -3.12428,-2.36264c0.94689,-3.62943 1.64065,-7.57227 5.08872,-9.57288c0,0 2.2576,-1.41099 1.62575,-3.74278c4.31853,-3.80085 10.49191,-4.58853 16.23818,-5.17568c2.22378,0.30113 4.38929,0.66078 6.51034,1.14218c0.00501,0.03139 0.00957,0.06338 0.01364,0.09598c0.01751,0.14003 0.02367,0.27125 0.02004,0.39418c5.391,2.47881 10.0205,5.59014 14.113,10.01966c0.34916,0.37792 0.96526,0.95272 1.63889,1.61497c0.78065,2.33385 1.36893,4.73105 1.72787,7.27803c-1.41039,1.28662 -3.65819,1.74995 -5.37556,2.18424l-0.09931,-0.04325c-0.18149,0.57229 -0.24354,1.21691 -0.30406,1.49234l-3.68546,-0.95255l-0.11888,0.00146c0.00272,-0.01005 0.00542,-0.02008 0.00811,-0.03009l-0.06665,-0.01722c0,0 0,-0.64052 0.3661,-1.18938c0.23604,-0.97474 0.45122,-1.73448 1.07606,-2.47716c0.09708,-0.19577 0.23934,-0.39569 0.43926,-0.59561c0.30388,-0.30388 0.60776,-0.47456 0.89704,-0.55581c0.61447,-0.40526 1.37059,-0.5761 2.11301,-0.66325c-0.84245,-0.86531 -1.82934,-2.62918 -2.08417,-2.93642c-1.37348,-1.65594 -2.90693,-2.633 -4.65913,-3.88612c-7.27324,-6.08085 -18.33612,-7.35177 -25.70216,-0.63772c-1.98561,1.80985 -3.73071,4.4058 -5.3686,6.66898c0.33297,0.24788 0.65405,0.51496 0.99153,0.75556l0.75127,-0.07711c0,0 1.93403,0.32234 1.6117,2.25637zM229.41996,143.84132c-0.41973,0.31863 -0.82241,0.66534 -1.20577,1.04307c0.33316,-0.26783 0.66163,-0.54093 0.97622,-0.82939c0.0773,-0.07087 0.15377,-0.14212 0.22954,-0.21368zM221.96915,152.08089c-0.03606,0.02574 -0.0515,0.0613 -0.03685,0.11214c0.0122,-0.03743 0.02449,-0.07481 0.03685,-0.11214z" fill="#005601"/><path d="M266.45371,182.38487c0,0 -1.47341,0.84195 -2.46201,-0.41146c-1.16559,0.79085 -2.1413,1.8644 -2.92746,3.02486c0.21682,0.53093 0.28227,1.28436 -0.47117,2.0378c-1.38644,1.38643 -2.77287,0 -2.77287,0l-0.8388,-2.88208c1.59266,-2.74033 3.91289,-5.41559 6.98421,-6.59798c0.48638,-0.18726 1.08362,0.03397 1.55118,-0.19626c0.37454,-0.18443 0.10344,-1.67518 -0.19348,-2.915c-0.4074,-0.30399 -0.59566,-0.74537 -0.68267,-1.08837c-0.24288,-0.18221 -0.48743,-0.36191 -0.74026,-0.5292c-0.61484,-0.24668 -1.23243,-0.4865 -1.85229,-0.72005l-1.97007,-0.49252c-0.87315,-0.19815 -1.52496,-0.97902 -1.52496,-1.91212c0,-1.08287 0.87784,-1.96071 1.96071,-1.96071c0.09295,0 0.18438,0.00646 0.27387,0.01897l2.06074,0.25759l-0.0102,0.08165c0.1112,-0.00809 0.22291,-0.01245 0.33519,-0.01266c0.40621,-0.00071 1.08424,0.33432 1.80187,0.77211c0.28913,-0.07195 0.50565,-0.07196 0.50565,-0.07196l1.76692,0.48847c0.33848,2.14004 0.45063,4.35424 0.4554,6.47468c0.00398,1.7733 -0.83764,4.3123 -0.79797,6.37452c-0.1565,0.08074 -0.30862,0.16575 -0.45156,0.25972z" fill="#005601"/><path d="M224.0445,181.46677c0,1.96071 -1.96071,1.96071 -1.96071,1.96071l-1.81808,-0.15854c-0.7638,-0.39388 -1.72698,-0.54237 -2.35213,-1.10689c-0.03328,-1.95337 -0.06875,-3.91048 -0.15018,-5.88173c-0.13674,-3.31016 -0.23404,-6.77404 -0.09044,-10.22457c0.96921,-0.38732 2.2256,0.34518 3.3178,0.43742c0,0 1.90218,0.47555 1.42663,2.37772c-0.47554,1.90217 -2.37772,1.42663 -2.37772,1.42663c-0.06232,-0.07635 -0.12428,-0.15301 -0.18621,-0.22969c0.00173,0.00487 0.00327,0.00963 0.00461,0.01427c0.1728,0.59882 0.22002,1.22953 0.26121,1.85142c0.1377,2.07933 -0.61744,7.20394 1.69115,7.73108l0.27335,-0.15853c0,0 1.96071,0 1.96071,1.96071z" fill="#005601"/><path d="M262.08235,194.66891c1.96071,0 1.96071,1.96071 1.96071,1.96071l-0.01514,1.58681c0.04111,0.4169 0.06215,0.81071 0.06358,1.18413c-1.55216,3.04828 -3.59063,6.10989 -6.12823,8.20854c-4.51449,2.45566 -9.36287,4.32529 -14.63556,3.78168c-4.04036,-0.41655 -7.7653,-2.08164 -11.60648,-3.20875c-3.72478,-1.09296 -10.96033,-2.12294 -10.53571,-7.62517c0.08154,-1.05657 1.10375,-1.80935 1.65563,-2.71403c0,0 1.13965,-1.59549 2.73514,-0.45585c1.5955,1.13965 0.45585,2.73514 0.45585,2.73514c-0.31955,0.31532 -0.80864,0.52285 -0.95866,0.94597c-0.23709,0.6687 0.95124,1.10835 1.59222,1.41251c1.9844,0.94162 4.0929,1.32943 6.17206,1.94232c0.74644,0.22003 1.4537,0.55645 2.18751,0.81554c4.62027,1.63131 9.88618,3.09921 14.77997,1.78584c2.52875,-0.67866 5.03796,-2.12975 7.29811,-3.41858c2.11828,-1.50635 3.48788,-2.20889 3.03342,-4.9029l-0.01514,-2.0732c0,0 0,-1.96071 1.96071,-1.96071z" fill="#005601"/><path d="M232.50728,147.28796c-0.33734,-0.25049 -0.55759,-0.59044 -0.69815,-0.98287c-1.45072,-0.76667 -0.84265,-2.38819 -0.84265,-2.38819c1.80663,-4.79584 1.78007,-9.47454 1.96794,-14.54697l0.23923,-0.70959c-1.65386,0.20134 -3.28766,0.48488 -4.88797,0.86042c-2.5665,0.60228 -5.6891,1.31194 -7.16461,3.85418c-0.58582,1.00935 -0.77071,2.2032 -1.16742,3.30074c-1.3528,3.74267 -2.76632,7.19593 -3.2625,11.1654c-0.79903,3.21756 -1.74807,6.38552 -2.40775,9.63297l-0.15057,0.15639l0.08027,0.03441l-0.76649,1.78846c-0.28976,0.72091 -0.99543,1.22989 -1.81998,1.22989c-1.08287,0 -1.96071,-0.87784 -1.96071,-1.96071v-2.87572h0.01214c-0.00373,-0.02327 -0.00736,-0.04657 -0.01089,-0.06989c-0.52462,-3.46606 0.58413,-7.98941 1.35601,-11.35061c1.09914,-4.78618 2.14681,-9.64066 4.33831,-14.02777c1.29447,-2.59137 2.0836,-5.97866 4.40283,-7.93663c2.12049,-1.79019 5.22057,-2.23459 7.84101,-2.54799c3.83091,-0.45816 7.48688,-1.05801 11.36286,-1.05624c4.63966,-0.51551 9.52925,-0.48267 14.16995,0.00784c1.28272,0.13558 4.4744,0.35848 5.46534,1.20473c1.37455,1.17384 2.76215,5.30844 1.75113,6.99971c-0.65111,1.0892 -2.19489,1.33001 -3.41244,1.68755c-1.09751,0.32229 -2.44736,0.28388 -3.79767,0.15457c-0.67506,0.52393 -1.58023,0.37308 -1.58023,0.37308c-0.38141,-0.06366 -0.76444,-0.12476 -1.14892,-0.18319c0.64842,4.32559 0.83349,8.51917 2.50746,12.68381c0,0 0.17515,0.43787 0.1389,0.97003c0.41476,0.43246 0.9163,1.26168 0.22616,2.36591c-1.03918,1.66269 -2.70186,0.62351 -2.70186,0.62351c-2.28105,-1.44056 -4.46376,-3.20349 -6.30588,-5.1912c-0.36244,-0.39109 -0.42007,-1.05491 -0.86858,-1.34328c-0.18609,-0.11963 -0.25492,0.36516 -0.41462,0.51824c-0.55794,0.5348 -1.19196,0.98843 -1.73299,1.54034c-1.44094,1.46994 -2.82897,4.35911 -4.74808,5.22111c-1.24277,0.55822 -2.91477,1.60975 -4.00858,0.79756zM247.88278,138.4938c-0.00442,-0.02111 -0.00884,-0.04223 -0.01323,-0.06335l-0.12654,-0.06144c0.04673,0.04157 0.09331,0.08317 0.13977,0.1248zM245.94238,136.53466c-0.01337,0.02025 -0.02712,0.04024 -0.04122,0.05997c0.03761,0.04153 0.0751,0.08328 0.11254,0.12511c-0.02374,-0.06172 -0.04751,-0.12342 -0.07132,-0.18508z" fill="#272727"/><path d="M231.40127,139.92657c-3.05214,-2.23281 -6.13529,-2.37496 -9.82368,-1.8019c-1.24565,0.53792 -3.36137,1.40736 -4.03939,2.70016c-0.57467,1.09573 -0.23085,2.36699 0.13342,3.42808c1.24499,3.62648 5.3985,7.29313 9.39371,7.28037c5.73797,-0.01834 9.67462,-6.35514 6.32569,-10.85636zM230.12856,134.8565c0.67201,-0.16988 1.31056,0.08553 1.31056,0.08553c1.03006,0.43958 2.23264,0.59842 3.09018,1.31875c8.10149,6.80532 2.63348,19.21547 -7.49279,19.19381c-7.0979,-0.01518 -16.659,-8.90011 -12.95572,-16.48012c1.13558,-2.32436 4.22079,-3.68277 6.41775,-4.61984c3.55898,-0.54356 6.63652,-0.58965 9.63002,0.50186z" fill="#939393"/><path d="M249.14262,189.99856c-1.73464,-0.91401 -0.82064,-2.64865 -0.82064,-2.64865l0.44945,-0.81785c2.2263,-3.1563 4.44942,-6.25251 6.51177,-9.51781c0.48147,-0.76229 1.41428,-1.37143 1.46861,-2.27141c0.03017,-0.49971 -0.85632,-0.5188 -1.28449,-0.77821c0,0 -1.38644,-1.38643 0,-2.77286c1.38643,-1.38644 2.77286,0 2.77286,0c0.79184,0.9606 2.29697,1.63938 2.37551,2.88179c0.10881,1.7211 -1.13288,3.26645 -1.88881,4.81648c-1.722,3.53092 -4.4967,6.70617 -6.75096,9.90227l-0.18467,0.38561c0,0 -0.91401,1.73464 -2.64865,0.82064z" fill="#005601"/><path d="M266.48969,176.38692c0.73291,0.43974 0.95464,1.00728 0.97158,1.50764c-0.05128,0.29164 -0.10669,0.5891 -0.16199,0.88935c-0.07046,0.18208 -0.13706,0.29309 -0.13706,0.29309l-1.32594,1.89386c-1.17062,0.83505 -2.04165,2.21934 -3.4199,2.62931c-0.05667,0.01685 -0.1135,0.0329 -0.17048,0.04819l0.02496,0.04367l-1.8001,1.02863c-0.29339,0.17493 -0.6363,0.27542 -1.00269,0.27542c-1.08287,0 -1.96071,-0.87784 -1.96071,-1.96071c0,-0.66718 0.33324,-1.25653 0.84234,-1.61069l1.76441,-1.2603c0.06062,-0.05029 0.12114,-0.09926 0.18142,-0.14705c0.3155,-0.68818 1.09418,-1.09565 1.89016,-1.48573c0.43889,-0.52391 0.4101,-1.09883 -0.56388,-2.08389c0,0 -1.25522,-1.50626 0.25104,-2.76148c1.50626,-1.25522 2.76147,0.25104 2.76147,0.25104c0.54816,0.71877 1.39706,1.28689 1.64448,2.15631c0.01985,0.06975 0.03849,0.13869 0.05593,0.20685c0.05099,0.02631 0.10265,0.05509 0.15496,0.08648z" fill="#005601"/></g></g></g></svg>