<svg version="1.1" xmlns="http://www.w3.org/2000/svg" xmlns:xlink="http://www.w3.org/1999/xlink" width="56.07633" height="82.54689" viewBox="0,0,56.07633,82.54689"><g transform="translate(-211.96183,-138.72656)"><g data-paper-data="{&quot;isPaintingLayer&quot;:true}" fill-rule="nonzero" stroke-linecap="butt" stroke-linejoin="miter" stroke-miterlimit="10" stroke-dasharray="" stroke-dashoffset="0" style="mix-blend-mode: normal"><path d="" fill="#005601" stroke="none" stroke-width="0.5"/><path d="" fill="#005601" stroke="none" stroke-width="0.5"/><path d="" fill="#003a01" stroke="none" stroke-width="0.5"/><path d="" fill="#003a01" stroke="none" stroke-width="0.5"/><path d="" fill="#003a01" stroke="none" stroke-width="0.5"/><path d="" fill="#003a01" stroke="none" stroke-width="0.5"/><path d="" fill="#003a01" stroke="none" stroke-width="0.5"/><path d="" fill="#005601" stroke="none" stroke-width="0.5"/><path d="" fill="#005601" stroke="none" stroke-width="0.5"/><path d="" fill="#005601" stroke="none" stroke-width="0.5"/><path d="" fill="#272727" stroke="none" stroke-width="0.5"/><path d="" fill="#939393" stroke="none" stroke-width="0.5"/><path d="" fill="#005601" stroke="none" stroke-width="0.5"/><path d="" fill="#005601" stroke="none" stroke-width="0.5"/><path d="M232.18683,147.11711c0,0 -0.77821,-8.4776 0.38414,-8.38988c1.26168,0.09522 7.90584,5.14293 28.863,5.38551c1.95538,0.02263 4.16172,22.15053 4.68881,30.18232c1.16548,17.75942 2.51382,30.29885 1.63065,30.67711c-2.46696,1.05659 -10.96373,-55.83263 -11.34022,-56.04899c-5.77263,-3.31749 -13.62639,-1.00607 -13.62639,-1.00607l3,9.4c0,0 -6.12195,-1.57448 -8.9989,-1.56118c-3.04037,0.01405 -8.78016,1.64336 -8.78016,1.64336z" fill="#272727" stroke="none" stroke-width="0"/><path d="M243.38683,160.41711c0,-4.69442 4.52193,-8.5 10.1,-8.5c5.57808,0 10.1,3.80558 10.1,8.5c0,4.69442 -4.52192,8.5 -10.1,8.5c-5.57808,0 -10.1,-3.80558 -10.1,-8.5z" fill="none" stroke="#939393" stroke-width="5"/><g stroke="none"><path d="M221.18552,200.55686c0.08154,-1.05657 -0.42462,5.50223 0,0z" fill="#005601" stroke-width="0.5"/><path d="M258.81183,186.81711c0,12.01219 -1.44963,33.86229 -23.375,34c-18.9237,0.11886 -22.625,-22.23781 -22.625,-34.25c0,-12.01219 6.70426,-35.02533 23.875,-35c18.93096,0.02792 22.125,23.23781 22.125,35.25z" fill="#003a01" stroke-width="0"/><path d="M214.96183,169.19986l0.8,-9.342c0,0 11.86993,-8.64074 20.5,-8.64074c9.66838,0 21,8.44872 21,8.44872l0.9,10.16475c0,0 -1.3823,-2.69691 -2.69676,-1.73009c-1.34628,0.99023 -1.88773,4.08194 -1.88773,4.08194l-5.99176,0.22139c0,0 -5.2071,-4.70972 -7.00211,-4.69826c-5.57078,0.03556 -6.61278,-0.15695 -8.87228,0.21406c-2.05629,0.33765 -4.65713,5.15381 -4.65713,5.15381l-6.03494,-1.00182c0,0 -0.66715,-3.49391 -2.0013,-4.37718c-1.33494,-0.88379 -4.05599,1.50542 -4.05599,1.50542z" fill="#005601" stroke-width="0"/><path d="M218.81782,206.45468c1.33416,-0.79436 2.0013,-3.93659 2.0013,-3.93659l6.03493,-0.90098c0,0 2.60085,4.33138 4.65714,4.63504c2.2595,0.33367 3.3015,0.16054 8.87228,0.19252c1.79501,0.0103 7.00211,-4.22535 7.00211,-4.22535l5.99176,0.19911c0,0 0.54145,2.78051 1.88773,3.67106c1.31446,0.86951 2.49676,-0.84719 2.49676,-0.84719l-0.7,8.43284c0,0 -11.33162,7.5983 -21,7.5983c-8.63007,0 -20.5,-7.77098 -20.5,-7.77098l-1,-8.36217c0,0 2.92105,2.10922 4.25599,1.31439z" data-paper-data="{&quot;index&quot;:null}" fill="#005601" stroke-width="0"/><path d="M218.21782,183.48833c1.33416,-0.96409 1.8013,-5.77773 1.8013,-5.77773l6.23494,0.50651c0,0 5.00085,5.45688 7.05714,5.82543c2.2595,0.40497 0.1015,0.19483 5.67228,0.23365c1.79501,0.01251 8.63091,-5.81662 9.12612,-5.88627c0.96493,-0.13572 4.26774,-0.00026 4.26774,-0.00026c0,0 0.94145,3.57462 2.28773,4.65546c1.31446,1.05529 5.09676,-0.05727 5.09676,-0.05727l-0.1,8.86375c0,0 -4.66865,0.0753 -5.78279,1.37296c-0.97404,1.13448 -1.13838,4.98945 -1.13838,4.98945l-5.35325,0.11423c0,0 -3.81254,-4.51435 -8.17163,-6.1573c-2.76971,-1.04391 -6.2371,0.5025 -7.55395,0.5025c-2.21854,0 -5.06037,4.2944 -5.06037,4.2944l-5.4178,-0.40398c0,0 -1.4598,-3.90219 -2.99393,-4.45481c-1.53979,-0.55466 -6.2279,1.13295 -6.2279,1.13295l0.2,-9.56431c0,0 4.72105,0.77529 6.05599,-0.18937z" data-paper-data="{&quot;index&quot;:null}" fill="#005601" stroke-width="0"/></g></g></g></svg>