<svg version="1.1" xmlns="http://www.w3.org/2000/svg" xmlns:xlink="http://www.w3.org/1999/xlink" width="208.66668" height="286.67745" viewBox="0,0,208.66668,286.67745"><g transform="translate(-135.66666,71.9605)"><g data-paper-data="{&quot;isPaintingLayer&quot;:true}" fill-rule="nonzero" stroke-linejoin="miter" stroke-miterlimit="10" stroke-dasharray="" stroke-dashoffset="0" style="mix-blend-mode: normal"><g fill="none" stroke="#424242" stroke-width="2.5" stroke-linecap="butt"><path d="M150.46459,-54.7105c0,8.28427 -2.23858,15 -5,15c-2.76142,0 -5,-6.71573 -5,-15c0,-8.28427 2.23858,-15 5,-15c2.76142,0 5,6.71573 5,15z"/><path d="M148.96459,-34.9605c0,6.48935 -1.67893,11.75 -3.75,11.75c-2.07107,0 -3.75,-5.26065 -3.75,-11.75c0,-6.48935 1.67893,-11.75 3.75,-11.75c2.07107,0 3.75,5.26065 3.75,11.75z"/><path d="M148.96459,-17.4605c0,6.76549 -1.567,12.25 -3.5,12.25c-1.933,0 -3.5,-5.48451 -3.5,-12.25c0,-6.76549 1.567,-12.25 3.5,-12.25c1.933,0 3.5,5.48451 3.5,12.25z"/><path d="M150.46459,-0.2105c0,8.28427 -2.23858,15 -5,15c-2.76142,0 -5,-6.71573 -5,-15c0,-8.28427 2.23858,-15 5,-15c2.76142,0 5,6.71573 5,15z"/><path d="M148.96459,19.5395c0,6.48935 -1.67893,11.75 -3.75,11.75c-2.07107,0 -3.75,-5.26065 -3.75,-11.75c0,-6.48935 1.67893,-11.75 3.75,-11.75c2.07107,0 3.75,5.26065 3.75,11.75z"/><path d="M148.96459,37.0395c0,6.76549 -1.567,12.25 -3.5,12.25c-1.933,0 -3.5,-5.48451 -3.5,-12.25c0,-6.76549 1.567,-12.25 3.5,-12.25c1.933,0 3.5,5.48451 3.5,12.25z"/><path d="M150.96459,56.2895c0,8.28427 -2.23858,15 -5,15c-2.76142,0 -5,-6.71573 -5,-15c0,-8.28427 2.23858,-15 5,-15c2.76142,0 5,6.71573 5,15z"/><path d="M149.46459,76.0395c0,6.48935 -1.67893,11.75 -3.75,11.75c-2.07107,0 -3.75,-5.26065 -3.75,-11.75c0,-6.48935 1.67893,-11.75 3.75,-11.75c2.07107,0 3.75,5.26065 3.75,11.75z"/><path d="M149.46459,93.5395c0,6.76549 -1.567,12.25 -3.5,12.25c-1.933,0 -3.5,-5.48451 -3.5,-12.25c0,-6.76549 1.567,-12.25 3.5,-12.25c1.933,0 3.5,5.48451 3.5,12.25z"/><path d="M150.96459,110.7895c0,8.28427 -2.23858,15 -5,15c-2.76142,0 -5,-6.71573 -5,-15c0,-8.28427 2.23858,-15 5,-15c2.76142,0 5,6.71573 5,15z"/><path d="M149.46459,130.5395c0,6.48935 -1.67893,11.75 -3.75,11.75c-2.07107,0 -3.75,-5.26065 -3.75,-11.75c0,-6.48935 1.67893,-11.75 3.75,-11.75c2.07107,0 3.75,5.26065 3.75,11.75z"/><path d="M149.46459,148.0395c0,6.76549 -1.567,12.25 -3.5,12.25c-1.933,0 -3.5,-5.48451 -3.5,-12.25c0,-6.76549 1.567,-12.25 3.5,-12.25c1.933,0 3.5,5.48451 3.5,12.25z"/></g><g fill="none" stroke="#424242" stroke-width="2.5" stroke-linecap="butt"><path d="M340.46459,-55.7105c0,8.28427 -2.23858,15 -5,15c-2.76142,0 -5,-6.71573 -5,-15c0,-8.28427 2.23858,-15 5,-15c2.76142,0 5,6.71573 5,15z"/><path d="M338.96459,-35.9605c0,6.48935 -1.67893,11.75 -3.75,11.75c-2.07107,0 -3.75,-5.26065 -3.75,-11.75c0,-6.48935 1.67893,-11.75 3.75,-11.75c2.07107,0 3.75,5.26065 3.75,11.75z"/><path d="M338.96459,-18.4605c0,6.76549 -1.567,12.25 -3.5,12.25c-1.933,0 -3.5,-5.48451 -3.5,-12.25c0,-6.76549 1.567,-12.25 3.5,-12.25c1.933,0 3.5,5.48451 3.5,12.25z"/><path d="M340.46459,-1.2105c0,8.28427 -2.23858,15 -5,15c-2.76142,0 -5,-6.71573 -5,-15c0,-8.28427 2.23858,-15 5,-15c2.76142,0 5,6.71573 5,15z"/><path d="M338.96459,18.5395c0,6.48935 -1.67893,11.75 -3.75,11.75c-2.07107,0 -3.75,-5.26065 -3.75,-11.75c0,-6.48935 1.67893,-11.75 3.75,-11.75c2.07107,0 3.75,5.26065 3.75,11.75z"/><path d="M338.96459,36.0395c0,6.76549 -1.567,12.25 -3.5,12.25c-1.933,0 -3.5,-5.48451 -3.5,-12.25c0,-6.76549 1.567,-12.25 3.5,-12.25c1.933,0 3.5,5.48451 3.5,12.25z"/><path d="M340.96459,55.2895c0,8.28427 -2.23858,15 -5,15c-2.76142,0 -5,-6.71573 -5,-15c0,-8.28427 2.23858,-15 5,-15c2.76142,0 5,6.71573 5,15z"/><path d="M339.46459,75.0395c0,6.48935 -1.67893,11.75 -3.75,11.75c-2.07107,0 -3.75,-5.26065 -3.75,-11.75c0,-6.48935 1.67893,-11.75 3.75,-11.75c2.07107,0 3.75,5.26065 3.75,11.75z"/><path d="M339.46459,92.5395c0,6.76549 -1.567,12.25 -3.5,12.25c-1.933,0 -3.5,-5.48451 -3.5,-12.25c0,-6.76549 1.567,-12.25 3.5,-12.25c1.933,0 3.5,5.48451 3.5,12.25z"/><path d="M340.96459,109.7895c0,8.28427 -2.23858,15 -5,15c-2.76142,0 -5,-6.71573 -5,-15c0,-8.28427 2.23858,-15 5,-15c2.76142,0 5,6.71573 5,15z"/><path d="M339.46459,129.5395c0,6.48935 -1.67893,11.75 -3.75,11.75c-2.07107,0 -3.75,-5.26065 -3.75,-11.75c0,-6.48935 1.67893,-11.75 3.75,-11.75c2.07107,0 3.75,5.26065 3.75,11.75z"/><path d="M339.46459,147.0395c0,6.76549 -1.567,12.25 -3.5,12.25c-1.933,0 -3.5,-5.48451 -3.5,-12.25c0,-6.76549 1.567,-12.25 3.5,-12.25c1.933,0 3.5,5.48451 3.5,12.25z"/></g><path d="M138.16666,212.21695v-64.4339h203.66668v64.4339z" fill="#929292" stroke="#282828" stroke-width="5" stroke-linecap="butt"/><path d="M142.41673,154.57723c0,-1.38071 1.11929,-2.5 2.5,-2.5c1.38071,0 2.5,1.11929 2.5,2.5c0,1.38071 -1.11929,2.5 -2.5,2.5c-1.38071,0 -2.5,-1.11929 -2.5,-2.5z" fill="#282828" stroke="none" stroke-width="0.5" stroke-linecap="butt"/><path d="M332.25005,154.32723c0,-1.38071 1.11929,-2.5 2.5,-2.5c1.38071,0 2.5,1.11929 2.5,2.5c0,1.38071 -1.11929,2.5 -2.5,2.5c-1.38071,0 -2.5,-1.11929 -2.5,-2.5z" fill="#282828" stroke="none" stroke-width="0.5" stroke-linecap="butt"/><path d="M330.50005,204.7439c0,-1.38071 1.11929,-2.5 2.5,-2.5c1.38071,0 2.5,1.11929 2.5,2.5c0,1.38071 -1.11929,2.5 -2.5,2.5c-1.38071,0 -2.5,-1.11929 -2.5,-2.5z" fill="#282828" stroke="none" stroke-width="0.5" stroke-linecap="butt"/><path d="M142.41673,205.32723c0,-1.38071 1.11929,-2.5 2.5,-2.5c1.38071,0 2.5,1.11929 2.5,2.5c0,1.38071 -1.11929,2.5 -2.5,2.5c-1.38071,0 -2.5,-1.11929 -2.5,-2.5z" fill="#282828" stroke="none" stroke-width="0.5" stroke-linecap="butt"/><path d="M150.49999,199.07723v-39h43.50001v39z" fill="#ffd200" stroke="#282828" stroke-width="2.5" stroke-linecap="butt"/><path d="M161.77737,184.01769l-0.36482,-1.23969l7.07354,-2.08163l0.36482,1.23969z" fill="#126da5" stroke="none" stroke-width="0" stroke-linecap="butt"/><path d="M165.21636,196.05789l-2.43955,-8.2898l1.55434,-0.45742l2.43955,8.2898z" fill="#126da5" stroke="#000000" stroke-width="0" stroke-linecap="butt"/><path d="M156.96903,181.79998l-1.49423,-5.0775l5.38837,-1.58571l1.49423,5.0775z" fill="#1788ce" stroke="none" stroke-width="0" stroke-linecap="butt"/><path d="M158.44431,182.60438l-0.48791,-1.65796l3.00505,-0.88434l0.48791,1.65796z" fill="#1788ce" stroke="none" stroke-width="0" stroke-linecap="butt"/><path d="M159.42072,189.74842l-2.1956,-7.46082l5.18113,-1.52472l2.1956,7.46082z" fill="#1788ce" stroke="none" stroke-width="0" stroke-linecap="butt"/><path d="M161.27736,196.05742l-2.43955,-8.2898l1.55434,-0.45742l2.43955,8.2898z" fill="#1788ce" stroke="none" stroke-width="0" stroke-linecap="butt"/><path d="M157.70201,183.63223l-0.40774,-1.38554l9.99046,-2.94003l0.40774,1.38554z" fill="#1788ce" stroke="none" stroke-width="0" stroke-linecap="butt"/><path d="M166.51094,167.45513l0.45329,-2.53035l14.43785,2.5864l-0.45329,2.53035z" data-paper-data="{&quot;index&quot;:null}" fill="#3d2076" stroke="none" stroke-width="0" stroke-linecap="butt"/><path d="M174.22855,191.04724l3.03112,-16.92038l3.17257,0.56833l-3.03112,16.92038z" data-paper-data="{&quot;index&quot;:null}" fill="#3d2076" stroke="#000000" stroke-width="0" stroke-linecap="butt"/><path d="M178.97917,162.64587l1.85656,-10.36373l6.35264,1.13801c0.99683,1.65793 2.38378,2.90547 4.08287,3.97352l-1.29382,7.22242z" data-paper-data="{&quot;index&quot;:null}" fill="#552da5" stroke="none" stroke-width="0" stroke-linecap="butt"/><path d="M181.10044,165.42709l0.60622,-3.38407l6.13364,1.09878l-0.60622,3.38407z" data-paper-data="{&quot;index&quot;:null}" fill="#552da5" stroke="none" stroke-width="0" stroke-linecap="butt"/><path d="M176.27322,178.96963l2.728,-15.22834l10.57524,1.89445l-2.728,15.22834z" data-paper-data="{&quot;index&quot;:null}" fill="#552da5" stroke="none" stroke-width="0" stroke-linecap="butt"/><path d="M180.90999,195.73558l3.03112,-16.92038l3.17257,0.56833l-3.03112,16.92038z" data-paper-data="{&quot;index&quot;:null}" fill="#552da5" stroke="none" stroke-width="0" stroke-linecap="butt"/><path d="M168.53266,164.74489l0.50661,-2.82803l20.3916,3.65295l-0.50661,2.82803z" data-paper-data="{&quot;index&quot;:null}" fill="#552da5" stroke="none" stroke-width="0" stroke-linecap="butt"/><path d="M190.2962,156.88995l-0.74516,2.86382" data-paper-data="{&quot;index&quot;:null}" fill="none" stroke="#5d0000" stroke-width="0.5" stroke-linecap="round"/><path d="M187.92261,162.2568l1.26873,-6.22477" data-paper-data="{&quot;index&quot;:null}" fill="none" stroke="#5d0000" stroke-width="0.5" stroke-linecap="round"/><path d="M187.35619,158.28524l0.7193,-3.44993" data-paper-data="{&quot;index&quot;:null}" fill="none" stroke="#5d0000" stroke-width="0.5" stroke-linecap="round"/><path d="M187.25331,153.7333l-0.4547,3.37671" data-paper-data="{&quot;index&quot;:null}" fill="none" stroke="#5d0000" stroke-width="0.5" stroke-linecap="round"/><path d="M187.28549,153.39761c0.07594,0.14239 0.15526,0.28303 0.23849,0.42126c0.81132,1.35037 2.21507,2.65842 3.6165,3.36803c0,0 0.23548,0.11924 0.11624,0.35472c-0.11924,0.23548 -0.35472,0.11624 -0.35472,0.11624c-1.48658,-0.75273 -2.96849,-2.13581 -3.83038,-3.56687c-0.10004,-0.16645 -0.19488,-0.3361 -0.28527,-0.50798l-0.02161,-0.19467c0,0 0.04654,-0.25981 0.30635,-0.21327c0.16295,0.02919 0.20539,0.14228 0.21439,0.22254z" data-paper-data="{&quot;index&quot;:null}" fill="#5d0000" stroke="none" stroke-width="0.5" stroke-linecap="butt"/><path d="M186.85226,170.95307c-0.06789,0.0543 -0.1542,0.09749 -0.26198,0.12632c-0.98178,0.26262 -1.48928,-2.15087 -0.71579,-2.58705c0.66548,-0.37527 0.94666,0.37414 0.92487,1.03901c0.3429,0.49082 0.57196,1.03739 0.19606,1.32869c-0.05004,0.03878 -0.09773,0.06952 -0.14315,0.09302z" data-paper-data="{&quot;index&quot;:null}" fill="#5d0000" stroke="none" stroke-width="0.5" stroke-linecap="butt"/><path d="M186.05599,172.48753c-0.14349,-0.0257 -0.23897,-0.16287 -0.21327,-0.30635c0.0257,-0.14349 0.16287,-0.23897 0.30635,-0.21327c0.14349,0.0257 0.23897,0.16287 0.21327,0.30635c-0.0257,0.14349 -0.16287,0.23897 -0.30635,0.21327z" data-paper-data="{&quot;index&quot;:null}" fill="#5d0000" stroke="none" stroke-width="0.5" stroke-linecap="butt"/><path d="M185.43706,174.25411l0.09067,-0.26993c0.07695,-0.17051 0.14382,-0.34599 0.19909,-0.5247c0,0 0.07841,-0.25203 0.33044,-0.17362c0.21194,0.06593 0.19021,0.25465 0.17793,0.31302c-0.00069,0.00711 -0.00167,0.01426 -0.00295,0.02141c-0.00526,0.02939 -0.0152,0.05676 -0.02892,0.0815c-0.05622,0.16933 -0.12122,0.33594 -0.19406,0.49873l-0.07097,0.21924c0,0 -0.08282,0.25061 -0.33344,0.1678c-0.25061,-0.08282 -0.1678,-0.33344 -0.1678,-0.33344z" data-paper-data="{&quot;index&quot;:null}" fill="#5d0000" stroke="none" stroke-width="0.5" stroke-linecap="butt"/><path d="M172.285,186.908l0.43747,-2.05285l11.71332,2.49613l-0.43747,2.05285z" fill="#115616" stroke="none" stroke-width="0" stroke-linecap="butt"/><path d="M167.13164,180.02228l1.79176,-8.40802l8.9228,1.90146l-1.79176,8.40802z" fill="#197c1f" stroke="none" stroke-width="0" stroke-linecap="butt"/><path d="M168.61693,182.31203l0.58507,-2.74548l4.97618,1.06043l-0.58507,2.74548z" fill="#197c1f" stroke="none" stroke-width="0" stroke-linecap="butt"/><path d="M164.48761,193.27145l2.6328,-12.35464l8.57961,1.82833l-2.6328,12.35464z" fill="#197c1f" stroke="none" stroke-width="0" stroke-linecap="butt"/><path d="M166.76187,183.20622l0.48893,-2.29436l16.54356,3.52546l-0.48893,2.29436z" fill="#197c1f" stroke="none" stroke-width="0" stroke-linecap="butt"/><path d="M172.64701,193.08103c-0.20794,1.13889 -1.29977,1.89357 -2.43866,1.68563c-1.13889,-0.20794 -1.89357,-1.29977 -1.68562,-2.43866c0.20794,-1.13889 1.29977,-1.89357 2.43866,-1.68562c1.13889,0.20794 1.89357,1.29977 1.68563,2.43866z" fill="#575757" stroke="none" stroke-width="0" stroke-linecap="butt"/><path d="M167.21863,192.31997c-0.20794,1.13889 -1.29977,1.89357 -2.43866,1.68563c-1.13889,-0.20794 -1.89357,-1.29977 -1.68562,-2.43866c0.20794,-1.13889 1.29977,-1.89357 2.43866,-1.68562c1.13889,0.20794 1.89357,1.29977 1.68563,2.43866z" fill="#575757" stroke="none" stroke-width="0" stroke-linecap="butt"/><path d="M169.2739,193.5622c-0.20794,1.13889 -1.29977,1.89357 -2.43866,1.68563c-1.13889,-0.20794 -1.89357,-1.29977 -1.68563,-2.43866c0.20794,-1.13889 1.29977,-1.89357 2.43866,-1.68562c1.13889,0.20794 1.89357,1.29977 1.68563,2.43866z" fill="#575757" stroke="none" stroke-width="0" stroke-linecap="butt"/><path d="M171.94801,194.41528c-0.20794,1.13889 -1.29977,1.89357 -2.43866,1.68563c-1.13889,-0.20794 -1.89357,-1.29977 -1.68562,-2.43866c0.20794,-1.13889 1.29977,-1.89357 2.43866,-1.68562c1.13889,0.20794 1.89357,1.29977 1.68563,2.43866z" fill="#575757" stroke="none" stroke-width="0" stroke-linecap="butt"/><path d="M174.6225,194.76629c-0.20794,1.13889 -1.29977,1.89357 -2.43866,1.68563c-1.13889,-0.20794 -1.89357,-1.29977 -1.68563,-2.43866c0.20794,-1.13889 1.29977,-1.89357 2.43866,-1.68562c1.13889,0.20794 1.89357,1.29977 1.68563,2.43866z" fill="#575757" stroke="none" stroke-width="0" stroke-linecap="butt"/><path d="M170.11734,192.43692c-0.20794,1.13889 -1.29977,1.89357 -2.43866,1.68563c-1.13889,-0.20794 -1.89357,-1.29977 -1.68563,-2.43866c0.20794,-1.13889 1.29977,-1.89357 2.43866,-1.68562c1.13889,0.20794 1.89357,1.29977 1.68563,2.43866z" fill="#575757" stroke="none" stroke-width="0" stroke-linecap="butt"/><g stroke="none" stroke-width="0" stroke-linecap="butt"><path d="M180.9339,187.32401l7.66461,-13.48984l1.36537,0.77577l-7.66462,13.48984z" fill="#652c00"/><path d="M181.05167,174.02487c0,0 3.15032,-2.64057 8.45992,1.28902c5.30961,3.92958 2.68913,7.57359 2.68913,7.57359c0,0 -1.67599,-4.44353 -4.28619,-6.37532c-2.54752,-1.88539 -6.86286,-2.4873 -6.86286,-2.4873z" fill="#eaeaea"/></g><g><path d="M175.78818,177.71826l-0.22687,-1.94077l12.42454,-1.45236l0.22687,1.94077z" fill="#ff5c2e" stroke="none" stroke-width="0" stroke-linecap="butt"/><path d="M177.44721,194.20352l-1.51705,-12.97789l2.73017,-0.31914l1.51705,12.97789z" fill="#ff5c2e" stroke="#000000" stroke-width="0" stroke-linecap="butt"/><path d="M168.45871,173.26965l-0.64755,-5.53959c1.50988,-0.75178 2.76586,-1.65121 3.71615,-2.87669l5.46679,-0.63904l0.92919,7.94896z" fill="#ff7b2e" stroke="none" stroke-width="0" stroke-linecap="butt"/><path d="M170.66943,174.82007l-0.30341,-2.59558l5.27832,-0.61701l0.30341,2.59558z" fill="#ff7b2e" stroke="none" stroke-width="0" stroke-linecap="butt"/><path d="M170.10089,185.7396l-1.36534,-11.6801l9.10055,-1.06381l1.36534,11.6801z" fill="#ff7b2e" stroke="none" stroke-width="0" stroke-linecap="butt"/><path d="M171.49275,197.64653l-1.51704,-12.97789l2.73017,-0.31914l1.51704,12.97789z" fill="#ff7b2e" stroke="none" stroke-width="0" stroke-linecap="butt"/><path d="M169.11687,176.18364l-0.25356,-2.1691l17.54806,-2.05127l0.25356,2.1691z" fill="#ff7b2e" stroke="none" stroke-width="0" stroke-linecap="butt"/><path d="M168.67081,167.3817l0.45393,2.20482" fill="none" stroke="#5d0000" stroke-width="0.5" stroke-linecap="round"/><path d="M170.35142,171.54842l-0.68858,-4.77986" fill="none" stroke="#5d0000" stroke-width="0.5" stroke-linecap="round"/><path d="M171.08073,168.54782l-0.39533,-2.64971" fill="none" stroke="#5d0000" stroke-width="0.5" stroke-linecap="round"/><path d="M171.62776,167.67381l-0.17517,-2.58457" fill="none" stroke="#5d0000" stroke-width="0.5" stroke-linecap="round"/><path d="M171.44623,164.83277c0.01266,-0.06073 0.05578,-0.14523 0.196,-0.16162c0.22358,-0.02614 0.24688,0.17314 0.24688,0.17314l-0.03052,0.1473c-0.08752,0.12751 -0.17867,0.25317 -0.27404,0.3762c-0.82149,1.05774 -2.1666,2.05687 -3.47628,2.57639c0,0 -0.20745,0.08229 -0.29401,-0.10107c-0.08655,-0.18336 0.1209,-0.26565 0.1209,-0.26565c1.23466,-0.48976 2.50869,-1.43462 3.28219,-2.43279c0.07933,-0.10217 0.15549,-0.20631 0.22889,-0.31191z" fill="#5d0000" stroke="none" stroke-width="0.5" stroke-linecap="butt"/><path d="M170.71705,178.20106c-0.03711,-0.01949 -0.07569,-0.04457 -0.11577,-0.07586c-0.30107,-0.23497 -0.07236,-0.64253 0.24956,-1.00362c0.02305,-0.50649 0.30871,-1.06646 0.85048,-0.7573c0.62972,0.35935 0.04783,2.17696 -0.76964,1.9422c-0.08974,-0.02577 -0.16035,-0.0617 -0.21462,-0.10542z" fill="#5d0000" stroke="none" stroke-width="0.5" stroke-linecap="butt"/><path d="M171.0506,179.22344c-0.01286,-0.11006 0.07681,-0.21097 0.20029,-0.22541c0.12348,-0.01443 0.23401,0.06308 0.24687,0.17314c0.01286,0.11006 -0.0768,0.21098 -0.20028,0.22541c-0.12348,0.01443 -0.23401,-0.06309 -0.24688,-0.17314z" fill="#5d0000" stroke="none" stroke-width="0.5" stroke-linecap="butt"/><path d="M171.5494,181.00995c-0.21803,0.05406 -0.27272,-0.13951 -0.27272,-0.13951l-0.04658,-0.16929c-0.05169,-0.12642 -0.09649,-0.25546 -0.13366,-0.38626c-0.0101,-0.0193 -0.01683,-0.04047 -0.01947,-0.06302c-0.00064,-0.00549 -0.00103,-0.01095 -0.00117,-0.01639c-0.00678,-0.04484 -0.01344,-0.18915 0.17069,-0.23174c0.21897,-0.05065 0.26981,0.14385 0.26981,0.14385c0.03577,0.1379 0.08161,0.27376 0.13631,0.40619l0.06014,0.20854c0,0 0.05467,0.19358 -0.16336,0.24763z" fill="#5d0000" stroke="none" stroke-width="0.5" stroke-linecap="butt"/><path d="M153.21401,180.25248l-0.22687,-1.94077l12.42454,-1.45236l0.22687,1.94077z" data-paper-data="{&quot;index&quot;:null}" fill="#ff5c2e" stroke="none" stroke-width="0" stroke-linecap="butt"/><path d="M165.09621,195.54271l-1.51704,-12.97789l2.73017,-0.31914l1.51704,12.97789z" data-paper-data="{&quot;index&quot;:null}" fill="#ff5c2e" stroke="#000000" stroke-width="0" stroke-linecap="butt"/><path d="M162.27982,173.88736l-0.92919,-7.94896l5.46679,-0.63904c1.20731,0.97327 2.63687,1.55878 4.27943,1.94205l0.64755,5.53958z" data-paper-data="{&quot;index&quot;:null}" fill="#ff7b2e" stroke="none" stroke-width="0" stroke-linecap="butt"/><path d="M164.67254,175.41651l-0.30341,-2.59558l5.27832,-0.61701l0.30341,2.59558z" data-paper-data="{&quot;index&quot;:null}" fill="#ff7b2e" stroke="none" stroke-width="0" stroke-linecap="butt"/><path d="M163.92198,186.35731l-1.36534,-11.6801l9.10055,-1.06381l1.36534,11.6801z" data-paper-data="{&quot;index&quot;:null}" fill="#ff7b2e" stroke="none" stroke-width="0" stroke-linecap="butt"/><path d="M171.68422,197.51958l-1.51705,-12.97789l2.73017,-0.31914l1.51705,12.97789z" data-paper-data="{&quot;index&quot;:null}" fill="#ff7b2e" stroke="none" stroke-width="0" stroke-linecap="butt"/><path d="M154.228,177.8195l-0.25356,-2.1691l17.54806,-2.05127l0.25356,2.1691z" data-paper-data="{&quot;index&quot;:null}" fill="#ff7b2e" stroke="none" stroke-width="0" stroke-linecap="butt"/><path d="M170.18004,167.10071l0.06682,2.25007" data-paper-data="{&quot;index&quot;:null}" fill="none" stroke="#5d0000" stroke-width="0.5" stroke-linecap="round"/><path d="M169.50573,171.54271l-0.4324,-4.80981" data-paper-data="{&quot;index&quot;:null}" fill="none" stroke="#5d0000" stroke-width="0.5" stroke-linecap="round"/><path d="M167.87759,166.12176l0.22645,2.66944" data-paper-data="{&quot;index&quot;:null}" fill="none" stroke="#5d0000" stroke-width="0.5" stroke-linecap="round"/><path d="M167.37018,168.06692l-0.42565,-2.55529" data-paper-data="{&quot;index&quot;:null}" fill="none" stroke="#5d0000" stroke-width="0.5" stroke-linecap="round"/><path d="M166.89155,165.26061c0.09578,0.08582 0.19391,0.16959 0.29467,0.25071c0.98286,0.79286 2.44046,1.4184 3.75479,1.6102c0,0 0.22084,0.03223 0.17891,0.23061c-0.04194,0.19838 -0.26278,0.16615 -0.26278,0.16615c-1.39419,-0.20345 -2.93347,-0.86542 -3.97677,-1.70517c-0.12118,-0.09772 -0.23886,-0.19897 -0.35342,-0.30285l-0.06367,-0.13628c0,0 -0.0233,-0.19928 0.20028,-0.22541c0.14023,-0.01639 0.20167,0.05589 0.22799,0.11206z" data-paper-data="{&quot;index&quot;:null}" fill="#5d0000" stroke="none" stroke-width="0.5" stroke-linecap="butt"/><path d="M170.68431,178.10032c-0.04272,0.05506 -0.10314,0.10631 -0.18452,0.15209c-0.74129,0.41697 -1.7267,-1.21744 -1.19684,-1.71234c0.45586,-0.42578 0.86297,0.05322 1.00221,0.54073c0.39653,0.27711 0.71306,0.62093 0.47431,0.91901c-0.03179,0.03968 -0.06354,0.07299 -0.09515,0.10051z" data-paper-data="{&quot;index&quot;:null}" fill="#5d0000" stroke="none" stroke-width="0.5" stroke-linecap="butt"/><path d="M170.39526,179.39747c-0.12348,0.01443 -0.23401,-0.06308 -0.24688,-0.17314c-0.01286,-0.11006 0.07681,-0.21097 0.20029,-0.22541c0.12348,-0.01443 0.23401,0.06308 0.24688,0.17314c0.01286,0.11006 -0.07681,0.21097 -0.20029,0.22541z" data-paper-data="{&quot;index&quot;:null}" fill="#5d0000" stroke="none" stroke-width="0.5" stroke-linecap="butt"/><path d="M170.52224,181.02545c-0.22462,-0.00231 -0.21607,-0.20328 -0.21607,-0.20328l0.01042,-0.2168c0.02268,-0.14148 0.03595,-0.28424 0.03895,-0.42668c0,0 0.00462,-0.20098 0.22936,-0.20219c0.18899,-0.00102 0.21579,0.14093 0.21953,0.18613c0.00112,0.00532 0.002,0.01073 0.00265,0.01622c0.00263,0.02254 0.00097,0.04469 -0.00441,0.06581c-0.006,0.13584 -0.01983,0.27174 -0.04097,0.40667l-0.00628,0.17546c0,0 -0.00856,0.20097 -0.23319,0.19866z" data-paper-data="{&quot;index&quot;:null}" fill="#5d0000" stroke="none" stroke-width="0.5" stroke-linecap="butt"/></g><path d="M187.10417,178.73007c0,8.56041 -6.49187,15.5 -14.5,15.5c-8.00813,0 -14.5,-6.93959 -14.5,-15.5c0,-8.56041 6.49187,-15.5 14.5,-15.5c8.00813,0 14.5,6.93959 14.5,15.5z" fill="none" stroke="#ff0000" stroke-width="5" stroke-linecap="butt"/><path d="M185.10417,166.5634l-28,26" fill="none" stroke="#ff0000" stroke-width="5" stroke-linecap="round"/></g></g></svg>