<svg version="1.1" xmlns="http://www.w3.org/2000/svg" xmlns:xlink="http://www.w3.org/1999/xlink" width="208.66668" height="286.67745" viewBox="0,0,208.66668,286.67745"><g transform="translate(-135.66666,71.9605)"><g data-paper-data="{&quot;isPaintingLayer&quot;:true}" fill-rule="nonzero" stroke-linejoin="miter" stroke-miterlimit="10" stroke-dasharray="" stroke-dashoffset="0" style="mix-blend-mode: normal"><g fill="none" stroke="#424242" stroke-width="2.5" stroke-linecap="butt"><path d="M150.46459,-54.7105c0,8.28427 -2.23858,15 -5,15c-2.76142,0 -5,-6.71573 -5,-15c0,-8.28427 2.23858,-15 5,-15c2.76142,0 5,6.71573 5,15z"/><path d="M148.96459,-34.9605c0,6.48935 -1.67893,11.75 -3.75,11.75c-2.07107,0 -3.75,-5.26065 -3.75,-11.75c0,-6.48935 1.67893,-11.75 3.75,-11.75c2.07107,0 3.75,5.26065 3.75,11.75z"/><path d="M148.96459,-17.4605c0,6.76549 -1.567,12.25 -3.5,12.25c-1.933,0 -3.5,-5.48451 -3.5,-12.25c0,-6.76549 1.567,-12.25 3.5,-12.25c1.933,0 3.5,5.48451 3.5,12.25z"/><path d="M150.46459,-0.2105c0,8.28427 -2.23858,15 -5,15c-2.76142,0 -5,-6.71573 -5,-15c0,-8.28427 2.23858,-15 5,-15c2.76142,0 5,6.71573 5,15z"/><path d="M148.96459,19.5395c0,6.48935 -1.67893,11.75 -3.75,11.75c-2.07107,0 -3.75,-5.26065 -3.75,-11.75c0,-6.48935 1.67893,-11.75 3.75,-11.75c2.07107,0 3.75,5.26065 3.75,11.75z"/><path d="M148.96459,37.0395c0,6.76549 -1.567,12.25 -3.5,12.25c-1.933,0 -3.5,-5.48451 -3.5,-12.25c0,-6.76549 1.567,-12.25 3.5,-12.25c1.933,0 3.5,5.48451 3.5,12.25z"/><path d="M150.96459,56.2895c0,8.28427 -2.23858,15 -5,15c-2.76142,0 -5,-6.71573 -5,-15c0,-8.28427 2.23858,-15 5,-15c2.76142,0 5,6.71573 5,15z"/><path d="M149.46459,76.0395c0,6.48935 -1.67893,11.75 -3.75,11.75c-2.07107,0 -3.75,-5.26065 -3.75,-11.75c0,-6.48935 1.67893,-11.75 3.75,-11.75c2.07107,0 3.75,5.26065 3.75,11.75z"/><path d="M149.46459,93.5395c0,6.76549 -1.567,12.25 -3.5,12.25c-1.933,0 -3.5,-5.48451 -3.5,-12.25c0,-6.76549 1.567,-12.25 3.5,-12.25c1.933,0 3.5,5.48451 3.5,12.25z"/><path d="M150.96459,110.7895c0,8.28427 -2.23858,15 -5,15c-2.76142,0 -5,-6.71573 -5,-15c0,-8.28427 2.23858,-15 5,-15c2.76142,0 5,6.71573 5,15z"/><path d="M149.46459,130.5395c0,6.48935 -1.67893,11.75 -3.75,11.75c-2.07107,0 -3.75,-5.26065 -3.75,-11.75c0,-6.48935 1.67893,-11.75 3.75,-11.75c2.07107,0 3.75,5.26065 3.75,11.75z"/><path d="M149.46459,148.0395c0,6.76549 -1.567,12.25 -3.5,12.25c-1.933,0 -3.5,-5.48451 -3.5,-12.25c0,-6.76549 1.567,-12.25 3.5,-12.25c1.933,0 3.5,5.48451 3.5,12.25z"/></g><g fill="none" stroke="#424242" stroke-width="2.5" stroke-linecap="butt"><path d="M340.46459,-55.7105c0,8.28427 -2.23858,15 -5,15c-2.76142,0 -5,-6.71573 -5,-15c0,-8.28427 2.23858,-15 5,-15c2.76142,0 5,6.71573 5,15z"/><path d="M338.96459,-35.9605c0,6.48935 -1.67893,11.75 -3.75,11.75c-2.07107,0 -3.75,-5.26065 -3.75,-11.75c0,-6.48935 1.67893,-11.75 3.75,-11.75c2.07107,0 3.75,5.26065 3.75,11.75z"/><path d="M338.96459,-18.4605c0,6.76549 -1.567,12.25 -3.5,12.25c-1.933,0 -3.5,-5.48451 -3.5,-12.25c0,-6.76549 1.567,-12.25 3.5,-12.25c1.933,0 3.5,5.48451 3.5,12.25z"/><path d="M340.46459,-1.2105c0,8.28427 -2.23858,15 -5,15c-2.76142,0 -5,-6.71573 -5,-15c0,-8.28427 2.23858,-15 5,-15c2.76142,0 5,6.71573 5,15z"/><path d="M338.96459,18.5395c0,6.48935 -1.67893,11.75 -3.75,11.75c-2.07107,0 -3.75,-5.26065 -3.75,-11.75c0,-6.48935 1.67893,-11.75 3.75,-11.75c2.07107,0 3.75,5.26065 3.75,11.75z"/><path d="M338.96459,36.0395c0,6.76549 -1.567,12.25 -3.5,12.25c-1.933,0 -3.5,-5.48451 -3.5,-12.25c0,-6.76549 1.567,-12.25 3.5,-12.25c1.933,0 3.5,5.48451 3.5,12.25z"/><path d="M340.96459,55.2895c0,8.28427 -2.23858,15 -5,15c-2.76142,0 -5,-6.71573 -5,-15c0,-8.28427 2.23858,-15 5,-15c2.76142,0 5,6.71573 5,15z"/><path d="M339.46459,75.0395c0,6.48935 -1.67893,11.75 -3.75,11.75c-2.07107,0 -3.75,-5.26065 -3.75,-11.75c0,-6.48935 1.67893,-11.75 3.75,-11.75c2.07107,0 3.75,5.26065 3.75,11.75z"/><path d="M339.46459,92.5395c0,6.76549 -1.567,12.25 -3.5,12.25c-1.933,0 -3.5,-5.48451 -3.5,-12.25c0,-6.76549 1.567,-12.25 3.5,-12.25c1.933,0 3.5,5.48451 3.5,12.25z"/><path d="M340.96459,109.7895c0,8.28427 -2.23858,15 -5,15c-2.76142,0 -5,-6.71573 -5,-15c0,-8.28427 2.23858,-15 5,-15c2.76142,0 5,6.71573 5,15z"/><path d="M339.46459,129.5395c0,6.48935 -1.67893,11.75 -3.75,11.75c-2.07107,0 -3.75,-5.26065 -3.75,-11.75c0,-6.48935 1.67893,-11.75 3.75,-11.75c2.07107,0 3.75,5.26065 3.75,11.75z"/><path d="M339.46459,147.0395c0,6.76549 -1.567,12.25 -3.5,12.25c-1.933,0 -3.5,-5.48451 -3.5,-12.25c0,-6.76549 1.567,-12.25 3.5,-12.25c1.933,0 3.5,5.48451 3.5,12.25z"/></g><path d="M138.16666,212.21695v-64.4339h203.66668v64.4339z" fill="#929292" stroke="#282828" stroke-width="5" stroke-linecap="butt"/><path d="M142.41673,154.57723c0,-1.38071 1.11929,-2.5 2.5,-2.5c1.38071,0 2.5,1.11929 2.5,2.5c0,1.38071 -1.11929,2.5 -2.5,2.5c-1.38071,0 -2.5,-1.11929 -2.5,-2.5z" fill="#282828" stroke="none" stroke-width="0.5" stroke-linecap="butt"/><path d="M332.25005,154.32723c0,-1.38071 1.11929,-2.5 2.5,-2.5c1.38071,0 2.5,1.11929 2.5,2.5c0,1.38071 -1.11929,2.5 -2.5,2.5c-1.38071,0 -2.5,-1.11929 -2.5,-2.5z" fill="#282828" stroke="none" stroke-width="0.5" stroke-linecap="butt"/><path d="M330.50005,204.7439c0,-1.38071 1.11929,-2.5 2.5,-2.5c1.38071,0 2.5,1.11929 2.5,2.5c0,1.38071 -1.11929,2.5 -2.5,2.5c-1.38071,0 -2.5,-1.11929 -2.5,-2.5z" fill="#282828" stroke="none" stroke-width="0.5" stroke-linecap="butt"/><path d="M142.41673,205.32723c0,-1.38071 1.11929,-2.5 2.5,-2.5c1.38071,0 2.5,1.11929 2.5,2.5c0,1.38071 -1.11929,2.5 -2.5,2.5c-1.38071,0 -2.5,-1.11929 -2.5,-2.5z" fill="#282828" stroke="none" stroke-width="0.5" stroke-linecap="butt"/><path d="M150.49999,199.07723v-39h43.50001v39z" fill="#ffd200" stroke="#282828" stroke-width="2.5" stroke-linecap="butt"/><path d="M164.63037,172.46844c0,0 0.08781,1.24661 0.21209,1.86458c0.12082,0.60077 0.28173,1.23675 0.28173,1.23675c0,0 -0.73008,0.0512 -1.14927,-0.43854c-0.39232,-0.45837 -0.85392,-1.74013 -0.85392,-1.74013z" fill="#894300" stroke="#894300" stroke-width="0.5" stroke-linecap="round"/><path d="M166.9124,171.42552l-0.69815,5.12083l-3.49901,2.13889" fill="none" stroke="#b35b06" stroke-width="0.5" stroke-linecap="round"/><path d="M174.84246,167.89006v-3.78604h1.2653v3.78604z" fill="#2e2e2e" stroke="none" stroke-width="0" stroke-linecap="butt"/><path d="M160.37114,185.75103l-1.83744,-14.71925l3.79784,-2.32157l1.87718,14.5776z" fill="#3f2212" stroke="none" stroke-width="0" stroke-linecap="butt"/><path d="M152.58794,169.51265l1.33973,-5.08411c0,0 2.53129,3.46152 4.31693,3.46152c1.83525,0 5.58223,0 5.58223,0v5.5168c0,0 -3.80987,0 -5.65666,0c-1.7724,0 -5.58223,-3.89421 -5.58223,-3.89421z" fill="#4f1f00" stroke="#3d3d3d" stroke-width="0.5" stroke-linecap="butt"/><path d="M166.65334,188.2293c0,0 -0.46345,-9.08316 0.19555,-11.77285c0.6481,-2.64522 1.92823,-7.87007 1.92823,-7.87007l4.68087,2.42242c0,0 -1.30728,5.33565 -1.96092,8.00347c-0.65364,2.66782 1.08041,8.67556 1.08041,8.67556z" fill="#62341c" stroke="#303030" stroke-width="0.5" stroke-linecap="butt"/><path d="M162.92978,173.73138v-6.27401h18.53303v6.27401z" fill="#b35b06" stroke="none" stroke-width="0" stroke-linecap="butt"/><path d="M180.27583,172.32513v-3.67787h2.38175v3.67787z" fill="#b35b06" stroke="none" stroke-width="0" stroke-linecap="butt"/><path d="M163.60355,172.32513l15.70469,-0.21635" fill="none" stroke="#894300" stroke-width="2" stroke-linecap="round"/><path d="M161.96609,172.32512c0,0 -2.83641,0.40906 -4.16706,-0.11362c-1.41773,-0.55688 -4.09465,-3.13156 -4.09465,-3.13156" fill="none" stroke="#341500" stroke-width="2" stroke-linecap="round"/><path d="M181.40951,175.21532l-6.6374,3.22847l-9.4592,-1.2851" fill="none" stroke="#4d2d00" stroke-width="1.5" stroke-linecap="round"/><path d="M165.27321,175.70175c-0.0159,-0.46547 -0.03859,-1.12999 -0.04802,-1.40617c-0.00824,-0.24143 2.66618,-0.65003 4.95437,-0.72817c3.41404,-0.11659 13.32517,-0.45504 19.49583,-0.66576c3.04016,-0.10382 5.18412,0.16803 5.19283,0.42307c0.00898,0.2631 0.02924,0.85632 0.04449,1.30278c0.01079,0.3159 -2.66615,0.65003 -4.95435,0.72817c-3.64414,0.12444 -14.69072,0.50167 -20.68945,0.70652c-2.39002,0.08162 -3.98594,-0.0748 -3.99569,-0.36043z" fill="#4d2d00" stroke="none" stroke-width="0" stroke-linecap="butt"/><g fill="#6f4100" stroke="none" stroke-width="0" stroke-linecap="butt"><path d="M156.23547,179.34931c-0.36363,-0.5957 -0.88277,-1.44616 -1.09852,-1.79961c-0.18861,-0.30898 -0.05774,-0.82821 0.26475,-0.92507c0.48117,-0.14451 1.87799,-0.56402 2.74766,-0.82522c0.42847,-0.12869 0.99822,0.22217 1.19745,0.54855c0.20554,0.33672 0.66897,1.09592 1.01776,1.66729c0.24679,0.40429 0.05774,0.82821 -0.26475,0.92506c-0.51359,0.15425 -2.07044,0.62182 -2.91588,0.87574c-0.33684,0.10116 -0.72533,-0.1012 -0.94847,-0.46675z"/><path d="M155.42833,177.6414c-0.14056,-0.23027 -0.34124,-0.55902 -0.42464,-0.69565c-0.07291,-0.11944 0.86762,-0.58743 1.75062,-0.85262c1.31747,-0.39567 5.14212,-1.54435 7.52335,-2.25952c1.17319,-0.35235 2.10008,-0.42895 2.17709,-0.30279c0.07945,0.13016 0.2586,0.42363 0.39342,0.6445c0.0954,0.15628 -0.8676,0.58743 -1.75061,0.85262c-1.40626,0.42234 -5.66909,1.70262 -7.98397,2.39785c-0.9223,0.277 -1.599,0.35691 -1.68526,0.2156z"/><path d="M167.33894,173.82239c0.36364,0.5957 0.88277,1.44616 1.09853,1.79962c0.18862,0.30898 0.05774,0.82821 -0.26475,0.92507c-0.48117,0.14451 -1.87799,0.56402 -2.74766,0.82521c-0.42846,0.12869 -0.99822,-0.22216 -1.19745,-0.54855c-0.20554,-0.33672 -0.66897,-1.09592 -1.01776,-1.6673c-0.24679,-0.40429 -0.05774,-0.82821 0.26475,-0.92506c0.51359,-0.15425 2.07045,-0.62182 2.91588,-0.87573c0.33684,-0.10116 0.72533,0.1012 0.94847,0.46675z" data-paper-data="{&quot;index&quot;:null}"/><path d="M168.24555,175.50043c0.14056,0.23027 0.34124,0.55902 0.42464,0.69565c0.07291,0.11944 -0.86762,0.58743 -1.75062,0.85263c-1.31747,0.39567 -5.14212,1.54435 -7.52335,2.25952c-1.17319,0.35235 -2.10008,0.42895 -2.17709,0.30279c-0.07945,-0.13016 -0.2586,-0.42363 -0.39342,-0.6445c-0.0954,-0.15628 0.86761,-0.58743 1.75061,-0.85262c1.40626,-0.42234 5.66908,-1.70262 7.98397,-2.39785c0.9223,-0.277 1.599,-0.35691 1.68526,-0.2156z" data-paper-data="{&quot;index&quot;:null}"/></g><g fill="#6f4100" stroke="none" stroke-width="0" stroke-linecap="butt"><path d="M160.151,183.09918c-0.90284,-0.164 -2.19177,-0.39814 -2.72746,-0.49546c-0.46829,-0.08507 -0.95177,-0.43279 -0.83996,-0.63394c0.16682,-0.30013 0.65109,-1.17141 0.9526,-1.71388c0.14855,-0.26726 0.92124,-0.33326 1.41591,-0.24341c0.51033,0.0927 1.66096,0.30172 2.52692,0.45902c0.61275,0.11131 0.95177,0.43279 0.83996,0.63394c-0.17805,0.32036 -0.71781,1.29146 -1.01092,1.81881c-0.11678,0.2101 -0.60304,0.27554 -1.15705,0.17491z"/><path d="M157.72203,182.52133c-0.349,-0.06339 -0.84724,-0.15391 -1.05432,-0.19152c-0.18101,-0.03288 -0.05937,-0.7224 0.24676,-1.27318c0.45676,-0.82178 1.78274,-3.20746 2.6083,-4.69277c0.40673,-0.73179 0.95042,-1.19808 1.14163,-1.16334c0.19727,0.03584 0.64205,0.11663 0.97679,0.17744c0.23687,0.04302 0.05937,0.7224 -0.24676,1.27317c-0.48754,0.87717 -1.96544,3.53616 -2.768,4.98009c-0.31976,0.57529 -0.69027,0.92902 -0.90442,0.89012z"/><path d="M161.58487,174.95788c0.90284,0.164 2.19178,0.39814 2.72747,0.49546c0.46829,0.08507 0.95177,0.43279 0.83996,0.63394c-0.16682,0.30013 -0.65109,1.17142 -0.9526,1.71388c-0.14854,0.26726 -0.92125,0.33327 -1.41592,0.2434c-0.51033,-0.0927 -1.66096,-0.30172 -2.52692,-0.45902c-0.61275,-0.11131 -0.95176,-0.43278 -0.83996,-0.63394c0.17805,-0.32036 0.71781,-1.29146 1.01092,-1.81881c0.11678,-0.2101 0.60303,-0.27554 1.15705,-0.17491z" data-paper-data="{&quot;index&quot;:null}"/><path d="M164.04832,175.47368c0.349,0.06339 0.84724,0.15391 1.05432,0.19152c0.18101,0.03288 0.05937,0.7224 -0.24676,1.27318c-0.45676,0.82178 -1.78274,3.20746 -2.6083,4.69277c-0.40673,0.73179 -0.95042,1.19808 -1.14164,1.16335c-0.19727,-0.03584 -0.64204,-0.11663 -0.97679,-0.17744c-0.23687,-0.04302 -0.05937,-0.7224 0.24676,-1.27318c0.48754,-0.87717 1.96543,-3.53616 2.768,-4.98009c0.31975,-0.57529 0.69027,-0.92902 0.90442,-0.89012z" data-paper-data="{&quot;index&quot;:null}"/></g><path d="M173.22815,175.96641l2.10866,-0.28642c0,0 0.16303,0.55278 0.02171,0.78715c-0.15452,0.25625 -1.20807,0.31472 -1.20807,0.31472c0,0 0.34337,-0.192 0.1357,-0.40022c-0.15729,-0.15771 -0.97781,-0.36436 -0.97781,-0.36436" fill="#4d2d00" stroke="#4d2d00" stroke-width="1.5" stroke-linecap="round"/><path d="M165.41356,174.28579l5.48656,-2.17739l0.15193,1.86424" fill="none" stroke="#4d2d00" stroke-width="1.5" stroke-linecap="round"/><path d="M173.06958,173.60221l-0.04937,-1.44561" fill="none" stroke="#4d2d00" stroke-width="1.5" stroke-linecap="round"/><path d="M170.71533,173.02982c-0.0159,-0.46573 0.52383,-0.86214 1.20552,-0.88542c0.6817,-0.02328 1.24721,0.3354 1.26312,0.80112c0.0159,0.46573 -0.52383,0.86214 -1.20552,0.88542c-0.6817,0.02328 -1.24721,-0.3354 -1.26312,-0.80112z" fill="#4d2d00" stroke="none" stroke-width="0.5" stroke-linecap="butt"/><path d="M166.8337,176.22356l-8.58904,2.53317" fill="none" stroke="#563200" stroke-width="1.5" stroke-linecap="round"/><path d="M159.10114,178.72749l-1.50639,3.15279" fill="none" stroke="#563200" stroke-width="1.5" stroke-linecap="round"/><path d="M193.61729,174.75758l-23.8768,0.91874" fill="none" stroke="#563200" stroke-width="1" stroke-linecap="round"/><g fill="#3c2300" stroke="none" stroke-width="0" stroke-linecap="butt"><path d="M167.04631,172.27908c-0.1182,-0.27499 -0.28694,-0.66758 -0.35707,-0.83075c-0.06131,-0.14263 0.35136,-0.34712 0.77158,-0.36182c0.62698,-0.02194 2.44713,-0.08563 3.58037,-0.12528c0.55831,-0.01954 1.03741,0.17038 1.10218,0.32105c0.06681,0.15544 0.21745,0.5059 0.33082,0.76966c0.08022,0.18663 -0.35136,0.34712 -0.77158,0.36182c-0.66924,0.02342 -2.69791,0.0944 -3.79957,0.13295c-0.43892,0.01536 -0.78419,-0.0989 -0.85672,-0.26764z"/><path d="M166.97852,171.50918c-0.04569,-0.10631 -0.11091,-0.25806 -0.13803,-0.32113c-0.02369,-0.05513 1.29546,-0.17475 2.44607,-0.21502c1.71673,-0.06007 6.7005,-0.23445 9.80339,-0.34302c1.52873,-0.05349 2.63472,-0.01229 2.65976,0.04595c0.02582,0.06008 0.08406,0.19556 0.12788,0.29752c0.03101,0.07215 -1.29545,0.17475 -2.44605,0.21501c-1.83244,0.06412 -7.38716,0.25848 -10.4036,0.36403c-1.20181,0.04205 -2.02138,0.02189 -2.04942,-0.04333z"/><path d="M182.76918,170.92565c0.1182,0.27499 0.28694,0.66758 0.35707,0.83075c0.06131,0.14263 -0.35136,0.34712 -0.77158,0.36182c-0.62698,0.02194 -2.44713,0.08563 -3.58037,0.12527c-0.55831,0.01954 -1.03741,-0.17038 -1.10218,-0.32105c-0.06681,-0.15544 -0.21745,-0.5059 -0.33082,-0.76966c-0.08022,-0.18663 0.35135,-0.34712 0.77157,-0.36182c0.66924,-0.02342 2.69792,-0.0944 3.79958,-0.13294c0.43892,-0.01536 0.78419,0.09889 0.85671,0.26764z" data-paper-data="{&quot;index&quot;:null}"/><path d="M182.81819,171.63145c0.04569,0.10631 0.11091,0.25806 0.13803,0.32113c0.02369,0.05513 -1.29546,0.17475 -2.44607,0.21501c-1.71673,0.06007 -6.7005,0.23445 -9.80339,0.34302c-1.52873,0.05349 -2.63473,0.01229 -2.65976,-0.04595c-0.02582,-0.06008 -0.08406,-0.19555 -0.12788,-0.29752c-0.03101,-0.07215 1.29545,-0.17475 2.44605,-0.21502c1.83244,-0.06412 7.38717,-0.25848 10.40361,-0.36403c1.20181,-0.04205 2.02138,-0.02189 2.04942,0.04333z" data-paper-data="{&quot;index&quot;:null}"/><path d="M167.87444,172.02797c-0.04569,-0.10631 -0.11091,-0.25806 -0.13803,-0.32113c-0.02369,-0.05513 1.29546,-0.17475 2.44607,-0.21502c1.71673,-0.06007 6.7005,-0.23445 9.80339,-0.34302c1.52872,-0.05349 2.63473,-0.01229 2.65976,0.04595c0.02582,0.06008 0.08406,0.19556 0.12788,0.29752c0.03101,0.07215 -1.29545,0.17475 -2.44605,0.21502c-1.83244,0.06412 -7.38716,0.25848 -10.4036,0.36403c-1.20181,0.04205 -2.02138,0.02189 -2.04942,-0.04333z"/></g><path d="M183.66562,171.44517c0.01573,0.46061 -1.18154,0.67796 -1.79582,0.69894c-0.61428,0.02098 -0.41294,-0.16237 -0.42867,-0.62298c-0.01573,-0.46061 -0.42745,-0.79846 0.18683,-0.81944c0.61428,-0.02098 2.02193,0.28286 2.03766,0.74347z" fill="#3c2300" stroke="none" stroke-width="0" stroke-linecap="butt"/><path d="M167.51637,172.35446l-1.39546,0.49297l-0.6601,-1.83297l1.69459,0.31324z" fill="#3c2300" stroke="#3c2300" stroke-width="0.5" stroke-linecap="round"/><path d="M171.60003,186.94567l0.28241,-5.74681l3.44809,0.16945l-0.28241,5.74681z" fill="#000000" stroke="#000000" stroke-width="2" stroke-linecap="butt"/><path d="M171.86006,188.36163v-1.73922h2.70036v1.73922z" fill="#000000" stroke="#000000" stroke-width="2" stroke-linecap="butt"/><path d="M171.86006,181.95341v-3.02074h13.27298v3.02074z" fill="#000000" stroke="#000000" stroke-width="2" stroke-linecap="butt"/><path d="M184.58381,181.58726v-2.37998h2.74613v2.37998z" fill="#000000" stroke="#000000" stroke-width="2" stroke-linecap="butt"/><path d="M170.67007,177.28498l2.24267,2.10537" fill="none" stroke="#000000" stroke-width="2" stroke-linecap="round"/><path d="M180.37329,181.86242l-2.56306,2.15114l-2.92921,-0.04577" fill="none" stroke="#000000" stroke-width="2" stroke-linecap="round"/><path d="M178.35946,181.67935l-1.41883,1.00691l0.36615,-1.23576" fill="none" stroke="#000000" stroke-width="2" stroke-linecap="round"/><path d="M172.4095,186.43931l0.36615,-3.79881" fill="none" stroke="#1e1e1e" stroke-width="2" stroke-linecap="round"/><path d="M177.53562,181.26742l6.54495,0.04577" fill="none" stroke="#1e1e1e" stroke-width="2" stroke-linecap="round"/><path d="M179.53749,184.32674l-0.39001,-2.53504l9.29514,-1.82003l0.065,6.11009z" fill="#4c402b" stroke="none" stroke-width="0" stroke-linecap="butt"/><path d="M172.45238,190.50183c0,0 0.65322,-5.29701 1.18097,-6.36398c0.22174,-0.44831 1.68236,-1.52597 3.33609,-2.05025c1.77262,-0.56197 3.73807,-0.5559 3.73807,-0.5559l-0.065,2.99004c0,0 -3.17744,0.5328 -3.63609,1.864c-0.42751,1.24082 -0.00397,4.05109 -0.00397,4.05109z" fill="#8b6725" stroke="none" stroke-width="0" stroke-linecap="butt"/><path d="M180.4475,184.39174l-2.01503,3.51005h-2.27504" fill="none" stroke="#8b6725" stroke-width="2.5" stroke-linecap="round"/><path d="M179.34248,184.45674l-1.49502,2.34004l-0.71501,-1.56002z" fill="#8b6725" stroke="#8b6725" stroke-width="2.5" stroke-linecap="round"/><path d="M173.10239,189.85182c0,0 0.35885,-4.1528 1.00501,-5.32042c0.27501,-0.49695 1.60238,-1.35923 2.65213,-1.78784c1.17246,-0.47871 2.25795,-0.62686 2.25795,-0.62686" fill="none" stroke="#674a14" stroke-width="2.5" stroke-linecap="round"/><path d="M188.18262,186.66677v-7.28011h1.36502v7.28011z" fill="#3c311e" stroke="none" stroke-width="0" stroke-linecap="butt"/><path d="M167.94969,186.27809c0,0 -0.25309,0.82954 -0.30368,1.27224c-0.04919,0.43039 -0.07064,0.89887 -0.07064,0.89887c0,0 -0.69065,-0.25205 -0.94791,-0.72796c-0.24076,-0.44541 -0.32482,-1.44315 -0.32482,-1.44315z" fill="#4e4e4e" stroke="#4e4e4e" stroke-width="0.5" stroke-linecap="round"/><path d="M170.3454,186.50269l-2.02138,2.99463h-3.81815" fill="none" stroke="#4e4e4e" stroke-width="0.5" stroke-linecap="round"/><path d="M177.90684,182.60967v-2.6203h1.27272v2.6203z" fill="#2e2e2e" stroke="none" stroke-width="0" stroke-linecap="butt"/><path d="M160.4365,193.09088l2.24598,-10.10688h4.14424l-2.17111,10.03201z" fill="#4e4e4e" stroke="none" stroke-width="0" stroke-linecap="butt"/><path d="M155.52198,183.73266l1.34758,-3.51869c0,0 2.54611,2.3957 4.34221,2.3957c1.846,0 5.61493,0 5.61493,0v3.81816c0,0 -3.83218,0 -5.6898,0c-1.78278,0 -5.61493,-2.69517 -5.61493,-2.69517z" fill="#373737" stroke="#3d3d3d" stroke-width="0.5" stroke-linecap="butt"/><path d="M172.74111,196.01065c0,0 -1.94651,-4.40481 -1.94651,-5.91439c0,-1.48463 0,-4.41708 0,-4.41708h3.81816c0,0 0,2.99463 0,4.49195c0,1.49732 2.32084,4.04275 2.32084,4.04275z" fill="#373737" stroke="#303030" stroke-width="0.5" stroke-linecap="butt"/><path d="M165.85346,186.65243v-4.34221h18.64158v4.34221z" fill="#2e2e2e" stroke="none" stroke-width="0" stroke-linecap="butt"/><path d="M183.37205,185.67917v-2.54544h2.3957v2.54544z" fill="#2e2e2e" stroke="none" stroke-width="0" stroke-linecap="butt"/><path d="M182.39879,185.52943l-15.79668,0.14973" fill="none" stroke="#2d2d2d" stroke-width="2" stroke-linecap="round"/><path d="M164.95506,185.67916c0,0 -2.85302,0.28311 -4.19146,-0.07863c-1.42604,-0.38542 -4.11864,-2.16734 -4.11864,-2.16734" fill="none" stroke="#2d2d2d" stroke-width="2" stroke-linecap="round"/></g></g></svg>