<svg version="1.1" xmlns="http://www.w3.org/2000/svg" xmlns:xlink="http://www.w3.org/1999/xlink" width="208.66668" height="286.67745" viewBox="0,0,208.66668,286.67745"><g transform="translate(-135.66666,71.9605)"><g data-paper-data="{&quot;isPaintingLayer&quot;:true}" fill-rule="nonzero" stroke-linecap="butt" stroke-linejoin="miter" stroke-miterlimit="10" stroke-dasharray="" stroke-dashoffset="0" style="mix-blend-mode: normal"><g fill="none" stroke="#424242" stroke-width="2.5"><path d="M150.46459,-54.7105c0,8.28427 -2.23858,15 -5,15c-2.76142,0 -5,-6.71573 -5,-15c0,-8.28427 2.23858,-15 5,-15c2.76142,0 5,6.71573 5,15z"/><path d="M148.96459,-34.9605c0,6.48935 -1.67893,11.75 -3.75,11.75c-2.07107,0 -3.75,-5.26065 -3.75,-11.75c0,-6.48935 1.67893,-11.75 3.75,-11.75c2.07107,0 3.75,5.26065 3.75,11.75z"/><path d="M148.96459,-17.4605c0,6.76549 -1.567,12.25 -3.5,12.25c-1.933,0 -3.5,-5.48451 -3.5,-12.25c0,-6.76549 1.567,-12.25 3.5,-12.25c1.933,0 3.5,5.48451 3.5,12.25z"/><path d="M150.46459,-0.2105c0,8.28427 -2.23858,15 -5,15c-2.76142,0 -5,-6.71573 -5,-15c0,-8.28427 2.23858,-15 5,-15c2.76142,0 5,6.71573 5,15z"/><path d="M148.96459,19.5395c0,6.48935 -1.67893,11.75 -3.75,11.75c-2.07107,0 -3.75,-5.26065 -3.75,-11.75c0,-6.48935 1.67893,-11.75 3.75,-11.75c2.07107,0 3.75,5.26065 3.75,11.75z"/><path d="M148.96459,37.0395c0,6.76549 -1.567,12.25 -3.5,12.25c-1.933,0 -3.5,-5.48451 -3.5,-12.25c0,-6.76549 1.567,-12.25 3.5,-12.25c1.933,0 3.5,5.48451 3.5,12.25z"/><path d="M150.96459,56.2895c0,8.28427 -2.23858,15 -5,15c-2.76142,0 -5,-6.71573 -5,-15c0,-8.28427 2.23858,-15 5,-15c2.76142,0 5,6.71573 5,15z"/><path d="M149.46459,76.0395c0,6.48935 -1.67893,11.75 -3.75,11.75c-2.07107,0 -3.75,-5.26065 -3.75,-11.75c0,-6.48935 1.67893,-11.75 3.75,-11.75c2.07107,0 3.75,5.26065 3.75,11.75z"/><path d="M149.46459,93.5395c0,6.76549 -1.567,12.25 -3.5,12.25c-1.933,0 -3.5,-5.48451 -3.5,-12.25c0,-6.76549 1.567,-12.25 3.5,-12.25c1.933,0 3.5,5.48451 3.5,12.25z"/><path d="M150.96459,110.7895c0,8.28427 -2.23858,15 -5,15c-2.76142,0 -5,-6.71573 -5,-15c0,-8.28427 2.23858,-15 5,-15c2.76142,0 5,6.71573 5,15z"/><path d="M149.46459,130.5395c0,6.48935 -1.67893,11.75 -3.75,11.75c-2.07107,0 -3.75,-5.26065 -3.75,-11.75c0,-6.48935 1.67893,-11.75 3.75,-11.75c2.07107,0 3.75,5.26065 3.75,11.75z"/><path d="M149.46459,148.0395c0,6.76549 -1.567,12.25 -3.5,12.25c-1.933,0 -3.5,-5.48451 -3.5,-12.25c0,-6.76549 1.567,-12.25 3.5,-12.25c1.933,0 3.5,5.48451 3.5,12.25z"/></g><g fill="none" stroke="#424242" stroke-width="2.5"><path d="M340.46459,-55.7105c0,8.28427 -2.23858,15 -5,15c-2.76142,0 -5,-6.71573 -5,-15c0,-8.28427 2.23858,-15 5,-15c2.76142,0 5,6.71573 5,15z"/><path d="M338.96459,-35.9605c0,6.48935 -1.67893,11.75 -3.75,11.75c-2.07107,0 -3.75,-5.26065 -3.75,-11.75c0,-6.48935 1.67893,-11.75 3.75,-11.75c2.07107,0 3.75,5.26065 3.75,11.75z"/><path d="M338.96459,-18.4605c0,6.76549 -1.567,12.25 -3.5,12.25c-1.933,0 -3.5,-5.48451 -3.5,-12.25c0,-6.76549 1.567,-12.25 3.5,-12.25c1.933,0 3.5,5.48451 3.5,12.25z"/><path d="M340.46459,-1.2105c0,8.28427 -2.23858,15 -5,15c-2.76142,0 -5,-6.71573 -5,-15c0,-8.28427 2.23858,-15 5,-15c2.76142,0 5,6.71573 5,15z"/><path d="M338.96459,18.5395c0,6.48935 -1.67893,11.75 -3.75,11.75c-2.07107,0 -3.75,-5.26065 -3.75,-11.75c0,-6.48935 1.67893,-11.75 3.75,-11.75c2.07107,0 3.75,5.26065 3.75,11.75z"/><path d="M338.96459,36.0395c0,6.76549 -1.567,12.25 -3.5,12.25c-1.933,0 -3.5,-5.48451 -3.5,-12.25c0,-6.76549 1.567,-12.25 3.5,-12.25c1.933,0 3.5,5.48451 3.5,12.25z"/><path d="M340.96459,55.2895c0,8.28427 -2.23858,15 -5,15c-2.76142,0 -5,-6.71573 -5,-15c0,-8.28427 2.23858,-15 5,-15c2.76142,0 5,6.71573 5,15z"/><path d="M339.46459,75.0395c0,6.48935 -1.67893,11.75 -3.75,11.75c-2.07107,0 -3.75,-5.26065 -3.75,-11.75c0,-6.48935 1.67893,-11.75 3.75,-11.75c2.07107,0 3.75,5.26065 3.75,11.75z"/><path d="M339.46459,92.5395c0,6.76549 -1.567,12.25 -3.5,12.25c-1.933,0 -3.5,-5.48451 -3.5,-12.25c0,-6.76549 1.567,-12.25 3.5,-12.25c1.933,0 3.5,5.48451 3.5,12.25z"/><path d="M340.96459,109.7895c0,8.28427 -2.23858,15 -5,15c-2.76142,0 -5,-6.71573 -5,-15c0,-8.28427 2.23858,-15 5,-15c2.76142,0 5,6.71573 5,15z"/><path d="M339.46459,129.5395c0,6.48935 -1.67893,11.75 -3.75,11.75c-2.07107,0 -3.75,-5.26065 -3.75,-11.75c0,-6.48935 1.67893,-11.75 3.75,-11.75c2.07107,0 3.75,5.26065 3.75,11.75z"/><path d="M339.46459,147.0395c0,6.76549 -1.567,12.25 -3.5,12.25c-1.933,0 -3.5,-5.48451 -3.5,-12.25c0,-6.76549 1.567,-12.25 3.5,-12.25c1.933,0 3.5,5.48451 3.5,12.25z"/></g><path d="M138.16666,212.21695v-64.4339h203.66668v64.4339z" fill="#929292" stroke="#282828" stroke-width="5"/><path d="M142.41673,154.57723c0,-1.38071 1.11929,-2.5 2.5,-2.5c1.38071,0 2.5,1.11929 2.5,2.5c0,1.38071 -1.11929,2.5 -2.5,2.5c-1.38071,0 -2.5,-1.11929 -2.5,-2.5z" fill="#282828" stroke="none" stroke-width="0.5"/><path d="M332.25005,154.32723c0,-1.38071 1.11929,-2.5 2.5,-2.5c1.38071,0 2.5,1.11929 2.5,2.5c0,1.38071 -1.11929,2.5 -2.5,2.5c-1.38071,0 -2.5,-1.11929 -2.5,-2.5z" fill="#282828" stroke="none" stroke-width="0.5"/><path d="M330.50005,204.7439c0,-1.38071 1.11929,-2.5 2.5,-2.5c1.38071,0 2.5,1.11929 2.5,2.5c0,1.38071 -1.11929,2.5 -2.5,2.5c-1.38071,0 -2.5,-1.11929 -2.5,-2.5z" fill="#282828" stroke="none" stroke-width="0.5"/><path d="M142.41673,205.32723c0,-1.38071 1.11929,-2.5 2.5,-2.5c1.38071,0 2.5,1.11929 2.5,2.5c0,1.38071 -1.11929,2.5 -2.5,2.5c-1.38071,0 -2.5,-1.11929 -2.5,-2.5z" fill="#282828" stroke="none" stroke-width="0.5"/><path d="M150.16666,199.07723v-39h43.50001v39z" fill="#ffd200" stroke="#282828" stroke-width="2.5"/><text transform="translate(225.00002,174.1836) scale(0.49486,0.49486)" font-size="40" xml:space="preserve" fill="#282828" fill-rule="nonzero" stroke="none" stroke-width="1" stroke-linecap="butt" stroke-linejoin="miter" stroke-miterlimit="10" stroke-dasharray="" stroke-dashoffset="0" font-family="Pixel" font-weight="normal" text-anchor="start" style="mix-blend-mode: normal"><tspan x="0" dy="0">Killer!</tspan></text><text transform="translate(216.1042,196.19517) scale(0.25203,0.25203)" font-size="40" xml:space="preserve" fill="#282828" fill-rule="nonzero" stroke="none" stroke-width="1" stroke-linecap="butt" stroke-linejoin="miter" stroke-miterlimit="10" stroke-dasharray="" stroke-dashoffset="0" font-family="Pixel" font-weight="normal" text-anchor="start" style="mix-blend-mode: normal"><tspan x="0" dy="0">Kill 50 Zombies!!!</tspan></text><g><path d="M175.48373,171.59677l0.00911,-0.71454c0.7731,0.25161 1.54675,0.49997 2.3215,0.74424z" fill="#115616" stroke="none" stroke-width="0"/><path d="M174.89924,194.97604l0.20107,-15.77873l2.95852,0.0377l-0.20108,15.77873z" fill="#125816" stroke="#000000" stroke-width="0"/><path d="M168.28902,180.33013l0.14241,-11.17454c0.40409,0.00199 0.73526,0.0023 0.9625,0.0018c0.30364,-0.00066 0.61112,-0.00047 0.92172,-0.0001c2.64962,0.89746 5.29063,1.77847 7.94581,2.60965l-0.11073,8.68886z" fill="#197c1f" stroke="none" stroke-width="0"/><path d="M168.10553,194.72821l0.20108,-15.77873l2.95852,0.03771l-0.20108,15.77874z" fill="#197c1f" stroke="none" stroke-width="0"/><path d="M176.91136,173.15147c-0.48457,-0.00618 -0.47839,-0.49073 -0.47839,-0.49073l0.14362,-0.69306c-0.075,-0.00584 -0.19842,-0.02214 -0.35119,-0.04555l0.15392,0.3179c0.0346,0.06779 0.05368,0.14474 0.05265,0.22613c-0.00341,0.26761 -0.22313,0.48179 -0.49074,0.47838c-0.05755,-0.00073 -0.11262,-0.01147 -0.16359,-0.03053l-0.5704,-0.19824l0.00238,-0.00688l-0.02513,-0.00168c-0.15172,-0.07076 -0.30432,-0.1363 -0.45753,-0.1977c0.02955,0.95298 -0.07119,1.93632 -0.08287,2.85214l-0.00494,0.38904c0,0 -0.00618,0.48456 -0.49074,0.47839c-0.48457,-0.00618 -0.47839,-0.49075 -0.47839,-0.49075l0.00495,-0.38904c0.01224,-0.95993 0.17633,-2.12381 0.09101,-3.17914c-0.61426,-0.19473 -1.2298,-0.36052 -1.83041,-0.56646c-0.08029,1.57842 -0.22112,3.16889 -0.22169,4.69338l-0.00248,0.19452c0,0 -0.00617,0.48457 -0.49074,0.47839c-0.48457,-0.00618 -0.47839,-0.49073 -0.47839,-0.49073l0.00249,-0.19452c0.03683,-1.65841 0.17745,-3.35787 0.24287,-5.05625c-0.53462,-0.24757 -1.04922,-0.5606 -1.53114,-0.99318c-0.01406,1.10292 -0.0281,2.20583 -0.04216,3.30874l-0.00495,0.38904c0,0 -0.00618,0.48456 -0.49074,0.47839c-0.48457,-0.00618 -0.47838,-0.49074 -0.47838,-0.49074c0.01605,-1.25985 0.03678,-2.88688 0.05311,-4.16765c-0.03232,-0.01224 -0.06463,-0.02453 -0.09694,-0.03683l-0.54461,-0.20802c-0.18999,-0.06751 -0.32491,-0.25006 -0.3222,-0.46292c0.00278,-0.21798 0.14905,-0.40049 0.34783,-0.45886l0.5754,-0.18369l0.00409,0.01281c0.04828,-0.01619 0.09798,-0.02842 0.14946,-0.03573c0.04821,-0.00686 0.13905,0.01087 0.25655,0.04494c0.06024,-0.10916 0.13995,-0.22124 0.242,-0.33621c0.29569,-0.33308 1.6717,0.4589 1.88108,0.58161c0.76961,0.45102 1.40905,0.94594 2.11538,1.44552c0.10331,0.03718 0.20681,0.07385 0.31054,0.11002c0.04225,-0.06471 0.10849,-0.12556 0.20933,-0.17438c0.43616,-0.21117 0.64735,0.22499 0.64735,0.22499c0.04149,0.08865 0.07948,0.17854 0.11426,0.26955c0.30654,0.09507 0.61556,0.18501 0.92763,0.26921c0.46703,0.12599 2.2907,0.51053 2.47459,0.95528c0.1277,0.30883 -0.34957,0.56965 -0.52435,0.85448l0.14133,0.04821c0,0 -0.00617,0.48456 -0.49073,0.47839z" fill="#5d0000" stroke="none" stroke-width="0.5"/><path d="M176.70066,189.68574c-0.48457,-0.00618 -0.47839,-0.49073 -0.47839,-0.49073l0.00248,-0.19452c0.01836,-1.43991 -0.05467,-2.63268 0.35822,-3.8311l-0.20103,-0.06987l0.29236,-0.84121c0.0038,-0.29799 0.00759,-0.59598 0.01139,-0.89397c0,0 0.00618,-0.48455 0.49074,-0.47838c0.48457,0.00618 0.47839,0.49073 0.47839,0.49073c-0.00412,0.3242 -0.00825,0.6484 -0.01239,0.9726v0c-0.00252,0.19799 -0.00505,0.39601 -0.00758,0.594c-0.00824,0.64664 0.00919,1.23454 -0.02301,1.80506c-0.00468,0.36744 -0.00936,0.73488 -0.01404,1.10231l-0.00744,0.58357c-0.00299,0.23463 -0.17225,0.42819 -0.39429,0.47003c-0.00099,0.0365 -0.00172,0.0727 -0.00218,0.10856l-0.00248,0.19452c0,0 -0.00618,0.48456 -0.49073,0.47839z" fill="#5d0000" stroke="none" stroke-width="0.5"/><path d="M169.78933,188.80891l0.03203,0.01897c0.18979,-0.30865 0.45138,-0.612 0.84367,-0.9368l0.18285,1.455c-0.27426,0.77251 -0.37143,1.30421 -0.56934,1.87019l0.16427,0.0571l-0.31451,0.90493c-0.06341,0.19723 -0.24961,0.3388 -0.46759,0.33603c-0.18383,-0.00234 -0.34244,-0.10675 -0.42264,-0.25863c-0.14979,-0.08403 -0.25012,-0.24527 -0.24778,-0.42911l0.00943,-0.74047c-0.01458,-0.59796 -0.12374,-1.17017 -0.15736,-1.77471c-0.11068,-0.06847 -0.21259,-0.19331 -0.2036,-0.42059c0.01917,-0.48423 0.5034,-0.46506 0.5034,-0.46506l0.03105,0.01838c0.04418,-0.01104 0.09409,-0.01695 0.15048,-0.01624c0.33535,0.00428 0.43567,0.23768 0.46563,0.38101z" fill="#5d0000" stroke="none" stroke-width="0.5"/><path d="M173.15787,171.42825c-0.32581,-0.06257 -0.36381,-0.42618 -0.36381,-0.42618c-0.09798,-0.95898 0.08106,-1.72842 -0.55383,-2.52902c-0.89681,-1.13087 -2.92991,-0.89883 -2.47587,-2.79829c0.27864,-1.16571 1.25109,-1.14411 2.13271,-0.77172c0.55556,0.23467 1.25442,1.20613 1.35135,1.06991c2.00294,-1.1581 5.55239,1.10188 3.67296,3.35206c-0.49014,0.58683 -1.23438,0.60303 -1.68482,1.2312c-0.24461,0.34112 -0.15005,0.90771 -0.48341,1.16276c-0.6457,0.49403 -1.26961,0.22447 -1.59526,-0.29074z" fill="#ffffff" stroke="none" stroke-width="0.5"/></g><g><path d="M185.31211,175.36951l0.33585,-0.63075c0.57156,0.5782 1.14511,1.15375 1.7215,1.72618z" fill="#115616" stroke="none" stroke-width="0"/><path d="M174.0688,195.8761l7.41628,-13.92867l2.61162,1.39056l-7.41629,13.92865z" fill="#125816" stroke="#000000" stroke-width="0"/><path d="M174.91299,179.82976l5.25223,-9.86432c0.35815,0.18713 0.6523,0.3393 0.85445,0.44309c0.27012,0.13869 0.54325,0.2799 0.81908,0.4227c1.94278,2.01284 3.88545,4.00713 5.86357,5.96362l-4.08392,7.67008z" fill="#197c1f" stroke="none" stroke-width="0"/><path d="M168.14563,192.53965l7.41629,-13.92866l2.61163,1.39056l-7.41629,13.92865z" fill="#197c1f" stroke="none" stroke-width="0"/><path d="M185.86757,177.40586c-0.42775,-0.22776 -0.2,-0.65549 -0.2,-0.65549l0.44552,-0.54997c-0.06396,-0.03959 -0.16616,-0.11068 -0.29118,-0.20156l-0.00904,0.35309c-0.00035,0.07611 -0.01869,0.15324 -0.05694,0.22509c-0.12578,0.23623 -0.41926,0.32577 -0.65549,0.19998c-0.0508,-0.02704 -0.09482,-0.06185 -0.13136,-0.10217l-0.41593,-0.4378l0.00527,-0.00501l-0.02157,-0.01302c-0.10236,-0.13247 -0.2079,-0.2607 -0.31588,-0.38554c-0.41088,0.86037 -0.95143,1.68794 -1.38189,2.49638l-0.18285,0.34343c0,0 -0.22775,0.42774 -0.6555,0.2c-0.42775,-0.22776 -0.2,-0.65551 -0.2,-0.65551l0.18285,-0.34342c0.45119,-0.84737 1.13087,-1.80632 1.53913,-2.78321c-0.45651,-0.45479 -0.92742,-0.88446 -1.36666,-1.34295c-0.79536,1.36575 -1.65004,2.71442 -2.34981,4.06882l-0.09142,0.17172c0,0 -0.22775,0.42775 -0.6555,0.19999c-0.42775,-0.22776 -0.2,-0.65549 -0.2,-0.65549l0.09143,-0.17171c0.79343,-1.45676 1.69791,-2.90239 2.53509,-4.38155c-0.3615,-0.46521 -0.67518,-0.97941 -0.90499,-1.58486c-0.51839,0.9736 -1.03677,1.94719 -1.55516,2.92079l-0.18285,0.34343c0,0 -0.22775,0.42773 -0.6555,0.19999c-0.42775,-0.22776 -0.19999,-0.65549 -0.19999,-0.65549c0.59215,-1.11213 1.35688,-2.5484 1.95887,-3.679c-0.0231,-0.0257 -0.04618,-0.05143 -0.06924,-0.07718l-0.38852,-0.43466c-0.13785,-0.14714 -0.174,-0.37123 -0.07396,-0.55913c0.10246,-0.19242 0.31615,-0.28751 0.51955,-0.2482l0.59555,0.10071l-0.00225,0.01326c0.05033,0.00776 0.10011,0.01969 0.1492,0.0368c0.04599,0.01602 0.11857,0.07344 0.20736,0.15761c0.1036,-0.06937 0.22584,-0.13241 0.36925,-0.18775c0.41553,-0.16034 1.27497,1.17458 1.40474,1.37966c0.47699,0.75379 0.81817,1.48688 1.21667,2.25479c0.07474,0.08042 0.1499,0.16049 0.22548,0.24021c0.06722,-0.03812 0.15399,-0.06181 0.26599,-0.05894c0.48444,0.01242 0.47203,0.49685 0.47203,0.49685c-0.00379,0.0978 -0.01127,0.19512 -0.02211,0.29194c0.22879,0.22509 0.46212,0.44675 0.7008,0.66472c0.35721,0.32618 1.80132,1.50438 1.76073,1.98394c-0.02819,0.333 -0.57192,0.34584 -0.85788,0.51877l0.10348,0.10767c0,0 -0.22775,0.42774 -0.6555,0.2z" fill="#5d0000" stroke="none" stroke-width="0.5"/><path d="M178.09617,192.00147c-0.42775,-0.22776 -0.2,-0.65549 -0.2,-0.65549l0.09143,-0.17171c0.67678,-1.27107 1.15902,-2.36446 2.07561,-3.23998l-0.14659,-0.1543l0.64565,-0.61338c0.14006,-0.26306 0.28011,-0.5261 0.42018,-0.78915c0,0 0.22775,-0.42773 0.6555,-0.19999c0.42775,0.22776 0.2,0.6555 0.2,0.6555c-0.15237,0.28618 -0.30476,0.57238 -0.45714,0.85856v0c-0.09306,0.17478 -0.18614,0.34957 -0.2792,0.52435c-0.30392,0.57082 -0.55812,1.10122 -0.84841,1.59341c-0.17271,0.32435 -0.3454,0.64872 -0.5181,0.97306l-0.27428,0.51514c-0.11028,0.20712 -0.34947,0.30148 -0.56597,0.23681c-0.01763,0.03197 -0.03487,0.06381 -0.05174,0.09547l-0.09143,0.17171c0,0 -0.22775,0.42774 -0.6555,0.2z" fill="#5d0000" stroke="none" stroke-width="0.5"/><path d="M172.357,188.05214l0.01976,0.03154c0.31021,-0.18721 0.68181,-0.33677 1.17938,-0.44544l-0.50492,1.37677c-0.59805,0.56065 -0.92828,0.98855 -1.36375,1.40069l0.11978,0.12609l-0.69456,0.65985c-0.14682,0.14616 -0.37721,0.18657 -0.56963,0.08411c-0.16228,-0.08641 -0.25533,-0.25194 -0.25692,-0.42369c-0.09456,-0.14338 -0.10976,-0.33267 -0.02335,-0.49496l0.34803,-0.65365c0.26132,-0.53803 0.4268,-1.09656 0.67422,-1.64918c-0.06695,-0.11161 -0.10025,-0.26928 0.012,-0.46712c0.23915,-0.42148 0.66064,-0.18234 0.66064,-0.18234l0.01916,0.03058c0.04432,0.01046 0.09138,0.02809 0.14116,0.05458c0.29603,0.15763 0.27811,0.41104 0.239,0.55216z" fill="#5d0000" stroke="none" stroke-width="0.5"/><path d="M183.32266,174.15291c-0.26082,-0.20504 -0.1278,-0.54557 -0.1278,-0.54557c0.35281,-0.89708 0.86485,-1.49868 0.66791,-2.50132c-0.27817,-1.41625 -2.19121,-2.14262 -0.91648,-3.6222c0.7823,-0.90803 1.63651,-0.44279 2.2491,0.29251c0.38603,0.46336 0.56143,1.64715 0.71005,1.57057c2.31101,-0.11034 4.4284,3.52597 1.72619,4.66339c-0.70471,0.29663 -1.37347,-0.03036 -2.06187,0.32121c-0.37383,0.19091 -0.54969,0.73776 -0.9629,0.81149c-0.80038,0.14282 -1.23113,-0.3829 -1.28418,-0.99009z" fill="#ffffff" stroke="none" stroke-width="0.5"/></g><g><path d="M163.12536,182.25169l-0.67942,-0.22143c0.47038,-0.66313 0.93781,-1.32775 1.40167,-1.99463z" fill="#115616" stroke="none" stroke-width="0"/><path d="M185.27034,189.77048l-15.00329,-4.88982l0.91685,-2.81312l15.00328,4.88983z" fill="#125816" stroke="#000000" stroke-width="0"/><path d="M169.32055,191.72034l-10.62537,-3.46299c0.12221,-0.38517 0.22111,-0.70123 0.28829,-0.91831c0.08977,-0.29007 0.1815,-0.58354 0.27433,-0.87995c1.64564,-2.26225 3.27302,-4.52119 4.85704,-6.80848l8.26184,2.69268z" fill="#197c1f" stroke="none" stroke-width="0"/><path d="M183.01103,196.1823l-15.00328,-4.88983l0.91685,-2.81312l15.00328,4.88983z" fill="#197c1f" stroke="none" stroke-width="0"/><path d="M165.03461,181.35169c-0.15017,0.46075 -0.61091,0.31058 -0.61091,0.31058l-0.61886,-0.34345c-0.02791,0.06986 -0.08021,0.18282 -0.14805,0.3217l0.34932,-0.05229c0.07502,-0.01285 0.15416,-0.00815 0.23155,0.01706c0.25446,0.08293 0.39351,0.35645 0.31058,0.61091c-0.01783,0.05472 -0.04448,0.1041 -0.07786,0.14708l-0.35908,0.48551l-0.00585,-0.00432l-0.00908,0.0235c-0.11273,0.12377 -0.22072,0.24993 -0.32496,0.37792c0.91856,0.25553 1.82731,0.64447 2.69812,0.92829l0.36992,0.12055c0,0 0.46074,0.15016 0.31058,0.61091c-0.15017,0.46075 -0.61092,0.31058 -0.61092,0.31058l-0.36992,-0.12056c-0.91275,-0.29748 -1.97499,-0.80067 -3.00786,-1.03342c-0.36879,0.52843 -0.71033,1.06669 -1.08575,1.57874c1.48293,0.54659 2.95934,1.15458 4.41452,1.60901l0.18496,0.06028c0,0 0.46075,0.15016 0.31058,0.61092c-0.15017,0.46075 -0.61091,0.31058 -0.61091,0.31058l-0.18496,-0.06029c-1.57224,-0.52893 -3.15275,-1.16915 -4.75463,-1.73728c-0.39551,0.43666 -0.84756,0.83472 -1.40401,1.16599c1.04872,0.34179 2.09742,0.68358 3.14613,1.02537l0.36992,0.12056c0,0 0.46074,0.15016 0.31058,0.61091c-0.15017,0.46075 -0.61091,0.31058 -0.61091,0.31058c-1.19794,-0.39042 -2.74501,-0.89463 -3.96283,-1.29155c-0.0213,0.02721 -0.04265,0.05439 -0.06402,0.08157l-0.36074,0.45798c-0.12102,0.16127 -0.33545,0.23572 -0.53785,0.16976c-0.20727,-0.06756 -0.33795,-0.26153 -0.3345,-0.46867l-0.00404,-0.60399l0.01345,-0.00009c-0.00108,-0.05092 0.00204,-0.102 0.01038,-0.15332c0.00781,-0.04806 0.05178,-0.12951 0.11929,-0.23153c-0.08628,-0.09 -0.16954,-0.19947 -0.24891,-0.33112c-0.22993,-0.38145 0.93582,-1.45925 1.1153,-1.62261c0.65971,-0.60042 1.32256,-1.0635 2.00978,-1.58907c0.06625,-0.08755 0.13208,-0.17545 0.19749,-0.2637c-0.04919,-0.05959 -0.08757,-0.14095 -0.10415,-0.25175c-0.07174,-0.47926 0.40752,-0.551 0.40752,-0.551c0.09698,-0.01322 0.19411,-0.02272 0.29135,-0.02883c0.18202,-0.26434 0.3599,-0.53256 0.53319,-0.8054c0.25933,-0.40834 1.1694,-2.03481 1.64873,-2.07795c0.33284,-0.02996 0.43974,0.50333 0.65961,0.75498l0.0881,-0.12057c0,0 0.46074,0.15016 0.31058,0.61091z" fill="#5d0000" stroke="none" stroke-width="0.5"/><path d="M180.7563,186.47565c-0.15017,0.46075 -0.61091,0.31058 -0.61091,0.31058l-0.18496,-0.06028c-1.36914,-0.44623 -2.52956,-0.73165 -3.5507,-1.48262l-0.12656,0.17112l-0.71601,-0.52956c-0.28335,-0.09235 -0.56669,-0.18469 -0.85004,-0.27704c0,0 -0.46074,-0.15016 -0.31058,-0.61091c0.15017,-0.46075 0.61091,-0.31058 0.61091,-0.31058c0.30826,0.10046 0.61654,0.20093 0.92481,0.30141v0c0.18826,0.06136 0.37655,0.12273 0.56481,0.18409c0.61486,0.20039 1.18129,0.3588 1.71634,0.55939c0.34938,0.11387 0.69877,0.22773 1.04814,0.3416l0.55489,0.18084c0.2231,0.07271 0.35749,0.29192 0.33132,0.51635c0.03454,0.01182 0.06889,0.02329 0.10299,0.03441l0.18496,0.06029c0,0 0.46074,0.15016 0.31058,0.61091z" fill="#5d0000" stroke="none" stroke-width="0.5"/><path d="M177.8615,192.81248l0.02764,-0.02493c-0.23814,-0.27307 -0.44985,-0.61312 -0.64312,-1.08432l1.44345,0.25864c0.65582,0.49183 1.13448,0.74289 1.61586,1.10033l0.10341,-0.13982l0.77025,0.56968c0.1694,0.11926 0.24912,0.33916 0.18157,0.54643c-0.05697,0.1748 -0.20387,0.29513 -0.37274,0.32647c-0.12482,0.11798 -0.30862,0.16576 -0.48342,0.10878l-0.70408,-0.22947c-0.57518,-0.16411 -1.15394,-0.23027 -1.74107,-0.37817c-0.09832,0.08527 -0.24784,0.1454 -0.46213,0.06914c-0.45656,-0.16248 -0.29409,-0.61903 -0.29409,-0.61903l0.0268,-0.02417c0.00261,-0.04546 0.01183,-0.09487 0.02929,-0.14849c0.10393,-0.31887 0.35661,-0.34514 0.50237,-0.33108z" fill="#5d0000" stroke="none" stroke-width="0.5"/><path d="M162.272,184.4219c-0.15673,0.29241 -0.51517,0.22042 -0.51517,0.22042c-0.94466,-0.19198 -1.6259,-0.592 -2.57923,-0.22426c-1.34659,0.51944 -1.7304,2.52942 -3.40853,1.53044c-1.02988,-0.61307 -0.71974,-1.53499 -0.10174,-2.26575c0.38943,-0.4605 1.52491,-0.83843 1.42373,-0.97152c-0.50923,-2.25691 2.70505,-4.97252 4.29361,-2.50836c0.41429,0.64263 0.20816,1.35794 0.67373,1.97498c0.25282,0.33508 0.82187,0.4135 0.9661,0.80768c0.27938,0.76351 -0.16372,1.27887 -0.75252,1.43635z" fill="#ffffff" stroke="none" stroke-width="0.5"/></g><g><path d="M163.36476,172.63071l-0.48772,-0.52228c0.73233,-0.35312 1.4628,-0.70897 2.19123,-1.06852z" fill="#115616" stroke="none" stroke-width="0"/><path d="M179.11583,189.91757l-10.7701,-11.53316l2.16247,-2.01939l10.7701,11.53317z" fill="#125816" stroke="#000000" stroke-width="0"/><path d="M164.21085,183.9143l-7.62741,-8.16782c0.29318,-0.27809 0.53253,-0.50697 0.69628,-0.66453c0.21881,-0.21053 0.44097,-0.42309 0.66552,-0.63769c2.53417,-1.18486 5.05075,-2.37565 7.54307,-3.61223l5.93076,6.35096z" fill="#197c1f" stroke="none" stroke-width="0"/><path d="M174.03856,194.43831l-10.77009,-11.53316l2.16247,-2.0194l10.7701,11.53317z" fill="#197c1f" stroke="none" stroke-width="0"/><path d="M165.47118,172.76579c-0.35419,0.33075 -0.68492,-0.02343 -0.68492,-0.02343l-0.37572,-0.59981c-0.0582,0.04767 -0.1586,0.12127 -0.28511,0.21005l0.33107,0.12308c0.07188,0.02502 0.13889,0.06739 0.19445,0.12687c0.18267,0.1956 0.17217,0.50226 -0.02344,0.68492c-0.04206,0.03928 -0.08927,0.06963 -0.13926,0.09112l-0.54903,0.25144l-0.00303,-0.00662l-0.01931,0.01618c-0.15852,0.05386 -0.31404,0.11209 -0.46716,0.17374c0.68058,0.66772 1.28809,1.44749 1.91319,2.1169l0.26556,0.28435c0,0 0.33074,0.35417 -0.02343,0.68492c-0.35419,0.33075 -0.68494,-0.02343 -0.68494,-0.02343l-0.26556,-0.28436c-0.65522,-0.70165 -1.34186,-1.65562 -2.13352,-2.35866c-0.57828,0.28432 -1.13746,0.5904 -1.71363,0.85718c1.03393,1.19534 2.03248,2.44126 3.08667,3.54251l0.13277,0.14218c0,0 0.33076,0.35418 -0.02344,0.68493c-0.35419,0.33075 -0.68492,-0.02343 -0.68492,-0.02343l-0.13277,-0.14219c-1.12065,-1.22305 -2.19474,-2.54752 -3.32239,-3.81921c-0.55731,0.19106 -1.14546,0.321 -1.79271,0.342c0.75282,0.80616 1.50563,1.6123 2.25845,2.41846l0.26556,0.28436c0,0 0.33074,0.35417 -0.02343,0.68492c-0.35419,0.33075 -0.68492,-0.02344 -0.68492,-0.02344c-0.85994,-0.92086 -1.97051,-2.1101 -2.84472,-3.04626c-0.0318,0.01352 -0.06363,0.02699 -0.09547,0.04047l-0.53718,0.22653c-0.1839,0.08267 -0.4076,0.04418 -0.5529,-0.11139c-0.14878,-0.15933 -0.16942,-0.39231 -0.06626,-0.57197l0.28843,-0.53069l0.01182,0.00642c0.02367,-0.04509 0.05109,-0.0883 0.08321,-0.1292c0.03007,-0.0383 0.10793,-0.08834 0.21635,-0.14502c-0.03202,-0.1205 -0.05199,-0.25658 -0.05783,-0.41019c-0.01689,-0.44507 1.52462,-0.82505 1.7607,-0.88129c0.86775,-0.2067 1.67187,-0.29167 2.52752,-0.41954c0.10032,-0.04462 0.20043,-0.08974 0.30036,-0.13538c-0.01426,-0.07595 -0.00852,-0.16572 0.03052,-0.27073c0.16888,-0.45422 0.6231,-0.28535 0.6231,-0.28535c0.09128,0.03531 0.18091,0.07394 0.26898,0.11561c0.28713,-0.14341 0.5725,-0.29223 0.85609,-0.4473c0.42441,-0.2321 2.00732,-1.21598 2.44778,-1.02204c0.30585,0.13467 0.14164,0.65318 0.21247,0.97976l0.13541,-0.06296c0,0 0.33075,0.35417 -0.02343,0.68492z" fill="#5d0000" stroke="none" stroke-width="0.5"/><path d="M176.75698,184.85118c-0.35419,0.33075 -0.68492,-0.02343 -0.68492,-0.02343l-0.13277,-0.14218c-0.98283,-1.05247 -1.86069,-1.86328 -2.39157,-3.01429l-0.19351,0.08861l-0.3708,-0.80969c-0.2034,-0.21782 -0.4068,-0.43562 -0.6102,-0.65343c0,0 -0.33074,-0.35417 0.02344,-0.68492c0.35419,-0.33075 0.68492,0.02343 0.68492,0.02343c0.22129,0.23696 0.44259,0.47393 0.66387,0.71091v0c0.13515,0.14472 0.2703,0.28946 0.40544,0.43418c0.44138,0.47264 0.86066,0.88513 1.23208,1.31937c0.2508,0.26857 0.50161,0.53714 0.7524,0.80571l0.39832,0.42654c0.16015,0.1715 0.17183,0.42836 0.04043,0.61218c0.02453,0.02704 0.04905,0.05368 0.07353,0.07991l0.13276,0.14219c0,0 0.33075,0.35418 -0.02343,0.68492z" fill="#5d0000" stroke="none" stroke-width="0.5"/><path d="M171.15964,188.99909l0.03625,-0.00846c-0.07646,-0.35416 -0.09742,-0.75418 -0.03882,-1.2601l1.13856,0.92418c0.33636,0.74757 0.63401,1.19873 0.88262,1.74434l0.15812,-0.07241l0.3989,0.87104c0.09064,0.18629 0.05413,0.41733 -0.1052,0.56612c-0.13437,0.12548 -0.32113,0.15981 -0.48411,0.1056c-0.1663,0.04294 -0.35029,-0.00408 -0.47577,-0.13845l-0.50543,-0.54123c-0.42418,-0.42171 -0.89884,-0.7594 -1.34132,-1.17268c-0.12729,0.02712 -0.28724,0.00747 -0.43797,-0.16288c-0.32113,-0.36293 0.04179,-0.68406 0.04179,-0.68406l0.03514,-0.0082c0.02427,-0.03854 0.05622,-0.07733 0.09743,-0.11583c0.24512,-0.2289 0.47902,-0.12975 0.59982,-0.04698z" fill="#5d0000" stroke="none" stroke-width="0.5"/><path d="M161.56865,174.11798c-0.27855,0.18021 -0.55753,-0.05607 -0.55753,-0.05607c-0.73414,-0.62471 -1.13714,-1.3042 -2.14945,-1.44312c-1.4299,-0.19623 -2.73752,1.37777 -3.72364,-0.30795c-0.60519,-1.03453 0.11196,-1.69164 1.00621,-2.03262c0.56351,-0.21487 1.7402,0.00318 1.71596,-0.16224c0.64522,-2.22186 4.77172,-3.04531 4.97117,-0.12027c0.05202,0.76282 -0.47421,1.28936 -0.36493,2.05458c0.05934,0.41554 0.51958,0.75927 0.45529,1.17405c-0.12452,0.80343 -0.76152,1.04038 -1.35309,0.89361z" fill="#ffffff" stroke="none" stroke-width="0.5"/></g></g></g></svg>