<?xml version="1.0" encoding="UTF-8" standalone="no"?>
<svg
   xmlns:dc="http://purl.org/dc/elements/1.1/"
   xmlns:cc="http://creativecommons.org/ns#"
   xmlns:rdf="http://www.w3.org/1999/02/22-rdf-syntax-ns#"
   xmlns:svg="http://www.w3.org/2000/svg"
   xmlns="http://www.w3.org/2000/svg"
   xmlns:sodipodi="http://sodipodi.sourceforge.net/DTD/sodipodi-0.dtd"
   xmlns:inkscape="http://www.inkscape.org/namespaces/inkscape"
   version="1.1"
   width="208.66668"
   height="286.67745"
   viewBox="0,0,208.66668,286.67745"
   id="svg150"
   sodipodi:docname="killer.svg"
   inkscape:version="0.92.5 (2060ec1f9f, 2020-04-08)">
  <metadata
     id="metadata156">
    <rdf:RDF>
      <cc:Work
         rdf:about="">
        <dc:format>image/svg+xml</dc:format>
        <dc:type
           rdf:resource="http://purl.org/dc/dcmitype/StillImage" />
        <dc:title></dc:title>
      </cc:Work>
    </rdf:RDF>
  </metadata>
  <defs
     id="defs154" />
  <sodipodi:namedview
     pagecolor="#ffffff"
     bordercolor="#666666"
     borderopacity="1"
     objecttolerance="10"
     gridtolerance="10"
     guidetolerance="10"
     inkscape:pageopacity="0"
     inkscape:pageshadow="2"
     inkscape:window-width="771"
     inkscape:window-height="480"
     id="namedview152"
     showgrid="false"
     inkscape:zoom="0.82322482"
     inkscape:cx="104.33334"
     inkscape:cy="143.33873"
     inkscape:window-x="0"
     inkscape:window-y="25"
     inkscape:window-maximized="0"
     inkscape:current-layer="svg150" />
  <g
     id="g26"
     style="mix-blend-mode:normal;fill:none;fill-rule:nonzero;stroke:#424242;stroke-width:2.5;stroke-linecap:butt;stroke-linejoin:miter;stroke-miterlimit:10;stroke-dasharray:none;stroke-dashoffset:0"
     transform="translate(-135.66666,71.9605)">
    <path
       d="m 150.46459,-54.7105 c 0,8.28427 -2.23858,15 -5,15 -2.76142,0 -5,-6.71573 -5,-15 0,-8.28427 2.23858,-15 5,-15 2.76142,0 5,6.71573 5,15 z"
       id="path2"
       inkscape:connector-curvature="0" />
    <path
       d="m 148.96459,-34.9605 c 0,6.48935 -1.67893,11.75 -3.75,11.75 -2.07107,0 -3.75,-5.26065 -3.75,-11.75 0,-6.48935 1.67893,-11.75 3.75,-11.75 2.07107,0 3.75,5.26065 3.75,11.75 z"
       id="path4"
       inkscape:connector-curvature="0" />
    <path
       d="m 148.96459,-17.4605 c 0,6.76549 -1.567,12.25 -3.5,12.25 -1.933,0 -3.5,-5.48451 -3.5,-12.25 0,-6.76549 1.567,-12.25 3.5,-12.25 1.933,0 3.5,5.48451 3.5,12.25 z"
       id="path6"
       inkscape:connector-curvature="0" />
    <path
       d="m 150.46459,-0.2105 c 0,8.28427 -2.23858,15 -5,15 -2.76142,0 -5,-6.71573 -5,-15 0,-8.28427 2.23858,-15 5,-15 2.76142,0 5,6.71573 5,15 z"
       id="path8"
       inkscape:connector-curvature="0" />
    <path
       d="m 148.96459,19.5395 c 0,6.48935 -1.67893,11.75 -3.75,11.75 -2.07107,0 -3.75,-5.26065 -3.75,-11.75 0,-6.48935 1.67893,-11.75 3.75,-11.75 2.07107,0 3.75,5.26065 3.75,11.75 z"
       id="path10"
       inkscape:connector-curvature="0" />
    <path
       d="m 148.96459,37.0395 c 0,6.76549 -1.567,12.25 -3.5,12.25 -1.933,0 -3.5,-5.48451 -3.5,-12.25 0,-6.76549 1.567,-12.25 3.5,-12.25 1.933,0 3.5,5.48451 3.5,12.25 z"
       id="path12"
       inkscape:connector-curvature="0" />
    <path
       d="m 150.96459,56.2895 c 0,8.28427 -2.23858,15 -5,15 -2.76142,0 -5,-6.71573 -5,-15 0,-8.28427 2.23858,-15 5,-15 2.76142,0 5,6.71573 5,15 z"
       id="path14"
       inkscape:connector-curvature="0" />
    <path
       d="m 149.46459,76.0395 c 0,6.48935 -1.67893,11.75 -3.75,11.75 -2.07107,0 -3.75,-5.26065 -3.75,-11.75 0,-6.48935 1.67893,-11.75 3.75,-11.75 2.07107,0 3.75,5.26065 3.75,11.75 z"
       id="path16"
       inkscape:connector-curvature="0" />
    <path
       d="m 149.46459,93.5395 c 0,6.76549 -1.567,12.25 -3.5,12.25 -1.933,0 -3.5,-5.48451 -3.5,-12.25 0,-6.76549 1.567,-12.25 3.5,-12.25 1.933,0 3.5,5.48451 3.5,12.25 z"
       id="path18"
       inkscape:connector-curvature="0" />
    <path
       d="m 150.96459,110.7895 c 0,8.28427 -2.23858,15 -5,15 -2.76142,0 -5,-6.71573 -5,-15 0,-8.28427 2.23858,-15 5,-15 2.76142,0 5,6.71573 5,15 z"
       id="path20"
       inkscape:connector-curvature="0" />
    <path
       d="m 149.46459,130.5395 c 0,6.48935 -1.67893,11.75 -3.75,11.75 -2.07107,0 -3.75,-5.26065 -3.75,-11.75 0,-6.48935 1.67893,-11.75 3.75,-11.75 2.07107,0 3.75,5.26065 3.75,11.75 z"
       id="path22"
       inkscape:connector-curvature="0" />
    <path
       d="m 149.46459,148.0395 c 0,6.76549 -1.567,12.25 -3.5,12.25 -1.933,0 -3.5,-5.48451 -3.5,-12.25 0,-6.76549 1.567,-12.25 3.5,-12.25 1.933,0 3.5,5.48451 3.5,12.25 z"
       id="path24"
       inkscape:connector-curvature="0" />
  </g>
  <g
     id="g52"
     style="mix-blend-mode:normal;fill:none;fill-rule:nonzero;stroke:#424242;stroke-width:2.5;stroke-linecap:butt;stroke-linejoin:miter;stroke-miterlimit:10;stroke-dasharray:none;stroke-dashoffset:0"
     transform="translate(-135.66666,71.9605)">
    <path
       d="m 340.46459,-55.7105 c 0,8.28427 -2.23858,15 -5,15 -2.76142,0 -5,-6.71573 -5,-15 0,-8.28427 2.23858,-15 5,-15 2.76142,0 5,6.71573 5,15 z"
       id="path28"
       inkscape:connector-curvature="0" />
    <path
       d="m 338.96459,-35.9605 c 0,6.48935 -1.67893,11.75 -3.75,11.75 -2.07107,0 -3.75,-5.26065 -3.75,-11.75 0,-6.48935 1.67893,-11.75 3.75,-11.75 2.07107,0 3.75,5.26065 3.75,11.75 z"
       id="path30"
       inkscape:connector-curvature="0" />
    <path
       d="m 338.96459,-18.4605 c 0,6.76549 -1.567,12.25 -3.5,12.25 -1.933,0 -3.5,-5.48451 -3.5,-12.25 0,-6.76549 1.567,-12.25 3.5,-12.25 1.933,0 3.5,5.48451 3.5,12.25 z"
       id="path32"
       inkscape:connector-curvature="0" />
    <path
       d="m 340.46459,-1.2105 c 0,8.28427 -2.23858,15 -5,15 -2.76142,0 -5,-6.71573 -5,-15 0,-8.28427 2.23858,-15 5,-15 2.76142,0 5,6.71573 5,15 z"
       id="path34"
       inkscape:connector-curvature="0" />
    <path
       d="m 338.96459,18.5395 c 0,6.48935 -1.67893,11.75 -3.75,11.75 -2.07107,0 -3.75,-5.26065 -3.75,-11.75 0,-6.48935 1.67893,-11.75 3.75,-11.75 2.07107,0 3.75,5.26065 3.75,11.75 z"
       id="path36"
       inkscape:connector-curvature="0" />
    <path
       d="m 338.96459,36.0395 c 0,6.76549 -1.567,12.25 -3.5,12.25 -1.933,0 -3.5,-5.48451 -3.5,-12.25 0,-6.76549 1.567,-12.25 3.5,-12.25 1.933,0 3.5,5.48451 3.5,12.25 z"
       id="path38"
       inkscape:connector-curvature="0" />
    <path
       d="m 340.96459,55.2895 c 0,8.28427 -2.23858,15 -5,15 -2.76142,0 -5,-6.71573 -5,-15 0,-8.28427 2.23858,-15 5,-15 2.76142,0 5,6.71573 5,15 z"
       id="path40"
       inkscape:connector-curvature="0" />
    <path
       d="m 339.46459,75.0395 c 0,6.48935 -1.67893,11.75 -3.75,11.75 -2.07107,0 -3.75,-5.26065 -3.75,-11.75 0,-6.48935 1.67893,-11.75 3.75,-11.75 2.07107,0 3.75,5.26065 3.75,11.75 z"
       id="path42"
       inkscape:connector-curvature="0" />
    <path
       d="m 339.46459,92.5395 c 0,6.76549 -1.567,12.25 -3.5,12.25 -1.933,0 -3.5,-5.48451 -3.5,-12.25 0,-6.76549 1.567,-12.25 3.5,-12.25 1.933,0 3.5,5.48451 3.5,12.25 z"
       id="path44"
       inkscape:connector-curvature="0" />
    <path
       d="m 340.96459,109.7895 c 0,8.28427 -2.23858,15 -5,15 -2.76142,0 -5,-6.71573 -5,-15 0,-8.28427 2.23858,-15 5,-15 2.76142,0 5,6.71573 5,15 z"
       id="path46"
       inkscape:connector-curvature="0" />
    <path
       d="m 339.46459,129.5395 c 0,6.48935 -1.67893,11.75 -3.75,11.75 -2.07107,0 -3.75,-5.26065 -3.75,-11.75 0,-6.48935 1.67893,-11.75 3.75,-11.75 2.07107,0 3.75,5.26065 3.75,11.75 z"
       id="path48"
       inkscape:connector-curvature="0" />
    <path
       d="m 339.46459,147.0395 c 0,6.76549 -1.567,12.25 -3.5,12.25 -1.933,0 -3.5,-5.48451 -3.5,-12.25 0,-6.76549 1.567,-12.25 3.5,-12.25 1.933,0 3.5,5.48451 3.5,12.25 z"
       id="path50"
       inkscape:connector-curvature="0" />
  </g>
  <path
     d="m 2.5,284.17745 v -64.4339 h 203.66668 v 64.4339 z"
     id="path54"
     inkscape:connector-curvature="0"
     style="mix-blend-mode:normal;fill:#929292;fill-rule:nonzero;stroke:#282828;stroke-width:5;stroke-linecap:butt;stroke-linejoin:miter;stroke-miterlimit:10;stroke-dasharray:none;stroke-dashoffset:0" />
  <path
     d="m 6.75007,226.53773 c 0,-1.38071 1.11929,-2.5 2.5,-2.5 1.38071,0 2.5,1.11929 2.5,2.5 0,1.38071 -1.11929,2.5 -2.5,2.5 -1.38071,0 -2.5,-1.11929 -2.5,-2.5 z"
     id="path56"
     inkscape:connector-curvature="0"
     style="mix-blend-mode:normal;fill:#282828;fill-rule:nonzero;stroke:none;stroke-width:0.5;stroke-linecap:butt;stroke-linejoin:miter;stroke-miterlimit:10;stroke-dasharray:none;stroke-dashoffset:0" />
  <path
     d="m 196.58339,226.28773 c 0,-1.38071 1.11929,-2.5 2.5,-2.5 1.38071,0 2.5,1.11929 2.5,2.5 0,1.38071 -1.11929,2.5 -2.5,2.5 -1.38071,0 -2.5,-1.11929 -2.5,-2.5 z"
     id="path58"
     inkscape:connector-curvature="0"
     style="mix-blend-mode:normal;fill:#282828;fill-rule:nonzero;stroke:none;stroke-width:0.5;stroke-linecap:butt;stroke-linejoin:miter;stroke-miterlimit:10;stroke-dasharray:none;stroke-dashoffset:0" />
  <path
     d="m 194.83339,276.7044 c 0,-1.38071 1.11929,-2.5 2.5,-2.5 1.38071,0 2.5,1.11929 2.5,2.5 0,1.38071 -1.11929,2.5 -2.5,2.5 -1.38071,0 -2.5,-1.11929 -2.5,-2.5 z"
     id="path60"
     inkscape:connector-curvature="0"
     style="mix-blend-mode:normal;fill:#282828;fill-rule:nonzero;stroke:none;stroke-width:0.5;stroke-linecap:butt;stroke-linejoin:miter;stroke-miterlimit:10;stroke-dasharray:none;stroke-dashoffset:0" />
  <path
     d="m 6.75007,277.28773 c 0,-1.38071 1.11929,-2.5 2.5,-2.5 1.38071,0 2.5,1.11929 2.5,2.5 0,1.38071 -1.11929,2.5 -2.5,2.5 -1.38071,0 -2.5,-1.11929 -2.5,-2.5 z"
     id="path62"
     inkscape:connector-curvature="0"
     style="mix-blend-mode:normal;fill:#282828;fill-rule:nonzero;stroke:none;stroke-width:0.5;stroke-linecap:butt;stroke-linejoin:miter;stroke-miterlimit:10;stroke-dasharray:none;stroke-dashoffset:0" />
  <path
     d="m 14.5,271.03773 v -39 h 43.50001 v 39 z"
     id="path64"
     inkscape:connector-curvature="0"
     style="mix-blend-mode:normal;fill:#ffd200;fill-rule:nonzero;stroke:#282828;stroke-width:2.5;stroke-linecap:butt;stroke-linejoin:miter;stroke-miterlimit:10;stroke-dasharray:none;stroke-dashoffset:0" />
  <text
     font-size="40"
     xml:space="preserve"
     stroke-miterlimit="10"
     font-weight="normal"
     style="font-weight:normal;font-size:19.79439926px;font-family:Pixel;text-anchor:start;mix-blend-mode:normal;fill:#282828;fill-rule:nonzero;stroke:none;stroke-width:0.49485999;stroke-linecap:butt;stroke-linejoin:miter;stroke-miterlimit:10;stroke-dasharray:none;stroke-dashoffset:0"
     id="text68"
     x="89.333359"
     y="246.1441"><tspan
       x="89.333359"
       dy="0"
       id="tspan66"
       style="stroke-width:0.49485999">Killer!</tspan></text>
  <text
     font-size="40"
     xml:space="preserve"
     stroke-miterlimit="10"
     font-weight="normal"
     style="font-weight:normal;font-size:10.08119965px;font-family:Pixel;text-anchor:start;mix-blend-mode:normal;fill:#282828;fill-rule:nonzero;stroke:none;stroke-width:0.25202999;stroke-linecap:butt;stroke-linejoin:miter;stroke-miterlimit:10;stroke-dasharray:none;stroke-dashoffset:0"
     id="text72"
     x="80.437538"
     y="268.15567"><tspan
       x="80.437538"
       dy="0"
       id="tspan70"
       style="stroke-width:0.25202999">Kill 50 Zombies!!!</tspan></text>
  <g
     style="mix-blend-mode:normal;fill-rule:nonzero;stroke-linecap:butt;stroke-linejoin:miter;stroke-miterlimit:10;stroke-dasharray:none;stroke-dashoffset:0"
     id="g90"
     transform="translate(-135.66666,71.9605)">
    <path
       d="m 175.48373,171.59677 0.009,-0.71454 c 0.7731,0.25161 1.54675,0.49997 2.3215,0.74424 z"
       id="path74"
       inkscape:connector-curvature="0"
       style="fill:#115616;stroke:none;stroke-width:0" />
    <path
       d="m 174.89924,194.97604 0.20107,-15.77873 2.95852,0.0377 -0.20108,15.77873 z"
       id="path76"
       inkscape:connector-curvature="0"
       style="fill:#125816;stroke:#000000;stroke-width:0" />
    <path
       d="m 168.28902,180.33013 0.14241,-11.17454 c 0.40409,0.002 0.73526,0.002 0.9625,0.002 0.30364,-6.6e-4 0.61112,-4.7e-4 0.92172,-1e-4 2.64962,0.89746 5.29063,1.77847 7.94581,2.60965 l -0.11073,8.68886 z"
       id="path78"
       inkscape:connector-curvature="0"
       style="fill:#197c1f;stroke:none;stroke-width:0" />
    <path
       d="m 168.10553,194.72821 0.20108,-15.77873 2.95852,0.0377 -0.20108,15.77874 z"
       id="path80"
       inkscape:connector-curvature="0"
       style="fill:#197c1f;stroke:none;stroke-width:0" />
    <path
       d="m 176.91136,173.15147 c -0.48457,-0.006 -0.47839,-0.49073 -0.47839,-0.49073 l 0.14362,-0.69306 c -0.075,-0.006 -0.19842,-0.0221 -0.35119,-0.0455 l 0.15392,0.3179 c 0.0346,0.0678 0.0537,0.14474 0.0526,0.22613 -0.003,0.26761 -0.22313,0.48179 -0.49074,0.47838 -0.0575,-7.3e-4 -0.11262,-0.0115 -0.16359,-0.0305 l -0.5704,-0.19824 0.002,-0.007 -0.0251,-0.002 c -0.15172,-0.0708 -0.30432,-0.1363 -0.45753,-0.1977 0.0296,0.95298 -0.0712,1.93632 -0.0829,2.85214 l -0.005,0.38904 c 0,0 -0.006,0.48456 -0.49074,0.47839 -0.48457,-0.006 -0.47839,-0.49075 -0.47839,-0.49075 l 0.005,-0.38904 c 0.0122,-0.95993 0.17633,-2.12381 0.091,-3.17914 -0.61426,-0.19473 -1.2298,-0.36052 -1.83041,-0.56646 -0.0803,1.57842 -0.22112,3.16889 -0.22169,4.69338 l -0.002,0.19452 c 0,0 -0.006,0.48457 -0.49074,0.47839 -0.48457,-0.006 -0.47839,-0.49073 -0.47839,-0.49073 l 0.002,-0.19452 c 0.0368,-1.65841 0.17745,-3.35787 0.24287,-5.05625 -0.53462,-0.24757 -1.04922,-0.5606 -1.53114,-0.99318 -0.0141,1.10292 -0.0281,2.20583 -0.0422,3.30874 l -0.005,0.38904 c 0,0 -0.006,0.48456 -0.49074,0.47839 -0.48457,-0.006 -0.47838,-0.49074 -0.47838,-0.49074 0.0161,-1.25985 0.0368,-2.88688 0.0531,-4.16765 -0.0323,-0.0122 -0.0646,-0.0245 -0.0969,-0.0368 l -0.54461,-0.20802 c -0.18999,-0.0675 -0.32491,-0.25006 -0.3222,-0.46292 0.003,-0.21798 0.14905,-0.40049 0.34783,-0.45886 l 0.5754,-0.18369 0.004,0.0128 c 0.0483,-0.0162 0.098,-0.0284 0.14946,-0.0357 0.0482,-0.007 0.13905,0.0109 0.25655,0.0449 0.0602,-0.10916 0.13995,-0.22124 0.242,-0.33621 0.29569,-0.33308 1.6717,0.4589 1.88108,0.58161 0.76961,0.45102 1.40905,0.94594 2.11538,1.44552 0.10331,0.0372 0.20681,0.0738 0.31054,0.11002 0.0422,-0.0647 0.10849,-0.12556 0.20933,-0.17438 0.43616,-0.21117 0.64735,0.22499 0.64735,0.22499 0.0415,0.0887 0.0795,0.17854 0.11426,0.26955 0.30654,0.0951 0.61556,0.18501 0.92763,0.26921 0.46703,0.12599 2.2907,0.51053 2.47459,0.95528 0.1277,0.30883 -0.34957,0.56965 -0.52435,0.85448 l 0.14133,0.0482 c 0,0 -0.006,0.48456 -0.49073,0.47839 z"
       id="path82"
       inkscape:connector-curvature="0"
       style="fill:#5d0000;stroke:none;stroke-width:0.5" />
    <path
       d="m 176.70066,189.68574 c -0.48457,-0.006 -0.47839,-0.49073 -0.47839,-0.49073 l 0.002,-0.19452 c 0.0184,-1.43991 -0.0547,-2.63268 0.35822,-3.8311 l -0.20103,-0.0699 0.29236,-0.84121 c 0.004,-0.29799 0.008,-0.59598 0.0114,-0.89397 0,0 0.006,-0.48455 0.49074,-0.47838 0.48457,0.006 0.47839,0.49073 0.47839,0.49073 -0.004,0.3242 -0.008,0.6484 -0.0124,0.9726 v 0 c -0.003,0.19799 -0.005,0.39601 -0.008,0.594 -0.008,0.64664 0.009,1.23454 -0.023,1.80506 -0.005,0.36744 -0.009,0.73488 -0.014,1.10231 l -0.007,0.58357 c -0.003,0.23463 -0.17225,0.42819 -0.39429,0.47003 -9.9e-4,0.0365 -0.002,0.0727 -0.002,0.10856 l -0.002,0.19452 c 0,0 -0.006,0.48456 -0.49073,0.47839 z"
       id="path84"
       inkscape:connector-curvature="0"
       style="fill:#5d0000;stroke:none;stroke-width:0.5" />
    <path
       d="m 169.78933,188.80891 0.032,0.019 c 0.18979,-0.30865 0.45138,-0.612 0.84367,-0.9368 l 0.18285,1.455 c -0.27426,0.77251 -0.37143,1.30421 -0.56934,1.87019 l 0.16427,0.0571 -0.31451,0.90493 c -0.0634,0.19723 -0.24961,0.3388 -0.46759,0.33603 -0.18383,-0.002 -0.34244,-0.10675 -0.42264,-0.25863 -0.14979,-0.084 -0.25012,-0.24527 -0.24778,-0.42911 l 0.009,-0.74047 c -0.0146,-0.59796 -0.12374,-1.17017 -0.15736,-1.77471 -0.11068,-0.0685 -0.21259,-0.19331 -0.2036,-0.42059 0.0192,-0.48423 0.5034,-0.46506 0.5034,-0.46506 l 0.0311,0.0184 c 0.0442,-0.011 0.0941,-0.017 0.15048,-0.0162 0.33535,0.004 0.43567,0.23768 0.46563,0.38101 z"
       id="path86"
       inkscape:connector-curvature="0"
       style="fill:#5d0000;stroke:none;stroke-width:0.5" />
    <path
       d="m 173.15787,171.42825 c -0.32581,-0.0626 -0.36381,-0.42618 -0.36381,-0.42618 -0.098,-0.95898 0.0811,-1.72842 -0.55383,-2.52902 -0.89681,-1.13087 -2.92991,-0.89883 -2.47587,-2.79829 0.27864,-1.16571 1.25109,-1.14411 2.13271,-0.77172 0.55556,0.23467 1.25442,1.20613 1.35135,1.06991 2.00294,-1.1581 5.55239,1.10188 3.67296,3.35206 -0.49014,0.58683 -1.23438,0.60303 -1.68482,1.2312 -0.24461,0.34112 -0.15005,0.90771 -0.48341,1.16276 -0.6457,0.49403 -1.26961,0.22447 -1.59526,-0.29074 z"
       id="path88"
       inkscape:connector-curvature="0"
       style="fill:#ffffff;stroke:none;stroke-width:0.5" />
  </g>
  <g
     style="mix-blend-mode:normal;fill-rule:nonzero;stroke-linecap:butt;stroke-linejoin:miter;stroke-miterlimit:10;stroke-dasharray:none;stroke-dashoffset:0"
     id="g108"
     transform="translate(-135.66666,71.9605)">
    <path
       d="m 185.31211,175.36951 0.33585,-0.63075 c 0.57156,0.5782 1.14511,1.15375 1.7215,1.72618 z"
       id="path92"
       inkscape:connector-curvature="0"
       style="fill:#115616;stroke:none;stroke-width:0" />
    <path
       d="m 174.0688,195.8761 7.41628,-13.92867 2.61162,1.39056 -7.41629,13.92865 z"
       id="path94"
       inkscape:connector-curvature="0"
       style="fill:#125816;stroke:#000000;stroke-width:0" />
    <path
       d="m 174.91299,179.82976 5.25223,-9.86432 c 0.35815,0.18713 0.6523,0.3393 0.85445,0.44309 0.27012,0.13869 0.54325,0.2799 0.81908,0.4227 1.94278,2.01284 3.88545,4.00713 5.86357,5.96362 l -4.08392,7.67008 z"
       id="path96"
       inkscape:connector-curvature="0"
       style="fill:#197c1f;stroke:none;stroke-width:0" />
    <path
       d="m 168.14563,192.53965 7.41629,-13.92866 2.61163,1.39056 -7.41629,13.92865 z"
       id="path98"
       inkscape:connector-curvature="0"
       style="fill:#197c1f;stroke:none;stroke-width:0" />
    <path
       d="m 185.86757,177.40586 c -0.42775,-0.22776 -0.2,-0.65549 -0.2,-0.65549 l 0.44552,-0.54997 c -0.064,-0.0396 -0.16616,-0.11068 -0.29118,-0.20156 l -0.009,0.35309 c -3.5e-4,0.0761 -0.0187,0.15324 -0.0569,0.22509 -0.12578,0.23623 -0.41926,0.32577 -0.65549,0.19998 -0.0508,-0.027 -0.0948,-0.0618 -0.13136,-0.10217 l -0.41593,-0.4378 0.005,-0.005 -0.0216,-0.013 c -0.10236,-0.13247 -0.2079,-0.2607 -0.31588,-0.38554 -0.41088,0.86037 -0.95143,1.68794 -1.38189,2.49638 l -0.18285,0.34343 c 0,0 -0.22775,0.42774 -0.6555,0.2 -0.42775,-0.22776 -0.2,-0.65551 -0.2,-0.65551 l 0.18285,-0.34342 c 0.45119,-0.84737 1.13087,-1.80632 1.53913,-2.78321 -0.45651,-0.45479 -0.92742,-0.88446 -1.36666,-1.34295 -0.79536,1.36575 -1.65004,2.71442 -2.34981,4.06882 l -0.0914,0.17172 c 0,0 -0.22775,0.42775 -0.6555,0.19999 -0.42775,-0.22776 -0.2,-0.65549 -0.2,-0.65549 l 0.0914,-0.17171 c 0.79343,-1.45676 1.69791,-2.90239 2.53509,-4.38155 -0.3615,-0.46521 -0.67518,-0.97941 -0.90499,-1.58486 -0.51839,0.9736 -1.03677,1.94719 -1.55516,2.92079 l -0.18285,0.34343 c 0,0 -0.22775,0.42773 -0.6555,0.19999 -0.42775,-0.22776 -0.19999,-0.65549 -0.19999,-0.65549 0.59215,-1.11213 1.35688,-2.5484 1.95887,-3.679 -0.0231,-0.0257 -0.0462,-0.0514 -0.0692,-0.0772 l -0.38852,-0.43466 c -0.13785,-0.14714 -0.174,-0.37123 -0.074,-0.55913 0.10246,-0.19242 0.31615,-0.28751 0.51955,-0.2482 l 0.59555,0.10071 -0.002,0.0133 c 0.0503,0.008 0.10011,0.0197 0.1492,0.0368 0.046,0.016 0.11857,0.0734 0.20736,0.15761 0.1036,-0.0694 0.22584,-0.13241 0.36925,-0.18775 0.41553,-0.16034 1.27497,1.17458 1.40474,1.37966 0.47699,0.75379 0.81817,1.48688 1.21667,2.25479 0.0747,0.0804 0.1499,0.16049 0.22548,0.24021 0.0672,-0.0381 0.15399,-0.0618 0.26599,-0.0589 0.48444,0.0124 0.47203,0.49685 0.47203,0.49685 -0.004,0.0978 -0.0113,0.19512 -0.0221,0.29194 0.22879,0.22509 0.46212,0.44675 0.7008,0.66472 0.35721,0.32618 1.80132,1.50438 1.76073,1.98394 -0.0282,0.333 -0.57192,0.34584 -0.85788,0.51877 l 0.10348,0.10767 c 0,0 -0.22775,0.42774 -0.6555,0.2 z"
       id="path100"
       inkscape:connector-curvature="0"
       style="fill:#5d0000;stroke:none;stroke-width:0.5" />
    <path
       d="m 178.09617,192.00147 c -0.42775,-0.22776 -0.2,-0.65549 -0.2,-0.65549 l 0.0914,-0.17171 c 0.67678,-1.27107 1.15902,-2.36446 2.07561,-3.23998 l -0.14659,-0.1543 0.64565,-0.61338 c 0.14006,-0.26306 0.28011,-0.5261 0.42018,-0.78915 0,0 0.22775,-0.42773 0.6555,-0.19999 0.42775,0.22776 0.2,0.6555 0.2,0.6555 -0.15237,0.28618 -0.30476,0.57238 -0.45714,0.85856 v 0 c -0.0931,0.17478 -0.18614,0.34957 -0.2792,0.52435 -0.30392,0.57082 -0.55812,1.10122 -0.84841,1.59341 -0.17271,0.32435 -0.3454,0.64872 -0.5181,0.97306 l -0.27428,0.51514 c -0.11028,0.20712 -0.34947,0.30148 -0.56597,0.23681 -0.0176,0.032 -0.0349,0.0638 -0.0517,0.0955 l -0.0914,0.17171 c 0,0 -0.22775,0.42774 -0.6555,0.2 z"
       id="path102"
       inkscape:connector-curvature="0"
       style="fill:#5d0000;stroke:none;stroke-width:0.5" />
    <path
       d="m 172.357,188.05214 0.0198,0.0315 c 0.31021,-0.18721 0.68181,-0.33677 1.17938,-0.44544 l -0.50492,1.37677 c -0.59805,0.56065 -0.92828,0.98855 -1.36375,1.40069 l 0.11978,0.12609 -0.69456,0.65985 c -0.14682,0.14616 -0.37721,0.18657 -0.56963,0.0841 -0.16228,-0.0864 -0.25533,-0.25194 -0.25692,-0.42369 -0.0946,-0.14338 -0.10976,-0.33267 -0.0233,-0.49496 l 0.34803,-0.65365 c 0.26132,-0.53803 0.4268,-1.09656 0.67422,-1.64918 -0.067,-0.11161 -0.10025,-0.26928 0.012,-0.46712 0.23915,-0.42148 0.66064,-0.18234 0.66064,-0.18234 l 0.0192,0.0306 c 0.0443,0.0105 0.0914,0.0281 0.14116,0.0546 0.29603,0.15763 0.27811,0.41104 0.239,0.55216 z"
       id="path104"
       inkscape:connector-curvature="0"
       style="fill:#5d0000;stroke:none;stroke-width:0.5" />
    <path
       d="m 183.32266,174.15291 c -0.26082,-0.20504 -0.1278,-0.54557 -0.1278,-0.54557 0.35281,-0.89708 0.86485,-1.49868 0.66791,-2.50132 -0.27817,-1.41625 -2.19121,-2.14262 -0.91648,-3.6222 0.7823,-0.90803 1.63651,-0.44279 2.2491,0.29251 0.38603,0.46336 0.56143,1.64715 0.71005,1.57057 2.31101,-0.11034 4.4284,3.52597 1.72619,4.66339 -0.70471,0.29663 -1.37347,-0.0304 -2.06187,0.32121 -0.37383,0.19091 -0.54969,0.73776 -0.9629,0.81149 -0.80038,0.14282 -1.23113,-0.3829 -1.28418,-0.99009 z"
       id="path106"
       inkscape:connector-curvature="0"
       style="fill:#ffffff;stroke:none;stroke-width:0.5" />
  </g>
  <g
     style="mix-blend-mode:normal;fill-rule:nonzero;stroke-linecap:butt;stroke-linejoin:miter;stroke-miterlimit:10;stroke-dasharray:none;stroke-dashoffset:0"
     id="g126"
     transform="translate(-135.66666,71.9605)">
    <path
       d="m 163.12536,182.25169 -0.67942,-0.22143 c 0.47038,-0.66313 0.93781,-1.32775 1.40167,-1.99463 z"
       id="path110"
       inkscape:connector-curvature="0"
       style="fill:#115616;stroke:none;stroke-width:0" />
    <path
       d="m 185.27034,189.77048 -15.00329,-4.88982 0.91685,-2.81312 15.00328,4.88983 z"
       id="path112"
       inkscape:connector-curvature="0"
       style="fill:#125816;stroke:#000000;stroke-width:0" />
    <path
       d="m 169.32055,191.72034 -10.62537,-3.46299 c 0.12221,-0.38517 0.22111,-0.70123 0.28829,-0.91831 0.0898,-0.29007 0.1815,-0.58354 0.27433,-0.87995 1.64564,-2.26225 3.27302,-4.52119 4.85704,-6.80848 l 8.26184,2.69268 z"
       id="path114"
       inkscape:connector-curvature="0"
       style="fill:#197c1f;stroke:none;stroke-width:0" />
    <path
       d="m 183.01103,196.1823 -15.00328,-4.88983 0.91685,-2.81312 15.00328,4.88983 z"
       id="path116"
       inkscape:connector-curvature="0"
       style="fill:#197c1f;stroke:none;stroke-width:0" />
    <path
       d="m 165.03461,181.35169 c -0.15017,0.46075 -0.61091,0.31058 -0.61091,0.31058 l -0.61886,-0.34345 c -0.0279,0.0699 -0.0802,0.18282 -0.14805,0.3217 l 0.34932,-0.0523 c 0.075,-0.0129 0.15416,-0.008 0.23155,0.0171 0.25446,0.0829 0.39351,0.35645 0.31058,0.61091 -0.0178,0.0547 -0.0445,0.1041 -0.0779,0.14708 l -0.35908,0.48551 -0.006,-0.004 -0.009,0.0235 c -0.11273,0.12377 -0.22072,0.24993 -0.32496,0.37792 0.91856,0.25553 1.82731,0.64447 2.69812,0.92829 l 0.36992,0.12055 c 0,0 0.46074,0.15016 0.31058,0.61091 -0.15017,0.46075 -0.61092,0.31058 -0.61092,0.31058 l -0.36992,-0.12056 c -0.91275,-0.29748 -1.97499,-0.80067 -3.00786,-1.03342 -0.36879,0.52843 -0.71033,1.06669 -1.08575,1.57874 1.48293,0.54659 2.95934,1.15458 4.41452,1.60901 l 0.18496,0.0603 c 0,0 0.46075,0.15016 0.31058,0.61092 -0.15017,0.46075 -0.61091,0.31058 -0.61091,0.31058 l -0.18496,-0.0603 c -1.57224,-0.52893 -3.15275,-1.16915 -4.75463,-1.73728 -0.39551,0.43666 -0.84756,0.83472 -1.40401,1.16599 1.04872,0.34179 2.09742,0.68358 3.14613,1.02537 l 0.36992,0.12056 c 0,0 0.46074,0.15016 0.31058,0.61091 -0.15017,0.46075 -0.61091,0.31058 -0.61091,0.31058 -1.19794,-0.39042 -2.74501,-0.89463 -3.96283,-1.29155 -0.0213,0.0272 -0.0427,0.0544 -0.064,0.0816 l -0.36074,0.45798 c -0.12102,0.16127 -0.33545,0.23572 -0.53785,0.16976 -0.20727,-0.0676 -0.33795,-0.26153 -0.3345,-0.46867 l -0.004,-0.60399 0.0135,-9e-5 c -0.001,-0.0509 0.002,-0.102 0.0104,-0.15332 0.008,-0.0481 0.0518,-0.12951 0.11929,-0.23153 -0.0863,-0.09 -0.16954,-0.19947 -0.24891,-0.33112 -0.22993,-0.38145 0.93582,-1.45925 1.1153,-1.62261 0.65971,-0.60042 1.32256,-1.0635 2.00978,-1.58907 0.0662,-0.0875 0.13208,-0.17545 0.19749,-0.2637 -0.0492,-0.0596 -0.0876,-0.14095 -0.10415,-0.25175 -0.0717,-0.47926 0.40752,-0.551 0.40752,-0.551 0.097,-0.0132 0.19411,-0.0227 0.29135,-0.0288 0.18202,-0.26434 0.3599,-0.53256 0.53319,-0.8054 0.25933,-0.40834 1.1694,-2.03481 1.64873,-2.07795 0.33284,-0.03 0.43974,0.50333 0.65961,0.75498 l 0.0881,-0.12057 c 0,0 0.46074,0.15016 0.31058,0.61091 z"
       id="path118"
       inkscape:connector-curvature="0"
       style="fill:#5d0000;stroke:none;stroke-width:0.5" />
    <path
       d="m 180.7563,186.47565 c -0.15017,0.46075 -0.61091,0.31058 -0.61091,0.31058 l -0.18496,-0.0603 c -1.36914,-0.44623 -2.52956,-0.73165 -3.5507,-1.48262 l -0.12656,0.17112 -0.71601,-0.52956 c -0.28335,-0.0924 -0.56669,-0.18469 -0.85004,-0.27704 0,0 -0.46074,-0.15016 -0.31058,-0.61091 0.15017,-0.46075 0.61091,-0.31058 0.61091,-0.31058 0.30826,0.10046 0.61654,0.20093 0.92481,0.30141 v 0 c 0.18826,0.0614 0.37655,0.12273 0.56481,0.18409 0.61486,0.20039 1.18129,0.3588 1.71634,0.55939 0.34938,0.11387 0.69877,0.22773 1.04814,0.3416 l 0.55489,0.18084 c 0.2231,0.0727 0.35749,0.29192 0.33132,0.51635 0.0345,0.0118 0.0689,0.0233 0.10299,0.0344 l 0.18496,0.0603 c 0,0 0.46074,0.15016 0.31058,0.61091 z"
       id="path120"
       inkscape:connector-curvature="0"
       style="fill:#5d0000;stroke:none;stroke-width:0.5" />
    <path
       d="m 177.8615,192.81248 0.0276,-0.0249 c -0.23814,-0.27307 -0.44985,-0.61312 -0.64312,-1.08432 l 1.44345,0.25864 c 0.65582,0.49183 1.13448,0.74289 1.61586,1.10033 l 0.10341,-0.13982 0.77025,0.56968 c 0.1694,0.11926 0.24912,0.33916 0.18157,0.54643 -0.057,0.1748 -0.20387,0.29513 -0.37274,0.32647 -0.12482,0.11798 -0.30862,0.16576 -0.48342,0.10878 l -0.70408,-0.22947 c -0.57518,-0.16411 -1.15394,-0.23027 -1.74107,-0.37817 -0.0983,0.0853 -0.24784,0.1454 -0.46213,0.0691 -0.45656,-0.16248 -0.29409,-0.61903 -0.29409,-0.61903 l 0.0268,-0.0242 c 0.003,-0.0455 0.0118,-0.0949 0.0293,-0.14849 0.10393,-0.31887 0.35661,-0.34514 0.50237,-0.33108 z"
       id="path122"
       inkscape:connector-curvature="0"
       style="fill:#5d0000;stroke:none;stroke-width:0.5" />
    <path
       d="m 162.272,184.4219 c -0.15673,0.29241 -0.51517,0.22042 -0.51517,0.22042 -0.94466,-0.19198 -1.6259,-0.592 -2.57923,-0.22426 -1.34659,0.51944 -1.7304,2.52942 -3.40853,1.53044 -1.02988,-0.61307 -0.71974,-1.53499 -0.10174,-2.26575 0.38943,-0.4605 1.52491,-0.83843 1.42373,-0.97152 -0.50923,-2.25691 2.70505,-4.97252 4.29361,-2.50836 0.41429,0.64263 0.20816,1.35794 0.67373,1.97498 0.25282,0.33508 0.82187,0.4135 0.9661,0.80768 0.27938,0.76351 -0.16372,1.27887 -0.75252,1.43635 z"
       id="path124"
       inkscape:connector-curvature="0"
       style="fill:#ffffff;stroke:none;stroke-width:0.5" />
  </g>
  <g
     style="mix-blend-mode:normal;fill-rule:nonzero;stroke-linecap:butt;stroke-linejoin:miter;stroke-miterlimit:10;stroke-dasharray:none;stroke-dashoffset:0"
     id="g144"
     transform="translate(-135.66666,71.9605)">
    <path
       d="m 163.36476,172.63071 -0.48772,-0.52228 c 0.73233,-0.35312 1.4628,-0.70897 2.19123,-1.06852 z"
       id="path128"
       inkscape:connector-curvature="0"
       style="fill:#115616;stroke:none;stroke-width:0" />
    <path
       d="m 179.11583,189.91757 -10.7701,-11.53316 2.16247,-2.01939 10.7701,11.53317 z"
       id="path130"
       inkscape:connector-curvature="0"
       style="fill:#125816;stroke:#000000;stroke-width:0" />
    <path
       d="m 164.21085,183.9143 -7.62741,-8.16782 c 0.29318,-0.27809 0.53253,-0.50697 0.69628,-0.66453 0.21881,-0.21053 0.44097,-0.42309 0.66552,-0.63769 2.53417,-1.18486 5.05075,-2.37565 7.54307,-3.61223 l 5.93076,6.35096 z"
       id="path132"
       inkscape:connector-curvature="0"
       style="fill:#197c1f;stroke:none;stroke-width:0" />
    <path
       d="m 174.03856,194.43831 -10.77009,-11.53316 2.16247,-2.0194 10.7701,11.53317 z"
       id="path134"
       inkscape:connector-curvature="0"
       style="fill:#197c1f;stroke:none;stroke-width:0" />
    <path
       d="m 165.47118,172.76579 c -0.35419,0.33075 -0.68492,-0.0234 -0.68492,-0.0234 l -0.37572,-0.59981 c -0.0582,0.0477 -0.1586,0.12127 -0.28511,0.21005 l 0.33107,0.12308 c 0.0719,0.025 0.13889,0.0674 0.19445,0.12687 0.18267,0.1956 0.17217,0.50226 -0.0234,0.68492 -0.0421,0.0393 -0.0893,0.0696 -0.13926,0.0911 l -0.54903,0.25144 -0.003,-0.007 -0.0193,0.0162 c -0.15852,0.0539 -0.31404,0.11209 -0.46716,0.17374 0.68058,0.66772 1.28809,1.44749 1.91319,2.1169 l 0.26556,0.28435 c 0,0 0.33074,0.35417 -0.0234,0.68492 -0.35419,0.33075 -0.68494,-0.0234 -0.68494,-0.0234 l -0.26556,-0.28436 c -0.65522,-0.70165 -1.34186,-1.65562 -2.13352,-2.35866 -0.57828,0.28432 -1.13746,0.5904 -1.71363,0.85718 1.03393,1.19534 2.03248,2.44126 3.08667,3.54251 l 0.13277,0.14218 c 0,0 0.33076,0.35418 -0.0234,0.68493 -0.35419,0.33075 -0.68492,-0.0234 -0.68492,-0.0234 l -0.13277,-0.14219 c -1.12065,-1.22305 -2.19474,-2.54752 -3.32239,-3.81921 -0.55731,0.19106 -1.14546,0.321 -1.79271,0.342 0.75282,0.80616 1.50563,1.6123 2.25845,2.41846 l 0.26556,0.28436 c 0,0 0.33074,0.35417 -0.0234,0.68492 -0.35419,0.33075 -0.68492,-0.0234 -0.68492,-0.0234 -0.85994,-0.92086 -1.97051,-2.1101 -2.84472,-3.04626 -0.0318,0.0135 -0.0636,0.027 -0.0955,0.0405 l -0.53718,0.22653 c -0.1839,0.0827 -0.4076,0.0442 -0.5529,-0.11139 -0.14878,-0.15933 -0.16942,-0.39231 -0.0663,-0.57197 l 0.28843,-0.53069 0.0118,0.006 c 0.0237,-0.0451 0.0511,-0.0883 0.0832,-0.1292 0.0301,-0.0383 0.10793,-0.0883 0.21635,-0.14502 -0.032,-0.1205 -0.052,-0.25658 -0.0578,-0.41019 -0.0169,-0.44507 1.52462,-0.82505 1.7607,-0.88129 0.86775,-0.2067 1.67187,-0.29167 2.52752,-0.41954 0.10032,-0.0446 0.20043,-0.0897 0.30036,-0.13538 -0.0143,-0.076 -0.009,-0.16572 0.0305,-0.27073 0.16888,-0.45422 0.6231,-0.28535 0.6231,-0.28535 0.0913,0.0353 0.18091,0.0739 0.26898,0.11561 0.28713,-0.14341 0.5725,-0.29223 0.85609,-0.4473 0.42441,-0.2321 2.00732,-1.21598 2.44778,-1.02204 0.30585,0.13467 0.14164,0.65318 0.21247,0.97976 l 0.13541,-0.063 c 0,0 0.33075,0.35417 -0.0234,0.68492 z"
       id="path136"
       inkscape:connector-curvature="0"
       style="fill:#5d0000;stroke:none;stroke-width:0.5" />
    <path
       d="m 176.75698,184.85118 c -0.35419,0.33075 -0.68492,-0.0234 -0.68492,-0.0234 l -0.13277,-0.14218 c -0.98283,-1.05247 -1.86069,-1.86328 -2.39157,-3.01429 l -0.19351,0.0886 -0.3708,-0.80969 c -0.2034,-0.21782 -0.4068,-0.43562 -0.6102,-0.65343 0,0 -0.33074,-0.35417 0.0234,-0.68492 0.35419,-0.33075 0.68492,0.0234 0.68492,0.0234 0.22129,0.23696 0.44259,0.47393 0.66387,0.71091 v 0 c 0.13515,0.14472 0.2703,0.28946 0.40544,0.43418 0.44138,0.47264 0.86066,0.88513 1.23208,1.31937 0.2508,0.26857 0.50161,0.53714 0.7524,0.80571 l 0.39832,0.42654 c 0.16015,0.1715 0.17183,0.42836 0.0404,0.61218 0.0245,0.027 0.0491,0.0537 0.0735,0.0799 l 0.13276,0.14219 c 0,0 0.33075,0.35418 -0.0234,0.68492 z"
       id="path138"
       inkscape:connector-curvature="0"
       style="fill:#5d0000;stroke:none;stroke-width:0.5" />
    <path
       d="m 171.15964,188.99909 0.0362,-0.008 c -0.0765,-0.35416 -0.0974,-0.75418 -0.0388,-1.2601 l 1.13856,0.92418 c 0.33636,0.74757 0.63401,1.19873 0.88262,1.74434 l 0.15812,-0.0724 0.3989,0.87104 c 0.0906,0.18629 0.0541,0.41733 -0.1052,0.56612 -0.13437,0.12548 -0.32113,0.15981 -0.48411,0.1056 -0.1663,0.0429 -0.35029,-0.004 -0.47577,-0.13845 l -0.50543,-0.54123 c -0.42418,-0.42171 -0.89884,-0.7594 -1.34132,-1.17268 -0.12729,0.0271 -0.28724,0.007 -0.43797,-0.16288 -0.32113,-0.36293 0.0418,-0.68406 0.0418,-0.68406 l 0.0351,-0.008 c 0.0243,-0.0385 0.0562,-0.0773 0.0974,-0.11583 0.24512,-0.2289 0.47902,-0.12975 0.59982,-0.047 z"
       id="path140"
       inkscape:connector-curvature="0"
       style="fill:#5d0000;stroke:none;stroke-width:0.5" />
    <path
       d="m 161.56865,174.11798 c -0.27855,0.18021 -0.55753,-0.0561 -0.55753,-0.0561 -0.73414,-0.62471 -1.13714,-1.3042 -2.14945,-1.44312 -1.4299,-0.19623 -2.73752,1.37777 -3.72364,-0.30795 -0.60519,-1.03453 0.11196,-1.69164 1.00621,-2.03262 0.56351,-0.21487 1.7402,0.003 1.71596,-0.16224 0.64522,-2.22186 4.77172,-3.04531 4.97117,-0.12027 0.052,0.76282 -0.47421,1.28936 -0.36493,2.05458 0.0593,0.41554 0.51958,0.75927 0.45529,1.17405 -0.12452,0.80343 -0.76152,1.04038 -1.35309,0.89361 z"
       id="path142"
       inkscape:connector-curvature="0"
       style="fill:#ffffff;stroke:none;stroke-width:0.5" />
  </g>
</svg>
