<?xml version="1.0" encoding="UTF-8" standalone="no"?>
<svg
   xmlns:dc="http://purl.org/dc/elements/1.1/"
   xmlns:cc="http://creativecommons.org/ns#"
   xmlns:rdf="http://www.w3.org/1999/02/22-rdf-syntax-ns#"
   xmlns:svg="http://www.w3.org/2000/svg"
   xmlns="http://www.w3.org/2000/svg"
   xmlns:sodipodi="http://sodipodi.sourceforge.net/DTD/sodipodi-0.dtd"
   xmlns:inkscape="http://www.inkscape.org/namespaces/inkscape"
   version="1.1"
   width="208.66668"
   height="286.67745"
   viewBox="0,0,208.66668,286.67745"
   id="svg80"
   sodipodi:docname="nihilism.svg"
   inkscape:version="0.92.5 (2060ec1f9f, 2020-04-08)">
  <metadata
     id="metadata86">
    <rdf:RDF>
      <cc:Work
         rdf:about="">
        <dc:format>image/svg+xml</dc:format>
        <dc:type
           rdf:resource="http://purl.org/dc/dcmitype/StillImage" />
        <dc:title></dc:title>
      </cc:Work>
    </rdf:RDF>
  </metadata>
  <defs
     id="defs84" />
  <sodipodi:namedview
     pagecolor="#ffffff"
     bordercolor="#666666"
     borderopacity="1"
     objecttolerance="10"
     gridtolerance="10"
     guidetolerance="10"
     inkscape:pageopacity="0"
     inkscape:pageshadow="2"
     inkscape:window-width="771"
     inkscape:window-height="480"
     id="namedview82"
     showgrid="false"
     inkscape:zoom="0.82322482"
     inkscape:cx="104.33334"
     inkscape:cy="143.33873"
     inkscape:window-x="396"
     inkscape:window-y="60"
     inkscape:window-maximized="0"
     inkscape:current-layer="svg80" />
  <g
     transform="translate(-135.66666,71.9605)"
     id="g78">
    <g
       data-paper-data="{&quot;isPaintingLayer&quot;:true}"
       stroke-miterlimit="10"
       style="mix-blend-mode: normal"
       id="g76"
       stroke-dashoffset="0"
       stroke-dasharray=""
       stroke-linejoin="miter"
       stroke-linecap="butt"
       fill-rule="nonzero">
      <g
         id="g26"
         stroke-width="2.5"
         stroke="#424242"
         fill="none">
        <path
           d="M150.46459,-54.7105c0,8.28427 -2.23858,15 -5,15c-2.76142,0 -5,-6.71573 -5,-15c0,-8.28427 2.23858,-15 5,-15c2.76142,0 5,6.71573 5,15z"
           id="path2" />
        <path
           d="M148.96459,-34.9605c0,6.48935 -1.67893,11.75 -3.75,11.75c-2.07107,0 -3.75,-5.26065 -3.75,-11.75c0,-6.48935 1.67893,-11.75 3.75,-11.75c2.07107,0 3.75,5.26065 3.75,11.75z"
           id="path4" />
        <path
           d="M148.96459,-17.4605c0,6.76549 -1.567,12.25 -3.5,12.25c-1.933,0 -3.5,-5.48451 -3.5,-12.25c0,-6.76549 1.567,-12.25 3.5,-12.25c1.933,0 3.5,5.48451 3.5,12.25z"
           id="path6" />
        <path
           d="M150.46459,-0.2105c0,8.28427 -2.23858,15 -5,15c-2.76142,0 -5,-6.71573 -5,-15c0,-8.28427 2.23858,-15 5,-15c2.76142,0 5,6.71573 5,15z"
           id="path8" />
        <path
           d="M148.96459,19.5395c0,6.48935 -1.67893,11.75 -3.75,11.75c-2.07107,0 -3.75,-5.26065 -3.75,-11.75c0,-6.48935 1.67893,-11.75 3.75,-11.75c2.07107,0 3.75,5.26065 3.75,11.75z"
           id="path10" />
        <path
           d="M148.96459,37.0395c0,6.76549 -1.567,12.25 -3.5,12.25c-1.933,0 -3.5,-5.48451 -3.5,-12.25c0,-6.76549 1.567,-12.25 3.5,-12.25c1.933,0 3.5,5.48451 3.5,12.25z"
           id="path12" />
        <path
           d="M150.96459,56.2895c0,8.28427 -2.23858,15 -5,15c-2.76142,0 -5,-6.71573 -5,-15c0,-8.28427 2.23858,-15 5,-15c2.76142,0 5,6.71573 5,15z"
           id="path14" />
        <path
           d="M149.46459,76.0395c0,6.48935 -1.67893,11.75 -3.75,11.75c-2.07107,0 -3.75,-5.26065 -3.75,-11.75c0,-6.48935 1.67893,-11.75 3.75,-11.75c2.07107,0 3.75,5.26065 3.75,11.75z"
           id="path16" />
        <path
           d="M149.46459,93.5395c0,6.76549 -1.567,12.25 -3.5,12.25c-1.933,0 -3.5,-5.48451 -3.5,-12.25c0,-6.76549 1.567,-12.25 3.5,-12.25c1.933,0 3.5,5.48451 3.5,12.25z"
           id="path18" />
        <path
           d="M150.96459,110.7895c0,8.28427 -2.23858,15 -5,15c-2.76142,0 -5,-6.71573 -5,-15c0,-8.28427 2.23858,-15 5,-15c2.76142,0 5,6.71573 5,15z"
           id="path20" />
        <path
           d="M149.46459,130.5395c0,6.48935 -1.67893,11.75 -3.75,11.75c-2.07107,0 -3.75,-5.26065 -3.75,-11.75c0,-6.48935 1.67893,-11.75 3.75,-11.75c2.07107,0 3.75,5.26065 3.75,11.75z"
           id="path22" />
        <path
           d="M149.46459,148.0395c0,6.76549 -1.567,12.25 -3.5,12.25c-1.933,0 -3.5,-5.48451 -3.5,-12.25c0,-6.76549 1.567,-12.25 3.5,-12.25c1.933,0 3.5,5.48451 3.5,12.25z"
           id="path24" />
      </g>
      <g
         id="g52"
         stroke-width="2.5"
         stroke="#424242"
         fill="none">
        <path
           d="M340.46459,-55.7105c0,8.28427 -2.23858,15 -5,15c-2.76142,0 -5,-6.71573 -5,-15c0,-8.28427 2.23858,-15 5,-15c2.76142,0 5,6.71573 5,15z"
           id="path28" />
        <path
           d="M338.96459,-35.9605c0,6.48935 -1.67893,11.75 -3.75,11.75c-2.07107,0 -3.75,-5.26065 -3.75,-11.75c0,-6.48935 1.67893,-11.75 3.75,-11.75c2.07107,0 3.75,5.26065 3.75,11.75z"
           id="path30" />
        <path
           d="M338.96459,-18.4605c0,6.76549 -1.567,12.25 -3.5,12.25c-1.933,0 -3.5,-5.48451 -3.5,-12.25c0,-6.76549 1.567,-12.25 3.5,-12.25c1.933,0 3.5,5.48451 3.5,12.25z"
           id="path32" />
        <path
           d="M340.46459,-1.2105c0,8.28427 -2.23858,15 -5,15c-2.76142,0 -5,-6.71573 -5,-15c0,-8.28427 2.23858,-15 5,-15c2.76142,0 5,6.71573 5,15z"
           id="path34" />
        <path
           d="M338.96459,18.5395c0,6.48935 -1.67893,11.75 -3.75,11.75c-2.07107,0 -3.75,-5.26065 -3.75,-11.75c0,-6.48935 1.67893,-11.75 3.75,-11.75c2.07107,0 3.75,5.26065 3.75,11.75z"
           id="path36" />
        <path
           d="M338.96459,36.0395c0,6.76549 -1.567,12.25 -3.5,12.25c-1.933,0 -3.5,-5.48451 -3.5,-12.25c0,-6.76549 1.567,-12.25 3.5,-12.25c1.933,0 3.5,5.48451 3.5,12.25z"
           id="path38" />
        <path
           d="M340.96459,55.2895c0,8.28427 -2.23858,15 -5,15c-2.76142,0 -5,-6.71573 -5,-15c0,-8.28427 2.23858,-15 5,-15c2.76142,0 5,6.71573 5,15z"
           id="path40" />
        <path
           d="M339.46459,75.0395c0,6.48935 -1.67893,11.75 -3.75,11.75c-2.07107,0 -3.75,-5.26065 -3.75,-11.75c0,-6.48935 1.67893,-11.75 3.75,-11.75c2.07107,0 3.75,5.26065 3.75,11.75z"
           id="path42" />
        <path
           d="M339.46459,92.5395c0,6.76549 -1.567,12.25 -3.5,12.25c-1.933,0 -3.5,-5.48451 -3.5,-12.25c0,-6.76549 1.567,-12.25 3.5,-12.25c1.933,0 3.5,5.48451 3.5,12.25z"
           id="path44" />
        <path
           d="M340.96459,109.7895c0,8.28427 -2.23858,15 -5,15c-2.76142,0 -5,-6.71573 -5,-15c0,-8.28427 2.23858,-15 5,-15c2.76142,0 5,6.71573 5,15z"
           id="path46" />
        <path
           d="M339.46459,129.5395c0,6.48935 -1.67893,11.75 -3.75,11.75c-2.07107,0 -3.75,-5.26065 -3.75,-11.75c0,-6.48935 1.67893,-11.75 3.75,-11.75c2.07107,0 3.75,5.26065 3.75,11.75z"
           id="path48" />
        <path
           d="M339.46459,147.0395c0,6.76549 -1.567,12.25 -3.5,12.25c-1.933,0 -3.5,-5.48451 -3.5,-12.25c0,-6.76549 1.567,-12.25 3.5,-12.25c1.933,0 3.5,5.48451 3.5,12.25z"
           id="path50" />
      </g>
      <path
         d="M138.16666,212.21695v-64.4339h203.66668v64.4339z"
         id="path54"
         stroke-width="5"
         stroke="#282828"
         fill="#000000" />
      <path
         d="M142.41673,154.57723c0,-1.38071 1.11929,-2.5 2.5,-2.5c1.38071,0 2.5,1.11929 2.5,2.5c0,1.38071 -1.11929,2.5 -2.5,2.5c-1.38071,0 -2.5,-1.11929 -2.5,-2.5z"
         id="path56"
         stroke-width="0.5"
         stroke="none"
         fill="#282828" />
      <path
         d="M332.25005,154.32723c0,-1.38071 1.11929,-2.5 2.5,-2.5c1.38071,0 2.5,1.11929 2.5,2.5c0,1.38071 -1.11929,2.5 -2.5,2.5c-1.38071,0 -2.5,-1.11929 -2.5,-2.5z"
         id="path58"
         stroke-width="0.5"
         stroke="none"
         fill="#282828" />
      <path
         d="M330.50005,204.7439c0,-1.38071 1.11929,-2.5 2.5,-2.5c1.38071,0 2.5,1.11929 2.5,2.5c0,1.38071 -1.11929,2.5 -2.5,2.5c-1.38071,0 -2.5,-1.11929 -2.5,-2.5z"
         id="path60"
         stroke-width="0.5"
         stroke="none"
         fill="#282828" />
      <path
         d="M142.41673,205.32723c0,-1.38071 1.11929,-2.5 2.5,-2.5c1.38071,0 2.5,1.11929 2.5,2.5c0,1.38071 -1.11929,2.5 -2.5,2.5c-1.38071,0 -2.5,-1.11929 -2.5,-2.5z"
         id="path62"
         stroke-width="0.5"
         stroke="none"
         fill="#282828" />
      <path
         d="M150.49999,199.07723v-39h43.50001v39z"
         id="path64"
         stroke-width="2.5"
         stroke="#282828"
         fill="#000000" />
    </g>
  </g>
</svg>
