<svg version="1.1" xmlns="http://www.w3.org/2000/svg" xmlns:xlink="http://www.w3.org/1999/xlink" width="76.26582" height="170.4331" viewBox="0,0,76.26582,170.4331"><g transform="translate(-206.27042,-82.64315)"><g data-paper-data="{&quot;isPaintingLayer&quot;:true}" fill-rule="nonzero" stroke-linejoin="miter" stroke-miterlimit="10" stroke-dasharray="" stroke-dashoffset="0" style="mix-blend-mode: normal"><path d="M246.91592,253.07625v-58.51442h10.97144v58.51442z" fill="#670a00" stroke="#000000" stroke-width="0" stroke-linecap="butt"/><path d="M220.98283,142.76382v-35.84008h38.03437v35.84008z" fill="#ffffff" stroke="none" stroke-width="0" stroke-linecap="butt"/><path d="M229.02858,150.80955v-11.70288h21.21148v11.70288z" fill="#ffffff" stroke="none" stroke-width="0" stroke-linecap="butt"/><path d="M221.71429,199.08396v-52.66297h36.57151v52.66297z" fill="#ff6300" stroke="none" stroke-width="0" stroke-linecap="butt"/><path d="M221.71429,238.16197v-44.87977h10.97146v44.87977z" fill="#920e00" stroke="none" stroke-width="0" stroke-linecap="butt"/><path d="M234.52586,154.65871v25.30276" fill="none" stroke="#ffffff" stroke-width="2.5" stroke-linecap="round"/><path d="M242.96011,157.90265l1.29757,31.14186" fill="none" stroke="#ffffff" stroke-width="2.5" stroke-linecap="round"/><path d="M250.74557,120.92169l-0.64879,-9.08304l-19.46366,6.48789l-1.94637,-7.13668l-7.13667,22.05882c0,0 -10.33806,-14.11036 -13.76381,-22.17744c-1.69288,-3.98646 -3.30062,-4.80955 3.05503,-13.44092c5.92584,-8.04768 13.95272,-11.09445 13.95272,-11.09445c0,0 0.99804,12.31571 3.09602,15.92892c1.71855,2.95973 4.12356,-3.62798 7.26595,-7.50976c4.00108,-4.94251 0.66746,-12.31188 0.66746,-12.31188c0,0 12.93517,3.92718 15.70096,8.12709c3.04619,4.6257 3.7627,8.09263 3.7627,8.09263l27.24913,-14.27335c0,0 -4.21575,16.32554 -8.606,23.64263c-4.0094,6.68232 -12.15525,15.93349 -12.15525,15.93349z" fill="#693d00" stroke="#000000" stroke-width="0" stroke-linecap="round"/></g></g></svg>