<svg version="1.1" xmlns="http://www.w3.org/2000/svg" xmlns:xlink="http://www.w3.org/1999/xlink" width="838.55298" height="532.73832" viewBox="0,0,838.55298,532.73832"><defs><linearGradient x1="203" y1="-35.63084" x2="203" y2="182.36916" gradientUnits="userSpaceOnUse" id="color-1"><stop offset="0" stop-color="#fffaea"/><stop offset="1" stop-color="#c7c7c7"/></linearGradient><linearGradient x1="15.16277" y1="196.60767" x2="62.62426" y2="193.40926" gradientUnits="userSpaceOnUse" id="color-2"><stop offset="0" stop-color="#fffaea"/><stop offset="1" stop-color="#fffaea" stop-opacity="0"/></linearGradient><linearGradient x1="416.16277" y1="200.60766" x2="463.62426" y2="197.40926" gradientUnits="userSpaceOnUse" id="color-3"><stop offset="0" stop-color="#fffaea"/><stop offset="1" stop-color="#fffaea" stop-opacity="0"/></linearGradient></defs><g transform="translate(179.27649,86.36915)"><g data-paper-data="{&quot;isPaintingLayer&quot;:true}" fill-rule="nonzero" stroke-linejoin="miter" stroke-miterlimit="10" stroke-dasharray="" stroke-dashoffset="0" style="mix-blend-mode: normal"><path d="M-179.27649,383.33335v-406.66667h838.55298v406.66667z" fill="#fffaea" stroke="none" stroke-width="0" stroke-linecap="butt"/><path d="M55,444.36916l152,-530.39973c0,0 44.03503,-1.66848 45.57763,2.40214c13.53439,35.71461 180.42237,529.99759 180.42237,529.99759z" fill="url(#color-1)" stroke="none" stroke-width="0" stroke-linecap="butt"/><g fill="#2b2821" stroke="#2b2821" stroke-width="1.5"><path d="M120.4935,427.50004v-184.90911h239.013v184.90911z" stroke-linecap="butt"/><path d="M122.23052,238.92212l19.10714,-34.487l191.76624,-2.93506l24.31818,37.42208z" stroke-linecap="round"/></g><g fill="#2b2821" stroke="#2b2821" stroke-width="1.5"><path d="M336.4935,424.50004v-130.09092h239.013v130.09092z" stroke-linecap="butt"/><path d="M338.23052,291.82795l19.10714,-24.26299l191.76624,-2.06493l24.31818,26.32792z" stroke-linecap="round"/></g><g fill="#2b2821" stroke="#2b2821" stroke-width="1.5"><path d="M-90.5065,422.50004v-130.09092h239.013v130.09092z" stroke-linecap="butt"/><path d="M-88.76948,289.82795l19.10714,-24.26299l191.76624,-2.06493l24.31818,26.32792z" stroke-linecap="round"/></g><g stroke="none" stroke-linecap="butt"><path d="M8.43096,211.84442c0,0 0.79057,2.37171 -1.58114,3.16228c-2.37171,0.79057 -3.16228,-1.58114 -3.16228,-1.58114c-0.06045,-0.18223 -0.12089,-0.36446 -0.18134,-0.54669c-1.17141,0.01604 -2.43485,-0.38441 -3.53288,-0.74205c-1.71776,-0.55949 -5.39749,-4.70982 -6.5823,-6.14858c-5.63679,-6.84494 -10.06245,-15.37358 -9.32628,-24.51882c0.59241,-7.35946 4.92234,-17.23953 14.28894,-14.20485c1.63675,0.53029 2.83274,1.95354 4.24911,2.9303c0.30824,1.86436 1.67758,3.85984 0.92473,5.59306c-0.65882,1.51677 -2.92494,1.5442 -4.37232,2.34403c-2.13362,1.17907 -3.96453,2.37342 -4.098,5.10413c-0.33863,6.92834 4.74976,12.81629 7.64699,18.60937l1.41622,2.12434c0.13961,0.20295 0.25003,0.42755 0.32518,0.66773c0.03767,-0.00169 0.07557,-0.00254 0.11366,-0.00254c1.22888,0 2.25067,0.88665 2.46053,2.05512l0.46793,2.33967c0.31441,0.93821 0.62883,1.87642 0.94324,2.81464zM-0.90902,173.48205c0.14532,-0.05269 -0.06674,-0.15354 -0.28339,-0.25499c-0.00451,0.12462 -0.01814,0.2469 -0.04024,0.36622c0.10886,-0.03553 0.21681,-0.0725 0.32364,-0.11123z" fill="#ffe600" stroke-width="0.5"/><path d="M50.55402,233.37987c1.67606,-1.35959 3.273,0.23736 3.273,0.23736l-0.24081,0.97557c1.38678,-0.13314 2.75484,-0.22764 3.63627,0.68299c1.21911,1.25949 -0.03563,3.51243 -0.24315,5.25297c-0.33604,2.81843 -1.07649,5.59743 -1.1713,8.43425c-0.08261,2.47189 0.3792,4.95102 0.19337,7.4173c-0.17416,2.31146 0.39489,5.05218 -1.03505,6.87659c-0.95953,1.22423 -3.1012,0.24584 -4.65101,0.37809c-2.74459,0.2342 -5.49043,0.45704 -8.23095,0.73482c-1.43398,0.14535 -2.87995,0.77513 -4.29489,0.50059c-1.68689,-0.3273 -3.84868,-0.71266 -4.64522,-2.23523c-0.41156,-0.78668 0.66895,-6.36082 0.62745,-8.28195c-0.12877,-5.9608 -0.9548,-11.29844 -2.83419,-16.92764c0,0 -0.79057,-2.37171 1.58114,-3.16228c0.85863,-0.28621 1.51001,-0.15795 1.99169,0.12218c0.01626,-0.00031 0.03255,-0.00047 0.04888,-0.00047c0.07985,0 0.15881,0.00375 0.23674,0.01107l2.97087,0.24757l-0.02772,0.33254c4.23936,-0.69448 8.49589,-0.9592 12.81486,-1.59629z" fill="#ffe600" stroke-width="0.5"/><path d="M84.69569,192.9098c1.64878,-3.75476 3.29661,-7.28812 5.26653,-10.93122c0.7048,-1.30345 1.30838,-2.65937 1.9353,-4.00202c0.15393,-0.32966 0.61679,-0.71622 0.40636,-1.01301c-2.19054,-3.08972 -5.76053,4.52217 -7.57239,-2.75447c-2.17711,-8.74348 9.59428,-10.11368 13.90296,-6.51542c4.43592,3.70453 2.07045,9.73017 0.41315,14.11601c-1.96071,5.18876 -3.96744,9.29892 -7.21023,13.7871c-1.41292,1.95556 -2.22824,4.46839 -4.14538,5.93302c-0.07136,0.05451 -0.14323,0.10827 -0.21557,0.16129l0.02855,0.03092l-3.24464,2.99505c-0.44619,0.41448 -1.04403,0.66795 -1.70106,0.66795c-1.38071,0 -2.5,-1.11929 -2.5,-2.5c0,-0.14096 0.01166,-0.27918 0.03409,-0.41378l0.3953,-2.64142l0.05375,0.00805l-0.02596,-0.16109c0.4618,-1.65528 0.92361,-3.31056 1.38541,-4.96584c0,0 0.6199,-2.21391 2.79385,-1.80112z" fill="#ffe600" stroke-width="0.5"/><path d="M52.51129,231.46797c-5.65423,0.46724 -11.13694,0.16605 -16.8275,0.41392c-5.88134,0.25618 -13.21552,-0.62414 -17.97779,-4.57867c-4.86831,-4.04259 -5.8622,-11.65726 -7.10264,-17.45069c-0.67987,-4.0904 -2.08008,-8.05837 -2.52794,-12.18369c-0.3474,-3.20001 -0.22579,-6.47756 -0.73864,-9.66388c-0.60824,-3.77893 -1.06179,-6.72398 -0.77016,-10.5617c0.36355,-4.78421 -0.86341,-9.41016 4.20223,-12.08149c1.89168,-0.99756 4.19692,-0.64367 6.20129,-0.72518c4.76458,-0.19377 9.62098,-0.01116 14.36092,-0.49116c11.81897,-0.98492 23.71033,-0.87749 35.54326,-1.75358c3.11411,-0.23057 6.43792,-0.57975 9.55946,-0.25374c1.26487,0.1321 2.75601,-0.1209 3.75713,0.66339c5.05546,3.96055 1.72722,14.284 1.36061,19.77984c-0.80109,8.81772 -1.86822,16.93538 -4.34029,25.4968c-1.68542,5.83702 -4.52923,12.21554 -9.29515,16.22209c-3.44804,2.89865 -7.85999,5.17383 -12.13846,6.47934l-1.10034,0.5915c0,0 -1.11643,0.55821 -2.166,0.0969z" fill="#ffe600" stroke-width="0.5"/><path d="M59.05925,273.38498c-2.5,0 -2.5,-2.5 -2.5,-2.5l0.04855,-0.25971c-2.38376,-11.92039 -3.39513,-24.12307 -1.1751,-36.07214c-7.22617,2.11317 -14.77475,2.0344 -22.23797,1.85531c3.27856,10.22879 2.88793,20.57916 1.90158,31.43235l-0.61622,1.53414c0,0 -1.23995,2.17084 -3.41079,0.93088c-2.17083,-1.23995 -0.93089,-3.41078 -0.93089,-3.41078l-0.02157,0.49308c1.00085,-11.00598 1.49926,-21.52687 -2.53915,-31.88654c-3.3932,-0.79221 -7.05976,-1.88022 -9.48476,-3.84177c-3.53826,-2.86205 -5.77003,-6.94759 -7.72393,-11.00145c-1.89719,0.97741 -3.13987,-0.88662 -3.13987,-0.88662l0.86176,0.25782c-13.80199,-4.17151 -24.37143,-15.27814 -26.50967,-29.86635c-0.79577,-5.42919 -0.12422,-10.80646 1.66437,-15.89965c0.65208,-1.85688 0.75899,-4.05071 2.04864,-5.53733c2.66205,-3.06865 7.71141,-4.05475 11.48378,-3.83165c2.55772,0.15127 4.20239,1.0277 5.9139,2.20707l0.54617,-1.64514c0,0 0.5985,-1.49625 2.03576,-1.60564c0.61051,-0.74779 1.58822,-0.92557 1.58822,-0.92557c4.32465,-0.77834 8.66628,-0.79757 13.04892,-1.03601c13.66946,-0.74371 27.20207,-0.41069 40.87444,-0.52701c4.99078,-0.04246 9.93561,-0.30347 14.9298,-0.26547c2.146,0.01633 4.6849,-1.28307 6.43803,-0.0453c1.07527,0.75918 1.72898,1.95328 2.1226,3.32889c0.95861,-0.44918 2.21446,-0.72771 4.07836,-0.85048c1.94215,-0.12794 3.74968,1.04623 5.61521,1.60132c5.6769,1.68917 9.75999,1.5668 10.58637,8.62193c0.17375,1.48337 -0.50456,2.94459 -0.80254,4.40807c-0.96042,4.71694 -2.59645,8.59416 -4.8935,12.81034c-2.93009,5.37807 -6.64062,11.51271 -11.01727,15.91558c-2.9776,2.99543 -6.20882,5.74 -9.12907,8.85535l-1.11863,1.1423c0,0 -0.11147,0.11373 -0.30684,0.25566c-0.81418,1.41968 -1.72469,2.79466 -2.74378,4.11711c-2.25758,2.92961 -5.84732,5.65102 -8.82433,7.69143c-1.55121,1.06318 -3.06521,2.2344 -4.66988,3.2221c-3.01372,12.35662 -2.01488,25.09698 0.46076,37.47356l0.04855,1.24029c0,0 0,2.5 -2.5,2.5zM85.94122,173.89892c3.88385,-1.46519 7.1282,-3.82798 7.54305,3.17211c0.12015,2.02741 -1.07255,3.93273 -1.88617,5.79361c-1.81918,4.16071 -4.82464,8.37959 -7.13653,12.29217c0,0 -0.32871,0.55628 -0.93471,0.93612c-0.3895,3.29189 -0.942,6.54597 -1.75239,9.7015c0.84289,-0.79591 1.68012,-1.59606 2.50158,-2.41164c4.06439,-4.03531 7.48649,-9.84755 10.19421,-14.80545c2.31602,-4.24069 4.93055,-9.55617 5.09247,-14.56055c0.11431,-3.53275 -4.43286,-3.23941 -7.083,-4.11261c-3.46083,-1.14031 -5.42161,-2.01738 -7.63873,0.75328c-0.01244,0.85167 -0.03601,1.63401 -0.03245,2.287c-0.02381,0.50146 -0.04606,1.00562 -0.06713,1.51225c0.39086,-0.20668 0.78671,-0.40196 1.1998,-0.55779zM87.05912,180.76755c0.34452,-0.69606 0.56195,-1.44967 0.81398,-2.1869c-0.69761,0.43782 -1.53789,0.71145 -2.19582,1.04041l-1.13386,0.32949c-0.06481,1.91334 -0.13247,3.84786 -0.22229,5.79121c0.97449,-1.64347 1.90983,-3.301 2.73799,-4.97421zM7.7607,178.89469c0.13059,0.65299 0.05248,1.16682 -0.13244,1.56931c0.37012,6.09721 1.13546,12.18597 1.91727,18.21355c0.27889,2.15016 0.55157,4.25314 0.90422,6.32002c0.0154,0.01882 0.03079,0.03764 0.04616,0.05648c0,0 0.99192,1.2151 0.44187,2.50604c0.61438,2.8853 1.46073,5.70756 2.78326,8.49823c1.8698,3.94546 3.79879,8.68751 7.30454,11.55185c1.91624,1.56564 4.95439,2.43584 7.74518,3.071c0.92149,-0.24665 1.59966,0.0546 2.06137,0.44712c0.44506,0.09421 0.87233,0.18492 1.27475,0.27447c8.08186,0.11745 16.2411,0.50957 24.01588,-2.33575c0.23789,-0.08706 0.47187,-0.18237 0.70243,-0.28486c0.29882,-0.6067 1.01714,-1.59672 2.46969,-1.39645c1.22372,-0.81685 2.39371,-1.7404 3.60381,-2.56477c2.63228,-1.79324 5.80805,-4.19368 7.80869,-6.76945c9.52967,-12.26923 8.402,-30.55647 9.10259,-45.22597c0.00481,-0.73661 0.03126,-1.47373 0.04784,-2.21062c-0.14229,-0.47171 -0.09443,-0.92821 0.01255,-1.304c-0.00285,-0.34583 -0.01198,-0.69152 -0.03066,-1.03698c-0.05545,-1.02552 0.45903,-2.55419 -0.44073,-3.04937c-1.05886,-0.58273 -2.31588,0.76575 -3.52003,0.86961c-4.82213,0.41593 -10.18817,0.22659 -15.051,0.26797c-13.59622,0.11567 -27.05233,-0.21974 -40.64534,0.5198c-4.16687,0.22671 -8.31734,0.20719 -12.42612,0.96275c0,0 -0.07715,0.01403 -0.2066,0.02345c-0.19886,3.41586 -0.19087,6.84051 -0.04306,10.26462c0.10783,0.21552 0.19501,0.46752 0.2539,0.76197zM1.11412,181.33994c-5.08761,0.01344 -2.53491,5.35609 -1.56573,8.26007c1.02426,3.06902 2.81889,5.76357 4.8563,8.30951c-0.68733,-5.34679 -1.33111,-10.73311 -1.69492,-16.12885c-0.52125,-0.21807 -1.04161,-0.44219 -1.59565,-0.44073zM-6.5654,185.77126c-0.09349,-2.25541 -0.53107,-4.94393 0.86684,-6.71635c2.64405,-3.3524 5.32192,-3.06699 8.15484,-2.38874c-0.03673,-1.21402 -0.05554,-2.42804 -0.05372,-3.64171c-1.12516,-0.81088 -2.183,-1.73223 -3.40882,-2.3779c-2.55156,-1.34399 -7.91318,-1.2124 -9.85881,1.28106c-0.84109,1.07792 -0.73486,2.63457 -1.15245,3.93648c-1.42359,4.43836 -2.14857,8.8362 -1.45414,13.57399c1.76106,12.01484 10.11892,21.26891 21.21738,25.22065c-0.87018,-2.45174 -1.48363,-4.93071 -1.96549,-7.45786c-5.23807,-6.22226 -11.98894,-12.8243 -12.34564,-21.42961z" fill="#fff200" stroke-width="0.5"/><path d="M23.01868,264.76328c0.05574,-0.01858 0.1106,-0.03541 0.16461,-0.05057c0.65815,-0.97924 1.94784,-1.07137 1.94784,-1.07137c10.08933,-0.71874 20.0924,-1.91888 30.21927,-1.75601c3.13174,0.05036 6.26106,-0.22785 9.39313,-0.24948c1.34226,-0.00926 2.81246,-0.39172 4.02243,0.18944c4.2843,2.05776 3.83765,5.94319 3.54329,9.8097c-0.10179,1.33706 0.37174,2.96854 -0.49427,3.99232c-1.01295,1.19749 -2.81922,1.49576 -4.3663,1.75378c-1.03728,0.173 -2.06645,-0.41331 -3.11395,-0.50621c-2.4708,-0.21913 -4.9603,0.09248 -7.43942,0.17529c-8.34264,0.27757 -16.67269,1.10399 -25.00805,1.3336c-1.62332,0.04471 -3.24788,-0.0118 -4.87181,-0.00731c-1.55736,0.00432 -3.47493,1.02996 -4.67198,0.03374c-2.787,-2.31944 -1.3133,-8.10731 -0.73567,-11.01551l-0.17026,0.53086c0,0 -0.79057,-2.37171 1.58114,-3.16228z" fill="#ffc100" stroke-width="0.5"/><path d="M73.95884,214.00818c-16.01732,25.85613 -44.68435,16.4484 -44.68435,16.4484c0,0 -12.159,4.96146 -19.09818,-29.60612c-2.1775,-10.84723 -2.33285,-33.3417 -2.33285,-33.3417l72.37943,-2.9484c0,0 9.24241,24.41635 -6.26404,49.44782z" fill="url(#color-2)" stroke-width="0"/></g><g stroke="none" stroke-linecap="butt"><path d="M409.43096,215.84442c0,0 0.79057,2.37171 -1.58114,3.16228c-2.37171,0.79057 -3.16228,-1.58114 -3.16228,-1.58114c-0.06045,-0.18223 -0.12089,-0.36446 -0.18134,-0.54669c-1.17141,0.01603 -2.43484,-0.38441 -3.53287,-0.74205c-1.71776,-0.55949 -5.39749,-4.70983 -6.5823,-6.14858c-5.63678,-6.84494 -10.06244,-15.37358 -9.32628,-24.51882c0.59241,-7.35946 4.92235,-17.23953 14.28894,-14.20485c1.63675,0.53029 2.83274,1.95353 4.24911,2.9303c0.30825,1.86435 1.67758,3.85985 0.92473,5.59306c-0.65883,1.51676 -2.92494,1.5442 -4.37232,2.34403c-2.13362,1.17907 -3.96453,2.37342 -4.098,5.10413c-0.33863,6.92834 4.74976,12.8163 7.64699,18.60937l1.41622,2.12433c0.13961,0.20295 0.25002,0.42755 0.32518,0.66773c0.03768,-0.00169 0.07556,-0.00254 0.11365,-0.00254c1.22888,0 2.25067,0.88665 2.46054,2.05513l0.46794,2.33966c0.31441,0.93822 0.62883,1.87642 0.94324,2.81464zM400.09098,177.48204c0.14532,-0.05269 -0.06675,-0.15354 -0.2834,-0.25499c-0.00451,0.12462 -0.01814,0.2469 -0.04024,0.36622c0.10886,-0.03554 0.21681,-0.0725 0.32364,-0.11123z" fill="#ffe600" stroke-width="0.5"/><path d="M451.55402,237.37987c1.67606,-1.35959 3.273,0.23736 3.273,0.23736l-0.24081,0.97557c1.38677,-0.13314 2.75484,-0.22764 3.63627,0.68299c1.21911,1.25949 -0.03563,3.51243 -0.24315,5.25297c-0.33603,2.81844 -1.07649,5.59744 -1.17129,8.43425c-0.0826,2.47189 0.37919,4.95102 0.19336,7.4173c-0.17416,2.31146 0.39489,5.05218 -1.03505,6.87658c-0.95953,1.22423 -3.10119,0.24585 -4.65102,0.3781c-2.74458,0.2342 -5.49042,0.45704 -8.23095,0.73482c-1.43397,0.14535 -2.87995,0.77513 -4.29489,0.50059c-1.68689,-0.32731 -3.84868,-0.71267 -4.64522,-2.23523c-0.41156,-0.78669 0.66895,-6.36082 0.62744,-8.28196c-0.12877,-5.96079 -0.9548,-11.29844 -2.83419,-16.92764c0,0 -0.79057,-2.37171 1.58114,-3.16228c0.85863,-0.28621 1.51002,-0.15795 1.99169,0.12218c0.01626,-0.00031 0.03255,-0.00047 0.04888,-0.00047c0.07984,0 0.15881,0.00375 0.23674,0.01107l2.97087,0.24757l-0.02772,0.33254c4.23936,-0.69448 8.49589,-0.9592 12.81487,-1.59629z" fill="#ffe600" stroke-width="0.5"/><path d="M485.69569,196.90979c1.64878,-3.75476 3.29661,-7.28812 5.26653,-10.93122c0.7048,-1.30345 1.30839,-2.65937 1.9353,-4.00202c0.15393,-0.32966 0.61679,-0.71622 0.40636,-1.01302c-2.19055,-3.08972 -5.76053,4.52217 -7.5724,-2.75446c-2.17711,-8.74347 9.59429,-10.11368 13.90296,-6.51542c4.43592,3.70452 2.07045,9.73017 0.41314,14.11601c-1.96071,5.18876 -3.96744,9.29892 -7.21023,13.7871c-1.41292,1.95556 -2.22824,4.46839 -4.14538,5.93302c-0.07136,0.05452 -0.14323,0.10827 -0.21557,0.16129l0.02855,0.03092l-3.24464,2.99505c-0.44619,0.41448 -1.04403,0.66795 -1.70106,0.66795c-1.38071,0 -2.5,-1.11929 -2.5,-2.5c0,-0.14095 0.01166,-0.27919 0.03409,-0.41378l0.3953,-2.64141l0.05375,0.00804l-0.02596,-0.16109c0.46181,-1.65528 0.92361,-3.31055 1.38541,-4.96583c0,0 0.6199,-2.21391 2.79385,-1.80112z" fill="#ffe600" stroke-width="0.5"/><path d="M453.51129,235.46796c-5.65423,0.46724 -11.13694,0.16605 -16.8275,0.41392c-5.88135,0.25618 -13.21552,-0.62414 -17.97779,-4.57867c-4.86831,-4.04259 -5.8622,-11.65726 -7.10264,-17.45069c-0.67987,-4.0904 -2.08009,-8.05837 -2.52794,-12.18369c-0.3474,-3.20001 -0.22578,-6.47756 -0.73864,-9.66388c-0.60824,-3.77893 -1.06179,-6.72398 -0.77016,-10.5617c0.36355,-4.78421 -0.86341,-9.41015 4.20223,-12.08148c1.89168,-0.99757 4.19692,-0.64367 6.20129,-0.72519c4.76459,-0.19377 9.62098,-0.01116 14.36092,-0.49115c11.81897,-0.98492 23.71034,-0.8775 35.54327,-1.75359c3.11411,-0.23057 6.43792,-0.57976 9.55947,-0.25375c1.26487,0.1321 2.75601,-0.1209 3.75713,0.66339c5.05547,3.96055 1.72722,14.284 1.36062,19.77984c-0.80109,8.81772 -1.86822,16.93538 -4.34029,25.4968c-1.68542,5.83703 -4.52923,12.21554 -9.29516,16.22209c-3.44804,2.89865 -7.86,5.17383 -12.13846,6.47934l-1.10034,0.5915c0,0 -1.11643,0.55821 -2.16599,0.0969z" fill="#ffe600" stroke-width="0.5"/><path d="M460.05925,277.38498c-2.5,0 -2.5,-2.5 -2.5,-2.5l0.04855,-0.25971c-2.38376,-11.92039 -3.39513,-24.12307 -1.1751,-36.07214c-7.22617,2.11317 -14.77476,2.0344 -22.23798,1.85531c3.27856,10.22879 2.88793,20.57916 1.90158,31.43235l-0.61622,1.53414c0,0 -1.23995,2.17084 -3.41079,0.93088c-2.17084,-1.23995 -0.93088,-3.41079 -0.93088,-3.41079l-0.02157,0.49308c1.00085,-11.00598 1.49926,-21.52687 -2.53915,-31.88654c-3.3932,-0.79221 -7.05976,-1.88022 -9.48476,-3.84177c-3.53827,-2.86205 -5.77003,-6.94759 -7.72393,-11.00145c-1.89719,0.97741 -3.13987,-0.88662 -3.13987,-0.88662l0.86176,0.25782c-13.80199,-4.17151 -24.37143,-15.27815 -26.50968,-29.86635c-0.79578,-5.42919 -0.12422,-10.80646 1.66437,-15.89965c0.65209,-1.85688 0.759,-4.05071 2.04863,-5.53733c2.66205,-3.06865 7.71141,-4.05475 11.48378,-3.83165c2.55772,0.15127 4.20239,1.0277 5.9139,2.20707l0.54617,-1.64514c0,0 0.5985,-1.49625 2.03576,-1.60563c0.61051,-0.74779 1.58822,-0.92557 1.58822,-0.92557c4.32464,-0.77834 8.66628,-0.79756 13.04892,-1.03601c13.66945,-0.74371 27.20207,-0.41069 40.87444,-0.52701c4.99078,-0.04246 9.93561,-0.30348 14.9298,-0.26547c2.146,0.01633 4.68489,-1.28307 6.43803,-0.0453c1.07527,0.75918 1.72898,1.95328 2.1226,3.32889c0.95861,-0.44918 2.21446,-0.72771 4.07836,-0.85049c1.94215,-0.12794 3.74968,1.04623 5.61522,1.60133c5.6769,1.68917 9.75999,1.56681 10.58637,8.62193c0.17375,1.48337 -0.50456,2.94459 -0.80255,4.40807c-0.96042,4.71695 -2.59645,8.59416 -4.8935,12.81033c-2.93008,5.37807 -6.64062,11.51272 -11.01727,15.91559c-2.9776,2.99543 -6.20882,5.74 -9.12907,8.85535l-1.11862,1.1423c0,0 -0.11147,0.11373 -0.30683,0.25566c-0.81418,1.41968 -1.72469,2.79466 -2.74378,4.11711c-2.25758,2.92961 -5.84731,5.65102 -8.82433,7.69143c-1.5512,1.06318 -3.06521,2.2344 -4.66988,3.2221c-3.01372,12.35662 -2.01488,25.09698 0.46076,37.47356l0.04855,1.24029c0,0 0,2.5 -2.5,2.5zM486.94122,177.89892c3.88384,-1.46519 7.1282,-3.82798 7.54305,3.17211c0.12015,2.02741 -1.07255,3.93273 -1.88617,5.79361c-1.81918,4.16071 -4.82464,8.37959 -7.13653,12.29217c0,0 -0.32871,0.55627 -0.93471,0.93612c-0.3895,3.29189 -0.942,6.54597 -1.75239,9.7015c0.84289,-0.79591 1.68012,-1.59605 2.50158,-2.41163c4.06439,-4.03531 7.48649,-9.84755 10.19421,-14.80546c2.31602,-4.24069 4.93055,-9.55617 5.09247,-14.56055c0.11431,-3.53275 -4.43286,-3.23941 -7.083,-4.11261c-3.46083,-1.14031 -5.42161,-2.01737 -7.63873,0.75329c-0.01244,0.85166 -0.03601,1.63401 -0.03245,2.28699c-0.02381,0.50146 -0.04606,1.00562 -0.06713,1.51225c0.39086,-0.20668 0.78671,-0.40195 1.1998,-0.55779zM488.05912,184.76755c0.34452,-0.69606 0.56195,-1.44966 0.81398,-2.1869c-0.69762,0.43782 -1.53788,0.71144 -2.19582,1.04041l-1.13386,0.32949c-0.06481,1.91334 -0.13247,3.84786 -0.22229,5.79121c0.97449,-1.64347 1.90983,-3.301 2.73799,-4.97421zM408.7607,182.89469c0.13059,0.65299 0.05247,1.16682 -0.13244,1.56931c0.37012,6.09721 1.13546,12.18597 1.91726,18.21355c0.27889,2.15016 0.55157,4.25313 0.90422,6.32002c0.0154,0.01882 0.03079,0.03764 0.04616,0.05648c0,0 0.99192,1.2151 0.44187,2.50604c0.61438,2.8853 1.46073,5.70757 2.78326,8.49823c1.8698,3.94546 3.79879,8.68751 7.30453,11.55185c1.91624,1.56564 4.95439,2.43584 7.74518,3.071c0.92148,-0.24665 1.59966,0.0546 2.06137,0.44712c0.44506,0.09421 0.87234,0.18492 1.27475,0.27447c8.08186,0.11745 16.2411,0.50957 24.01588,-2.33575c0.23789,-0.08706 0.47187,-0.18237 0.70242,-0.28486c0.29882,-0.6067 1.01714,-1.59672 2.4697,-1.39645c1.22372,-0.81685 2.3937,-1.7404 3.6038,-2.56477c2.63228,-1.79324 5.80805,-4.19368 7.8087,-6.76945c9.52967,-12.26923 8.402,-30.55647 9.10258,-45.22597c0.00481,-0.73661 0.03126,-1.47373 0.04784,-2.21062c-0.14229,-0.47171 -0.09443,-0.92822 0.01255,-1.30401c-0.00284,-0.34583 -0.01198,-0.69152 -0.03066,-1.03698c-0.05545,-1.02552 0.45903,-2.55419 -0.44073,-3.04936c-1.05886,-0.58273 -2.31588,0.76575 -3.52002,0.86961c-4.82213,0.41592 -10.18817,0.2266 -15.051,0.26797c-13.59622,0.11568 -27.05233,-0.21974 -40.64535,0.5198c-4.16686,0.22671 -8.31734,0.20719 -12.42612,0.96275c0,0 -0.07715,0.01403 -0.2066,0.02345c-0.19886,3.41586 -0.19087,6.84051 -0.04307,10.26461c0.10783,0.21552 0.19501,0.46752 0.2539,0.76197zM402.11412,185.33994c-5.08762,0.01344 -2.53492,5.35608 -1.56573,8.26007c1.02427,3.06902 2.81889,5.76357 4.8563,8.30951c-0.68733,-5.34679 -1.33111,-10.73311 -1.69492,-16.12884c-0.52125,-0.21807 -1.04161,-0.44219 -1.59565,-0.44073zM394.4346,189.77126c-0.09349,-2.25541 -0.53107,-4.94393 0.86685,-6.71635c2.64405,-3.3524 5.32191,-3.067 8.15483,-2.38874c-0.03673,-1.21402 -0.05554,-2.42804 -0.05372,-3.64171c-1.12516,-0.81088 -2.18301,-1.73223 -3.40882,-2.3779c-2.55156,-1.34399 -7.91317,-1.2124 -9.85881,1.28106c-0.84109,1.07791 -0.73486,2.63458 -1.15245,3.93648c-1.42359,4.43836 -2.14857,8.8362 -1.45414,13.57399c1.76106,12.01484 10.11892,21.26891 21.21738,25.22065c-0.87018,-2.45174 -1.48363,-4.93071 -1.96549,-7.45786c-5.23807,-6.22226 -11.98894,-12.8243 -12.34564,-21.42961z" fill="#fff200" stroke-width="0.5"/><path d="M424.01868,268.76328c0.05574,-0.01858 0.1106,-0.03541 0.16461,-0.05057c0.65814,-0.97924 1.94784,-1.07137 1.94784,-1.07137c10.08933,-0.71874 20.0924,-1.91888 30.21927,-1.75601c3.13174,0.05036 6.26106,-0.22785 9.39313,-0.24948c1.34226,-0.00927 2.81246,-0.39171 4.02243,0.18944c4.2843,2.05776 3.83765,5.94319 3.54329,9.8097c-0.10179,1.33707 0.37174,2.96854 -0.49427,3.99233c-1.01295,1.19749 -2.81922,1.49576 -4.3663,1.75378c-1.03728,0.173 -2.06645,-0.41331 -3.11395,-0.50621c-2.4708,-0.21913 -4.9603,0.09248 -7.43942,0.17529c-8.34264,0.27757 -16.67269,1.10399 -25.00805,1.3336c-1.62333,0.04471 -3.24788,-0.0118 -4.87181,-0.0073c-1.55736,0.00432 -3.47493,1.02996 -4.67198,0.03373c-2.78701,-2.31944 -1.3133,-8.10731 -0.73567,-11.0155l-0.17026,0.53086c0,0 -0.79057,-2.37171 1.58114,-3.16228z" fill="#ffc100" stroke-width="0.5"/><path d="M474.95884,218.00817c-16.01732,25.85613 -44.68435,16.4484 -44.68435,16.4484c0,0 -12.159,4.96146 -19.09818,-29.60612c-2.1775,-10.84723 -2.33285,-33.3417 -2.33285,-33.3417l72.37942,-2.9484c0,0 9.24242,24.41635 -6.26404,49.44782z" fill="url(#color-3)" stroke-width="0"/></g><text transform="translate(148,276.70743) scale(0.625,0.625)" font-size="40" xml:space="preserve" fill="#aa8f3a" fill-rule="nonzero" stroke="none" stroke-width="1" stroke-linecap="butt" stroke-linejoin="miter" stroke-miterlimit="10" stroke-dasharray="" stroke-dashoffset="0" font-family="Pixel" font-weight="normal" text-anchor="start" style="mix-blend-mode: normal"><tspan x="0" dy="0">Achievements</tspan></text><path d="M30.5625,223.03125c-2.5,0 -2.5,-2.5 -2.5,-2.5v-2c0,-17.84565 -1.13823,-35.5887 -1.24239,-53.43246c-0.38761,-0.00899 -0.77631,-0.01487 -1.16591,-0.01799c-0.40481,0.05147 -0.8087,0.10843 -1.21155,0.17138l-2.08782,0.46954c0,0 -1.34026,0.29783 -2.25505,-0.54115c-1.04388,0.03823 -2.08758,0.08328 -3.12745,0.12812c-0.2764,8.25638 0.08259,16.47394 0.09017,24.72257v1c0,0 0,2.5 -2.5,2.5c-2.5,0 -2.5,-2.5 -2.5,-2.5v-1c0.00813,-8.18611 -0.34863,-16.34283 -0.09752,-24.5362c-0.89249,0.02256 -1.77747,0.0362 -2.65248,0.0362c0,0 -2.5,0 -2.5,-2.5c0,-2.5 2.5,-2.5 2.5,-2.5c5.13297,0 10.55509,-0.42333 15.85903,-0.42266c6.31133,-0.75636 12.7873,-0.32734 19.14097,-0.32734c7.89728,0 16.01384,-0.55221 23.83006,0.52188c2.50426,0.34413 6.85082,-0.73419 9.03298,0.25462c0.11203,0.05077 0.22217,0.10466 0.3306,0.16138l0.02473,-0.08245l2.4462,0.73386c1.05813,0.29104 1.83543,1.2601 1.83543,2.41071c0,1.38071 -1.11929,2.5 -2.5,2.5h-2.5c-4.82838,0 -9.7246,-0.24614 -14.52974,0.24028c-7.63823,0.58374 -16.04308,0.92486 -23.67646,0.2512c-2.06799,-0.1825 -4.04138,-0.98629 -6.09926,-1.26021c-0.22754,-0.03028 -0.45585,-0.05871 -0.6849,-0.08533c0.11605,17.73292 1.24036,35.36731 1.24036,53.10406v2c0,0 0,2.5 -2.5,2.5z" fill="#aa0000" stroke="none" stroke-width="0.5" stroke-linecap="butt"/><path d="M474.31034,169.67735c0.32792,5.61169 -0.41821,11.51209 0.2361,17.07101c0.49202,4.18007 1.39626,7.74262 0.9684,12.01869c-0.93185,3.1144 -2.48026,9.6628 -7.41711,8.72062c-1.62601,-0.31032 -2.81893,-2.00751 -3.51253,-3.51055c-0.81167,-1.75891 -0.56894,-3.83367 -0.76585,-5.76079c-0.38551,-3.77302 -0.35529,-7.71488 -0.24388,-11.50426c0.04692,-1.59599 0.28677,-3.18791 0.24134,-4.78394c-0.01726,-0.60638 -0.13748,-1.20449 -0.25304,-1.80288c-1.07706,1.15261 -2.41238,2.1721 -3.88953,2.15218c-1.73048,-0.02334 -3.00519,-1.8752 -4.03725,-3.26443c-0.71036,-0.95619 -0.5636,-2.31804 -0.94768,-3.4456c-0.84147,-2.47036 -1.54546,-4.89162 -2.46225,-7.29701c-0.82745,0.00079 -1.69046,0.01155 -2.66457,0.01087c-4.20906,-0.00291 -13.52045,-0.06737 -7.24233,-7.50573c1.01423,-1.20167 8.14193,-0.49427 9.74233,-0.49427c5.97229,0 12.51637,-0.8544 18.35263,0.57372c0.65412,0.16006 1.27689,0.29066 1.86714,0.42628c1.42674,0 2.85349,0 4.28023,0h3c1.38071,0 2.5,1.11929 2.5,2.5c0,1.16178 -0.79247,2.13847 -1.86634,2.41899l-2.06941,0.59126c-0.71634,0.98975 -2.06425,0.98975 -2.06425,0.98975h-0.25c-0.51088,0 -1.02176,0.00007 -1.53263,0.00007c0.00811,0.64708 -0.00485,1.29159 0.03047,1.89603z" fill="#a60000" stroke="none" stroke-width="0.5" stroke-linecap="butt"/><path d="M316.3125,217.90625c0,4.76346 -35.42547,8.625 -79.125,8.625c-43.69953,0 -79.125,-3.86154 -79.125,-8.625c0,-4.76346 35.42547,-8.625 79.125,-8.625c43.69953,0 79.125,3.86154 79.125,8.625z" fill="#585858" stroke="none" stroke-width="0" stroke-linecap="butt"/></g></g></svg>