<svg version="1.1" xmlns="http://www.w3.org/2000/svg" xmlns:xlink="http://www.w3.org/1999/xlink" width="838.55298" height="796.11287" viewBox="0,0,838.55298,796.11287"><defs><linearGradient x1="192.09349" y1="-2.32616" x2="192.09349" y2="318.38969" gradientUnits="userSpaceOnUse" id="color-1"><stop offset="0" stop-color="#fffaea"/><stop offset="1" stop-color="#c7c7c7" stop-opacity="0"/></linearGradient></defs><g transform="translate(167.27649,89.33329)"><g data-paper-data="{&quot;isPaintingLayer&quot;:true}" fill-rule="nonzero" stroke-linejoin="miter" stroke-miterlimit="10" stroke-dasharray="" stroke-dashoffset="0" style="mix-blend-mode: normal"><path d="M-167.27649,317.33338v-406.66667h838.55298v406.66667z" fill="#a7a7a7" stroke="none" stroke-width="0" stroke-linecap="butt"/><path d="M120.4935,427.50007v-184.10725h239.013v184.10725z" fill="#2b2821" stroke="#2b2821" stroke-width="1.5" stroke-linecap="butt"/><path d="M122.23052,239.73993l19.10714,-16.27384l191.76624,-1.38501l24.31818,17.65886z" fill="#2b2821" stroke="#2b2821" stroke-width="1.5" stroke-linecap="round"/><path d="M336.4935,424.50007v-130.09092h239.013v130.09092z" fill="#2b2821" stroke="#2b2821" stroke-width="1.5" stroke-linecap="butt"/><path d="M338.23052,291.82795l19.10714,-24.26299l191.76624,-2.06493l24.31818,26.32792z" fill="#2b2821" stroke="#2b2821" stroke-width="1.5" stroke-linecap="round"/><path d="M-90.5065,422.50007v-130.09092h239.013v130.09092z" fill="#2b2821" stroke="#2b2821" stroke-width="1.5" stroke-linecap="butt"/><path d="M-88.76948,289.82795l19.10714,-24.26299l191.76624,-2.06493l24.31818,26.32792z" fill="#2b2821" stroke="#2b2821" stroke-width="1.5" stroke-linecap="round"/><path d="M-27.04114,703.83724l225.05719,-780.31016c0,0 65.2,-2.45463 67.48404,3.53396c20.03955,52.5424 267.14047,779.71854 267.14047,779.71854z" fill="url(#color-1)" stroke="none" stroke-width="0" stroke-linecap="butt"/><path d="M13.5,116.50249v-107h79v107z" fill="#1f1005" stroke="none" stroke-width="0" stroke-linecap="butt"/><path d="M20.5,109.50249v-95h65v95z" fill="#bbafa7" stroke="none" stroke-width="0" stroke-linecap="butt"/><path d="M432.5,200.50248v-107h79v107z" fill="#1f1005" stroke="none" stroke-width="0" stroke-linecap="butt"/><path d="M439.5,193.50248v-95h65v95z" fill="#bbafa7" stroke="none" stroke-width="0" stroke-linecap="butt"/><g stroke-linecap="butt"><g stroke-width="2.5"><path d="M-83.53394,289.71205l-11.3909,-21.9579l200.45885,-12.46621l11.3909,21.9579z" fill="#505050" stroke="#282828"/><path d="M104.44894,275.39286c-0.24409,-0.47052 0.6597,-0.92046 2.01866,-1.00498c1.35896,-0.08452 2.6585,0.22841 2.90258,0.69893c0.24409,0.47052 -0.6597,0.92046 -2.01866,1.00498c-1.35896,0.08452 -2.6585,-0.22841 -2.90258,-0.69893z" fill="#282828" stroke="none"/><path d="M-80.56887,287.10402c-0.24409,-0.47052 0.6597,-0.92046 2.01866,-1.00498c1.35896,-0.08452 2.6585,0.22841 2.90258,0.69893c0.24409,0.47052 -0.6597,0.92046 -2.01866,1.00498c-1.35896,0.08452 -2.6585,-0.22841 -2.90258,-0.69893z" fill="#282828" stroke="none"/><path d="M-74.04584,284.49978l-6.89459,-13.29049l42.81487,-2.66259l6.89459,13.29049z" fill="#ffffff" stroke="#282828"/><path d="M-66.58261,281.38217l-2.82855,-5.45251l23.622,-1.46901l2.82855,5.4525z" fill="#3b3b3b" stroke="none"/><path d="M-50.62996,276.22743c-2.46062,0.15302 -2.90258,-0.69893 -2.90258,-0.69893l0.12173,0.08846c-0.70839,-0.55843 -2.14906,-1.75671 -4.02605,-1.97814c-1.34073,-0.15818 -3.39747,0.52205 -3.68955,0.90745c-0.5651,0.74566 -0.11096,1.4774 0.10165,2.22474c0,0 0.23608,0.86172 -2.25274,0.94346c-2.48882,0.08175 -2.72492,-0.77998 -2.72492,-0.77998c-0.25402,-0.9595 -0.82996,-1.98376 0.13349,-2.93662c1.22983,-1.21632 5.62901,-2.42602 9.68539,-2.03497c3.58971,0.34606 5.9404,1.89189 7.33266,2.94389l0.23958,0.31565c0,0 0.44196,0.85195 -2.01866,1.00498z" fill="#3b3b3b" stroke="none"/></g><path d="M-104.08464,253.31395l-7.47341,-23.58071l199.64276,21.95282l7.47341,23.58071z" fill="#505050" stroke="#282828" stroke-width="3"/><path d="M83.58191,271.31028c-0.16014,-0.50529 0.80721,-0.79428 2.16064,-0.64545c1.35343,0.14882 2.58043,0.67909 2.74057,1.18439c0.16014,0.50529 -0.80721,0.79427 -2.16063,0.64545c-1.35343,-0.14882 -2.58044,-0.67909 -2.74057,-1.18438z" fill="#282828" stroke="none" stroke-width="0.5"/><path d="M-100.71771,251.25064c-0.16014,-0.50529 0.80721,-0.79427 2.16064,-0.64545c1.35343,0.14882 2.58043,0.6791 2.74057,1.18439c0.16014,0.50529 -0.80721,0.79427 -2.16064,0.64544c-1.35343,-0.14882 -2.58043,-0.67909 -2.74057,-1.18438z" fill="#282828" stroke="none" stroke-width="0.5"/><path d="M-93.84575,249.7987l-4.52344,-14.27274l42.64057,4.68877l4.52345,14.27274z" fill="#ffffff" stroke="#282828" stroke-width="2.5"/><path d="M-85.95972,248.00153l-1.85577,-5.85548l23.52584,2.58691l1.85577,5.85548z" fill="#3b3b3b" stroke="none" stroke-width="0"/><path d="M-69.36108,245.64703c-2.4506,-0.26947 -2.74057,-1.18439 -2.74057,-1.18439l0.10484,0.10796c-0.60261,-0.67121 -1.81746,-2.09793 -3.62906,-2.63668c-1.29402,-0.38483 -3.43671,-0.06587 -3.79032,0.26399c-0.68415,0.6382 -0.36165,1.43674 -0.2798,2.20942c0,0 0.08544,0.88938 -2.38077,0.54486c-2.46622,-0.34452 -2.55168,-1.2339 -2.55168,-1.2339c-0.08642,-0.98878 -0.47897,-2.09636 0.63307,-2.87067c1.41949,-0.98841 5.96064,-1.42901 9.89064,-0.35093c3.47786,0.95406 5.53001,2.87863 6.72215,4.15296l0.18215,0.35193c0,0 0.28996,0.91492 -2.16064,0.64545z" fill="#3b3b3b" stroke="none" stroke-width="0.5"/></g><g stroke-width="2.5" stroke-linecap="butt"><path d="M393.44195,279.24284l11.3909,-21.9579l200.45885,12.46622l-11.3909,21.9579z" fill="#505050" stroke="#282828"/><path d="M403.01534,278.08878c-1.35896,-0.08451 -2.26275,-0.53445 -2.01866,-1.00498c0.24408,-0.47052 1.54362,-0.78344 2.90258,-0.69893c1.35896,0.08451 2.26275,0.53445 2.01866,1.00498c-0.24408,0.47052 -1.54362,0.78344 -2.90258,0.69893z" fill="#282828" stroke="none"/><path d="M588.03315,289.79994c-1.35896,-0.08451 -2.26275,-0.53445 -2.01866,-1.00498c0.24408,-0.47052 1.54362,-0.78344 2.90258,-0.69893c1.35896,0.08451 2.26275,0.53445 2.01866,1.00498c-0.24408,0.47052 -1.54362,0.78344 -2.90258,0.69893z" fill="#282828" stroke="none"/><path d="M541.59783,283.83417l6.89459,-13.29049l42.81487,2.66259l-6.89459,13.29049z" fill="#ffffff" stroke="#282828"/><path d="M553.32747,281.91015l2.82855,-5.4525l23.622,1.46901l-2.82855,5.45251z" fill="#3b3b3b" stroke="none"/><path d="M560.99682,278.22441c-2.46062,-0.15302 -2.01866,-1.00498 -2.01866,-1.00498l0.23958,-0.31565c1.39226,-1.052 3.74295,-2.59783 7.33266,-2.94389c4.05638,-0.39105 8.45556,0.81866 9.68539,2.03497c0.96345,0.95285 0.38751,1.97712 0.13349,2.93661c0,0 -0.2361,0.86173 -2.72492,0.77998c-2.48882,-0.08175 -2.25274,-0.94347 -2.25274,-0.94347c0.21261,-0.74734 0.66675,-1.47908 0.10165,-2.22474c-0.29208,-0.3854 -2.34882,-1.06563 -3.68955,-0.90745c-1.87699,0.22144 -3.31766,1.41971 -4.02605,1.97814l0.12173,-0.08846c0,0 -0.44196,0.85195 -2.90258,0.69893z" fill="#3b3b3b" stroke="none"/></g><path d="M379.44809,267.71132l11.36288,-21.97241l200.4746,12.21044l-11.36288,21.9724z" fill="#505050" stroke="#282828" stroke-width="3" stroke-linecap="butt"/><path d="M389.02,266.54506c-1.35906,-0.08278 -2.26342,-0.53157 -2.01993,-1.0024c0.24348,-0.47084 1.54261,-0.78541 2.90168,-0.70263c1.35906,0.08278 2.26344,0.53157 2.01995,1.0024c-0.24348,0.47084 -1.54262,0.78541 -2.90169,0.70263z" fill="#282828" stroke="none" stroke-width="0.5" stroke-linecap="butt"/><path d="M527.6097,272.11362l6.87763,-13.29927l42.81823,2.60796l-6.87762,13.29928z" fill="#ffffff" stroke="#282828" stroke-width="2.5" stroke-linecap="butt"/><path d="M539.33689,270.17463l2.82159,-5.4561l23.62386,1.43887l-2.82159,5.45611z" fill="#3b3b3b" stroke="none" stroke-width="0" stroke-linecap="butt"/><path d="M547.00153,266.47909c-2.46081,-0.14988 -2.01994,-1.0024 -2.01994,-1.0024l0.23918,-0.31596c1.39091,-1.05377 3.73963,-2.6026 7.32889,-2.95324c4.05588,-0.39622 8.45659,0.80787 9.68798,2.02262c0.96466,0.95162 0.39003,1.97663 0.13723,2.93644c0,0 -0.23501,0.86203 -2.72393,0.78346c-2.48892,-0.07857 -2.25394,-0.9406 -2.25394,-0.9406c0.21165,-0.74761 0.66486,-1.47992 0.09881,-2.22486c-0.29257,-0.38503 -2.35018,-1.06263 -3.6907,-0.90275c-1.87671,0.22384 -3.31584,1.42395 -4.02352,1.98329l0.12162,-0.08862c0,0 -0.44088,0.85251 -2.90169,0.70263z" fill="#3b3b3b" stroke="none" stroke-width="0.5" stroke-linecap="butt"/><g stroke-linecap="butt"><g stroke-width="2.5"><path d="M-6.90742,497.90913l-34.91759,0.87558l106.93489,-220.51924l34.91759,-0.87557z" fill="#505050" stroke="#282828"/><path d="M90.02716,289.76257c-0.74823,0.01876 -0.76711,-1.17793 -0.04216,-2.67289c0.72494,-1.49496 1.91918,-2.72207 2.6674,-2.74083c0.74823,-0.01876 0.76711,1.17793 0.04216,2.67288c-0.72494,1.49496 -1.91918,2.72208 -2.6674,2.74084z" fill="#282828" stroke="none"/><path d="M-8.40959,493.40108c-0.74822,0.01876 -0.7671,-1.17793 -0.04216,-2.67289c0.72494,-1.49496 1.91918,-2.72208 2.6674,-2.74084c0.74822,-0.01876 0.7671,1.17793 0.04216,2.67289c-0.72494,1.49496 -1.91918,2.72208 -2.6674,2.74083z" fill="#282828" stroke="none"/><path d="M-7.72742,485.09473l-21.13462,0.52996l22.83962,-47.09946l21.13463,-0.52996z" fill="#ffffff" stroke="#282828"/><path d="M-7.1225,475.52019l-8.67062,0.21742l12.60118,-25.98591l8.67061,-0.21742z" fill="#3b3b3b" stroke="none"/><path d="M-3.90924,455.83063c-1.31262,2.70686 -2.6674,2.74083 -2.6674,2.74083l0.18714,-0.08453c-1.14451,0.46947 -3.55175,1.39209 -4.98332,3.28302c-1.02257,1.35069 -1.41695,3.89726 -1.10548,4.4074c0.60263,0.98701 1.8119,0.87821 2.89308,1.03542c0,0 1.2411,0.19095 -0.17949,2.89128c-1.42059,2.70033 -2.6617,2.50939 -2.6617,2.50939c-1.37649,-0.22206 -3.0326,-0.13359 -3.65485,-1.65261c-0.7943,-1.93901 0.36131,-7.2598 3.34374,-11.39132c2.63932,-3.6562 6.04625,-5.37208 8.23771,-6.3182l0.54841,-0.09358c0,0 1.35478,-0.03398 0.04216,2.67288z" fill="#3b3b3b" stroke="none"/></g><path d="M-65.8102,501.14292l-34.58272,-4.14315l150.23056,-201.94894l34.58273,4.14315z" fill="#505050" stroke="#282828" stroke-width="3"/><path d="M72.04964,309.95122c-0.74105,-0.08878 -0.51617,-1.2706 0.50228,-2.63966c1.01844,-1.36906 2.44481,-2.40695 3.18586,-2.31815c0.74105,0.08878 0.51618,1.2706 -0.50227,2.63966c-1.01844,1.36906 -2.44482,2.40695 -3.18586,2.31816z" fill="#282828" stroke="none" stroke-width="0.5"/><path d="M-66.37309,496.48575c-0.74105,-0.08878 -0.51617,-1.2706 0.50228,-2.63966c1.01844,-1.36906 2.44482,-2.40695 3.18586,-2.31816c0.74105,0.08878 0.51617,1.2706 -0.50229,2.63966c-1.01844,1.36906 -2.44481,2.40695 -3.18586,2.31815z" fill="#282828" stroke="none" stroke-width="0.5"/><path d="M-64.01094,488.39924l-20.93194,-2.50773l32.08689,-43.13313l20.93194,2.50772z" fill="#ffffff" stroke="#282828" stroke-width="2.5"/><path d="M-61.46687,479.05209l-8.58746,-1.02881l17.70312,-23.79759l8.58745,1.02881z" fill="#3b3b3b" stroke="none" stroke-width="0"/><path d="M-54.29479,460.11247c-1.84407,2.47891 -3.18585,2.31816 -3.18585,2.31816l0.20158,-0.05647c-1.22321,0.2985 -3.78279,0.86245 -5.57807,2.52037c-1.28236,1.18425 -2.18908,3.63687 -1.98597,4.18417c0.39297,1.0589 1.6066,1.12506 2.63991,1.43496c0,0 1.18401,0.36608 -0.76512,2.82307c-1.94913,2.457 -3.13316,2.09094 -3.13316,2.09094c-1.31109,-0.41613 -2.96086,-0.56639 -3.2649,-2.15231c-0.38811,-2.02441 1.83307,-7.10134 5.61228,-10.74459c3.34443,-3.22411 7.05042,-4.42635 9.40218,-5.04439l0.55939,-0.01359c0,0 1.34179,0.16076 -0.50228,2.63967z" fill="#3b3b3b" stroke="none" stroke-width="0.5"/></g><g data-paper-data="{&quot;index&quot;:null}" stroke-linecap="butt"><g stroke-width="2.5"><path d="M349.68728,312.68251l32.82837,-11.92908l180.04332,166.27751l-32.82837,11.92908z" fill="#505050" stroke="#282828"/><path d="M360.02977,318.97353c-1.22056,-1.12724 -1.63975,-2.24827 -0.9363,-2.50389c0.70345,-0.25562 2.26318,0.45097 3.48374,1.5782c1.22056,1.12724 1.63976,2.24827 0.9363,2.50389c-0.70345,0.25562 -2.26319,-0.45097 -3.48374,-1.57821z" fill="#282828" stroke="none"/><path d="M526.00004,472.63649c-1.22056,-1.12724 -1.63976,-2.24827 -0.9363,-2.50389c0.70345,-0.25562 2.26319,0.45097 3.48374,1.57821c1.22056,1.12724 1.63976,2.24827 0.9363,2.50388c-0.70345,0.25562 -2.26318,-0.45097 -3.48374,-1.5782z" fill="#282828" stroke="none"/><path d="M487.36259,431.21607l19.87008,-7.22034l38.45443,35.51427l-19.87008,7.22034z" fill="#ffffff" stroke="#282828"/><path d="M500.54306,438.443l8.15182,-2.96218l21.21624,19.59408l-8.15183,2.96219z" fill="#3b3b3b" stroke="none"/><path d="M511.58141,440.87857c-2.21002,-2.04105 -0.9363,-2.50388 -0.9363,-2.50388l0.54473,-0.11303c2.3856,0.08101 6.18376,0.43505 9.97545,2.87573c4.28462,2.75797 7.30249,7.28993 7.27069,9.38508c-0.0249,1.64134 -1.59906,2.16342 -2.79954,2.87256c0,0 -1.0858,0.63074 -3.39396,-1.36481c-2.30816,-1.99556 -1.22237,-2.62631 -1.22237,-2.62631c0.94922,-0.54097 2.11477,-0.88103 2.31559,-2.01991c0.10379,-0.58863 -1.19284,-2.81558 -2.63784,-3.69988c-2.02297,-1.23799 -4.60088,-1.21836 -5.83779,-1.23772l0.20508,0.0104c0,0 -1.27372,0.46284 -3.48374,-1.5782z" fill="#3b3b3b" stroke="none"/></g><path d="M372.1758,327.28614l30.68486,-16.47937l213.57443,133.18619l-30.68486,16.47937z" fill="#505050" stroke="#282828" stroke-width="3"/><path d="M383.80715,331.79076c-1.44787,-0.9029 -2.08858,-1.92111 -1.43105,-2.27424c0.65752,-0.35313 2.36429,0.09255 3.81216,0.99546c1.44787,0.9029 2.08858,1.92112 1.43106,2.27424c-0.65752,0.35313 -2.3643,-0.09256 -3.81217,-0.99547z" fill="#282828" stroke="none" stroke-width="0.5"/><path d="M580.76235,454.93553c-1.44787,-0.9029 -2.08859,-1.92112 -1.43106,-2.27424c0.65752,-0.35313 2.3643,0.09256 3.81217,0.99546c1.44787,0.9029 2.08858,1.92112 1.43106,2.27424c-0.65752,0.35313 -2.36429,-0.09255 -3.81216,-0.99546z" fill="#282828" stroke="none" stroke-width="0.5"/><path d="M533.80775,420.81798l18.57268,-9.97449l45.61615,28.44648l-18.57268,9.97449z" fill="#ffffff" stroke="#282828" stroke-width="2.5"/><path d="M548.47627,425.79605l7.61955,-4.09209l25.16754,15.69461l-7.61956,4.0921z" fill="#3b3b3b" stroke="none" stroke-width="0"/><path d="M560.05389,426.47526c-2.62161,-1.63485 -1.43106,-2.27424 -1.43106,-2.27424l0.52576,-0.19151c2.4151,-0.28294 6.30422,-0.51625 10.59468,1.26479c4.84822,2.01258 8.76916,5.92859 9.14669,7.955c0.29576,1.58747 -1.18537,2.32951 -2.25412,3.19546c0,0 -0.96875,0.77295 -3.68017,-0.80316c-2.71142,-1.57611 -1.74271,-2.34907 -1.74271,-2.34907c0.84892,-0.66566 1.95469,-1.1702 1.93407,-2.29948c-0.01067,-0.58368 -1.74999,-2.53616 -3.37612,-3.17068c-2.27654,-0.88831 -4.86537,-0.47915 -6.11315,-0.31061l0.20828,-0.021c0,0 -1.19055,0.63938 -3.81216,-0.99547z" fill="#3b3b3b" stroke="none" stroke-width="0.5"/></g><path d="M608.34401,254.43201c-1.35343,0.14882 -2.32079,-0.14015 -2.16064,-0.64544c0.16013,-0.50529 1.38714,-1.03557 2.74057,-1.18439c1.35343,-0.14882 2.32079,0.14016 2.16064,0.64545c-0.16013,0.50529 -1.38713,1.03556 -2.74056,1.18438z" fill="#282828" stroke="none" stroke-width="0.5" stroke-linecap="butt"/><path d="M154.5,234l9.66667,-7.66667l140,-1.33333l12.66667,9.33333z" fill="#4e493d" stroke="none" stroke-width="0" stroke-linecap="butt"/></g></g></svg>